<svg width="130.000000" height="40.000000" viewBox="0 0 130 40" fill="none" xmlns="http://www.w3.org/2000/svg" xmlns:xlink="http://www.w3.org/1999/xlink">
	<desc>
			Created with Pixso.
	</desc>
	<defs>
		<clipPath id="clip22_10127">
			<rect width="130.000000" height="40.000000" fill="white" fill-opacity="0"/>
		</clipPath>
	</defs>
	<rect width="130.000000" height="40.000000" fill="#FFFFFF" fill-opacity="0"/>
	<g clip-path="url(#clip22_10127)">
		<path d="M37.26 28.34C37.06 27.86 36.87 27.34 36.66 26.91L35.72 24.82L35.68 24.78C32.88 18.78 29.88 12.68 26.71 6.68L26.58 6.43C26.26 5.84 25.94 5.19 25.61 4.59C25.2 3.88 24.81 3.12 24.16 2.39C23.53 1.64 22.73 1.02 21.82 0.6C20.92 0.19 19.93 -0.03 18.93 -0.03C17.93 -0.03 16.95 0.19 16.04 0.6C15.14 1.02 14.34 1.64 13.71 2.39C13.11 3.12 12.66 3.88 12.26 4.59C11.94 5.24 11.62 5.88 11.29 6.47L11.16 6.72C8.04 12.72 4.99 18.82 2.19 24.82L2.11 24.89C1.83 25.54 1.5 26.22 1.18 26.94C0.98 27.38 0.77 27.86 0.57 28.38C0.02 29.76 -0.16 31.25 0.06 32.71C0.27 34.17 0.87 35.55 1.8 36.72C2.73 37.88 3.95 38.79 5.34 39.35C6.73 39.91 8.25 40.11 9.74 39.92C11.18 39.73 12.56 39.27 13.8 38.54C15.45 37.63 17.05 36.31 18.83 34.39C20.62 36.31 22.25 37.63 23.87 38.56C25.42 39.45 27.19 39.95 28.99 39.99C31.08 40 33.1 39.27 34.68 37.93C36.26 36.59 37.3 34.74 37.59 32.71C37.93 31.25 37.82 29.72 37.26 28.33L37.26 28.34ZM18.96 30.42C16.77 27.67 15.34 25.14 14.86 22.98C14.65 22.18 14.61 21.35 14.73 20.53C14.82 19.89 15.06 19.33 15.39 18.86C16.16 17.77 17.49 17.09 18.96 17.09C19.66 17.07 20.35 17.22 20.97 17.53C21.59 17.83 22.13 18.29 22.53 18.84C22.86 19.34 23.1 19.89 23.18 20.53C23.31 21.26 23.25 22.09 23.05 22.98C22.57 25.11 21.14 27.66 18.96 30.42ZM35.2 32.27C35.05 33.3 34.63 34.27 33.99 35.1C33.34 35.92 32.48 36.56 31.5 36.96C30.53 37.36 29.46 37.47 28.42 37.36C27.4 37.23 26.38 36.91 25.33 36.31C23.6 35.26 22.04 33.95 20.71 32.43C23.38 29.18 25 26.22 25.61 23.58C25.91 22.33 25.94 21.21 25.82 20.17C25.66 19.19 25.28 18.25 24.72 17.42C24.08 16.52 23.22 15.79 22.22 15.29C21.22 14.8 20.12 14.55 19 14.57C16.64 14.57 14.54 15.64 13.26 17.41C12.69 18.23 12.32 19.18 12.18 20.17C12.01 21.22 12.05 22.38 12.38 23.58C12.99 26.22 14.65 29.22 17.29 32.46C15.98 34 14.42 35.32 12.66 36.36C11.61 36.96 10.6 37.27 9.58 37.39C7.99 37.59 6.39 37.17 5.12 36.22C3.85 35.27 3.02 33.86 2.8 32.31C2.67 31.31 2.76 30.31 3.17 29.18C3.3 28.78 3.49 28.38 3.69 27.91C3.97 27.26 4.3 26.58 4.62 25.91L4.67 25.82C7.43 19.86 10.43 13.77 13.56 7.81L13.68 7.56C14 6.96 14.32 6.32 14.65 5.72C14.98 5.08 15.34 4.47 15.8 3.97C16.2 3.5 16.69 3.13 17.25 2.87C17.81 2.62 18.42 2.48 19.04 2.48C19.66 2.48 20.27 2.62 20.83 2.87C21.39 3.13 21.89 3.5 22.29 3.97C22.73 4.47 23.1 5.08 23.43 5.72C23.75 6.32 24.07 6.97 24.4 7.56L24.53 7.81C27.64 13.77 30.65 19.86 33.45 25.82L33.49 25.86C33.82 26.51 34.1 27.23 34.42 27.86C34.62 28.34 34.83 28.73 34.95 29.14C35.2 30.27 35.32 31.27 35.2 32.27ZM52.94 30.14C51.98 30.16 51.03 29.96 50.15 29.56C49.28 29.17 48.51 28.58 47.9 27.86C46.53 26.31 45.8 24.31 45.86 22.26C45.84 20.16 46.59 18.13 47.98 16.53C48.62 15.8 49.42 15.21 50.32 14.8C51.22 14.4 52.19 14.2 53.18 14.21C54.11 14.18 55.03 14.39 55.85 14.81C56.68 15.23 57.38 15.85 57.9 16.61L58.02 14.64L61.74 14.64L61.74 29.74L58.01 29.74L57.88 27.54C57.35 28.36 56.62 29.02 55.75 29.48C54.89 29.93 53.92 30.16 52.94 30.14ZM53.91 26.54C54.65 26.54 55.3 26.34 55.91 25.98C56.47 25.58 56.93 25.06 57.28 24.42C57.6 23.78 57.77 23.02 57.77 22.17C57.82 21.43 57.67 20.69 57.34 20.03C57.01 19.36 56.52 18.79 55.89 18.37C55.3 18 54.61 17.81 53.91 17.81C53.2 17.81 52.51 18 51.92 18.37C51.36 18.77 50.9 19.29 50.54 19.93C50.2 20.64 50.04 21.41 50.06 22.18C50.01 22.92 50.15 23.66 50.48 24.32C50.81 24.99 51.31 25.56 51.93 25.98C52.53 26.34 53.18 26.54 53.91 26.54ZM68.12 10.57C68.12 11.01 68.04 11.41 67.84 11.73C67.63 12.04 67.35 12.33 66.98 12.53C66.61 12.73 66.22 12.81 65.81 12.81C65.4 12.81 64.99 12.73 64.62 12.53C64.28 12.34 63.98 12.07 63.77 11.73C63.57 11.38 63.48 10.97 63.49 10.57C63.49 10.12 63.58 9.72 63.77 9.41C63.98 9.03 64.27 8.81 64.62 8.61C64.99 8.41 65.39 8.32 65.81 8.32C66.22 8.31 66.62 8.4 66.97 8.59C67.33 8.78 67.63 9.06 67.85 9.39C68.04 9.76 68.13 10.16 68.12 10.57ZM63.78 29.69L63.78 14.62L67.84 14.62L67.84 29.72L63.77 29.72L63.78 29.69ZM78.67 18.57L78.67 18.62C78.48 18.53 78.22 18.49 78.03 18.46C77.78 18.41 77.57 18.41 77.33 18.41C76.2 18.41 75.34 18.73 74.78 19.41C74.17 20.09 73.89 21.06 73.89 22.29L73.89 29.71L69.83 29.71L69.83 14.61L73.56 14.61L73.69 16.89C74.09 16.09 74.58 15.49 75.27 15.04C75.95 14.61 76.76 14.39 77.57 14.42C77.87 14.42 78.15 14.44 78.39 14.49C78.52 14.53 78.59 14.53 78.67 14.57L78.67 18.57ZM80.3 29.69L80.3 8.42L84.35 8.42L84.35 16.54C84.93 15.82 85.58 15.26 86.39 14.82C87.68 14.2 89.15 14.02 90.56 14.32C91.96 14.62 93.23 15.37 94.14 16.46C95.52 18.01 96.25 20.01 96.18 22.07C96.2 24.17 95.45 26.2 94.07 27.79C93.43 28.53 92.63 29.12 91.73 29.52C90.83 29.92 89.85 30.13 88.87 30.12C87.94 30.14 87.02 29.94 86.19 29.52C85.37 29.1 84.66 28.48 84.15 27.72L84.02 29.68L80.3 29.72L80.3 29.69ZM88.14 26.54C88.87 26.54 89.52 26.34 90.13 25.98C90.69 25.58 91.15 25.06 91.5 24.42C91.84 23.78 91.99 23.02 91.99 22.17C91.99 21.33 91.84 20.57 91.5 19.93C91.17 19.32 90.7 18.78 90.13 18.37C89.53 18 88.84 17.81 88.14 17.81C87.44 17.81 86.75 18 86.15 18.37C85.58 18.77 85.13 19.29 84.76 19.93C84.43 20.64 84.26 21.41 84.28 22.18C84.23 22.92 84.37 23.66 84.7 24.32C85.03 24.99 85.53 25.56 86.15 25.98C86.75 26.34 87.4 26.54 88.14 26.54ZM97.71 29.71L97.71 14.61L101.45 14.61L101.57 16.57C102.04 15.82 102.71 15.2 103.5 14.79C104.29 14.37 105.19 14.17 106.09 14.21C107.11 14.19 108.12 14.47 108.99 15.01C109.85 15.55 110.54 16.34 110.95 17.26C111.4 18.21 111.64 19.38 111.64 20.69L111.64 29.74L107.58 29.74L107.58 21.22C107.58 20.17 107.33 19.34 106.85 18.73C106.37 18.13 105.7 17.81 104.86 17.81C104.25 17.81 103.71 17.93 103.24 18.21C102.8 18.49 102.43 18.86 102.15 19.37C101.86 19.89 101.72 20.47 101.74 21.06L101.74 29.71L97.71 29.71ZM113.67 29.71L113.67 8.41L117.73 8.41L117.73 16.53C118.29 15.8 119 15.21 119.83 14.8C120.65 14.39 121.56 14.17 122.49 14.17C123.45 14.16 124.4 14.35 125.27 14.75C126.14 15.15 126.91 15.73 127.52 16.46C128.89 18.01 129.61 20.01 129.55 22.06C129.57 24.15 128.82 26.19 127.43 27.78C126.79 28.52 125.99 29.11 125.1 29.51C124.2 29.91 123.22 30.12 122.23 30.11C121.3 30.13 120.38 29.92 119.56 29.5C118.73 29.08 118.03 28.47 117.52 27.71L117.4 29.67L113.67 29.71ZM121.54 26.54C122.28 26.54 122.93 26.34 123.53 25.98C124.11 25.58 124.55 25.06 124.92 24.42C125.24 23.78 125.41 23.02 125.41 22.17C125.46 21.43 125.31 20.69 124.98 20.03C124.65 19.36 124.15 18.79 123.53 18.37C122.94 18 122.25 17.81 121.54 17.81C120.84 17.81 120.15 18 119.56 18.37C119 18.77 118.54 19.29 118.18 19.93C117.82 20.63 117.66 21.4 117.7 22.18C117.65 22.92 117.79 23.66 118.12 24.32C118.45 24.99 118.95 25.56 119.57 25.98C120.17 26.34 120.78 26.54 121.54 26.54Z" fill="#FF385C" fill-opacity="1.000000" fill-rule="nonzero"/>
	</g>
</svg>
