<svg width="13.000000" height="42.000000" viewBox="0 0 13 42" fill="none" xmlns="http://www.w3.org/2000/svg" xmlns:xlink="http://www.w3.org/1999/xlink">
	<desc>
			Created with Pixso.
	</desc>
	<defs/>
	<path id="Arrow 4" d="M7 37.58L10.94 33.63C11.34 33.24 11.96 33.24 12.36 33.63C12.75 34.03 12.75 34.65 12.36 35.05L6.7 40.7C6.31 41.1 5.68 41.1 5.29 40.7L-0.37 35.05C-0.76 34.65 -0.76 34.03 -0.37 33.63C0.03 33.24 0.65 33.24 1.05 33.63L5 37.58L5 35L7 35L7 37.58ZM7 5L7 0L5 0L5 5L7 5ZM7 25L7 15L5 15L5 25L7 25Z" fill="#C2E6EA" fill-opacity="1.000000" fill-rule="evenodd"/>
</svg>
