<svg width="41.000000" height="42.000000" viewBox="0 0 41 42" fill="none" xmlns="http://www.w3.org/2000/svg" xmlns:xlink="http://www.w3.org/1999/xlink">
	<desc>
			Created with Pixso.
	</desc>
	<defs/>
	<path id="XMLID 100" d="M12.43 1.36L12.28 0.98C12.31 0.98 13.98 0.3 15.62 0L15.68 0.4C14.1 0.68 12.43 1.33 12.43 1.36Z" fill="#2F2D4F" fill-opacity="1.000000" fill-rule="nonzero"/>
	<path id="XMLID 98" d="M30.95 36L30.95 33.5C30.95 33.5 30.95 33.47 30.92 33.47L29.81 33.47C29.41 33.03 28.91 32.66 28.29 32.29C24.77 30.25 19.05 30.25 15.53 32.29C14.82 32.69 14.23 33.19 13.8 33.68L12.9 33.68C12.9 33.68 12.87 33.68 12.87 33.71L12.87 35.97C12.87 37.3 13.76 38.63 15.53 39.65C19.05 41.69 24.77 41.69 28.29 39.65C30.09 38.69 30.95 37.33 30.95 36Z" fill="#2F2D4F" fill-opacity="1.000000" fill-rule="nonzero"/>
	<path id="XMLID 95" d="M21.93 41.42C19.58 41.42 17.23 40.89 15.43 39.87C13.67 38.85 12.68 37.49 12.68 36L12.68 33.53L12.9 33.5L13.7 33.5C14.17 33 14.72 32.54 15.43 32.14C19.02 30.06 24.83 30.06 28.42 32.14C29 32.48 29.5 32.85 29.93 33.28L31.04 33.25L31.17 33.37L31.17 33.47L31.17 35.97C31.17 37.42 30.18 38.82 28.42 39.84C26.62 40.92 24.27 41.42 21.93 41.42ZM13.12 33.93L13.12 36C13.12 37.33 14.01 38.57 15.65 39.53C19.11 41.54 24.77 41.54 28.23 39.53C29.87 38.57 30.77 37.33 30.77 36L30.77 33.68L29.78 33.68L29.71 33.62C29.31 33.22 28.82 32.82 28.23 32.48C24.77 30.46 19.14 30.46 15.65 32.48C14.97 32.88 14.41 33.31 13.98 33.84L13.92 33.9L13.83 33.9L13.12 33.93Z" fill="#2F2D4F" fill-opacity="1.000000" fill-rule="nonzero"/>
	<path id="XMLID 93" d="M21.46 38.94L21.93 35.48L15.8 32.2C15.71 32.26 15.62 32.29 15.53 32.35C14.82 32.75 14.23 33.25 13.8 33.74L12.9 33.74C12.9 33.74 12.87 33.74 12.87 33.77L12.87 36.03C12.87 37.36 13.76 38.69 15.53 39.71C17.2 40.67 19.39 41.2 21.59 41.23C21.49 40.02 21.46 38.94 21.46 38.94Z" fill="#FFFFFF" fill-opacity="1.000000" fill-rule="nonzero"/>
	<path id="XMLID 90" d="M21.83 41.45L21.62 41.45C19.3 41.38 17.1 40.86 15.46 39.9C13.7 38.88 12.71 37.52 12.71 36.03L12.71 33.56L12.93 33.53L13.73 33.53C14.2 33.03 14.75 32.57 15.46 32.17C15.53 32.14 15.59 32.1 15.65 32.07L15.84 31.98L22.17 35.38L21.65 38.97C21.65 39.13 21.68 40.12 21.8 41.2L21.83 41.45ZM13.12 33.93L13.12 36C13.12 37.33 14.01 38.57 15.65 39.53C17.2 40.43 19.2 40.95 21.4 41.01C21.31 39.9 21.28 38.97 21.28 38.94L21.28 38.91L21.28 38.88L21.74 35.54L15.84 32.35L15.8 32.35C15.74 32.38 15.71 32.41 15.65 32.44C14.97 32.85 14.41 33.28 13.98 33.81L13.92 33.87L13.83 33.87L13.12 33.93Z" fill="#2F2D4F" fill-opacity="1.000000" fill-rule="nonzero"/>
	<path id="XMLID 88" d="M38.49 10.11L21.93 10.11L5.36 10.11C5.36 10.11 5.29 26.07 12.9 34.02C13.02 35.26 13.92 36.47 15.56 37.42C19.08 39.47 24.8 39.47 28.32 37.42C29.96 36.47 30.86 35.26 30.98 34.02C38.56 26.07 38.49 10.11 38.49 10.11Z" fill="#C2E6EA" fill-opacity="1.000000" fill-rule="nonzero"/>
	<path id="XMLID 85" d="M21.92 39.16C19.58 39.16 17.23 38.63 15.43 37.61C13.83 36.68 12.84 35.45 12.68 34.11C5.14 26.16 5.14 10.3 5.14 10.11L5.14 9.92L38.68 9.92L38.68 10.11C38.68 10.27 38.65 26.16 31.14 34.11C30.98 35.45 30.02 36.68 28.39 37.61C26.62 38.63 24.27 39.16 21.92 39.16ZM5.57 10.33C5.6 12.18 6.07 26.57 13.05 33.9L13.11 33.96L13.11 34.02C13.24 35.23 14.14 36.37 15.65 37.27C19.11 39.28 24.74 39.28 28.23 37.27C29.75 36.4 30.67 35.23 30.77 34.02L30.77 33.96L30.83 33.9C37.84 26.57 38.28 12.21 38.31 10.33L5.57 10.33Z" fill="#2F2D4F" fill-opacity="1.000000" fill-rule="nonzero"/>
	<path id="XMLID 83" d="M5.36 10.11C5.36 10.11 5.29 26.07 12.9 34.02C13.02 35.26 13.92 36.47 15.56 37.42C18.09 38.88 21.71 39.28 24.89 38.66C25.02 38.41 25.08 38.17 25.14 37.89C25.29 37.15 25.57 36.4 25.97 35.75C31.29 26.66 29.68 12.77 29.31 10.11L21.93 10.11L5.36 10.11Z" fill="#FFFFFF" fill-opacity="1.000000" fill-rule="nonzero"/>
	<path id="XMLID 81" d="M29.19 27.37L28.79 27.28C28.97 26.38 29.13 25.45 29.25 24.49L29.65 24.56C29.5 25.52 29.34 26.47 29.19 27.37Z" fill="#2F2D4F" fill-opacity="1.000000" fill-rule="nonzero"/>
	<path id="XMLID 79" d="M21.96 39.13C19.51 39.13 17.16 38.6 15.43 37.61C13.83 36.68 12.84 35.45 12.68 34.11C5.14 26.16 5.14 10.3 5.14 10.11L5.14 9.92L29.47 9.92L29.5 10.11C29.71 11.6 30.33 16.92 29.81 22.92L29.41 22.89C29.93 17.16 29.34 12.03 29.13 10.36L5.57 10.36C5.6 12.21 6.07 26.6 13.05 33.93L13.11 33.99L13.11 34.05C13.24 35.26 14.14 36.4 15.65 37.3C18.03 38.66 21.71 39.13 25.02 38.48L25.11 38.88C24.06 39.03 23.01 39.13 21.96 39.13Z" fill="#2F2D4F" fill-opacity="1.000000" fill-rule="nonzero"/>
	<path id="XMLID 77" d="M38.49 10.11C38.49 15.41 31.08 19.7 21.93 19.7C12.77 19.7 5.36 15.41 5.36 10.11C5.36 4.81 12.77 0.52 21.93 0.52C31.08 0.52 38.49 4.81 38.49 10.11Z" fill="#C2E6EA" fill-opacity="1.000000" fill-rule="evenodd"/>
	<path id="XMLID 74" d="M21.93 19.89C17.63 19.89 13.36 18.96 10.12 17.07C6.93 15.21 5.17 12.77 5.17 10.11C5.17 7.48 6.93 5.01 10.12 3.15C16.64 -0.62 27.24 -0.62 33.76 3.15C36.95 5.01 38.71 7.45 38.71 10.11C38.71 12.74 36.95 15.21 33.76 17.07C30.49 18.96 26.22 19.89 21.93 19.89ZM21.93 0.74C17.72 0.74 13.52 1.67 10.3 3.52C7.24 5.28 5.54 7.64 5.54 10.11C5.54 12.58 7.24 14.94 10.3 16.7C16.7 20.41 27.15 20.41 33.55 16.7C36.61 14.94 38.31 12.58 38.31 10.11C38.31 7.64 36.61 5.28 33.55 3.52C30.33 1.67 26.13 0.74 21.93 0.74Z" fill="#2F2D4F" fill-opacity="1.000000" fill-rule="nonzero"/>
	<path id="XMLID 72" d="M16.98 18.15C16.42 18.43 15.9 18.71 15.46 18.93C21.49 20.41 28.73 19.73 33.64 16.88C37.44 14.69 39.02 11.69 38.34 8.81L16.98 18.15Z" fill="#FFFFFF" fill-opacity="1.000000" fill-rule="nonzero"/>
	<path id="XMLID 71" d="M21.96 19.92C19.76 19.92 17.54 19.67 15.43 19.14L14.91 19.02L15.37 18.77C15.84 18.52 16.33 18.28 16.89 18L17.07 18.37C16.7 18.56 16.36 18.74 16.05 18.9C22.11 20.26 28.94 19.42 33.58 16.76C37.2 14.69 38.86 11.81 38.18 8.9L38.59 8.81C39.33 11.9 37.57 14.94 33.8 17.1C30.55 18.93 26.28 19.92 21.96 19.92Z" fill="#2F2D4F" fill-opacity="1.000000" fill-rule="nonzero"/>
	<path id="XMLID 69" d="M32.47 4.33C33.36 4.29 34.23 4.29 35.09 4.29C34.66 3.95 34.17 3.65 33.64 3.34C27.18 -0.41 16.67 -0.41 10.21 3.34C5.85 5.84 4.43 9.43 5.94 12.62C6.28 12.4 6.65 12.21 7.03 12L32.47 4.33Z" fill="#FFFFFF" fill-opacity="1.000000" fill-rule="nonzero"/>
	<path id="XMLID 68" d="M5.85 12.93L5.76 12.74C4.15 9.34 5.82 5.66 10.12 3.18C16.64 -0.59 27.24 -0.59 33.76 3.18C34.26 3.46 34.75 3.8 35.22 4.14L35.71 4.51L35.09 4.51C34.2 4.51 33.33 4.51 32.47 4.54L32.47 4.14C33.12 4.11 33.8 4.11 34.48 4.11C34.17 3.89 33.86 3.71 33.55 3.52C27.15 -0.19 16.7 -0.19 10.3 3.52C6.31 5.84 4.68 9.18 6.04 12.34C6.31 12.18 6.62 12 6.93 11.81L7.12 12.15C6.75 12.37 6.38 12.58 6.04 12.77L5.85 12.93Z" fill="#2F2D4F" fill-opacity="1.000000" fill-rule="nonzero"/>
	<path id="XMLID 66" d="M31.48 5.04C26.19 2.22 17.66 2.22 12.37 5.04C7.12 7.85 7.12 12.4 12.37 15.21C17.66 18.03 26.19 18.03 31.48 15.21C36.76 12.4 36.76 7.85 31.48 5.04Z" fill="#C2E6EA" fill-opacity="1.000000" fill-rule="nonzero"/>
	<path id="XMLID 63" d="M21.92 17.5C18.43 17.5 14.94 16.79 12.28 15.37C9.65 13.98 8.23 12.12 8.23 10.11C8.23 8.1 9.68 6.24 12.28 4.85C17.6 2.01 26.25 2.01 31.57 4.85C34.2 6.24 35.62 8.1 35.62 10.11C35.62 12.12 34.17 13.98 31.57 15.37C28.91 16.79 25.42 17.5 21.92 17.5ZM21.92 3.12C18.49 3.12 15.06 3.8 12.47 5.19C9.99 6.52 8.6 8.25 8.6 10.11C8.6 11.97 9.96 13.7 12.47 15.03C17.69 17.81 26.16 17.81 31.38 15.03C33.86 13.7 35.25 11.97 35.25 10.11C35.25 8.25 33.89 6.52 31.38 5.19C28.79 3.83 25.36 3.12 21.92 3.12Z" fill="#2F2D4F" fill-opacity="1.000000" fill-rule="nonzero"/>
	<path id="XMLID 61" d="M31.48 9.4C26.19 6.58 17.66 6.58 12.37 9.4C10.8 10.23 9.68 11.22 9.07 12.31C9.68 13.36 10.8 14.35 12.37 15.21C17.66 18.03 26.19 18.03 31.48 15.21C33.05 14.38 34.17 13.39 34.78 12.31C34.17 11.25 33.05 10.23 31.48 9.4Z" fill="#2F2D4F" fill-opacity="1.000000" fill-rule="nonzero"/>
	<path id="XMLID 58" d="M21.92 17.5C18.43 17.5 14.94 16.79 12.28 15.37C10.7 14.53 9.56 13.54 8.88 12.4L8.82 12.31L8.88 12.21C9.56 11.07 10.7 10.08 12.28 9.24C17.6 6.4 26.25 6.4 31.57 9.24C33.15 10.08 34.29 11.07 34.97 12.21L35.03 12.31L34.97 12.4C34.29 13.54 33.15 14.53 31.57 15.37C28.91 16.79 25.42 17.5 21.92 17.5ZM9.31 12.31C9.96 13.33 11.04 14.26 12.5 15.03C17.72 17.81 26.19 17.81 31.41 15.03C32.84 14.26 33.95 13.33 34.6 12.31C33.95 11.29 32.87 10.36 31.41 9.58C26.19 6.8 17.72 6.8 12.5 9.58C11.04 10.36 9.93 11.29 9.31 12.31Z" fill="#2F2D4F" fill-opacity="1.000000" fill-rule="nonzero"/>
	<path id="XMLID 56" d="M10.55 30.22L11.72 30.06C11.76 30.06 11.79 30 11.76 30L9.65 28.33L3.93 25.98C3.78 25.92 3.59 25.82 3.47 25.73C3.66 24.96 4 23.69 4.03 23.66C4.06 23.63 7.49 20.41 7.49 20.41L8.2 19.7L9.16 18.77L6.96 17.07L4.21 18.18C2.98 18.68 1.77 19.79 1 21.15C0.16 22.61 -0.05 24.12 0.41 25.21C0.75 25.98 1.21 26.6 1.8 27.09L3.93 28.76L4.31 28.36L10.92 31.08L10.55 30.22Z" fill="#FFFFFF" fill-opacity="1.000000" fill-rule="nonzero"/>
	<path id="XMLID 53" d="M11.38 31.45L4.43 28.58L4.03 29.01L1.71 27.22C1.09 26.69 0.6 26.01 0.26 25.24C-0.24 24.09 -0.02 22.51 0.84 21C1.65 19.61 2.88 18.46 4.15 17.97L6.99 16.82L9.34 18.65L9.34 18.83L9.28 18.9L7.58 20.53C6.69 21.37 4.4 23.5 4.12 23.78C4.09 23.91 3.93 24.46 3.62 25.64C3.72 25.7 3.84 25.73 3.93 25.79L9.75 28.14L11.85 29.82C11.91 29.88 11.97 29.97 11.94 30.06C11.91 30.16 11.85 30.22 11.75 30.25L10.83 30.37L11.38 31.45ZM4.31 28.08L10.55 30.65L10.24 30.03L11.32 29.88L9.53 28.48L3.87 26.16C3.72 26.1 3.53 26.01 3.38 25.92L3.25 25.82L3.29 25.67C3.84 23.6 3.84 23.57 3.9 23.54C3.93 23.47 6.1 21.46 7.4 20.26L8.91 18.77L6.99 17.26L4.34 18.34C3.13 18.83 1.99 19.89 1.21 21.22C0.41 22.61 0.19 24.06 0.63 25.08C0.94 25.82 1.4 26.41 1.96 26.91L3.93 28.45L4.31 28.08Z" fill="#2F2D4F" fill-opacity="1.000000" fill-rule="nonzero"/>
	<path id="XMLID 51" d="M13.12 32.72C13.12 32.75 13.12 32.78 13.08 32.75L5.36 29.6C4.12 29.1 3.19 28.18 2.64 26.91C2.17 25.82 2.39 24.31 3.22 22.85C4 21.49 5.2 20.41 6.44 19.89L9.16 18.77L9.19 20.94L7.18 21.74C6.38 22.08 5.51 22.89 4.95 23.84C4.4 24.83 4.31 25.67 4.46 26.07C4.8 26.85 5.33 27.4 6.07 27.68L11.75 30.03C11.75 30.03 11.79 30.03 11.79 30.06L13.12 32.72Z" fill="#C2E6EA" fill-opacity="1.000000" fill-rule="nonzero"/>
	<path id="XMLID 48" d="M13.08 32.94C13.05 32.94 13.02 32.94 12.99 32.91L5.26 29.75C4 29.26 3.01 28.27 2.42 26.94C1.96 25.82 2.17 24.22 3.04 22.73C3.84 21.34 5.08 20.19 6.35 19.7L9.19 18.56L9.37 18.68L9.37 18.8L9.41 21.12L7.27 21.99C6.5 22.3 5.66 23.07 5.14 24C4.61 24.93 4.52 25.7 4.68 26.04C4.99 26.78 5.48 27.28 6.16 27.53L11.91 29.91L11.97 30L13.27 32.66C13.3 32.75 13.3 32.85 13.24 32.91C13.21 32.94 13.15 32.94 13.08 32.94ZM9 19.05L6.53 20.04C5.33 20.53 4.18 21.59 3.41 22.92C2.6 24.31 2.39 25.76 2.82 26.78C3.35 28.02 4.24 28.92 5.45 29.38L12.74 32.38L11.66 30.19L6.04 27.87C5.26 27.56 4.68 26.97 4.34 26.16C4.15 25.76 4.18 24.87 4.83 23.75C5.42 22.76 6.28 21.93 7.15 21.59L9.03 20.81L9 19.05Z" fill="#2F2D4F" fill-opacity="1.000000" fill-rule="nonzero"/>
	<path id="XMLID 44" d="M26.01 11.94C23.53 13.36 22.91 15.46 24.15 17.19C26.84 16.95 29.41 16.3 31.48 15.18C33.05 14.35 34.17 13.36 34.78 12.28C34.41 11.66 33.89 11.1 33.24 10.54C30.67 10.33 27.98 10.79 26.01 11.94Z" fill="#C2E6EA" fill-opacity="1.000000" fill-rule="nonzero"/>
	<path id="XMLID 41" d="M24.06 17.41L24 17.32C23.41 16.48 23.22 15.59 23.41 14.72C23.66 13.57 24.52 12.55 25.91 11.78C27.86 10.67 30.55 10.14 33.27 10.39L33.33 10.39L33.39 10.42C34.07 10.98 34.6 11.6 35 12.21L35.06 12.31L35 12.4C34.32 13.54 33.18 14.53 31.6 15.37C29.59 16.45 27.03 17.13 24.18 17.38L24.06 17.41ZM26.1 12.09C24.83 12.83 24.03 13.76 23.81 14.78C23.66 15.52 23.81 16.27 24.27 16.98C26.99 16.73 29.47 16.05 31.41 15C32.87 14.22 33.95 13.3 34.6 12.28C34.26 11.75 33.8 11.22 33.21 10.73C30.58 10.54 27.92 11.04 26.1 12.09Z" fill="#2F2D4F" fill-opacity="1.000000" fill-rule="nonzero"/>
	<path id="XMLID 37" d="M18.18 13.27C17.23 13.27 16.27 13.05 15.56 12.65C14.82 12.21 14.41 11.66 14.41 11.04C14.41 10.42 14.82 9.86 15.56 9.43C17.01 8.59 19.36 8.59 20.81 9.43C21.55 9.86 21.96 10.42 21.96 11.04C21.96 11.66 21.55 12.21 20.81 12.65C20.1 13.08 19.14 13.27 18.18 13.27ZM18.18 9.12C17.29 9.12 16.39 9.31 15.71 9.71C15.09 10.08 14.72 10.54 14.72 11.04C14.72 11.53 15.06 12.03 15.71 12.37C17.07 13.14 19.3 13.14 20.66 12.37C21.28 12 21.65 11.53 21.65 11.04C21.65 10.54 21.31 10.05 20.66 9.71C19.98 9.31 19.08 9.12 18.18 9.12Z" fill="#C2E6EA" fill-opacity="1.000000" fill-rule="nonzero"/>
	<path id="XMLID 33" d="M15.43 14.16C14.91 14.16 14.38 14.04 14.01 13.82C13.61 13.57 13.36 13.27 13.36 12.89C13.36 12.55 13.58 12.21 14.01 11.97C14.81 11.5 16.08 11.5 16.89 11.97C17.29 12.21 17.54 12.52 17.54 12.89C17.54 13.23 17.32 13.57 16.89 13.82C16.45 14.07 15.96 14.16 15.43 14.16ZM15.43 11.97C14.97 11.97 14.51 12.06 14.17 12.28C13.86 12.46 13.67 12.68 13.67 12.93C13.67 13.17 13.86 13.39 14.17 13.57C14.88 13.98 16.02 13.98 16.73 13.57C17.04 13.39 17.23 13.17 17.23 12.93C17.23 12.68 17.04 12.46 16.73 12.28C16.36 12.06 15.9 11.97 15.43 11.97Z" fill="#C2E6EA" fill-opacity="1.000000" fill-rule="nonzero"/>
	<path id="XMLID 31" d="M30.55 10.57C31.32 11.01 31.32 11.75 30.55 12.18C29.78 12.62 28.54 12.62 27.77 12.18C26.99 11.75 26.99 11.01 27.77 10.57C28.54 10.11 29.78 10.11 30.55 10.57Z" fill="#2F2D4F" fill-opacity="1.000000" fill-rule="nonzero"/>
	<path id="XMLID 29" d="M32.13 19.02L32.03 18.62C32.06 18.62 35.09 17.78 37.44 15C38.43 13.82 39.17 12.46 39.67 10.98L40.04 11.1C39.54 12.65 38.77 14.07 37.75 15.28C35.28 18.18 32.25 18.99 32.13 19.02Z" fill="#2F2D4F" fill-opacity="1.000000" fill-rule="nonzero"/>
	<path id="XMLID 27" d="M4.71 26.29L5.54 27.4L11.38 29.85L9.62 28.3L4.71 26.29Z" fill="#2F2D4F" fill-opacity="1.000000" fill-rule="nonzero"/>
	<path id="XMLID 25" d="M28.01 12.93C28.01 14.29 26.09 15.4 23.72 15.4C21.34 15.4 19.42 14.29 19.42 12.93C19.42 11.56 21.34 10.45 23.72 10.45C26.09 10.45 28.01 11.56 28.01 12.93Z" fill="#C2E6EA" fill-opacity="1.000000" fill-rule="evenodd"/>
	<path id="XMLID 22" d="M23.72 15.59C22.57 15.59 21.46 15.34 20.6 14.84C19.73 14.35 19.24 13.67 19.24 12.93C19.24 12.18 19.73 11.5 20.6 11.01C22.33 10.02 25.14 10.02 26.87 11.01C27.74 11.5 28.23 12.18 28.23 12.93C28.23 13.67 27.74 14.35 26.87 14.84C25.97 15.34 24.83 15.59 23.72 15.59ZM23.72 10.64C22.67 10.64 21.58 10.88 20.78 11.35C20.04 11.78 19.64 12.34 19.64 12.93C19.64 13.51 20.04 14.07 20.78 14.5C22.39 15.43 25.05 15.43 26.65 14.5C27.4 14.07 27.8 13.51 27.8 12.93C27.8 12.34 27.4 11.78 26.65 11.35C25.82 10.85 24.77 10.64 23.72 10.64Z" fill="#2F2D4F" fill-opacity="1.000000" fill-rule="nonzero"/>
	<path id="XMLID 20" d="M9.19 12.24C9.31 12.46 9.5 12.68 9.65 12.93C10.21 12.8 10.77 12.62 11.2 12.34C12.5 11.6 12.78 10.48 12.1 9.58C10.77 10.36 9.78 11.29 9.19 12.24Z" fill="#C2E6EA" fill-opacity="1.000000" fill-rule="nonzero"/>
	<path id="XMLID 17" d="M9.59 13.14L9.53 13.05C9.34 12.8 9.16 12.59 9.03 12.37L8.97 12.24L9.03 12.15C9.65 11.13 10.64 10.2 12.03 9.4L12.19 9.31L12.28 9.46C12.62 9.92 12.77 10.42 12.65 10.91C12.53 11.53 12.06 12.09 11.32 12.52C10.86 12.8 10.33 12.99 9.71 13.11L9.59 13.14ZM9.44 12.24C9.53 12.4 9.62 12.52 9.75 12.68C10.27 12.55 10.73 12.37 11.14 12.15C11.75 11.78 12.16 11.32 12.28 10.82C12.34 10.48 12.28 10.14 12.06 9.83C10.89 10.54 9.99 11.38 9.44 12.24Z" fill="#2F2D4F" fill-opacity="1.000000" fill-rule="nonzero"/>
	<path id="XMLID 15" d="M31.38 12.52C29.96 13.36 29.75 14.63 30.77 15.59C31.01 15.46 31.26 15.37 31.48 15.21C33.05 14.38 34.17 13.39 34.78 12.31C34.69 12.12 34.57 11.97 34.41 11.78C33.33 11.81 32.22 12.06 31.38 12.52Z" fill="#C2E6EA" fill-opacity="1.000000" fill-rule="nonzero"/>
	<path id="XMLID 12" d="M30.7 15.83L30.61 15.74C30.12 15.28 29.87 14.69 29.93 14.1C29.99 13.45 30.49 12.83 31.26 12.37C32.1 11.87 33.21 11.63 34.38 11.63L34.41 11.63L34.51 11.63L34.57 11.72C34.72 11.9 34.85 12.09 34.94 12.24L35 12.34L34.94 12.43C34.26 13.57 33.12 14.56 31.54 15.4C31.32 15.52 31.07 15.65 30.8 15.77L30.7 15.83ZM34.32 12C33.24 12 32.22 12.24 31.48 12.71C30.8 13.11 30.39 13.61 30.33 14.13C30.27 14.53 30.46 14.97 30.8 15.34C31.01 15.25 31.2 15.15 31.38 15.06C32.81 14.29 33.92 13.36 34.57 12.34C34.51 12.21 34.41 12.12 34.32 12Z" fill="#2F2D4F" fill-opacity="1.000000" fill-rule="nonzero"/>
	<path id="XMLID 10" d="M27.3 37.95L27.61 37.95L27.61 39.93L27.3 39.93L27.3 37.95Z" fill="#C2E6EA" fill-opacity="1.000000" fill-rule="evenodd"/>
	<path id="XMLID 8" d="M2.02 19.62L2.27 19.31L4.45 21.03L4.2 21.35L2.02 19.62Z" fill="#2F2D4F" fill-opacity="1.000000" fill-rule="evenodd"/>
	<path id="XMLID 6" d="M0.09 24.51L0.34 24.19L2.52 25.92L2.27 26.23L0.09 24.51Z" fill="#2F2D4F" fill-opacity="1.000000" fill-rule="evenodd"/>
	<path id="XMLID 4" d="M37.47 18.83C37.47 18.83 34.48 27.71 30.39 32.2L33.86 30.19C33.86 30.22 37.47 23.23 37.47 18.83Z" fill="#2F2D4F" fill-opacity="1.000000" fill-rule="nonzero"/>
</svg>
