<svg width="240.000000" height="240.000000" viewBox="0 0 240 240" fill="none" xmlns="http://www.w3.org/2000/svg" xmlns:xlink="http://www.w3.org/1999/xlink">
	<desc>
			Created with Pixso.
	</desc>
	<defs>
		<clipPath id="clip22_9493">
			<rect width="171.000000" height="179.000000" transform="translate(34.000000 31.000000)" fill="white" fill-opacity="0"/>
		</clipPath>
	</defs>
	<g opacity="0.500000">
		<circle cx="120.000000" cy="120.000000" r="120.000000" fill="#F2F3F3" fill-opacity="1.000000"/>
	</g>
	<rect width="171.000000" height="179.000000" transform="translate(34.000000 31.000000)" fill="#FFFFFF" fill-opacity="0"/>
	<g clip-path="url(#clip22_9493)">
		<path d="M34.47 116.08L34.63 106.45L113.67 106.45L113.51 115.92C113.51 116.08 113.51 115.92 113.51 116.24C113.35 117.69 112.23 119.13 110.31 120.25L80.94 137.11C76.94 139.36 71.04 139.68 67.68 137.59L36.87 119.77C35.11 118.81 34.31 117.53 34.47 116.08Z" fill="#C2E6EA" fill-opacity="1.000000" fill-rule="nonzero"/>
		<path d="M34.47 116.08L34.63 106.45L113.67 106.45L113.51 115.76C113.51 115.92 113.51 115.76 113.51 116.08C113.35 117.53 112.23 118.97 110.31 120.09L80.94 137.11C76.94 139.36 71.04 139.68 67.68 137.59L36.87 119.77C35.11 118.81 34.31 117.53 34.47 116.08Z" fill="#F2F3F3" fill-opacity="1.000000" fill-rule="nonzero"/>
		<path d="M73.43 139.52C71.2 139.52 68.96 139.04 67.37 138.07L36.55 120.25C34.79 119.29 33.84 117.69 34 116.08L34.15 106.77L114.31 105.97L114.15 115.92C114.15 116.08 114.15 116.08 114.15 116.24C113.99 117.85 112.71 119.45 110.63 120.58L81.1 137.59C78.86 138.88 76.15 139.52 73.43 139.52ZM35.27 106.93L35.11 116.08C34.95 117.36 35.59 118.49 37.19 119.29L68 137.11C71.2 139.04 76.94 138.72 80.78 136.63L110.31 119.45C112.07 118.49 113.19 117.2 113.35 115.92L113.35 115.76L113.51 106.93L35.27 106.93Z" fill="#2F2D4F" fill-opacity="1.000000" fill-rule="nonzero"/>
		<path d="M36.87 110.46L67.68 128.28C71.04 130.21 77.1 130.05 80.94 127.8L110.47 110.62C114.47 108.37 114.79 104.84 111.43 102.92L80.62 84.94C77.26 83.01 71.2 83.17 67.36 85.42L37.83 102.76C34 105 33.52 108.37 36.87 110.46Z" fill="#F2F3F3" fill-opacity="1.000000" fill-rule="nonzero"/>
		<path d="M36.55 113.99L67.36 131.81C70.72 133.74 76.79 133.58 80.62 131.33L110.16 114.15C114.15 111.91 114.47 108.37 111.11 106.45L80.3 88.63C76.94 86.7 70.88 86.86 67.05 89.11L37.51 106.29C33.68 108.54 33.2 112.07 36.55 113.99Z" fill="#C2E6EA" fill-opacity="1.000000" fill-rule="nonzero"/>
		<path d="M73.43 130.21C71.2 130.21 68.96 129.73 67.36 128.76L36.71 110.94C35.11 109.98 34.15 108.7 34.15 107.09C34.15 105.32 35.43 103.56 37.67 102.27L67.21 85.1C71.36 82.69 77.42 82.53 81.1 84.61L111.91 102.43C113.51 103.4 114.47 104.68 114.47 106.29C114.47 108.05 113.19 109.82 110.95 111.1L81.26 128.28C79.02 129.57 76.15 130.21 73.43 130.21ZM74.87 84.13C72.31 84.13 69.76 84.78 67.52 85.9L38.15 103.08C36.23 104.2 35.11 105.65 35.11 106.93C35.11 108.05 35.91 109.02 37.19 109.82L68 127.64C71.2 129.57 76.94 129.24 80.78 127.16L110.31 109.98C112.23 108.86 113.35 107.41 113.35 106.13C113.35 105 112.55 104.04 111.27 103.24L80.46 85.42C79.02 84.61 76.94 84.13 74.87 84.13Z" fill="#2F2D4F" fill-opacity="1.000000" fill-rule="nonzero"/>
		<path d="M73.59 129.73L73.59 139.04L78.22 138.24L83.97 135.5L111.91 118.97L113.67 116.72L113.67 106.45L112.55 109.34L106.64 113.03L78.22 128.92L73.59 129.73Z" fill="#2F2D4F" fill-opacity="1.000000" fill-rule="nonzero"/>
		<path d="M68.96 128.92L68.96 138.39L65.45 136.79L65.45 127.32L68.96 128.92Z" fill="#2F2D4F" fill-opacity="1.000000" fill-rule="nonzero"/>
		<path d="M36.39 110.3L36.39 119.13L34.95 118.17L34 112.07L34.47 106.93L36.39 110.3Z" fill="#2F2D4F" fill-opacity="1.000000" fill-rule="nonzero"/>
		<path d="M98.02 105.65C94.03 104.52 87.64 103.24 83.65 105.49C82.85 105.97 82.21 106.29 81.57 106.61L79.18 105.49C79.18 104.68 78.86 103.72 77.9 102.92L73.11 98.58C72.95 98.42 72.95 98.42 72.79 98.26L72.79 98.42C72.47 98.26 72.15 97.94 71.84 97.78C68.16 95.69 62.1 95.69 58.42 97.78C54.75 99.87 54.75 103.4 58.42 105.49C58.74 105.65 59.22 105.81 59.54 105.97L59.7 105.97C59.86 106.13 60.18 106.13 60.34 106.29L67.68 109.02C68.96 109.5 70.56 109.82 72 109.66L73.91 111.26C73.27 111.59 72.63 111.91 71.84 112.39C67.84 114.8 69.92 118.49 72 120.74C72.95 121.86 75.35 122.02 76.79 121.22L87.64 114.96L88.12 114.64L98.98 108.37C100.26 107.57 99.78 106.13 98.02 105.65Z" fill="#F2F3F3" fill-opacity="1.000000" fill-rule="nonzero"/>
		<path d="M58.42 100.19C62.1 98.1 68.16 98.1 71.84 100.19C72.15 100.35 72.47 100.67 72.79 100.83L72.95 100.99C73.11 101.15 73.27 101.15 73.27 101.31L78.06 105.65C78.86 106.45 79.34 107.25 79.34 108.21L81.73 109.34C82.37 109.02 83.01 108.54 83.81 108.21C87.8 105.97 94.19 107.09 98.18 108.37C98.5 108.37 98.66 108.54 98.82 108.7L98.98 108.7C100.42 107.89 100.1 106.45 98.18 105.97C94.19 104.84 87.8 103.56 83.81 105.81C83.01 106.29 82.37 106.61 81.73 106.93L79.34 105.81C79.34 105 79.02 104.04 78.06 103.24L73.27 98.9C73.11 98.74 73.11 98.74 72.95 98.58L72.79 98.42C72.47 98.26 72.15 97.94 71.84 97.78C68.16 95.69 62.1 95.69 58.42 97.78C56.03 99.22 55.23 101.15 55.87 102.92C56.35 101.95 57.15 100.99 58.42 100.19Z" fill="#2F2D4F" fill-opacity="1.000000" fill-rule="nonzero"/>
		<path d="M71.84 114.96C72.63 114.48 73.27 114.15 73.91 113.83L73.91 111.26L72 112.39C69.76 113.67 69.44 115.44 69.92 117.2C70.08 116.24 70.72 115.6 71.84 114.96Z" fill="#2F2D4F" fill-opacity="1.000000" fill-rule="nonzero"/>
		<path d="M98.18 105.16C93.71 103.88 87.48 102.76 83.49 105.16L81.73 106.29L79.82 105.49C79.82 104.84 79.5 104.2 79.02 103.56C78.86 103.4 78.7 103.24 78.38 102.92L73.59 98.58C73.43 98.42 73.27 98.42 73.27 98.26L73.11 98.1L72.95 97.94C72.63 97.78 72.47 97.62 72.15 97.46C68.32 95.21 62.1 95.21 58.26 97.46C58.1 97.46 57.94 97.62 57.94 97.78C57.79 97.94 57.63 97.94 57.63 98.1C57.47 98.26 57.47 98.26 57.31 98.42C57.15 98.58 56.99 98.58 56.83 98.74L56.67 98.9C56.19 99.38 56.03 99.71 55.71 100.19C55.55 100.35 55.55 100.67 55.39 100.83C55.39 100.83 55.39 100.83 55.39 100.99C55.39 101.15 55.23 101.47 55.23 101.63C55.23 101.63 55.23 101.63 55.23 101.79C55.23 102.27 55.39 102.76 55.55 103.24L56.03 104.04C56.51 104.84 57.31 105.49 58.26 105.97C58.42 105.97 58.58 106.13 58.74 106.13L59.54 106.45C59.7 106.61 60.02 106.61 60.18 106.77L67.52 109.5C68.8 109.98 70.24 110.3 71.84 110.3L73.11 111.26C72.95 111.26 72.79 111.43 72.63 111.59C72.31 111.75 71.84 112.07 71.68 112.07L71.52 112.07C71.36 112.07 71.36 112.23 71.2 112.23C71.04 112.23 71.04 112.39 70.88 112.39C70.72 112.39 70.72 112.55 70.56 112.55C70.4 112.71 70.24 112.71 70.24 112.87L70.08 113.03C69.92 113.19 69.92 113.19 69.76 113.35L69.6 113.51C69.44 113.67 69.44 113.83 69.28 113.99L69.28 114.15C69.28 114.32 69.12 114.48 69.12 114.64L69.12 114.8L69.12 114.96C69.12 115.12 69.12 115.28 69.12 115.44C69.12 115.6 69.12 115.6 69.12 115.76C69.12 115.92 69.12 116.08 69.12 116.24C69.12 116.4 69.12 116.4 69.12 116.56C69.12 116.72 69.12 116.72 69.28 116.88L69.76 118.01C70.24 118.97 70.88 119.93 71.52 120.74C72.63 122.02 75.19 122.18 76.79 121.22L98.82 108.38C98.98 108.21 99.14 108.05 99.3 108.05C99.78 107.73 99.94 107.25 99.78 106.77C99.78 106.45 99.46 105.97 99.14 105.65C99.14 105.65 98.66 105.32 98.18 105.16ZM56.03 101.63C56.03 101.47 56.03 101.31 56.03 101.31L56.03 101.15C56.03 100.99 56.03 100.99 56.03 100.83L56.03 100.67C56.03 100.51 56.03 100.51 56.19 100.35C56.19 100.35 56.19 100.19 56.35 100.19C56.35 100.19 56.35 100.03 56.51 100.03C56.51 99.87 56.67 99.87 56.67 99.71C56.67 99.71 56.67 99.71 56.67 99.55C57.15 98.9 57.79 98.42 58.58 97.94C62.1 95.85 68 95.85 71.52 97.94C71.84 98.1 72.15 98.26 72.47 98.58L72.63 98.58C72.79 98.74 72.79 98.74 72.95 98.9L77.74 103.24C77.9 103.4 78.06 103.56 78.22 103.72C78.7 104.2 78.86 104.84 78.86 105.32L78.86 105.65C78.7 105.49 78.54 105.32 78.38 105.16L73.59 100.83C73.43 100.67 73.27 100.67 73.27 100.51L72.95 100.19C72.63 100.03 72.47 99.87 72.15 99.71C68.32 97.46 62.1 97.46 58.26 99.71C57.31 100.35 56.51 100.99 56.03 101.63ZM78.86 105.97L81.73 107.25L83.97 105.97C87.96 103.72 94.51 105 98.02 106.13C98.34 106.29 98.66 106.45 98.98 106.61C99.14 106.77 99.3 106.93 99.3 107.25C99.3 107.57 99.14 107.89 98.66 108.05C98.5 108.05 98.34 107.89 98.18 107.89C93.71 106.61 87.48 105.49 83.49 107.89L81.73 109.02L79.82 108.05C79.66 107.25 79.34 106.45 78.86 105.97ZM70.08 115.28C70.08 115.12 70.08 114.96 70.24 114.8C70.24 114.64 70.4 114.48 70.4 114.32C70.4 114.15 70.56 113.99 70.72 113.83C70.88 113.67 70.88 113.51 71.04 113.51C71.36 113.19 71.68 113.03 72.15 112.71L73.43 111.91L73.43 113.51L71.68 114.48C71.2 114.8 70.88 115.12 70.4 115.44C70.24 115.6 70.08 115.76 69.92 115.92C70.08 115.6 70.08 115.44 70.08 115.28ZM72.31 120.42C71.52 119.45 70.72 118.33 70.24 117.2C70.56 116.56 71.2 115.92 72 115.28L74.23 113.99L74.23 111.43L74.23 110.94L73.91 110.78L72 109.34L71.84 109.34C70.4 109.34 68.96 109.18 67.68 108.7L60.34 105.97C60.18 105.97 60.02 105.81 59.7 105.81L59.54 105.65C59.06 105.49 58.74 105.32 58.42 105.16C57.31 104.52 56.51 103.72 56.19 102.92C56.51 102.11 57.31 101.31 58.42 100.67C61.94 98.58 67.84 98.58 71.36 100.67C71.68 100.83 72 100.99 72.31 101.31L72.47 101.31C72.63 101.47 72.63 101.47 72.79 101.63L77.58 105.97C78.38 106.61 78.7 107.41 78.7 108.05L78.7 108.38L81.58 109.66L83.81 108.38C87.64 106.13 94.03 107.41 97.54 108.38L76.31 120.58C75.19 121.54 73.11 121.38 72.31 120.42Z" fill="#2F2D4F" fill-opacity="1.000000" fill-rule="nonzero"/>
		<path d="M102.01 195.39L127.72 191.85L120.53 188.8L154.22 170.5L146.08 165.69L113.51 184.79L108.08 180.46L102.01 195.23L102.01 195.39Z" fill="#F2F3F3" fill-opacity="1.000000" fill-rule="nonzero"/>
		<path d="M101.53 196.83L126.76 194.42L119.58 191.21L153.42 172.91L145.28 168.1L112.55 187.2L107.28 182.86L101.21 197.79L101.05 197.79L101.53 196.83Z" fill="#C2E6EA" fill-opacity="1.000000" fill-rule="nonzero"/>
		<path d="M154.54 170.18L145.92 165.21L113.51 184.31L107.92 179.65L101.53 195.07L101.53 201.01L128.04 197.47L128.04 191.53L127.08 191.21L154.54 175.8L154.54 170.18ZM108.24 181.1L113.35 185.27L145.92 166.01L153.26 170.34L119.58 188.97L126.12 191.85L102.65 195.07L108.24 181.1Z" fill="#2F2D4F" fill-opacity="1.000000" fill-rule="nonzero"/>
		<path d="M144.32 70.17C145.92 64.71 147.2 60.37 147.2 60.37C147.2 60.37 141.93 58.13 139.21 57.64C136.66 56.84 133.47 57.64 130.27 60.21C123.73 65.51 119.58 75.62 120.85 83.49C121.33 86.86 122.93 88.79 124.84 90.39C124.84 90.39 130.11 94.89 134.9 94.41C136.66 94.25 138.42 88.15 140.81 81.24C142.73 77.71 144 73.86 144.32 70.17Z" fill="#F2F3F3" fill-opacity="1.000000" fill-rule="nonzero"/>
		<path d="M144.32 70.17C144.8 68.72 145.12 67.44 145.44 66.15C143.84 65.51 140.33 64.07 138.25 63.58C135.7 62.78 132.51 63.58 129.31 66.15C125.16 69.52 122.13 74.66 120.53 80.12C120.53 81.24 120.53 82.21 120.69 83.33C121.17 86.7 122.77 88.63 124.68 90.23C124.68 90.23 129.95 94.73 134.74 94.25C136.5 94.09 138.25 87.99 140.65 81.08C142.57 77.71 143.84 73.86 144.32 70.17Z" fill="#C2E6EA" fill-opacity="1.000000" fill-rule="nonzero"/>
		<path d="M134.1 95.37C129.47 95.37 124.84 91.52 124.37 91.04C122.45 89.43 120.53 87.34 120.05 83.65C118.78 75.46 122.93 65.03 129.79 59.41C133.15 56.68 136.66 55.72 139.69 56.68C142.25 57.32 147.52 59.41 147.68 59.57L148.47 59.89L148.31 60.69C148.31 60.69 147.2 65.03 145.44 70.49C144.96 74.18 143.68 78.19 141.77 81.73L140.81 84.61C138.42 91.84 137.14 95.21 135.06 95.53C134.74 95.37 134.42 95.37 134.1 95.37ZM137.3 58.29C135.38 58.29 133.15 59.25 131.07 61.02C124.84 66.15 120.85 75.95 121.97 83.33C122.45 86.22 123.73 87.99 125.64 89.59C127.4 91.04 131.55 93.77 134.9 93.28C135.86 92.96 137.62 87.83 139.05 83.81C139.37 82.85 139.69 81.89 140.01 80.76C141.93 77.23 143.05 73.54 143.52 70.01L143.52 69.85C144.8 65.83 145.76 62.46 146.08 60.86C144.48 60.21 140.97 58.93 139.05 58.45C138.42 58.45 137.94 58.29 137.3 58.29Z" fill="#2F2D4F" fill-opacity="1.000000" fill-rule="nonzero"/>
		<path d="M152.95 67.44C152.31 63.42 150.39 60.53 147.52 59.41C144.48 58.29 140.81 59.25 137.3 62.14C130.59 67.6 126.12 78.67 127.4 86.86C128.04 90.88 129.95 93.77 132.83 94.89C133.63 95.21 134.58 95.37 135.54 95.37C137.94 95.37 140.49 94.25 143.05 92.16C149.75 86.7 154.22 75.62 152.95 67.44Z" fill="#2F2D4F" fill-opacity="1.000000" fill-rule="nonzero"/>
		<path d="M146.24 72.25C146.88 76.27 144.64 81.73 141.29 84.45C137.94 87.18 134.74 86.06 134.1 82.05C133.47 78.03 135.7 72.57 139.05 69.85C142.41 67.12 145.6 68.24 146.24 72.25Z" fill="#2F2D4F" fill-opacity="1.000000" fill-rule="nonzero"/>
		<path d="M137.78 86.86C137.3 86.86 136.66 86.7 136.18 86.54C134.58 85.9 133.47 84.29 133.15 82.05C132.51 77.71 134.74 71.93 138.42 68.88C140.33 67.28 142.41 66.8 144.16 67.44C145.76 68.08 146.88 69.68 147.2 71.93C147.84 76.27 145.6 82.05 141.93 85.1C140.49 86.38 139.05 86.86 137.78 86.86ZM142.57 69.36C141.77 69.36 140.65 69.85 139.69 70.65C136.66 73.06 134.58 78.19 135.22 81.89C135.38 83.33 136.02 84.45 136.98 84.78C137.94 85.1 139.37 84.78 140.65 83.65C143.68 81.24 145.76 76.11 145.12 72.41C144.96 70.97 144.32 69.85 143.37 69.52C143.21 69.36 142.89 69.36 142.57 69.36Z" fill="#F2F3F3" fill-opacity="1.000000" fill-rule="nonzero"/>
		<path d="M203.56 165.53C200.84 153.65 194.78 135.18 182.96 128.28C180.73 127 177.69 125.07 175.94 124.11L175.14 116.24C175.78 115.92 176.42 115.6 177.05 115.12L177.21 115.12L177.53 114.96C179.13 113.83 180.41 112.55 180.89 110.14L181.84 105.97L185.04 91.52C185.2 91.04 185.2 90.55 185.36 90.07L185.52 89.75C185.68 88.63 185.84 87.5 185.84 86.22C186 73.54 177.37 57.97 166.52 51.54C161.57 48.65 157.42 47.85 153.9 49.3L153.42 49.46L153.1 49.62C152.63 49.78 152.31 50.1 151.99 50.26L142.89 55.4L142.41 56.36L146.88 59.73C146.72 60.69 146.72 61.66 146.72 62.62C146.72 63.74 146.72 64.71 146.88 65.99L146.88 66.31L147.04 67.12C147.2 67.76 147.2 68.24 147.36 68.88L150.87 92C151.51 96.01 153.58 101.63 156.46 105.65L155.5 111.91C153.74 110.94 150.71 108.86 148.47 107.57C143.84 104.84 140.49 104.68 137.46 106.13L136.98 106.45L135.86 107.09L127.88 111.59L129.63 114.48C128.68 116.24 127.88 118.17 127.24 120.09C125.8 123.95 128.68 130.53 132.99 133.1L164.76 152.04L166.2 152.84L190.79 167.45C191.1 170.34 191.58 174.36 191.9 176.44C192.06 177.09 192.7 177.41 193.34 177.09L202.28 172.11C203.56 171.15 204.36 168.74 203.56 165.53Z" fill="#F2F3F3" fill-opacity="1.000000" fill-rule="nonzero"/>
		<path d="M203.56 170.02C200.84 158.14 194.78 139.68 182.96 132.78C180.73 131.49 177.69 129.57 175.94 128.6L175.14 120.74C175.78 120.42 174.66 119.29 175.46 118.81L174.5 118.17L175.62 114.8C177.21 113.67 178.81 114.48 179.29 112.07L182 110.3L185.2 95.85C185.36 95.37 185.36 94.89 185.52 94.41L185.68 94.09C185.84 92.96 186 91.84 186 90.55C186.16 77.87 177.53 62.3 166.68 55.88C161.73 52.99 157.58 52.19 154.06 53.63L153.58 53.79L153.26 53.95C152.78 54.11 152.47 54.43 152.15 54.59L142.89 59.89L142.41 60.86L146.88 64.23C146.72 65.19 146.72 66.15 146.72 67.12C146.72 68.24 146.72 69.2 146.88 70.49L146.88 70.81L147.04 71.61C147.2 72.25 147.2 72.74 147.36 73.38L151.03 96.33C151.67 100.35 153.74 105.97 156.62 109.98L155.66 116.24C153.9 115.28 150.87 113.19 148.63 111.91C144 109.18 140.65 109.02 137.62 110.46L137.14 110.62L136.02 111.26L128.04 115.76L129.79 118.65C128.84 120.42 128.04 122.34 127.4 124.27C125.96 128.12 128.84 134.7 133.15 137.27L164.6 156.22L166.04 157.02L190.63 171.63C190.95 174.52 188.71 173.87 189.03 175.96C189.19 176.6 189.83 176.92 190.47 176.6L199.41 171.63C200.84 170.82 204.36 173.23 203.56 170.02Z" fill="#F2F3F3" fill-opacity="1.000000" fill-rule="nonzero"/>
		<path d="M192.7 178.21C192.38 178.21 192.06 178.21 191.74 178.05C191.1 177.73 190.79 177.25 190.63 176.6C190.31 174.68 189.83 170.98 189.51 168.1L132.35 133.74C127.72 131.01 124.68 123.95 126.28 119.61C126.92 117.85 127.72 116.08 128.52 114.48L126.44 111.1L136.98 105.32C140.49 103.56 144.32 104.04 148.95 106.77C150.23 107.41 151.67 108.37 152.95 109.18C153.58 109.5 154.22 109.98 154.7 110.3L155.34 105.97C152.63 101.95 150.55 96.33 149.91 92.16L146.24 68.56C146.08 68.08 146.08 67.76 146.08 67.28L145.76 66.47C145.6 65.03 145.6 64.23 145.6 62.94C145.6 62.14 145.6 61.34 145.76 60.37L141.13 56.84L142.09 54.75L151.51 49.46C151.83 49.3 152.31 48.98 152.78 48.81L153.58 48.49C157.26 46.89 161.73 47.69 167 50.74C178.17 57.32 186.95 73.22 186.79 86.22C186.79 87.18 186.63 88.15 186.63 89.11L186.47 90.23C186.31 90.72 186.31 91.2 186.16 91.68L182 110.14C181.37 113.03 179.61 114.64 178.17 115.6L178.01 115.76C177.37 116.08 176.89 116.4 176.42 116.72L177.05 123.47L183.6 127.32C195.26 134.22 201.48 151.72 204.68 165.21C205.47 168.74 204.68 171.63 202.6 172.75L193.66 177.73C193.34 178.05 193.02 178.21 192.7 178.21ZM129.31 111.91L130.91 114.48L130.59 114.96C129.63 116.56 128.84 118.49 128.2 120.42C126.92 123.79 129.63 129.89 133.47 132.13L191.58 166.81L191.58 167.29C191.9 170.18 192.38 174.2 192.7 176.28L201.64 171.31C202.92 170.66 203.4 168.42 202.76 166.01C200.21 155.25 194.3 136.31 182.64 129.41L175.14 124.91L174.34 115.76L174.98 115.44C175.62 115.12 176.26 114.8 176.89 114.31L177.21 114.15C178.97 113.03 179.77 111.75 180.25 109.98L184.4 91.36C184.56 90.88 184.56 90.39 184.72 90.07L184.72 89.75C184.88 88.63 185.04 87.5 185.04 86.38C185.2 74.02 176.74 58.93 166.2 52.67C161.57 49.94 157.74 49.14 154.54 50.58L153.74 50.58C153.26 50.74 152.95 50.9 152.63 51.22L143.68 56.2L148 59.41L147.84 60.05C147.68 61.02 147.68 61.98 147.68 62.94C147.68 64.23 147.68 65.03 147.84 66.15L147.84 66.31L148 67.28C148 67.76 148.16 68.08 148.16 68.4L148.31 69.04L151.99 92.16C152.63 96.33 154.7 101.63 157.42 105.49L157.58 105.81L156.3 113.83L154.86 112.87C154.06 112.39 152.95 111.75 151.83 110.94C150.55 110.14 149.11 109.18 147.84 108.54C143.84 106.13 140.65 105.65 137.78 107.25L137.3 107.41L129.31 111.91Z" fill="#2F2D4F" fill-opacity="1.000000" fill-rule="nonzero"/>
		<path d="M193.82 170.98C191.1 159.1 185.04 140.64 173.22 133.74C170.99 132.46 167.95 130.53 166.2 129.57L165.4 121.7C167.63 120.58 170.35 118.81 171.15 115.6L172.1 111.42L175.3 96.98C175.46 96.49 175.46 96.01 175.62 95.53L175.78 95.21C175.94 94.09 176.1 92.96 176.1 91.68C176.26 79 167.63 63.42 156.78 57C145.92 50.58 136.98 55.56 136.82 68.24C136.82 69.36 136.82 70.33 136.98 71.61L136.98 71.93L137.14 72.73C137.3 73.38 137.3 73.86 137.46 74.5L140.97 97.62C141.61 101.63 143.68 107.25 146.56 111.26L145.6 117.53C143.84 116.56 140.81 114.47 138.58 113.19C126.76 106.13 120.37 117.04 117.34 125.55C115.9 129.41 118.78 135.99 123.09 138.56L154.86 157.5L156.3 158.3L187.91 177.08C192.06 179.49 195.1 176.44 193.82 170.98Z" fill="#C2E6EA" fill-opacity="1.000000" fill-rule="nonzero"/>
		<path d="M176.74 140.96C174.5 139.68 171.47 137.75 169.71 136.79L169.23 131.81C168.11 131.17 167 130.53 166.2 130.05L165.4 122.18C167.63 121.06 170.35 119.29 171.15 116.08L172.1 111.91L175.3 97.46C175.46 96.98 175.46 96.49 175.62 96.01L175.78 95.69C175.94 94.57 176.1 93.44 176.1 92.16C176.1 87.5 174.98 82.37 172.9 77.39C169.55 71.93 165.08 67.28 160.29 64.39C149.43 57.97 140.49 62.94 140.33 75.62C140.33 76.75 140.33 77.71 140.49 79L140.49 79.32L140.65 80.12C140.81 80.76 140.81 81.24 140.97 81.89L144.64 104.84C144.96 106.93 145.6 109.18 146.56 111.59C146.56 111.59 146.56 111.75 146.72 111.75C147.68 114.15 148.95 116.56 150.23 118.49L149.27 124.75C147.52 123.79 144.48 121.7 142.25 120.42C130.43 113.35 124.05 124.43 121.01 132.78C120.53 134.06 120.53 135.5 120.85 136.95C121.49 137.75 122.29 138.39 123.09 138.88L154.86 157.82L156.3 158.62L187.91 177.57C192.06 180.14 195.1 177.09 193.82 171.63C192.54 166.17 190.47 159.27 187.59 152.68C184.72 147.71 181.05 143.53 176.74 140.96Z" fill="#F2F3F3" fill-opacity="1.000000" fill-rule="nonzero"/>
		<path d="M190.63 179.01C189.51 179.01 188.39 178.69 187.27 178.05L122.61 139.36C117.98 136.63 114.95 129.57 116.54 125.23C118.46 119.77 122.13 112.71 127.88 110.62C131.39 109.34 135.06 109.98 139.21 112.39C140.33 113.03 141.77 113.99 143.21 114.8C143.84 115.12 144.48 115.6 144.96 115.92L145.6 111.59C142.89 107.57 140.81 101.95 140.17 97.78L136.18 74.18C136.02 73.7 136.02 73.38 136.02 72.9L135.86 71.93C135.7 70.49 135.7 69.52 135.7 68.24C135.7 61.66 138.1 56.84 142.09 54.59C146.24 52.35 151.51 52.83 157.1 56.2C168.27 62.78 177.05 78.67 176.89 91.68C176.89 92.64 176.73 93.6 176.73 94.57L176.58 95.69C176.42 96.17 176.42 96.66 176.26 97.14L172.1 115.6C171.47 118.97 168.91 120.74 166.52 122.18L167.16 128.92L173.7 132.78C185.36 139.68 191.58 157.18 194.78 170.66C195.58 173.87 194.94 176.6 193.18 178.05C192.38 178.69 191.58 179.01 190.63 179.01ZM131.39 111.91C130.43 111.91 129.31 112.07 128.52 112.39C123.41 114.15 120.21 120.74 118.3 125.87C117.02 129.24 119.73 135.35 123.57 137.59L188.39 176.28C189.83 177.09 191.1 177.25 191.9 176.6C193.02 175.8 193.34 173.71 192.86 171.31C190.31 160.55 184.4 141.61 172.74 134.7L165.24 130.21L164.44 121.06L165.08 120.74C167.47 119.61 169.71 118.01 170.19 115.28L174.34 96.82C174.5 96.33 174.5 95.85 174.66 95.53L174.66 95.21C174.82 94.09 174.98 92.96 174.98 91.84C175.14 79.48 166.68 64.39 156.14 58.13C151.19 55.24 146.56 54.59 143.21 56.52C139.69 58.29 137.78 62.62 137.78 68.4C137.78 69.52 137.78 70.49 137.94 71.61L137.94 71.77L138.1 72.74C138.1 73.22 138.25 73.54 138.25 73.86L138.42 74.5L142.09 97.62C142.73 101.79 144.8 107.09 147.52 110.94L147.68 111.26L146.4 119.29L145.12 118.49C144.32 118.01 143.21 117.36 142.09 116.56C140.81 115.76 139.37 114.8 138.1 114.15C135.7 112.55 133.47 111.91 131.39 111.91Z" fill="#2F2D4F" fill-opacity="1.000000" fill-rule="nonzero"/>
		<path d="M176.26 91.04L185.84 84.94L186.16 87.34L181.05 110.78L177.85 114.64L175.46 116.08L176.26 124.11L166.2 129.73L165.56 121.7L170.83 118.49L171.95 112.71L176.26 91.04Z" fill="#2F2D4F" fill-opacity="1.000000" fill-rule="nonzero"/>
		<path d="M191.1 164.24L201.64 158.46L203.88 166.65L203.72 169.54L201.96 172.43L192.86 176.76L193.5 172.59L192.38 166.17L191.1 164.24Z" fill="#2F2D4F" fill-opacity="1.000000" fill-rule="nonzero"/>
		<path d="M192.06 94.89C193.66 89.43 194.94 85.1 194.94 85.1C194.94 85.1 189.67 82.85 186.95 82.37C184.4 81.56 181.21 82.37 178.01 84.94C171.47 90.23 167.31 100.35 168.59 108.21C169.07 111.59 170.67 113.51 172.58 115.12C172.58 115.12 177.69 119.29 181.84 118.97C183.6 118.81 186.16 112.87 188.55 105.97C190.47 102.43 191.58 98.58 192.06 94.89Z" fill="#F2F3F3" fill-opacity="1.000000" fill-rule="nonzero"/>
		<path d="M178.01 90.72C173.22 94.73 169.55 101.31 168.59 107.73C168.59 107.89 168.59 108.05 168.59 108.21C169.07 111.59 170.67 113.51 172.58 115.12C172.58 115.12 177.69 119.29 181.84 118.97C183.6 118.81 186.16 112.87 188.55 105.97C190.47 102.6 191.74 98.74 192.06 95.05C192.54 93.44 193.02 91.84 193.34 90.55C191.58 89.91 188.55 88.79 186.79 88.31C184.56 87.34 181.37 88.15 178.01 90.72Z" fill="#C2E6EA" fill-opacity="1.000000" fill-rule="nonzero"/>
		<path d="M181.21 119.93C176.89 119.93 172.42 116.24 171.95 115.76C170.03 114.15 168.11 112.07 167.63 108.37C166.36 100.19 170.51 89.75 177.37 84.13C180.73 81.4 184.24 80.44 187.27 81.4C189.83 82.05 195.1 84.13 195.26 84.29L196.05 84.61L195.89 85.42C195.89 85.42 194.78 89.75 193.02 95.21C192.54 98.9 191.26 102.92 189.35 106.45C185.2 118.17 183.28 119.93 181.84 119.93C181.68 119.93 181.52 119.93 181.21 119.93ZM184.88 83.01C182.96 83.01 180.73 83.97 178.65 85.74C172.42 90.88 168.43 100.67 169.55 108.05C170.03 110.94 171.31 112.71 173.22 114.31C174.82 115.6 178.81 118.17 181.68 118.01C181.84 118.01 183.6 117.2 187.59 105.65C189.51 102.11 190.63 98.42 191.1 94.89L191.1 94.73C192.38 90.72 193.34 87.34 193.66 85.74C192.06 85.1 188.55 83.81 186.63 83.33C186.16 83.01 185.52 83.01 184.88 83.01Z" fill="#2F2D4F" fill-opacity="1.000000" fill-rule="nonzero"/>
		<path d="M199.57 92.16C200.84 100.03 196.53 110.78 189.99 116.08C183.44 121.38 177.21 119.29 175.94 111.43C174.66 103.56 178.97 92.8 185.52 87.5C192.06 82.21 198.45 84.29 199.57 92.16Z" fill="#2F2D4F" fill-opacity="1.000000" fill-rule="nonzero"/>
		<path d="M183.12 119.93C182.16 119.93 181.21 119.77 180.41 119.45C177.53 118.33 175.62 115.6 174.98 111.42C173.7 103.24 178.17 92.16 184.88 86.7C188.39 83.81 192.06 82.85 195.1 83.97C197.97 85.1 199.89 87.83 200.52 92C201.8 100.19 197.33 111.26 190.63 116.72C188.23 118.97 185.52 119.93 183.12 119.93ZM192.54 85.58C190.63 85.58 188.39 86.54 186.16 88.31C179.93 93.44 175.78 103.72 176.89 111.26C177.37 114.48 178.81 116.88 181.05 117.69C183.44 118.65 186.31 117.69 189.35 115.28C195.58 110.14 199.73 99.87 198.61 92.32C198.13 89.11 196.69 86.7 194.46 85.9C193.82 85.74 193.18 85.58 192.54 85.58Z" fill="#2F2D4F" fill-opacity="1.000000" fill-rule="nonzero"/>
		<path d="M200.05 94.89C201 101.15 197.65 109.66 192.38 113.83C187.27 118.01 182.16 116.4 181.21 110.14C180.25 103.88 183.6 95.37 188.87 91.2C194.14 87.02 199.09 88.63 200.05 94.89Z" fill="#2F2D4F" fill-opacity="1.000000" fill-rule="nonzero"/>
		<path d="M186.95 117.2C186.16 117.2 185.52 117.04 184.72 116.72C182.32 115.76 180.89 113.51 180.25 110.3C179.29 103.72 182.8 94.73 188.23 90.39C191.1 87.99 194.14 87.34 196.53 88.31C198.93 89.27 200.37 91.52 201 94.73C201.96 101.31 198.45 110.3 193.02 114.64C190.94 116.24 188.87 117.2 186.95 117.2ZM194.46 89.91C193.02 89.91 191.26 90.72 189.51 92C184.56 96.01 181.37 104.04 182.32 109.98C182.64 112.55 183.92 114.31 185.52 114.96C187.27 115.6 189.67 114.96 191.9 113.19C196.85 109.18 200.05 101.15 199.09 95.21C198.77 92.64 197.49 90.88 195.89 90.23C195.42 89.91 194.94 89.91 194.46 89.91Z" fill="#F2F3F3" fill-opacity="1.000000" fill-rule="nonzero"/>
		<path d="M140.97 114.31C140.33 114.96 139.37 115.12 138.73 114.48L132.67 109.34C126.92 104.52 127.56 97.14 129 92.8C129.31 91.84 130.27 91.52 131.23 91.84C132.03 92.16 132.35 92.96 132.03 93.77C131.07 96.49 129.79 102.6 134.58 106.77L140.65 111.91C141.45 112.55 141.61 113.51 140.97 114.31Z" fill="#2F2D4F" fill-opacity="1.000000" fill-rule="nonzero"/>
		<path d="M139.85 115.92C139.21 115.92 138.58 115.76 138.1 115.28L132.03 110.14C126.28 105.32 126.28 97.78 128.2 92.48C128.36 91.84 129 91.2 129.63 90.88C130.27 90.55 131.07 90.55 131.71 90.88C132.99 91.52 133.47 92.8 132.99 94.09C132.03 96.98 131.07 102.27 135.38 105.97L141.45 111.1C142.57 112.07 142.73 113.67 141.77 114.8C141.29 115.28 140.65 115.6 140.01 115.76C139.85 115.92 139.85 115.92 139.85 115.92ZM130.59 92.64L130.43 92.64C130.27 92.64 130.11 92.8 130.11 92.96C129.31 95.21 127.24 103.08 133.47 108.37L139.53 113.51C139.69 113.67 139.85 113.67 140.01 113.67C140.17 113.67 140.33 113.51 140.49 113.51C140.65 113.19 140.65 112.87 140.49 112.71L134.42 107.57C129 102.92 130.59 96.17 131.55 93.44C131.71 93.12 131.55 92.8 131.23 92.8C130.75 92.64 130.59 92.64 130.59 92.64Z" fill="#2F2D4F" fill-opacity="1.000000" fill-rule="nonzero"/>
		<path d="M131.87 90.88C131.23 90.55 130.43 90.55 129.79 90.88C129.47 91.04 129.31 91.2 129.16 91.36C129.47 92 129.95 92.48 130.27 92.96C130.27 92.8 130.43 92.8 130.59 92.8L130.75 92.8C130.91 92.8 130.91 92.8 131.07 92.8C131.39 92.96 131.55 93.28 131.39 93.44C131.39 93.6 131.39 93.6 131.23 93.77C131.71 94.25 132.35 94.57 132.99 94.73C132.99 94.41 133.15 94.25 133.15 94.09C133.63 92.96 132.99 91.52 131.87 90.88Z" fill="#F2F3F3" fill-opacity="1.000000" fill-rule="nonzero"/>
		<path d="M148.95 113.51C149.43 116.56 147.36 119.45 144.32 119.93C141.29 120.42 138.42 118.33 137.94 115.28C137.46 112.23 139.53 109.34 142.57 108.86C145.6 108.21 148.47 110.3 148.95 113.51Z" fill="#F2F3F3" fill-opacity="1.000000" fill-rule="nonzero"/>
		<path d="M142.41 111.42C140.17 111.75 138.42 113.51 137.78 115.6C138.42 118.33 141.13 120.25 144 119.77C146.24 119.45 148 117.69 148.63 115.6C148 112.87 145.28 111.1 142.41 111.42Z" fill="#C2E6EA" fill-opacity="1.000000" fill-rule="nonzero"/>
		<path d="M149.91 113.35C149.59 111.59 148.63 109.98 147.2 109.02C145.76 107.89 144 107.57 142.25 107.89C138.58 108.54 136.18 111.91 136.66 115.44C137.14 118.65 140.01 121.06 143.21 121.06C143.52 121.06 143.84 121.06 144.16 121.06C148 120.42 150.55 116.88 149.91 113.35ZM142.73 109.66C143.05 109.66 143.21 109.66 143.52 109.66C144 109.66 144.48 109.66 144.96 109.82C144.96 109.82 144.96 109.82 144.96 109.98C145.44 113.03 143.37 115.92 140.33 116.4C140.01 116.4 139.85 116.4 139.53 116.4C139.37 115.92 139.05 115.44 139.05 114.96C138.42 112.55 140.17 110.14 142.73 109.66Z" fill="#2F2D4F" fill-opacity="1.000000" fill-rule="nonzero"/>
		<path d="M173.22 33.4C165.24 30.19 158.05 30.19 151.67 33.56C141.29 39.18 136.82 51.86 135.38 57.16C134.9 58.61 135.7 60.21 137.14 60.69L137.94 61.02L138.42 60.21C139.21 58.45 140.33 57.16 141.77 56.04L142.09 55.88L142.25 55.56C143.84 50.9 147.68 42.55 154.54 38.86C159.17 36.29 164.76 36.45 170.99 38.86C192.06 47.37 186.95 73.86 184.88 81.73C184.4 83.33 185.36 84.94 186.95 85.42C187.27 85.58 187.59 85.58 187.91 85.58C188.39 85.58 188.87 85.42 189.35 85.26C190.15 84.78 190.63 84.13 190.79 83.33C192.86 74.34 198.45 43.68 173.22 33.4Z" fill="#2F2D4F" fill-opacity="1.000000" fill-rule="nonzero"/>
		<path d="M185.04 135.35C185.68 135.67 185.68 136.31 185.04 136.63C184.4 136.95 183.44 136.95 182.96 136.63C182.32 136.31 182.32 135.67 182.96 135.35C183.6 135.02 184.56 135.02 185.04 135.35Z" fill="#2F2D4F" fill-opacity="1.000000" fill-rule="nonzero"/>
		<path d="M179.93 132.78C179.93 133.22 179.28 133.58 178.49 133.58C177.7 133.58 177.05 133.22 177.05 132.78C177.05 132.33 177.7 131.97 178.49 131.97C179.28 131.97 179.93 132.33 179.93 132.78Z" fill="#2F2D4F" fill-opacity="1.000000" fill-rule="evenodd"/>
		<path d="M173.86 128.92C174.5 129.24 174.5 129.89 173.86 130.21C173.22 130.53 172.26 130.53 171.79 130.21C171.15 129.89 171.15 129.24 171.79 128.92C172.42 128.6 173.38 128.6 173.86 128.92Z" fill="#2F2D4F" fill-opacity="1.000000" fill-rule="nonzero"/>
		<path d="M168.91 58.13C169.55 58.45 169.55 59.09 168.91 59.41C168.27 59.73 167.31 59.73 166.84 59.41C166.2 59.09 166.2 58.45 166.84 58.13C167.31 57.8 168.27 57.8 168.91 58.13Z" fill="#2F2D4F" fill-opacity="1.000000" fill-rule="nonzero"/>
		<path d="M163.32 54.92C163.96 55.24 163.96 55.88 163.32 56.2C162.68 56.52 161.73 56.52 161.25 56.2C160.61 55.88 160.61 55.24 161.25 54.92C161.73 54.59 162.68 54.59 163.32 54.92Z" fill="#2F2D4F" fill-opacity="1.000000" fill-rule="nonzero"/>
		<path d="M157.74 51.7C158.37 52.03 158.37 52.67 157.74 52.99C157.1 53.31 156.14 53.31 155.66 52.99C155.02 52.67 155.02 52.03 155.66 51.7C156.14 51.38 157.1 51.38 157.74 51.7Z" fill="#2F2D4F" fill-opacity="1.000000" fill-rule="nonzero"/>
		<path d="M87.48 151.56L75.83 144.66C75.67 144.66 75.67 144.5 75.51 144.5L75.51 144.34C71.36 142.09 65.77 142.57 59.7 146.1C46.93 153.49 36.71 171.31 36.71 185.91C36.71 192.66 38.94 197.63 42.62 200.2L43.1 200.52C43.42 200.68 43.58 200.84 43.89 201.01L54.75 207.43L60.82 197.15C71.2 189.93 79.5 175.8 81.1 162.96L81.89 161.67L87.48 151.56Z" fill="#C2E6EA" fill-opacity="1.000000" fill-rule="nonzero"/>
		<path d="M59.38 145.94C47.89 152.68 38.31 167.93 36.71 181.74C36.87 188.32 38.94 192.98 42.46 195.55L42.94 195.87C43.26 196.03 43.42 196.19 43.73 196.35L54.59 202.77L60.66 192.5C71.04 185.27 79.34 171.15 80.94 158.3L81.73 157.02L85.41 150.28L75.51 144.34C75.35 144.34 75.35 144.17 75.19 144.17L75.03 144.01C71.04 141.93 65.45 142.41 59.38 145.94Z" fill="#F2F3F3" fill-opacity="1.000000" fill-rule="nonzero"/>
		<path d="M76.47 148.99C76.31 148.99 76.31 148.83 76.15 148.83L75.99 148.67C71.84 146.42 66.25 146.9 60.18 150.44C52.2 155.09 45.33 163.76 41.18 173.23L68.96 190.41C75.83 182.86 80.78 172.43 81.89 162.96L82.69 161.67L86.37 154.93L76.47 148.99Z" fill="#F2F3F3" fill-opacity="1.000000" fill-rule="nonzero"/>
		<path d="M54.91 208.39L43.58 201.49C43.26 201.33 42.94 201.17 42.78 201.01L42.3 200.68C38.31 197.79 36.23 192.66 36.23 185.91C36.23 171.15 46.61 153 59.38 145.62C65.45 142.09 71.36 141.45 75.83 143.85L76.31 144.17L88.44 151.4L81.73 163.28C80.14 176.28 71.68 190.41 61.3 197.63L54.91 208.39ZM69.76 143.69C66.73 143.69 63.37 144.66 59.86 146.74C47.41 153.97 37.35 171.47 37.35 185.91C37.35 192.18 39.26 197.15 42.94 199.72L43.42 200.04C43.58 200.2 43.89 200.36 44.21 200.52L54.59 206.62L60.66 196.67C70.88 189.61 79.18 175.64 80.78 162.96L80.94 162.64L81.73 161.35L87 151.72L75.19 144.98C73.59 144.01 71.68 143.69 69.76 143.69Z" fill="#2F2D4F" fill-opacity="1.000000" fill-rule="nonzero"/>
		<path d="M87.64 151.61C96.58 156.79 96.6 173.57 87.7 189.08C78.79 204.59 64.33 212.96 55.39 207.77C46.46 202.59 46.43 185.81 55.34 170.3C64.25 154.79 78.71 146.42 87.64 151.61Z" fill="#C2E6EA" fill-opacity="1.000000" fill-rule="evenodd"/>
		<path d="M61.3 210C59.06 210 56.83 209.51 55.07 208.39C50.6 205.82 48.05 200.36 48.05 192.98C48.05 178.21 58.42 160.07 71.2 152.68C77.42 148.99 83.49 148.51 87.96 151.08C92.43 153.65 94.99 159.1 94.99 166.49C94.99 181.26 84.61 199.4 71.84 206.78C68.16 208.87 64.65 210 61.3 210ZM81.73 150.6C78.7 150.6 75.35 151.56 71.84 153.65C59.38 160.87 49.32 178.53 49.32 192.98C49.32 199.88 51.56 204.86 55.71 207.27C59.86 209.67 65.29 209.03 71.2 205.66C83.65 198.44 93.71 180.78 93.71 166.33C93.71 159.42 91.47 154.45 87.32 152.04C85.73 151.08 83.81 150.6 81.73 150.6Z" fill="#2F2D4F" fill-opacity="1.000000" fill-rule="nonzero"/>
		<path d="M65.29 199.4L61.3 201.65C60.5 202.13 59.86 201.65 59.86 200.52L59.86 183.83C59.86 182.86 60.5 181.58 61.3 181.26L65.29 179.01C66.09 178.53 66.73 179.01 66.73 180.14L66.73 196.83C66.73 197.79 66.09 198.92 65.29 199.4Z" fill="#F2F3F3" fill-opacity="1.000000" fill-rule="nonzero"/>
		<path d="M59.54 201.65C59.38 201.65 59.06 201.65 58.9 201.49C58.42 201.17 58.1 200.52 58.1 199.88L58.1 183.02C58.1 181.74 58.9 180.46 59.86 179.81L63.85 177.57C64.33 177.25 64.97 177.25 65.29 177.57C65.77 177.89 66.09 178.53 66.09 179.17L66.09 195.87C66.09 197.15 65.29 198.44 64.33 199.08L60.34 201.33C60.18 201.49 59.86 201.65 59.54 201.65ZM64.65 178.53C64.65 178.53 64.49 178.53 64.49 178.69L60.5 180.94C59.86 181.26 59.38 182.22 59.38 183.02L59.38 199.72C59.38 200.04 59.54 200.2 59.54 200.36C59.54 200.36 59.7 200.36 59.86 200.36L63.85 198.12C64.49 197.79 64.97 196.83 64.97 196.03L64.97 179.17C64.81 178.85 64.81 178.53 64.65 178.53Z" fill="#2F2D4F" fill-opacity="1.000000" fill-rule="nonzero"/>
		<path d="M74.39 194.1L70.4 196.35C69.6 196.83 68.96 196.35 68.96 195.23L68.96 166.33C68.96 165.37 69.6 164.08 70.4 163.76L74.39 161.51C75.19 161.03 75.83 161.51 75.83 162.64L75.83 191.53C75.83 192.5 75.19 193.62 74.39 194.1Z" fill="#F2F3F3" fill-opacity="1.000000" fill-rule="nonzero"/>
		<path d="M68.8 196.35C68.64 196.35 68.32 196.35 68.16 196.19C67.68 195.87 67.36 195.23 67.36 194.58L67.36 165.69C67.36 164.4 68.16 163.12 69.12 162.48L73.11 160.23C73.59 159.91 74.23 159.91 74.55 160.23C75.03 160.55 75.35 161.19 75.35 161.83L75.35 190.73C75.35 192.02 74.55 193.3 73.59 193.94L69.6 196.19C69.28 196.19 68.96 196.35 68.8 196.35ZM73.75 161.03C73.75 161.03 73.59 161.03 73.59 161.19L69.6 163.44C68.96 163.76 68.48 164.72 68.48 165.53L68.48 194.42C68.48 194.74 68.64 194.9 68.64 195.07C68.64 195.07 68.8 195.07 68.96 195.07L72.95 192.82C73.59 192.5 74.07 191.53 74.07 190.73L74.07 161.83C74.07 161.35 73.91 161.19 73.75 161.03Z" fill="#2F2D4F" fill-opacity="1.000000" fill-rule="nonzero"/>
		<path d="M83.49 188.8L79.5 191.05C78.7 191.53 78.06 191.05 78.06 189.93L78.06 180.62C78.06 179.65 78.7 178.37 79.5 178.05L83.49 175.8C84.29 175.32 84.93 175.8 84.93 176.92L84.93 186.24C84.93 187.2 84.29 188.32 83.49 188.8Z" fill="#F2F3F3" fill-opacity="1.000000" fill-rule="nonzero"/>
		<path d="M77.9 191.05C77.74 191.05 77.42 191.05 77.26 190.89C76.79 190.57 76.47 189.93 76.47 189.29L76.47 179.97C76.47 178.69 77.26 177.41 78.22 176.76L82.21 174.52C82.69 174.2 83.33 174.2 83.65 174.52C84.13 174.84 84.45 175.48 84.45 176.12L84.45 185.43C84.45 186.72 83.65 188 82.69 188.64L78.7 190.73C78.38 190.89 78.06 191.05 77.9 191.05ZM82.85 175.32C82.85 175.32 82.69 175.32 82.69 175.48L78.7 177.73C78.06 178.05 77.58 179.01 77.58 179.81L77.58 189.13C77.58 189.45 77.74 189.61 77.74 189.77C77.74 189.77 77.9 189.77 78.06 189.77L82.05 187.52C82.69 187.2 83.17 186.24 83.17 185.43L83.17 176.12C83.17 175.64 83.01 175.48 82.85 175.32Z" fill="#2F2D4F" fill-opacity="1.000000" fill-rule="nonzero"/>
		<path d="M62.58 154.61C63.05 154.93 63.05 155.41 62.58 155.73C62.1 156.05 61.14 156.05 60.66 155.73C60.18 155.41 60.18 154.93 60.66 154.61C61.3 154.29 62.1 154.29 62.58 154.61Z" fill="#2F2D4F" fill-opacity="1.000000" fill-rule="nonzero"/>
		<path d="M67.84 151.72C68.32 152.04 68.32 152.52 67.84 152.84C67.37 153.16 66.41 153.16 65.93 152.84C65.45 152.52 65.45 152.04 65.93 151.72C66.41 151.4 67.21 151.4 67.84 151.72Z" fill="#2F2D4F" fill-opacity="1.000000" fill-rule="nonzero"/>
		<path d="M57.94 152.2C57.94 152.64 57.3 153 56.51 153C55.71 153 55.07 152.64 55.07 152.2C55.07 151.76 55.71 151.4 56.51 151.4C57.3 151.4 57.94 151.76 57.94 152.2Z" fill="#2F2D4F" fill-opacity="1.000000" fill-rule="evenodd"/>
		<path d="M62.58 148.67C63.05 148.99 63.05 149.47 62.58 149.79C62.1 150.11 61.14 150.11 60.66 149.79C60.18 149.47 60.18 148.99 60.66 148.67C61.3 148.35 62.1 148.35 62.58 148.67Z" fill="#2F2D4F" fill-opacity="1.000000" fill-rule="nonzero"/>
		<path d="M67.84 145.62C68.32 145.94 68.32 146.42 67.84 146.74C67.37 147.06 66.41 147.06 65.93 146.74C65.45 146.42 65.45 145.94 65.93 145.62C66.41 145.46 67.21 145.46 67.84 145.62Z" fill="#2F2D4F" fill-opacity="1.000000" fill-rule="nonzero"/>
		<path d="M72.95 148.67C73.43 148.99 73.43 149.47 72.95 149.79C72.47 150.11 71.52 150.11 71.04 149.79C70.56 149.47 70.56 148.99 71.04 148.67C71.52 148.35 72.31 148.35 72.95 148.67Z" fill="#2F2D4F" fill-opacity="1.000000" fill-rule="nonzero"/>
	</g>
</svg>
