<svg width="252.000000" height="240.000000" viewBox="0 0 252 240" fill="none" xmlns="http://www.w3.org/2000/svg" xmlns:xlink="http://www.w3.org/1999/xlink">
	<desc>
			Created with Pixso.
	</desc>
	<defs>
		<clipPath id="clip22_9025">
			<rect width="252.000000" height="176.000000" transform="translate(0.000000 32.000000)" fill="white" fill-opacity="0"/>
		</clipPath>
	</defs>
	<g opacity="0.500000">
		<circle cx="126.000000" cy="120.000000" r="120.000000" fill="#F2F3F3" fill-opacity="1.000000"/>
	</g>
	<rect width="252.000000" height="176.000000" transform="translate(0.000000 32.000000)" fill="#FFFFFF" fill-opacity="0"/>
	<g clip-path="url(#clip22_9025)">
		<path d="M248.66 96.63L139.68 159.44L81.22 125.73L190.31 62.93L248.66 96.63Z" fill="#F2F3F3" fill-opacity="1.000000" fill-rule="nonzero"/>
		<path d="M244.7 99.09L135.07 161.47L80.89 130.34L189.99 67.53L244.7 99.09Z" fill="#C2E6EA" fill-opacity="1.000000" fill-rule="nonzero"/>
		<path d="M139.68 159.97L80.36 125.73L190.31 62.4L190.52 62.5L249.63 96.53L139.68 159.97ZM82.18 125.73L139.68 158.79L247.81 96.53L190.31 63.47L82.18 125.73Z" fill="#2F2D4F" fill-opacity="1.000000" fill-rule="nonzero"/>
		<path d="M210.69 129.27L75.32 207.15L1.41 164.14L136.78 86.25L210.69 129.27Z" fill="#F2F3F3" fill-opacity="1.000000" fill-rule="nonzero"/>
		<path d="M6.13 166.61L75.42 206.83L205.97 131.73L136.78 91.5L6.13 166.61Z" fill="#C2E6EA" fill-opacity="1.000000" fill-rule="nonzero"/>
		<path d="M75.32 207.69L75.1 207.58L0.44 164.14L1.09 163.72L136.78 85.72L137 85.83L211.66 129.27L211.01 129.69L75.32 207.69ZM2.27 164.14L75.32 206.62L209.73 129.27L136.78 86.79L2.27 164.14Z" fill="#2F2D4F" fill-opacity="1.000000" fill-rule="nonzero"/>
		<path d="M235.15 135.04L235.15 139.11C235.15 140.28 235.9 141.46 237.51 142.32C240.62 144.14 245.66 144.14 248.77 142.32C250.27 141.46 251.13 140.28 251.13 139.11L251.13 135.04L235.15 135.04Z" fill="#C2E6EA" fill-opacity="1.000000" fill-rule="nonzero"/>
		<path d="M243.09 144.03C240.94 144.03 238.9 143.6 237.29 142.64C235.69 141.68 234.83 140.5 234.83 139.11L234.83 134.72L251.35 134.72L251.35 139.11C251.35 140.5 250.49 141.68 248.88 142.64C247.27 143.6 245.23 144.03 243.09 144.03ZM235.47 135.47L235.47 139.22C235.47 140.28 236.22 141.36 237.62 142.1C240.62 143.82 245.45 143.82 248.45 142.1C249.84 141.36 250.6 140.28 250.6 139.22L250.6 135.47L235.47 135.47Z" fill="#2F2D4F" fill-opacity="1.000000" fill-rule="nonzero"/>
		<path d="M242.34 135.04L242.34 143.6C244.59 143.71 246.95 143.28 248.66 142.32C250.17 141.46 251.02 140.28 251.02 139.11L251.02 135.04L242.34 135.04Z" fill="#2F2D4F" fill-opacity="1.000000" fill-rule="nonzero"/>
		<path d="M243.09 144.03C242.87 144.03 242.55 144.03 242.34 144.03L242.01 144.03L242.01 134.72L251.35 134.72L251.35 139.11C251.35 140.5 250.49 141.68 248.88 142.64C247.38 143.6 245.23 144.03 243.09 144.03ZM242.77 143.39C244.91 143.5 247.06 142.96 248.56 142.1C249.95 141.36 250.7 140.28 250.7 139.22L250.7 135.47L242.77 135.47L242.77 143.39Z" fill="#2F2D4F" fill-opacity="1.000000" fill-rule="nonzero"/>
		<path d="M248.66 131.83C251.78 133.65 251.78 136.54 248.66 138.25C245.55 140.07 240.51 140.07 237.4 138.25C234.29 136.43 234.29 133.55 237.4 131.83C240.62 130.01 245.55 130.01 248.66 131.83Z" fill="#F2F3F3" fill-opacity="1.000000" fill-rule="nonzero"/>
		<path d="M243.09 139.96C240.94 139.96 238.9 139.54 237.29 138.57C235.69 137.61 234.83 136.43 234.83 135.04C234.83 133.65 235.69 132.48 237.29 131.51C240.51 129.69 245.66 129.69 248.88 131.51C250.49 132.48 251.35 133.65 251.35 135.04C251.35 136.43 250.49 137.61 248.88 138.57C247.27 139.54 245.23 139.96 243.09 139.96ZM243.09 130.87C241.16 130.87 239.12 131.3 237.62 132.15C236.22 132.9 235.47 133.97 235.47 135.04C235.47 136.11 236.22 137.18 237.62 137.93C240.62 139.64 245.45 139.64 248.45 137.93C249.84 137.18 250.6 136.11 250.6 135.04C250.6 133.97 249.84 132.9 248.45 132.15C247.06 131.3 245.02 130.87 243.09 130.87Z" fill="#2F2D4F" fill-opacity="1.000000" fill-rule="nonzero"/>
		<path d="M239.44 139.22L240.19 139.22L240.19 143.28L239.44 143.28L239.44 139.22Z" fill="#2F2D4F" fill-opacity="1.000000" fill-rule="evenodd"/>
		<path d="M248.88 139.32L249.63 139.32L249.63 140.39L248.88 140.39L248.88 139.32Z" fill="#C2E6EA" fill-opacity="1.000000" fill-rule="evenodd"/>
		<path d="M114.36 103.69L114.36 118.67C114.36 119.85 115.11 121.03 116.72 121.88C119.83 123.7 124.88 123.7 127.99 121.88C129.49 121.03 130.35 119.85 130.35 118.67L130.35 103.69L114.36 103.69Z" fill="#C2E6EA" fill-opacity="1.000000" fill-rule="nonzero"/>
		<path d="M122.3 123.59C120.16 123.59 118.12 123.17 116.51 122.2C114.9 121.24 114.04 120.06 114.04 118.67L114.04 103.37L130.56 103.37L130.56 118.67C130.56 120.06 129.7 121.24 128.09 122.2C126.49 123.06 124.34 123.59 122.3 123.59ZM114.69 104.02L114.69 118.57C114.69 119.64 115.44 120.71 116.83 121.46C119.83 123.17 124.66 123.17 127.66 121.46C129.06 120.71 129.81 119.64 129.81 118.57L129.81 104.02L114.69 104.02Z" fill="#2F2D4F" fill-opacity="1.000000" fill-rule="nonzero"/>
		<path d="M121.55 103.69L121.55 123.17C123.8 123.27 126.16 122.85 127.88 121.88C129.38 121.03 130.24 119.85 130.24 118.67L130.24 103.69L121.55 103.69Z" fill="#2F2D4F" fill-opacity="1.000000" fill-rule="nonzero"/>
		<path d="M122.3 123.59C122.09 123.59 121.77 123.59 121.55 123.59L121.23 123.59L121.23 103.48L130.56 103.48L130.56 118.78C130.56 120.17 129.7 121.35 128.09 122.31C126.49 123.06 124.45 123.59 122.3 123.59ZM121.87 122.85C124.02 122.95 126.16 122.42 127.66 121.56C129.06 120.81 129.81 119.74 129.81 118.67L129.81 104.12L121.87 104.12L121.87 122.85Z" fill="#2F2D4F" fill-opacity="1.000000" fill-rule="nonzero"/>
		<path d="M127.88 100.49C130.99 102.3 130.99 105.19 127.88 106.9C124.77 108.72 119.73 108.72 116.62 106.9C113.51 105.09 113.51 102.2 116.62 100.49C119.73 98.67 124.77 98.67 127.88 100.49Z" fill="#C2E6EA" fill-opacity="1.000000" fill-rule="nonzero"/>
		<path d="M122.3 108.62C120.16 108.62 118.12 108.19 116.51 107.23C114.9 106.26 114.04 105.09 114.04 103.69C114.04 102.3 114.9 101.13 116.51 100.16C119.73 98.34 124.88 98.34 128.09 100.16C129.7 101.13 130.56 102.3 130.56 103.69C130.56 105.09 129.7 106.26 128.09 107.23C126.49 108.19 124.34 108.62 122.3 108.62ZM122.3 99.52C120.37 99.52 118.33 99.95 116.83 100.81C115.44 101.56 114.69 102.62 114.69 103.69C114.69 104.76 115.44 105.83 116.83 106.58C119.83 108.3 124.66 108.3 127.66 106.58C129.06 105.83 129.81 104.76 129.81 103.69C129.81 102.62 129.06 101.56 127.66 100.81C126.16 99.95 124.23 99.52 122.3 99.52Z" fill="#2F2D4F" fill-opacity="1.000000" fill-rule="nonzero"/>
		<path d="M118.55 107.87L119.3 107.87L119.3 122.85L118.55 122.85L118.55 107.87Z" fill="#2F2D4F" fill-opacity="1.000000" fill-rule="evenodd"/>
		<path d="M127.99 107.97L128.74 107.97L128.74 119.96L127.99 119.96L127.99 107.97Z" fill="#C2E6EA" fill-opacity="1.000000" fill-rule="evenodd"/>
		<path d="M114.36 96.21L114.36 100.27C114.36 101.45 115.11 102.62 116.72 103.48C119.83 105.3 124.88 105.3 127.99 103.48C129.49 102.62 130.35 101.45 130.35 100.27L130.35 96.21L114.36 96.21Z" fill="#C2E6EA" fill-opacity="1.000000" fill-rule="nonzero"/>
		<path d="M122.3 105.19C120.16 105.19 118.12 104.76 116.51 103.8C114.9 102.84 114.04 101.66 114.04 100.27L114.04 95.88L130.56 95.88L130.56 100.27C130.56 101.66 129.7 102.84 128.09 103.8C126.49 104.66 124.34 105.19 122.3 105.19ZM114.69 96.53L114.69 100.27C114.69 101.34 115.44 102.41 116.83 103.16C119.83 104.87 124.66 104.87 127.66 103.16C129.06 102.41 129.81 101.34 129.81 100.27L129.81 96.53L114.69 96.53Z" fill="#2F2D4F" fill-opacity="1.000000" fill-rule="nonzero"/>
		<path d="M121.55 96.21L121.55 104.76C123.8 104.87 126.16 104.44 127.88 103.48C129.38 102.62 130.24 101.45 130.24 100.27L130.24 96.21L121.55 96.21Z" fill="#2F2D4F" fill-opacity="1.000000" fill-rule="nonzero"/>
		<path d="M122.3 105.09C122.09 105.09 121.77 105.09 121.55 105.09L121.23 105.09L121.23 95.78L130.56 95.78L130.56 100.16C130.56 101.56 129.7 102.73 128.09 103.69C126.49 104.66 124.45 105.09 122.3 105.09ZM121.87 104.44C124.02 104.55 126.16 104.02 127.66 103.16C129.06 102.41 129.81 101.34 129.81 100.27L129.81 96.53L121.87 96.53L121.87 104.44Z" fill="#2F2D4F" fill-opacity="1.000000" fill-rule="nonzero"/>
		<path d="M127.88 92.89C130.99 94.71 130.99 97.6 127.88 99.31C124.77 101.13 119.73 101.13 116.62 99.31C113.51 97.49 113.51 94.6 116.62 92.89C119.73 91.18 124.77 91.18 127.88 92.89Z" fill="#C2E6EA" fill-opacity="1.000000" fill-rule="nonzero"/>
		<path d="M122.3 101.13C120.16 101.13 118.12 100.7 116.51 99.74C114.9 98.77 114.04 97.6 114.04 96.2C114.04 94.81 114.9 93.64 116.51 92.67C119.73 90.86 124.88 90.86 128.09 92.67C129.7 93.64 130.56 94.81 130.56 96.2C130.56 97.6 129.7 98.77 128.09 99.74C126.49 100.59 124.34 101.13 122.3 101.13ZM122.3 91.93C120.37 91.93 118.33 92.35 116.83 93.21C115.44 93.96 114.69 95.03 114.69 96.1C114.69 97.17 115.44 98.24 116.83 98.99C119.83 100.7 124.66 100.7 127.66 98.99C129.06 98.24 129.81 97.17 129.81 96.1C129.81 95.03 129.06 93.96 127.66 93.21C126.16 92.35 124.23 91.93 122.3 91.93Z" fill="#2F2D4F" fill-opacity="1.000000" fill-rule="nonzero"/>
		<path d="M118.55 100.27L119.3 100.27L119.3 104.34L118.55 104.34L118.55 100.27Z" fill="#2F2D4F" fill-opacity="1.000000" fill-rule="evenodd"/>
		<path d="M127.99 100.38L128.74 100.38L128.74 101.45L127.99 101.45L127.99 100.38Z" fill="#C2E6EA" fill-opacity="1.000000" fill-rule="evenodd"/>
		<path d="M144.94 148.63L144.94 163.61C144.94 164.79 145.69 165.96 147.3 166.82C150.41 168.64 155.45 168.64 158.56 166.82C160.06 165.96 160.92 164.79 160.92 163.61L160.92 148.63L144.94 148.63Z" fill="#C2E6EA" fill-opacity="1.000000" fill-rule="nonzero"/>
		<path d="M152.87 168.42C150.73 168.42 148.69 168 147.08 167.03C145.47 166.07 144.61 164.89 144.61 163.5L144.61 148.2L161.13 148.2L161.13 163.5C161.13 164.89 160.27 166.07 158.67 167.03C157.06 168 154.91 168.42 152.87 168.42ZM145.26 148.95L145.26 163.5C145.26 164.57 146.01 165.64 147.4 166.39C150.41 168.1 155.23 168.1 158.24 166.39C159.63 165.64 160.38 164.57 160.38 163.5L160.38 148.95L145.26 148.95Z" fill="#2F2D4F" fill-opacity="1.000000" fill-rule="nonzero"/>
		<path d="M152.12 148.63L152.12 168.1C154.37 168.21 156.74 167.78 158.45 166.82C159.95 165.96 160.81 164.79 160.81 163.61L160.81 148.63L152.12 148.63Z" fill="#2F2D4F" fill-opacity="1.000000" fill-rule="nonzero"/>
		<path d="M152.87 168.42C152.66 168.42 152.34 168.42 152.12 168.42L151.8 168.42L151.8 148.31L161.13 148.31L161.13 163.61C161.13 165 160.27 166.18 158.67 167.14C157.06 168 155.02 168.42 152.87 168.42ZM152.44 167.68C154.7 167.78 156.74 167.25 158.24 166.39C159.63 165.64 160.38 164.57 160.38 163.5L160.38 148.95L152.44 148.95L152.44 167.68Z" fill="#2F2D4F" fill-opacity="1.000000" fill-rule="nonzero"/>
		<path d="M158.45 145.31C161.56 147.13 161.56 150.02 158.45 151.73C155.34 153.55 150.3 153.55 147.19 151.73C144.08 149.91 144.08 147.03 147.19 145.31C150.3 143.6 155.34 143.6 158.45 145.31Z" fill="#C2E6EA" fill-opacity="1.000000" fill-rule="nonzero"/>
		<path d="M152.87 153.45C150.73 153.45 148.69 153.02 147.08 152.05C145.47 151.09 144.61 149.91 144.61 148.52C144.61 147.13 145.47 145.96 147.08 144.99C150.3 143.17 155.45 143.17 158.67 144.99C160.27 145.96 161.13 147.13 161.13 148.52C161.13 149.91 160.27 151.09 158.67 152.05C157.06 153.02 154.91 153.45 152.87 153.45ZM152.87 144.35C150.94 144.35 148.9 144.78 147.4 145.64C146.01 146.38 145.26 147.45 145.26 148.52C145.26 149.59 146.01 150.66 147.4 151.41C150.41 153.12 155.23 153.12 158.24 151.41C159.63 150.66 160.38 149.59 160.38 148.52C160.38 147.45 159.63 146.38 158.24 145.64C156.74 144.78 154.8 144.35 152.87 144.35Z" fill="#2F2D4F" fill-opacity="1.000000" fill-rule="nonzero"/>
		<path d="M149.12 152.7L149.87 152.7L149.87 167.68L149.12 167.68L149.12 152.7Z" fill="#2F2D4F" fill-opacity="1.000000" fill-rule="evenodd"/>
		<path d="M158.56 152.8L159.31 152.8L159.31 164.79L158.56 164.79L158.56 152.8Z" fill="#C2E6EA" fill-opacity="1.000000" fill-rule="evenodd"/>
		<path d="M144.94 141.36L144.94 145.42C144.94 146.6 145.69 147.77 147.3 148.63C150.41 150.45 155.45 150.45 158.56 148.63C160.06 147.77 160.92 146.6 160.92 145.42L160.92 141.36L144.94 141.36Z" fill="#C2E6EA" fill-opacity="1.000000" fill-rule="nonzero"/>
		<path d="M152.87 150.34C150.73 150.34 148.69 149.91 147.08 148.95C145.47 147.99 144.61 146.81 144.61 145.42L144.61 141.03L161.13 141.03L161.13 145.42C161.13 146.81 160.27 147.99 158.67 148.95C157.06 149.91 154.91 150.34 152.87 150.34ZM145.26 141.68L145.26 145.42C145.26 146.49 146.01 147.56 147.4 148.31C150.41 150.02 155.23 150.02 158.24 148.31C159.63 147.56 160.38 146.49 160.38 145.42L160.38 141.68L145.26 141.68Z" fill="#2F2D4F" fill-opacity="1.000000" fill-rule="nonzero"/>
		<path d="M152.12 141.36L152.12 149.91C154.37 150.02 156.74 149.59 158.45 148.63C159.95 147.77 160.81 146.6 160.81 145.42L160.81 141.36L152.12 141.36Z" fill="#2F2D4F" fill-opacity="1.000000" fill-rule="nonzero"/>
		<path d="M152.87 150.34C152.66 150.34 152.34 150.34 152.12 150.34L151.8 150.34L151.8 141.03L161.13 141.03L161.13 145.42C161.13 146.81 160.27 147.99 158.67 148.95C157.06 149.81 155.02 150.34 152.87 150.34ZM152.44 149.59C154.7 149.7 156.74 149.17 158.24 148.31C159.63 147.56 160.38 146.49 160.38 145.42L160.38 141.68L152.44 141.68L152.44 149.59Z" fill="#2F2D4F" fill-opacity="1.000000" fill-rule="nonzero"/>
		<path d="M158.45 138.14C161.56 139.96 161.56 142.85 158.45 144.57C155.34 146.38 150.3 146.38 147.19 144.57C144.08 142.75 144.08 139.86 147.19 138.14C150.3 136.33 155.34 136.33 158.45 138.14Z" fill="#C2E6EA" fill-opacity="1.000000" fill-rule="nonzero"/>
		<path d="M152.87 146.28C150.73 146.28 148.69 145.85 147.08 144.89C145.47 143.92 144.61 142.75 144.61 141.36C144.61 139.96 145.47 138.79 147.08 137.82C150.3 136 155.45 136 158.67 137.82C160.27 138.79 161.13 139.96 161.13 141.36C161.13 142.75 160.27 143.92 158.67 144.89C157.06 145.85 154.91 146.28 152.87 146.28ZM152.87 137.18C150.94 137.18 148.9 137.61 147.4 138.47C146.01 139.22 145.26 140.28 145.26 141.36C145.26 142.42 146.01 143.5 147.4 144.24C150.41 145.96 155.23 145.96 158.24 144.24C159.63 143.5 160.38 142.42 160.38 141.36C160.38 140.28 159.63 139.22 158.24 138.47C156.74 137.61 154.8 137.18 152.87 137.18Z" fill="#2F2D4F" fill-opacity="1.000000" fill-rule="nonzero"/>
		<path d="M149.12 145.53L149.87 145.53L149.87 149.59L149.12 149.59L149.12 145.53Z" fill="#2F2D4F" fill-opacity="1.000000" fill-rule="evenodd"/>
		<path d="M158.56 145.64L159.31 145.64L159.31 146.7L158.56 146.7L158.56 145.64Z" fill="#C2E6EA" fill-opacity="1.000000" fill-rule="evenodd"/>
		<path d="M144.94 134.51L144.94 138.57C144.94 139.75 145.69 140.93 147.3 141.78C150.41 143.6 155.45 143.6 158.56 141.78C160.06 140.93 160.92 139.75 160.92 138.57L160.92 134.51L144.94 134.51Z" fill="#C2E6EA" fill-opacity="1.000000" fill-rule="nonzero"/>
		<path d="M152.87 143.5C150.73 143.5 148.69 143.07 147.08 142.1C145.47 141.14 144.61 139.96 144.61 138.57L144.61 134.19L161.13 134.19L161.13 138.57C161.13 139.96 160.27 141.14 158.67 142.1C157.06 143.07 154.91 143.5 152.87 143.5ZM145.26 134.83L145.26 138.57C145.26 139.64 146.01 140.71 147.4 141.46C150.41 143.17 155.23 143.17 158.24 141.46C159.63 140.71 160.38 139.64 160.38 138.57L160.38 134.83L145.26 134.83Z" fill="#2F2D4F" fill-opacity="1.000000" fill-rule="nonzero"/>
		<path d="M152.12 134.51L152.12 143.07C154.37 143.17 156.74 142.75 158.45 141.78C159.95 140.93 160.81 139.75 160.81 138.57L160.81 134.51L152.12 134.51Z" fill="#2F2D4F" fill-opacity="1.000000" fill-rule="nonzero"/>
		<path d="M152.87 143.5C152.66 143.5 152.34 143.5 152.12 143.5L151.8 143.5L151.8 134.19L161.13 134.19L161.13 138.57C161.13 139.96 160.27 141.14 158.67 142.1C157.06 142.96 155.02 143.5 152.87 143.5ZM152.44 142.75C154.7 142.85 156.74 142.32 158.24 141.46C159.63 140.71 160.38 139.64 160.38 138.57L160.38 134.83L152.44 134.83L152.44 142.75Z" fill="#2F2D4F" fill-opacity="1.000000" fill-rule="nonzero"/>
		<path d="M158.45 131.3C161.56 133.12 161.56 136 158.45 137.72C155.34 139.54 150.3 139.54 147.19 137.72C144.08 135.9 144.08 133.01 147.19 131.3C150.3 129.48 155.34 129.48 158.45 131.3Z" fill="#F2F3F3" fill-opacity="1.000000" fill-rule="nonzero"/>
		<path d="M152.87 139.43C150.73 139.43 148.69 139 147.08 138.04C145.47 137.08 144.61 135.9 144.61 134.51C144.61 133.12 145.47 131.94 147.08 130.98C150.3 129.16 155.45 129.16 158.67 130.98C160.27 131.94 161.13 133.12 161.13 134.51C161.13 135.9 160.27 137.08 158.67 138.04C157.06 139 154.91 139.43 152.87 139.43ZM152.87 130.34C150.94 130.34 148.9 130.76 147.4 131.62C146.01 132.37 145.26 133.44 145.26 134.51C145.26 135.58 146.01 136.65 147.4 137.4C150.41 139.11 155.23 139.11 158.24 137.4C159.63 136.65 160.38 135.58 160.38 134.51C160.38 133.44 159.63 132.37 158.24 131.62C156.74 130.76 154.8 130.34 152.87 130.34Z" fill="#2F2D4F" fill-opacity="1.000000" fill-rule="nonzero"/>
		<path d="M149.12 138.68L149.87 138.68L149.87 142.75L149.12 142.75L149.12 138.68Z" fill="#2F2D4F" fill-opacity="1.000000" fill-rule="evenodd"/>
		<path d="M158.56 138.79L159.31 138.79L159.31 139.86L158.56 139.86L158.56 138.79Z" fill="#C2E6EA" fill-opacity="1.000000" fill-rule="evenodd"/>
		<path d="M182.05 199.99C180.23 199.99 178.3 199.56 176.69 198.6L120.8 166.28C118.98 165.21 116.62 165.21 114.69 166.28L85.94 182.97C82.61 184.9 78.43 184.9 75.1 182.87L43.46 163.93C41.85 162.97 40.88 161.25 40.88 159.33C40.88 157.4 41.96 155.69 43.57 154.84L61.16 144.89C61.37 144.78 61.48 144.46 61.48 144.35C61.48 144.14 61.48 143.92 61.16 143.82L39.81 131.19L42.17 127.23L63.41 139.75C65.02 140.71 65.98 142.42 65.98 144.35C65.98 146.28 65.02 147.99 63.3 148.95L45.71 158.9C45.5 159.01 45.39 159.33 45.39 159.44C45.39 159.65 45.39 159.86 45.71 159.97L77.36 178.91C79.29 180.09 81.65 180.09 83.47 178.91L112.33 162.22C115.65 160.29 119.73 160.29 123.05 162.22L178.94 194.53C180.76 195.6 183.12 195.6 184.95 194.53L230.32 169.17C230.54 169.07 230.64 168.75 230.64 168.64C230.64 168.42 230.64 168.21 230.32 168.1L148.37 120.6C146.76 119.64 145.69 117.92 145.69 116C145.69 114.07 146.65 112.36 148.37 111.4L195.67 84.11L198.03 88.18L150.73 115.46C150.51 115.57 150.41 115.89 150.41 116C150.41 116.21 150.51 116.43 150.73 116.53L232.68 164.04C234.4 165 235.36 166.71 235.36 168.64C235.36 170.56 234.29 172.28 232.68 173.24L187.31 198.6C185.7 199.56 183.87 199.99 182.05 199.99Z" fill="#C2E6EA" fill-opacity="1.000000" fill-rule="nonzero"/>
		<path d="M182.05 201.48C180.23 201.48 178.3 201.06 176.69 200.09L120.8 167.78C118.98 166.71 116.62 166.71 114.69 167.78L85.83 184.47C82.5 186.4 78.32 186.4 75 184.37L43.35 165.43C41.74 164.47 40.78 162.75 40.78 160.83C40.78 158.9 41.85 157.19 43.46 156.33L61.05 146.38C61.27 146.28 61.37 145.96 61.37 145.85C61.37 145.64 61.37 145.42 61.05 145.31L39.81 132.69L42.17 128.73L63.3 141.25C64.91 142.21 65.88 143.92 65.88 145.85C65.88 147.77 64.91 149.49 63.2 150.45L45.6 160.4C45.39 160.51 45.28 160.83 45.28 160.93C45.28 161.15 45.28 161.36 45.6 161.47L77.25 180.41C79.18 181.58 81.54 181.58 83.36 180.41L112.22 163.72C115.54 161.79 119.62 161.79 122.95 163.72L178.83 196.03C180.66 197.1 183.02 197.1 184.84 196.03L230.21 170.67C230.43 170.56 230.54 170.24 230.54 170.14C230.54 169.92 230.54 169.71 230.21 169.6L148.37 122.1C146.76 121.13 145.69 119.42 145.69 117.5C145.69 115.57 146.65 113.86 148.37 112.9L195.67 85.61L198.03 89.68L150.73 116.96C150.51 117.07 150.41 117.39 150.41 117.5C150.41 117.6 150.51 117.92 150.73 118.03L232.68 165.54C234.4 166.5 235.36 168.21 235.36 170.14C235.36 172.06 234.29 173.77 232.68 174.74L187.31 200.09C185.59 201.06 183.77 201.48 182.05 201.48Z" fill="#F2F3F3" fill-opacity="1.000000" fill-rule="nonzero"/>
		<path d="M182.05 200.41C180.12 200.41 178.19 199.88 176.47 198.92L120.59 166.61C118.87 165.54 116.62 165.54 114.9 166.61L86.04 183.3C82.61 185.33 78.21 185.33 74.78 183.19L43.14 164.25C41.42 163.18 40.35 161.36 40.35 159.33C40.35 157.3 41.42 155.48 43.24 154.52L60.84 144.57C60.94 144.57 60.94 144.46 60.94 144.35C60.94 144.24 60.84 144.14 60.84 144.14L39.38 131.41L42.06 126.8L63.52 139.54C65.23 140.61 66.31 142.42 66.31 144.46C66.31 146.49 65.23 148.31 63.41 149.27L45.82 159.22C45.71 159.33 45.71 159.33 45.71 159.44C45.71 159.54 45.82 159.65 45.82 159.65L77.46 178.59C79.29 179.66 81.43 179.66 83.25 178.59L112.11 161.9C115.54 159.86 119.73 159.86 123.16 161.9L179.05 194.21C180.76 195.17 182.91 195.28 184.73 194.21L230.11 168.85C230.21 168.85 230.21 168.75 230.21 168.64C230.21 168.53 230.11 168.42 230.11 168.42L148.15 120.92C146.44 119.85 145.36 118.03 145.36 116C145.36 113.97 146.44 112.15 148.15 111.08L195.78 83.69L198.46 88.29L198.14 88.5L150.84 115.78C150.73 115.89 150.73 115.89 150.73 116C150.73 116.11 150.73 116.21 150.84 116.21L232.9 163.82C234.72 164.89 235.68 166.71 235.68 168.75C235.68 170.78 234.61 172.6 232.79 173.67L187.41 199.02C185.81 199.88 183.98 200.41 182.05 200.41ZM117.8 165.11C118.87 165.11 120.05 165.43 121.01 165.96L176.9 198.27C180.01 200.09 184.09 200.09 187.2 198.38L232.57 173.02C234.18 172.17 235.04 170.56 235.15 168.75C235.15 166.93 234.29 165.32 232.68 164.47L150.73 116.96C150.41 116.75 150.19 116.43 150.19 116.11C150.19 115.78 150.41 115.46 150.73 115.25L197.71 88.18L195.78 84.76L148.8 111.83C147.3 112.68 146.33 114.29 146.33 116.11C146.33 117.92 147.3 119.53 148.8 120.39L230.75 167.89C231.07 168.1 231.29 168.42 231.29 168.75C231.29 169.07 231.07 169.39 230.75 169.6L185.38 194.96C183.45 196.03 180.98 196.03 179.05 194.96L123.16 162.65C119.94 160.83 115.97 160.83 112.75 162.65L83.79 179.34C81.75 180.51 79.29 180.51 77.25 179.34L45.6 160.4C45.28 160.19 45.07 159.86 45.17 159.54C45.17 159.22 45.39 158.9 45.71 158.69L63.3 148.74C64.8 147.88 65.77 146.28 65.77 144.46C65.77 142.64 64.91 141.03 63.3 140.18L42.39 127.87L40.35 131.3L61.16 143.5C61.48 143.71 61.69 144.03 61.69 144.35C61.69 144.67 61.48 144.99 61.16 145.21L43.57 155.16C42.06 156.01 41.1 157.62 41.1 159.44C41.1 161.25 41.96 162.86 43.46 163.72L75.1 182.65C78.32 184.58 82.4 184.58 85.61 182.76L114.47 166.07C115.54 165.43 116.72 165.11 117.8 165.11Z" fill="#2F2D4F" fill-opacity="1.000000" fill-rule="nonzero"/>
		<path d="M52.47 128.73L52.47 125.63C52.47 125.63 52.47 125.63 52.36 125.52L34.55 123.27C34.45 123.38 34.45 123.38 34.34 123.49L34.34 125.31L34.34 126.38C34.34 126.48 34.34 126.59 34.45 126.7L38.31 135.26C38.63 136 40.13 136.22 40.99 135.68L51.93 129.37C52.25 129.16 52.47 128.94 52.47 128.73Z" fill="#2F2D4F" fill-opacity="1.000000" fill-rule="nonzero"/>
		<path d="M39.81 136.33C39.49 136.33 39.17 136.33 38.95 136.22C38.52 136.11 38.09 135.79 37.99 135.47L34.13 126.91C34.02 126.8 34.02 126.59 34.02 126.38C34.02 126.27 34.02 126.16 34.02 126.06C34.02 125.84 34.02 125.52 34.02 125.41L34.02 125.31L34.02 123.27L34.55 122.85L52.58 125.2L52.79 125.41L52.9 125.63L52.9 128.73C52.9 128.94 52.79 129.37 52.25 129.69L41.1 136C40.78 136.22 40.35 136.33 39.81 136.33ZM34.66 125.31C34.66 125.41 34.66 125.63 34.66 125.95L34.66 126.38C34.66 126.48 34.66 126.48 34.66 126.59L38.52 135.15C38.63 135.26 38.85 135.47 39.06 135.58C39.6 135.79 40.24 135.68 40.67 135.47L51.61 129.16C51.83 129.05 51.93 128.94 51.93 128.84L51.93 126.06L34.55 123.81L34.66 125.31Z" fill="#2F2D4F" fill-opacity="1.000000" fill-rule="nonzero"/>
		<path d="M51.93 126.27L40.99 132.58C40.13 133.12 38.63 132.9 38.31 132.15L34.45 123.6C34.13 122.95 35.2 122.31 36.38 122.42L51.29 124.66C52.47 124.88 52.79 125.73 51.93 126.27Z" fill="#C2E6EA" fill-opacity="1.000000" fill-rule="nonzero"/>
		<path d="M39.81 133.22C39.49 133.22 39.17 133.22 38.95 133.12C38.52 133.01 38.09 132.69 37.99 132.37L34.12 123.81C34.02 123.49 34.02 123.17 34.23 122.85C34.66 122.31 35.52 121.99 36.48 122.2L51.4 124.45C52.25 124.56 52.79 124.99 52.9 125.52C53 125.95 52.79 126.38 52.25 126.7L41.31 133.01C40.78 133.12 40.35 133.22 39.81 133.22ZM35.95 122.85C35.41 122.85 34.88 123.06 34.77 123.27C34.66 123.38 34.66 123.49 34.77 123.49L38.63 132.05C38.74 132.15 38.95 132.37 39.17 132.48C39.7 132.69 40.35 132.58 40.78 132.37L51.72 126.06C51.82 125.95 52.04 125.84 52.04 125.63C52.04 125.41 51.72 125.2 51.07 125.09L36.16 122.85C36.16 122.85 36.06 122.85 35.95 122.85Z" fill="#2F2D4F" fill-opacity="1.000000" fill-rule="nonzero"/>
		<path d="M44.21 123.92C42.92 123.59 41.53 123.59 40.24 123.92L37.88 123.92C37.88 123.92 37.77 123.92 37.77 124.02L37.77 126.16C37.77 127.02 38.63 127.98 40.24 128.41C41.53 128.73 42.81 128.73 44.1 128.41C45.71 127.87 46.57 127.02 46.57 126.16L46.57 124.02C46.57 124.02 46.57 123.92 46.46 123.92L44.21 123.92Z" fill="#2F2D4F" fill-opacity="1.000000" fill-rule="nonzero"/>
		<path d="M42.28 129.05C41.63 129.05 40.88 128.94 40.24 128.73C38.52 128.2 37.56 127.23 37.56 126.16L37.56 124.02C37.56 123.81 37.77 123.6 37.99 123.6L40.24 123.6C41.53 123.27 43.03 123.27 44.32 123.6L46.57 123.6C46.78 123.6 47 123.81 47 124.02L47 126.16C47 127.34 46.03 128.3 44.32 128.73C43.67 128.94 42.92 129.05 42.28 129.05ZM38.31 124.24L38.31 126.16C38.31 126.91 39.17 127.66 40.56 128.09C41.74 128.41 43.03 128.41 44.21 128.09C45.6 127.66 46.46 126.91 46.46 126.16L46.46 124.24L44.32 124.24C43.14 123.92 41.74 123.92 40.56 124.24L40.46 124.24L38.31 124.24Z" fill="#2F2D4F" fill-opacity="1.000000" fill-rule="nonzero"/>
		<path d="M45.39 122.1C47.1 123.06 47.1 124.66 45.39 125.63C43.67 126.59 40.88 126.59 39.17 125.63C37.45 124.66 37.45 123.06 39.17 122.1C40.88 121.13 43.67 121.13 45.39 122.1Z" fill="#F2F3F3" fill-opacity="1.000000" fill-rule="nonzero"/>
		<path d="M42.28 126.7C41.1 126.7 39.92 126.48 39.06 125.95C38.09 125.41 37.56 124.66 37.56 123.92C37.56 123.06 38.09 122.42 39.06 121.88C40.88 120.81 43.78 120.81 45.6 121.88C46.57 122.42 47.11 123.17 47.11 123.92C47.11 124.77 46.57 125.41 45.6 125.95C44.64 126.48 43.46 126.7 42.28 126.7ZM42.28 121.67C41.21 121.67 40.13 121.88 39.38 122.42C38.63 122.85 38.31 123.38 38.31 123.92C38.31 124.45 38.74 124.99 39.38 125.41C40.99 126.38 43.57 126.38 45.17 125.41C45.93 124.99 46.25 124.45 46.25 123.92C46.25 123.38 45.82 122.85 45.17 122.42C44.42 121.99 43.35 121.67 42.28 121.67Z" fill="#2F2D4F" fill-opacity="1.000000" fill-rule="nonzero"/>
		<path d="M39.17 133.01L39.92 133.01L39.92 135.79L39.17 135.79L39.17 133.01Z" fill="#C2E6EA" fill-opacity="1.000000" fill-rule="evenodd"/>
		<path d="M42.71 126.38L43.46 126.38L43.46 128.62L42.71 128.62L42.71 126.38Z" fill="#C2E6EA" fill-opacity="1.000000" fill-rule="evenodd"/>
		<path d="M215.95 186.51L215.95 183.4C215.95 183.4 215.95 183.4 215.84 183.3L198.03 181.05C197.93 181.16 197.93 181.16 197.82 181.26L197.82 183.08L197.82 184.15C197.82 184.26 197.82 184.37 197.93 184.47L201.79 193.03C202.11 193.78 203.61 194 204.47 193.46L215.41 187.15C215.84 187.04 215.95 186.72 215.95 186.51Z" fill="#2F2D4F" fill-opacity="1.000000" fill-rule="nonzero"/>
		<path d="M203.29 194.1C202.97 194.1 202.65 194.1 202.43 194C202 193.89 201.57 193.57 201.47 193.25L197.6 184.69C197.5 184.58 197.5 184.37 197.5 184.15C197.5 184.05 197.5 183.94 197.5 183.83C197.5 183.62 197.5 183.3 197.5 183.19L197.5 183.08L197.5 181.05L198.03 180.62L216.06 182.97L216.27 183.19L216.38 183.4L216.38 186.51C216.38 186.72 216.27 187.15 215.73 187.47L204.79 193.78C204.26 194 203.83 194.1 203.29 194.1ZM198.14 183.19C198.14 183.3 198.14 183.51 198.14 183.83L198.14 184.26C198.14 184.37 198.14 184.37 198.14 184.47L202 193.03C202.11 193.14 202.32 193.35 202.54 193.46C203.08 193.67 203.72 193.57 204.15 193.35L215.09 187.04C215.3 186.93 215.41 186.83 215.41 186.72L215.41 183.94L198.03 181.69L198.14 183.19Z" fill="#2F2D4F" fill-opacity="1.000000" fill-rule="nonzero"/>
		<path d="M215.41 184.05L204.47 190.36C203.61 190.89 202.11 190.68 201.79 189.93L197.93 181.37C197.6 180.73 198.68 180.09 199.86 180.19L214.77 182.44C215.95 182.65 216.38 183.62 215.41 184.05Z" fill="#C2E6EA" fill-opacity="1.000000" fill-rule="nonzero"/>
		<path d="M203.29 191C202.97 191 202.65 191 202.43 190.89C202 190.79 201.57 190.46 201.47 190.14L197.6 181.58C197.5 181.26 197.5 180.94 197.71 180.62C198.14 180.09 199 179.77 199.96 179.98L214.87 182.23C215.73 182.33 216.27 182.76 216.38 183.3C216.48 183.72 216.27 184.15 215.73 184.47L204.79 190.79C204.25 190.89 203.83 191 203.29 191ZM199.43 180.62C198.89 180.62 198.35 180.84 198.25 181.05C198.14 181.16 198.14 181.26 198.25 181.26L202.11 189.82C202.22 189.93 202.43 190.14 202.65 190.25C203.18 190.46 203.83 190.36 204.25 190.14L215.2 183.83C215.3 183.72 215.52 183.62 215.52 183.4C215.52 183.19 215.2 182.97 214.55 182.87L199.64 180.62C199.64 180.62 199.54 180.62 199.43 180.62Z" fill="#2F2D4F" fill-opacity="1.000000" fill-rule="nonzero"/>
		<path d="M207.79 181.69C206.51 181.37 205.11 181.37 203.83 181.69L201.47 181.69C201.47 181.69 201.36 181.69 201.36 181.8L201.36 183.94C201.36 184.79 202.22 185.76 203.83 186.18C205.11 186.51 206.4 186.51 207.69 186.18C209.3 185.65 210.15 184.79 210.15 183.94L210.15 181.8C210.15 181.8 210.15 181.69 210.05 181.69L207.79 181.69Z" fill="#2F2D4F" fill-opacity="1.000000" fill-rule="nonzero"/>
		<path d="M205.76 186.83C205.11 186.83 204.36 186.72 203.72 186.51C202 185.97 201.04 185.01 201.04 183.94L201.04 181.8C201.04 181.58 201.25 181.37 201.47 181.37L203.72 181.37C205.01 181.05 206.51 181.05 207.8 181.37L210.05 181.37C210.26 181.37 210.48 181.58 210.48 181.8L210.48 183.94C210.48 185.11 209.51 186.08 207.8 186.51C207.15 186.72 206.51 186.83 205.76 186.83ZM201.79 182.01L201.79 183.94C201.79 184.69 202.65 185.44 204.04 185.86C205.22 186.18 206.51 186.18 207.69 185.86C209.08 185.44 209.94 184.69 209.94 183.94L209.94 182.01L207.8 182.01C206.62 181.69 205.22 181.69 204.04 182.01L203.93 182.01L201.79 182.01Z" fill="#2F2D4F" fill-opacity="1.000000" fill-rule="nonzero"/>
		<path d="M208.87 179.87C210.58 180.84 210.58 182.44 208.87 183.4C207.15 184.37 204.36 184.37 202.65 183.4C200.93 182.44 200.93 180.84 202.65 179.87C204.36 178.91 207.15 178.91 208.87 179.87Z" fill="#F2F3F3" fill-opacity="1.000000" fill-rule="nonzero"/>
		<path d="M205.76 184.58C204.58 184.58 203.4 184.37 202.54 183.83C201.57 183.3 201.04 182.55 201.04 181.8C201.04 180.94 201.57 180.3 202.54 179.77C204.36 178.7 207.26 178.7 209.08 179.77C210.05 180.3 210.58 181.05 210.58 181.8C210.58 182.65 210.05 183.3 209.08 183.83C208.12 184.26 206.94 184.58 205.76 184.58ZM205.76 179.55C204.68 179.55 203.61 179.77 202.86 180.3C202.11 180.73 201.79 181.26 201.79 181.8C201.79 182.33 202.22 182.87 202.86 183.3C204.47 184.26 207.04 184.26 208.65 183.3C209.4 182.87 209.73 182.33 209.73 181.8C209.73 181.26 209.3 180.73 208.65 180.3C207.9 179.77 206.83 179.55 205.76 179.55Z" fill="#2F2D4F" fill-opacity="1.000000" fill-rule="nonzero"/>
		<path d="M202.65 190.89L203.4 190.89L203.4 193.67L202.65 193.67L202.65 190.89Z" fill="#C2E6EA" fill-opacity="1.000000" fill-rule="evenodd"/>
		<path d="M206.19 184.26L206.94 184.26L206.94 186.51L206.19 186.51L206.19 184.26Z" fill="#C2E6EA" fill-opacity="1.000000" fill-rule="evenodd"/>
		<path d="M25.33 77.37L30.59 74.7C30.59 74.7 30.69 74.7 30.69 74.59L30.8 74.49C31.87 73.95 33.37 74.06 35.09 75.02L51.61 84.44C55.15 86.47 57.94 91.39 57.94 95.46L57.94 107.87C57.94 109.9 57.3 111.29 56.12 111.93L49.25 115.46C49.25 115.78 49.14 115.89 48.93 116L48.82 116C47.96 116.43 47.75 116.64 47.75 116.64L43.78 118.78C43.78 118.78 40.78 109.26 40.78 109.15C40.78 109.04 42.92 106.48 42.92 106.48L47.32 111.4L43.89 106.26C42.81 104.66 41.53 103.37 40.13 102.52L32.19 97.92C28.65 95.88 30.8 93.96 30.8 89.89L30.8 80.69L25.33 77.37Z" fill="#F2F3F3" fill-opacity="1.000000" fill-rule="nonzero"/>
		<path d="M26.62 77.8L25.97 77.48L26.08 77.37L26.62 77.8Z" fill="#2F2D4F" fill-opacity="1.000000" fill-rule="nonzero"/>
		<path d="M31.12 90C31.12 93.96 28.98 95.78 32.41 97.7L40.35 102.3C41.74 103.16 43.14 104.44 44.21 106.05L47.64 111.18L47.21 111.51L43.03 107.01C42.17 107.97 41.31 109.04 41.21 109.37C41.42 110.11 42.92 115.04 43.99 118.57L44.1 118.57L44.1 114.18L45.07 113.43L47.96 115.04L49.25 115.36L52.04 113.97L52.9 112.04L53.01 98.56L52.47 95.56L57.3 92.78C56.44 89.57 54.18 86.47 51.5 84.97L34.98 75.56C33.48 74.7 32.09 74.49 31.02 75.02L30.8 75.13C30.8 75.13 30.69 75.13 30.69 75.23L25.97 77.7L25.44 77.27L30.37 74.7C30.37 74.7 30.48 74.7 30.48 74.59L30.8 74.38C31.98 73.84 33.59 74.16 35.2 75.02L51.72 84.44C55.26 86.47 58.26 91.5 58.26 95.67L58.26 108.08C58.26 110.01 57.62 111.51 56.44 112.36L56.33 112.47L49.57 115.89C49.57 116.11 49.47 116.32 49.14 116.53L48.93 116.64C48.29 116.96 48.07 117.18 47.96 117.18L43.78 119.53L43.57 119.21C40.56 109.69 40.56 109.58 40.56 109.47C40.56 109.37 40.56 109.26 42.81 106.58L43.03 106.37L45.07 108.62L43.78 106.58C42.71 104.98 41.42 103.69 40.13 102.95L32.19 98.34C28.66 96.31 30.69 94.28 30.69 90.11L30.69 81.01L26.72 77.91L31.34 80.69L31.34 90L31.12 90Z" fill="#2F2D4F" fill-opacity="1.000000" fill-rule="nonzero"/>
		<path d="M30.05 77.7L46.57 87.11C50.11 89.14 52.9 94.07 52.9 98.13L52.9 110.54C52.9 114.61 50 116.21 46.57 114.18L45.5 113.54C44.64 113.11 43.99 113.43 43.99 114.39L43.99 118.25C43.99 119.32 42.92 119.32 42.17 118.25L36.81 110.11C35.73 108.51 34.45 107.23 33.05 106.37L30.05 104.76C26.51 102.73 23.72 97.81 23.72 93.74L23.72 81.44C23.61 77.37 26.51 75.77 30.05 77.7Z" fill="#C2E6EA" fill-opacity="1.000000" fill-rule="nonzero"/>
		<path d="M46.46 87L29.94 77.59C29.08 77.16 28.33 76.84 27.58 76.73C26.29 77.37 25.54 78.77 25.54 80.91L25.54 93.32C25.54 97.38 28.44 102.3 31.87 104.34L34.88 105.94C36.27 106.69 37.56 108.08 38.63 109.69L43.89 117.6L43.89 114.39C43.89 113.43 44.53 113.11 45.39 113.54L45.93 113.86C45.93 113.86 46.89 114.61 47.64 115.04L49.57 115.04C50.43 115.46 50.11 114.61 50.75 114.71C52.04 114.07 52.79 112.68 52.79 110.54L52.79 98.13C52.79 93.96 49.89 89.04 46.46 87Z" fill="#F2F3F3" fill-opacity="1.000000" fill-rule="nonzero"/>
		<path d="M29.83 79.51C28.33 78.66 26.83 78.44 25.76 78.87L30.69 76.3C31.77 75.77 33.27 75.88 34.98 76.84L51.5 86.25C52.79 87 53.86 88.07 54.83 89.36L49.89 92.14C48.93 90.75 47.64 89.68 46.35 88.93L29.83 79.51Z" fill="#C2E6EA" fill-opacity="1.000000" fill-rule="nonzero"/>
		<path d="M41.85 118.35L36.49 110.22C35.41 108.62 34.13 107.33 32.84 106.58L29.83 104.98C26.29 102.95 23.29 97.92 23.29 93.74L23.29 81.44C23.29 79.41 24.04 77.8 25.33 77.05C26.62 76.3 28.33 76.52 30.16 77.48L46.68 86.9C50.22 88.93 53.22 93.96 53.22 98.13L53.22 110.54C53.22 112.58 52.47 114.18 51.18 114.93C49.89 115.68 48.18 115.46 46.35 114.5L45.28 113.86C44.96 113.64 44.75 113.64 44.53 113.75C44.32 113.86 44.21 114.07 44.21 114.5L44.21 118.35C44.21 118.89 43.99 119.32 43.57 119.42C43.46 119.42 43.35 119.42 43.35 119.42C42.81 119.42 42.28 118.99 41.85 118.35ZM45.6 113.32L46.68 113.97C48.29 114.93 49.79 115.04 50.86 114.39C51.93 113.75 52.58 112.36 52.58 110.54L52.58 98.13C52.58 94.17 49.79 89.36 46.35 87.43L29.83 78.02C28.23 77.05 26.72 76.95 25.65 77.59C24.58 78.23 23.93 79.62 23.93 81.44L23.93 93.85C23.93 97.81 26.72 102.62 30.16 104.55L33.16 106.16C34.55 107.01 35.95 108.3 37.02 109.9L42.39 118.03C42.81 118.57 43.24 118.78 43.46 118.78C43.67 118.67 43.67 118.46 43.67 118.25L43.67 114.39C43.67 113.86 43.89 113.43 44.21 113.22C44.42 113.11 44.53 113.11 44.75 113.11C45.07 113.11 45.28 113.22 45.6 113.32Z" fill="#2F2D4F" fill-opacity="1.000000" fill-rule="nonzero"/>
		<path d="M37.45 102.62L37.34 102.52C36.91 102.3 36.49 101.55 36.49 100.91L36.49 88.82C36.49 88.18 36.81 87.97 37.34 88.18L37.45 88.29C37.88 88.5 38.31 89.25 38.31 89.89L38.31 101.98C38.31 102.62 37.88 102.84 37.45 102.62Z" fill="#C2E6EA" fill-opacity="1.000000" fill-rule="nonzero"/>
		<path d="M36.81 103.05C36.7 103.05 36.49 103.05 36.38 102.95L36.27 102.84C35.73 102.52 35.31 101.66 35.31 101.02L35.31 88.93C35.31 88.5 35.41 88.18 35.73 87.97C35.95 87.86 36.27 87.86 36.59 87.97L36.7 88.07C37.24 88.39 37.67 89.25 37.67 89.89L37.67 101.98C37.67 102.41 37.56 102.73 37.24 102.95C37.13 102.95 37.02 103.05 36.81 103.05ZM36.06 88.39C35.95 88.39 35.84 88.61 35.84 88.82L35.84 100.91C35.84 101.45 36.16 101.98 36.49 102.2L36.59 102.3C36.59 102.3 36.81 102.41 36.81 102.3C36.91 102.3 36.91 102.09 36.91 101.88L36.91 89.79C36.91 89.25 36.59 88.72 36.27 88.5L36.16 88.39C36.16 88.39 36.16 88.39 36.06 88.39Z" fill="#2F2D4F" fill-opacity="1.000000" fill-rule="nonzero"/>
		<path d="M40.88 104.55L40.78 104.44C40.35 104.23 39.92 103.48 39.92 102.84L39.92 90.75C39.92 90.11 40.24 89.89 40.78 90.11L40.88 90.21C41.31 90.43 41.74 91.18 41.74 91.82L41.74 103.91C41.74 104.55 41.31 104.87 40.88 104.55Z" fill="#C2E6EA" fill-opacity="1.000000" fill-rule="nonzero"/>
		<path d="M40.24 104.98C40.13 104.98 39.92 104.98 39.81 104.87L39.7 104.76C39.17 104.44 38.74 103.59 38.74 102.95L38.74 90.86C38.74 90.43 38.85 90.11 39.17 89.89C39.38 89.79 39.7 89.79 40.03 89.89L40.13 90C40.67 90.32 41.1 91.18 41.1 91.82L41.1 103.91C41.1 104.34 40.99 104.66 40.67 104.87C40.56 104.98 40.35 104.98 40.24 104.98ZM39.49 90.43C39.38 90.43 39.27 90.64 39.27 90.86L39.27 102.95C39.27 103.48 39.6 104.02 39.92 104.23L40.03 104.34C40.03 104.34 40.24 104.44 40.24 104.34C40.35 104.34 40.35 104.12 40.35 103.91L40.35 91.82C40.35 91.28 40.03 90.75 39.7 90.53L39.6 90.43C39.6 90.43 39.6 90.43 39.49 90.43Z" fill="#2F2D4F" fill-opacity="1.000000" fill-rule="nonzero"/>
		<path d="M45.28 101.98C45.28 102.52 44.96 102.84 44.53 102.52L33.59 96.2C33.16 95.99 32.84 95.35 32.84 94.71C32.84 94.17 33.16 93.85 33.59 94.17L44.53 100.48C44.96 100.7 45.28 101.34 45.28 101.98Z" fill="#C2E6EA" fill-opacity="1.000000" fill-rule="nonzero"/>
		<path d="M43.89 102.95C43.78 102.95 43.57 102.95 43.46 102.84L32.52 96.53C31.98 96.21 31.55 95.46 31.55 94.81C31.55 94.39 31.66 94.07 31.98 93.96C32.19 93.85 32.52 93.85 32.84 93.96L43.78 100.27C44.32 100.59 44.75 101.34 44.75 101.98C44.75 102.41 44.64 102.73 44.32 102.84C44.1 102.84 43.99 102.95 43.89 102.95ZM32.41 94.39C32.3 94.39 32.19 94.6 32.19 94.71C32.19 95.13 32.52 95.78 32.84 95.88L43.78 102.2C43.78 102.2 43.89 102.3 43.99 102.2C44.1 102.2 44.1 102.09 44.1 101.88C44.1 101.45 43.78 100.81 43.46 100.7L32.52 94.39L32.41 94.39Z" fill="#2F2D4F" fill-opacity="1.000000" fill-rule="nonzero"/>
		<path d="M45.28 98.02C45.28 98.56 44.96 98.88 44.53 98.56L33.59 92.25C33.16 92.03 32.84 91.39 32.84 90.75C32.84 90.21 33.16 89.89 33.59 90.21L44.53 96.53C44.96 96.74 45.28 97.38 45.28 98.02Z" fill="#C2E6EA" fill-opacity="1.000000" fill-rule="nonzero"/>
		<path d="M43.89 98.99C43.78 98.99 43.57 98.99 43.46 98.88L32.52 92.57C31.98 92.25 31.55 91.5 31.55 90.86C31.55 90.43 31.66 90.11 31.98 90C32.19 89.89 32.52 89.89 32.84 90L43.78 96.31C44.32 96.63 44.75 97.38 44.75 98.02C44.75 98.45 44.64 98.77 44.32 98.88C44.1 98.99 43.99 98.99 43.89 98.99ZM32.41 90.43C32.3 90.43 32.19 90.64 32.19 90.75C32.19 91.18 32.52 91.82 32.84 91.93L43.78 98.24C43.78 98.24 43.89 98.34 43.99 98.24C44.1 98.24 44.1 98.13 44.1 97.92C44.1 97.49 43.78 96.85 43.46 96.74L32.52 90.43L32.41 90.43Z" fill="#2F2D4F" fill-opacity="1.000000" fill-rule="nonzero"/>
		<path d="M40.88 102.84L35.41 99.74C34.55 99.31 33.91 98.02 33.91 96.95L33.91 91.07C33.91 90 34.55 89.46 35.41 90L40.88 93.1C41.74 93.53 42.39 94.81 42.39 95.88L42.39 101.66C42.39 102.73 41.74 103.27 40.88 102.84Z" fill="#C2E6EA" fill-opacity="1.000000" fill-rule="nonzero"/>
		<path d="M41.42 103.27C41.21 103.27 40.88 103.16 40.67 103.05L35.2 99.95C34.23 99.41 33.59 98.02 33.59 96.85L33.59 91.07C33.59 90.43 33.8 89.89 34.23 89.57C34.55 89.36 35.09 89.36 35.52 89.68L40.99 92.78C41.96 93.32 42.6 94.71 42.6 95.88L42.6 101.66C42.6 102.3 42.39 102.84 41.96 103.16C41.85 103.27 41.63 103.27 41.42 103.27ZM34.88 90.11C34.77 90.11 34.77 90.11 34.66 90.21C34.45 90.32 34.34 90.64 34.34 91.18L34.34 96.95C34.34 97.92 34.98 99.09 35.63 99.52L41.1 102.62C41.31 102.73 41.53 102.84 41.74 102.73C41.96 102.62 42.06 102.3 42.06 101.77L42.06 95.99C42.06 95.03 41.42 93.85 40.78 93.42L35.31 90.32C35.09 90.11 34.98 90.11 34.88 90.11Z" fill="#2F2D4F" fill-opacity="1.000000" fill-rule="nonzero"/>
		<path d="M40.45 100.91L35.73 98.24C35.52 98.13 35.41 97.81 35.41 97.49L35.41 92.14C35.41 91.82 35.63 91.71 35.73 91.82L40.45 94.49C40.67 94.6 40.78 94.92 40.78 95.24L40.78 100.48C40.88 100.81 40.67 101.02 40.45 100.91Z" fill="#F2F3F3" fill-opacity="1.000000" fill-rule="nonzero"/>
		<path d="M40.67 101.23C40.56 101.23 40.45 101.23 40.35 101.13L35.63 98.45C35.31 98.24 35.09 97.92 35.09 97.49L35.09 92.14C35.09 91.92 35.2 91.71 35.41 91.6C35.63 91.5 35.73 91.5 35.95 91.6L40.67 94.28C40.99 94.49 41.21 94.81 41.21 95.24L41.21 100.48C41.21 100.7 41.1 100.91 40.88 101.02C40.78 101.23 40.78 101.23 40.67 101.23ZM35.73 92.25L35.73 97.49C35.73 97.7 35.84 97.92 35.95 97.92L40.56 100.59L40.56 95.35C40.56 95.13 40.45 94.92 40.35 94.92L35.73 92.25Z" fill="#2F2D4F" fill-opacity="1.000000" fill-rule="nonzero"/>
		<path d="M189.56 134.62L194.82 131.94C194.82 131.94 194.92 131.94 194.92 131.83L195.03 131.73C196.1 131.19 197.6 131.3 199.32 132.26L215.84 141.68C219.38 143.71 222.17 148.63 222.17 152.7L222.17 165.11C222.17 167.14 221.53 168.53 220.35 169.17L213.48 172.7C213.48 173.03 213.37 173.13 213.16 173.24L213.05 173.24C212.19 173.67 211.98 173.88 211.98 173.88L208.01 176.02C208.01 176.02 205.01 166.5 205.01 166.39C205.01 166.28 207.15 163.61 207.15 163.61L211.55 168.42L208.12 163.29C207.04 161.68 205.76 160.4 204.36 159.54L196.42 154.94C192.88 152.91 195.03 150.98 195.03 146.92L195.03 137.72L189.56 134.62Z" fill="#F2F3F3" fill-opacity="1.000000" fill-rule="nonzero"/>
		<path d="M190.74 135.04L190.2 134.62L190.74 135.04Z" fill="#2F2D4F" fill-opacity="1.000000" fill-rule="nonzero"/>
		<path d="M195.35 147.13C195.35 151.09 193.21 152.91 196.64 154.84L204.58 159.44C205.97 160.29 207.37 161.58 208.44 163.18L211.87 168.32L211.44 168.64L207.26 164.14C206.4 165.11 205.54 166.18 205.43 166.5C205.65 167.25 207.15 172.17 208.22 175.7L208.33 175.7L208.33 171.31L209.3 170.56L212.19 172.17L213.48 172.49L216.27 171.1L217.13 169.17L217.23 155.69L216.7 152.7L221.53 149.91C220.67 146.71 218.41 143.6 215.73 142.1L199.21 132.69C197.71 131.83 196.32 131.62 195.24 132.15L195.03 132.26C195.03 132.26 194.92 132.26 194.92 132.37L190.2 134.83L189.67 134.4L194.6 131.83C194.6 131.83 194.71 131.83 194.71 131.73L195.03 131.51C196.21 130.98 197.82 131.3 199.43 132.15L215.95 141.57C219.49 143.6 222.49 148.63 222.49 152.8L222.49 165.21C222.49 167.14 221.85 168.64 220.67 169.49L220.56 169.6L213.8 173.02C213.8 173.24 213.69 173.45 213.37 173.67L213.16 173.77C212.51 174.09 212.3 174.31 212.19 174.31L208.01 176.66L207.79 176.34C204.79 166.82 204.79 166.71 204.79 166.61C204.79 166.5 204.79 166.39 207.04 163.72L207.26 163.5L209.3 165.75L208.01 163.72C206.94 162.11 205.65 160.83 204.36 160.08L196.42 155.48C192.88 153.45 194.92 151.41 194.92 147.24L194.92 138.14L190.95 135.04L195.57 137.82L195.57 147.13L195.35 147.13Z" fill="#2F2D4F" fill-opacity="1.000000" fill-rule="nonzero"/>
		<path d="M194.17 134.94L210.69 144.35C214.23 146.38 217.02 151.31 217.02 155.37L217.02 167.78C217.02 171.85 214.12 173.45 210.69 171.42L209.62 170.78C208.76 170.35 208.12 170.67 208.12 171.63L208.12 175.49C208.12 176.56 207.04 176.56 206.29 175.49L200.93 167.35C199.86 165.75 198.57 164.47 197.18 163.61L194.17 162C190.63 159.97 187.84 155.05 187.84 150.98L187.84 138.57C187.84 134.62 190.74 132.9 194.17 134.94Z" fill="#C2E6EA" fill-opacity="1.000000" fill-rule="nonzero"/>
		<path d="M210.58 144.24L194.06 134.83C193.21 134.4 192.46 134.08 191.7 133.97C190.42 134.61 189.67 136 189.67 138.14L189.67 150.56C189.67 154.62 192.56 159.54 196 161.58L199 163.18C200.39 163.93 201.68 165.32 202.75 166.93L208.01 174.84L208.01 171.63C208.01 170.67 208.65 170.35 209.51 170.78L210.05 171.1C210.05 171.1 211.01 171.85 211.76 172.28L213.69 172.28C214.55 172.7 214.23 171.85 214.87 171.95C216.16 171.31 216.91 169.92 216.91 167.78L216.91 155.37C217.02 151.09 214.12 146.28 210.58 144.24Z" fill="#F2F3F3" fill-opacity="1.000000" fill-rule="nonzero"/>
		<path d="M194.06 136.65C192.56 135.79 191.06 135.58 189.99 136L194.92 133.44C196 132.9 197.5 133.01 199.21 133.97L215.73 143.39C217.02 144.14 218.09 145.21 219.06 146.49L214.12 149.27C213.16 147.88 211.87 146.81 210.58 146.06L194.06 136.65Z" fill="#C2E6EA" fill-opacity="1.000000" fill-rule="nonzero"/>
		<path d="M206.08 175.59L200.72 167.46C199.64 165.86 198.36 164.57 197.07 163.82L194.06 162.22C190.52 160.19 187.52 155.16 187.52 150.98L187.52 138.57C187.52 136.54 188.27 134.94 189.56 134.19C190.85 133.44 192.56 133.65 194.39 134.62L210.91 144.03C214.45 146.06 217.45 151.09 217.45 155.26L217.45 167.68C217.45 169.71 216.7 171.31 215.41 172.06C214.12 172.81 212.41 172.6 210.58 171.63L209.51 170.99C209.19 170.78 208.98 170.78 208.76 170.88C208.55 170.99 208.44 171.21 208.44 171.63L208.44 175.49C208.44 176.02 208.22 176.45 207.8 176.56C207.69 176.56 207.58 176.56 207.58 176.56C207.04 176.56 206.51 176.23 206.08 175.59ZM209.83 170.56L210.91 171.21C212.52 172.17 214.02 172.28 215.09 171.63C216.16 170.99 216.81 169.6 216.81 167.78L216.81 155.26C216.81 151.31 214.02 146.49 210.58 144.57L194.06 135.15C192.46 134.19 190.95 134.08 189.88 134.72C188.81 135.36 188.16 136.75 188.16 138.57L188.16 150.98C188.16 154.94 190.95 159.76 194.39 161.68L197.39 163.29C198.78 164.14 200.18 165.43 201.25 167.03L206.62 175.16C207.04 175.7 207.47 175.91 207.69 175.91C207.9 175.81 207.9 175.59 207.9 175.38L207.9 171.53C207.9 170.99 208.12 170.56 208.44 170.35C208.65 170.24 208.76 170.24 208.98 170.24C209.3 170.35 209.51 170.35 209.83 170.56Z" fill="#2F2D4F" fill-opacity="1.000000" fill-rule="nonzero"/>
		<path d="M200.07 157.08L199.96 156.98C199.43 156.66 198.89 155.8 198.89 155.05L198.89 149.7C198.89 148.95 199.32 148.63 199.96 148.95L200.07 149.06C200.61 149.38 201.14 150.24 201.14 150.98L201.14 156.33C201.14 157.08 200.61 157.4 200.07 157.08Z" fill="#C2E6EA" fill-opacity="1.000000" fill-rule="nonzero"/>
		<path d="M199.54 157.51C199.32 157.51 199.21 157.4 199 157.3L198.89 157.19C198.25 156.76 197.71 155.8 197.71 154.94L197.71 149.59C197.71 149.06 197.93 148.74 198.25 148.52C198.57 148.31 198.89 148.42 199.21 148.63L199.32 148.74C199.96 149.17 200.5 150.13 200.5 150.98L200.5 156.33C200.5 156.87 200.29 157.19 199.96 157.4C199.86 157.51 199.64 157.51 199.54 157.51ZM199.32 156.87C199.43 156.87 199.54 156.98 199.64 156.98C199.75 156.87 199.86 156.66 199.86 156.44L199.86 151.09C199.86 150.45 199.43 149.7 199 149.38L198.89 149.27C198.78 149.27 198.68 149.17 198.57 149.27C198.46 149.38 198.36 149.59 198.36 149.81L198.36 155.16C198.36 155.8 198.78 156.55 199.21 156.87L199.32 156.87Z" fill="#2F2D4F" fill-opacity="1.000000" fill-rule="nonzero"/>
		<path d="M203.5 159.12L203.4 159.01C202.86 158.69 202.32 157.83 202.32 157.08L202.32 147.56C202.32 146.81 202.75 146.49 203.4 146.81L203.5 146.92C204.04 147.24 204.58 148.1 204.58 148.84L204.58 158.37C204.47 159.12 204.04 159.44 203.5 159.12Z" fill="#C2E6EA" fill-opacity="1.000000" fill-rule="nonzero"/>
		<path d="M202.97 159.54C202.75 159.54 202.65 159.44 202.43 159.33L202.32 159.22C201.68 158.8 201.14 157.83 201.14 156.98L201.14 147.45C201.14 146.92 201.36 146.6 201.68 146.38C202 146.17 202.32 146.28 202.65 146.49L202.75 146.6C203.4 147.03 203.93 147.99 203.93 148.84L203.93 158.37C203.93 158.9 203.72 159.22 203.4 159.44C203.29 159.44 203.08 159.54 202.97 159.54ZM202 146.92L201.9 146.92C201.79 147.03 201.68 147.24 201.68 147.45L201.68 156.98C201.68 157.62 202.11 158.37 202.54 158.69L202.65 158.8C202.75 158.8 202.86 158.9 202.97 158.9C203.08 158.8 203.18 158.58 203.18 158.37L203.18 148.84C203.18 148.2 202.75 147.45 202.32 147.13L202.22 147.03C202.22 146.92 202.11 146.92 202 146.92Z" fill="#2F2D4F" fill-opacity="1.000000" fill-rule="nonzero"/>
		<path d="M206.94 161.04L206.83 160.93C206.29 160.61 205.76 159.76 205.76 159.01L205.76 155.37C205.76 154.62 206.19 154.3 206.83 154.62L206.94 154.73C207.47 155.05 208.01 155.91 208.01 156.66L208.01 160.29C207.9 161.04 207.47 161.36 206.94 161.04Z" fill="#C2E6EA" fill-opacity="1.000000" fill-rule="nonzero"/>
		<path d="M206.4 161.47C206.19 161.47 206.08 161.36 205.86 161.25L205.76 161.15C205.11 160.72 204.58 159.76 204.58 158.9L204.58 155.26C204.58 154.73 204.79 154.41 205.11 154.19C205.43 153.98 205.76 154.09 206.08 154.3L206.19 154.41C206.83 154.84 207.37 155.8 207.37 156.66L207.37 160.29C207.37 160.83 207.15 161.15 206.83 161.36C206.62 161.47 206.51 161.47 206.4 161.47ZM205.43 154.73L205.33 154.73C205.22 154.84 205.11 155.05 205.11 155.26L205.11 158.9C205.11 159.54 205.54 160.29 205.97 160.61L206.08 160.72C206.19 160.72 206.29 160.83 206.4 160.83C206.51 160.72 206.62 160.51 206.62 160.29L206.62 156.66C206.62 156.01 206.19 155.26 205.76 154.94L205.65 154.84C205.54 154.73 205.43 154.73 205.43 154.73Z" fill="#2F2D4F" fill-opacity="1.000000" fill-rule="nonzero"/>
		<path d="M67.92 175.27L67.92 190.25C67.92 191.43 68.67 192.6 70.28 193.46C73.39 195.28 78.43 195.28 81.54 193.46C83.04 192.6 83.9 191.43 83.9 190.25L83.9 175.27L67.92 175.27Z" fill="#C2E6EA" fill-opacity="1.000000" fill-rule="nonzero"/>
		<path d="M75.85 195.17C73.71 195.17 71.67 194.74 70.06 193.78C68.45 192.82 67.59 191.64 67.59 190.25L67.59 174.95L84.11 174.95L84.11 190.25C84.11 191.64 83.25 192.82 81.65 193.78C80.04 194.64 78 195.17 75.85 195.17ZM68.24 175.59L68.24 190.14C68.24 191.21 68.99 192.28 70.38 193.03C73.39 194.74 78.21 194.74 81.22 193.03C82.61 192.28 83.36 191.21 83.36 190.14L83.36 175.59L68.24 175.59Z" fill="#2F2D4F" fill-opacity="1.000000" fill-rule="nonzero"/>
		<path d="M75.1 175.27L75.1 194.74C77.35 194.85 79.72 194.42 81.43 193.46C82.93 192.6 83.79 191.43 83.79 190.25L83.79 175.27L75.1 175.27Z" fill="#2F2D4F" fill-opacity="1.000000" fill-rule="nonzero"/>
		<path d="M75.85 195.17C75.64 195.17 75.32 195.17 75.1 195.17L74.78 195.17L74.78 175.06L84.11 175.06L84.11 190.36C84.11 191.75 83.25 192.92 81.65 193.89C80.14 194.64 78 195.17 75.85 195.17ZM75.53 194.42C77.68 194.53 79.82 194 81.32 193.14C82.72 192.39 83.47 191.32 83.47 190.25L83.47 175.59L75.53 175.59L75.53 194.42Z" fill="#2F2D4F" fill-opacity="1.000000" fill-rule="nonzero"/>
		<path d="M83.79 175.27C83.79 177.81 80.24 179.87 75.85 179.87C71.47 179.87 67.92 177.81 67.92 175.27C67.92 172.73 71.47 170.67 75.85 170.67C80.24 170.67 83.79 172.73 83.79 175.27Z" fill="#C2E6EA" fill-opacity="1.000000" fill-rule="evenodd"/>
		<path d="M75.85 180.19C73.71 180.19 71.67 179.77 70.06 178.8C68.45 177.84 67.59 176.66 67.59 175.27C67.59 173.88 68.45 172.7 70.06 171.74C73.28 169.92 78.43 169.92 81.65 171.74C83.25 172.7 84.11 173.88 84.11 175.27C84.11 176.66 83.25 177.84 81.65 178.8C80.04 179.77 78 180.19 75.85 180.19ZM75.85 171.1C73.92 171.1 71.88 171.53 70.38 172.38C68.99 173.13 68.24 174.2 68.24 175.27C68.24 176.34 68.99 177.41 70.38 178.16C73.39 179.87 78.21 179.87 81.22 178.16C82.61 177.41 83.36 176.34 83.36 175.27C83.36 174.2 82.61 173.13 81.22 172.38C79.82 171.53 77.78 171.1 75.85 171.1Z" fill="#2F2D4F" fill-opacity="1.000000" fill-rule="nonzero"/>
		<path d="M72.21 179.44L72.96 179.44L72.96 194.42L72.21 194.42L72.21 179.44Z" fill="#2F2D4F" fill-opacity="1.000000" fill-rule="evenodd"/>
		<path d="M81.65 179.55L82.4 179.55L82.4 191.53L81.65 191.53L81.65 179.55Z" fill="#C2E6EA" fill-opacity="1.000000" fill-rule="evenodd"/>
		<path d="M67.92 168.1L67.92 172.17C67.92 173.35 68.67 174.52 70.28 175.38C73.39 177.2 78.43 177.2 81.54 175.38C83.04 174.52 83.9 173.35 83.9 172.17L83.9 168.1L67.92 168.1Z" fill="#C2E6EA" fill-opacity="1.000000" fill-rule="nonzero"/>
		<path d="M75.85 177.09C73.71 177.09 71.67 176.66 70.06 175.7C68.45 174.74 67.59 173.56 67.59 172.17L67.59 167.78L84.11 167.78L84.11 172.17C84.11 173.56 83.25 174.74 81.65 175.7C80.04 176.66 78 177.09 75.85 177.09ZM68.24 168.42L68.24 172.17C68.24 173.24 68.99 174.31 70.38 175.06C73.39 176.77 78.21 176.77 81.22 175.06C82.61 174.31 83.36 173.24 83.36 172.17L83.36 168.42L68.24 168.42Z" fill="#2F2D4F" fill-opacity="1.000000" fill-rule="nonzero"/>
		<path d="M75.1 168.1L75.1 176.66C77.35 176.77 79.72 176.34 81.43 175.38C82.93 174.52 83.79 173.35 83.79 172.17L83.79 168.1L75.1 168.1Z" fill="#2F2D4F" fill-opacity="1.000000" fill-rule="nonzero"/>
		<path d="M75.85 177.09C75.64 177.09 75.32 177.09 75.1 177.09L74.78 177.09L74.78 167.78L84.11 167.78L84.11 172.17C84.11 173.56 83.25 174.74 81.65 175.7C80.14 176.56 78 177.09 75.85 177.09ZM75.53 176.34C77.68 176.45 79.82 175.91 81.32 175.06C82.72 174.31 83.47 173.24 83.47 172.17L83.47 168.42L75.53 168.42L75.53 176.34Z" fill="#2F2D4F" fill-opacity="1.000000" fill-rule="nonzero"/>
		<path d="M83.79 168.1C83.79 170.64 80.24 172.7 75.85 172.7C71.47 172.7 67.92 170.64 67.92 168.1C67.92 165.56 71.47 163.5 75.85 163.5C80.24 163.5 83.79 165.56 83.79 168.1Z" fill="#F2F3F3" fill-opacity="1.000000" fill-rule="evenodd"/>
		<path d="M75.85 173.02C73.71 173.02 71.67 172.6 70.06 171.63C68.45 170.67 67.59 169.49 67.59 168.1C67.59 166.71 68.45 165.54 70.06 164.57C73.28 162.75 78.43 162.75 81.65 164.57C83.25 165.54 84.11 166.71 84.11 168.1C84.11 169.49 83.25 170.67 81.65 171.63C80.04 172.6 78 173.02 75.85 173.02ZM75.85 163.93C73.92 163.93 71.88 164.36 70.38 165.21C68.99 165.96 68.24 167.03 68.24 168.1C68.24 169.17 68.99 170.24 70.38 170.99C73.39 172.7 78.21 172.7 81.22 170.99C82.61 170.24 83.36 169.17 83.36 168.1C83.36 167.03 82.61 165.96 81.22 165.21C79.82 164.36 77.78 163.93 75.85 163.93Z" fill="#2F2D4F" fill-opacity="1.000000" fill-rule="nonzero"/>
		<path d="M72.21 172.28L72.96 172.28L72.96 176.34L72.21 176.34L72.21 172.28Z" fill="#2F2D4F" fill-opacity="1.000000" fill-rule="evenodd"/>
		<path d="M81.65 172.38L82.4 172.38L82.4 173.45L81.65 173.45L81.65 172.38Z" fill="#C2E6EA" fill-opacity="1.000000" fill-rule="evenodd"/>
		<path d="M205.44 87.32L205.44 84.22C205.44 84.22 205.44 84.22 205.33 84.11L187.52 81.87C187.41 81.98 187.41 81.98 187.31 82.08L187.31 83.9L187.31 84.97C187.31 85.08 187.31 85.18 187.41 85.29L191.28 93.85C191.6 94.6 193.1 94.81 193.96 94.28L204.9 87.97C205.33 87.86 205.54 87.54 205.44 87.32Z" fill="#2F2D4F" fill-opacity="1.000000" fill-rule="nonzero"/>
		<path d="M192.88 95.03C192.56 95.03 192.24 95.03 192.03 94.92C191.6 94.81 191.17 94.49 191.06 94.17L187.2 85.61C187.09 85.51 187.09 85.29 187.09 85.08C187.09 84.97 187.09 84.86 187.09 84.54C187.09 84.33 187.09 84.11 187.09 84.11L187.09 84.01L187.09 81.98L187.63 81.55L205.65 83.9L205.86 84.11L205.97 84.33L205.97 87.43C205.97 87.65 205.86 88.07 205.33 88.39L194.39 94.71C193.85 94.92 193.31 95.03 192.88 95.03ZM187.74 84.97L187.74 85.08L187.74 85.18L191.6 93.74C191.7 93.85 191.92 94.06 192.13 94.17C192.67 94.39 193.31 94.28 193.74 94.06L204.68 87.75C204.79 87.75 205.01 87.54 205.01 87.43L205.01 84.65L187.63 82.4L187.63 84.11C187.63 84.22 187.63 84.33 187.63 84.65C187.74 84.65 187.74 84.86 187.74 84.97Z" fill="#2F2D4F" fill-opacity="1.000000" fill-rule="nonzero"/>
		<path d="M205.01 84.97L194.06 91.28C193.21 91.82 191.7 91.6 191.38 90.86L187.52 82.3C187.2 81.65 188.27 81.01 189.45 81.12L204.36 83.37C205.43 83.58 205.86 84.44 205.01 84.97Z" fill="#C2E6EA" fill-opacity="1.000000" fill-rule="nonzero"/>
		<path d="M192.88 91.82C192.56 91.82 192.24 91.82 192.03 91.71C191.6 91.6 191.17 91.28 191.06 90.96L187.2 82.4C187.09 82.08 187.09 81.76 187.31 81.44C187.74 80.91 188.59 80.69 189.56 80.8L204.47 83.04C205.33 83.15 205.86 83.58 205.97 84.11C206.08 84.54 205.86 84.97 205.33 85.29L194.39 91.6C193.85 91.71 193.31 91.82 192.88 91.82ZM189.02 81.44C188.49 81.44 187.95 81.65 187.84 81.87C187.74 81.98 187.74 82.08 187.84 82.08L191.7 90.64C191.81 90.75 192.03 90.96 192.24 91.07C192.78 91.28 193.42 91.18 193.85 90.96L204.79 84.65C204.9 84.54 205.11 84.44 205.11 84.22C205.11 84.01 204.79 83.79 204.15 83.69L189.24 81.44C189.24 81.44 189.13 81.44 189.02 81.44Z" fill="#2F2D4F" fill-opacity="1.000000" fill-rule="nonzero"/>
		<path d="M197.28 82.51C196 82.19 194.6 82.19 193.31 82.51L191.06 82.51C191.06 82.51 190.95 82.51 190.95 82.62L190.95 84.76C190.95 85.61 191.81 86.58 193.42 87C194.71 87.32 196 87.32 197.28 87C198.89 86.47 199.75 85.61 199.75 84.76L199.75 82.62C199.75 82.62 199.75 82.51 199.64 82.51L197.28 82.51Z" fill="#2F2D4F" fill-opacity="1.000000" fill-rule="nonzero"/>
		<path d="M195.35 87.65C194.71 87.65 193.96 87.54 193.31 87.32C191.6 86.79 190.63 85.83 190.63 84.76L190.63 82.62C190.63 82.4 190.85 82.19 191.06 82.19L193.31 82.19C194.6 81.87 196.1 81.87 197.39 82.19L199.64 82.19C199.86 82.19 200.07 82.4 200.07 82.62L200.07 84.76C200.07 85.93 199.11 86.9 197.39 87.32C196.75 87.54 196 87.65 195.35 87.65ZM191.28 82.83L191.28 84.76C191.28 85.51 192.13 86.25 193.53 86.68C194.71 87 196 87 197.18 86.68C198.57 86.25 199.43 85.51 199.43 84.76L199.43 82.83L197.28 82.83C196.1 82.51 194.71 82.51 193.53 82.83L193.42 82.83L191.28 82.83Z" fill="#2F2D4F" fill-opacity="1.000000" fill-rule="nonzero"/>
		<path d="M198.46 80.8C200.18 81.76 200.18 83.37 198.46 84.33C196.75 85.29 193.96 85.29 192.24 84.33C190.52 83.37 190.52 81.76 192.24 80.8C193.96 79.73 196.75 79.73 198.46 80.8Z" fill="#F2F3F3" fill-opacity="1.000000" fill-rule="nonzero"/>
		<path d="M195.35 85.4C194.17 85.4 192.99 85.18 192.13 84.65C191.17 84.11 190.63 83.37 190.63 82.62C190.63 81.76 191.17 81.12 192.13 80.58C193.96 79.51 196.85 79.51 198.68 80.58C199.64 81.12 200.18 81.87 200.18 82.62C200.18 83.47 199.64 84.11 198.68 84.65C197.71 85.18 196.53 85.4 195.35 85.4ZM195.35 80.37C194.28 80.37 193.21 80.58 192.46 81.12C191.7 81.55 191.38 82.08 191.38 82.62C191.38 83.15 191.81 83.69 192.46 84.11C194.06 85.08 196.64 85.08 198.25 84.11C199 83.69 199.32 83.15 199.32 82.62C199.32 82.08 198.89 81.55 198.25 81.12C197.5 80.58 196.42 80.37 195.35 80.37Z" fill="#2F2D4F" fill-opacity="1.000000" fill-rule="nonzero"/>
		<path d="M192.24 91.71L192.99 91.71L192.99 94.49L192.24 94.49L192.24 91.71Z" fill="#C2E6EA" fill-opacity="1.000000" fill-rule="evenodd"/>
		<path d="M195.78 85.08L196.53 85.08L196.53 87.32L195.78 87.32L195.78 85.08Z" fill="#C2E6EA" fill-opacity="1.000000" fill-rule="evenodd"/>
		<path d="M178.83 35.86L184.09 33.19C184.09 33.19 184.2 33.19 184.2 33.08L184.3 32.97C185.38 32.44 186.88 32.55 188.59 33.51L205.11 42.92C208.65 44.96 211.44 49.88 211.44 53.94L211.44 66.35C211.44 68.39 210.8 69.78 209.62 70.42L202.75 73.95C202.75 74.27 202.65 74.38 202.43 74.49L202.32 74.49C201.47 74.91 201.25 75.13 201.25 75.13L197.28 77.27C197.28 77.27 194.28 67.75 194.28 67.64C194.28 67.53 196.42 64.96 196.42 64.96L200.82 69.78L197.39 64.64C196.32 63.04 195.03 61.75 193.64 60.9L185.7 56.3C182.16 54.26 184.3 52.34 184.3 48.27L184.3 39.07L178.83 35.86Z" fill="#F2F3F3" fill-opacity="1.000000" fill-rule="nonzero"/>
		<path d="M180.12 36.29L179.48 35.97L179.58 35.86L180.12 36.29Z" fill="#2F2D4F" fill-opacity="1.000000" fill-rule="nonzero"/>
		<path d="M184.62 48.49C184.62 52.45 182.48 54.26 185.91 56.19L193.85 60.79C195.25 61.65 196.64 62.93 197.71 64.54L201.14 69.67L200.72 69.99L196.53 65.5C195.67 66.46 194.82 67.53 194.71 67.85C194.92 68.6 196.42 73.52 197.5 77.05L197.6 77.05L197.6 72.67L198.57 71.92L201.47 73.52L202.75 73.84L205.54 72.45L206.4 70.53L206.51 57.05L205.97 54.05L210.8 51.27C209.94 48.06 207.69 44.96 205.01 43.46L188.49 34.04C186.99 33.19 185.59 32.97 184.52 33.51L184.3 33.62C184.3 33.62 184.2 33.62 184.2 33.72L179.48 36.18L178.94 35.75L183.87 33.19C183.87 33.19 183.98 33.19 183.98 33.08L184.3 32.87C185.48 32.33 187.09 32.65 188.7 33.51L205.22 42.92C208.76 44.96 211.76 49.98 211.76 54.16L211.76 66.57C211.76 68.49 211.12 69.99 209.94 70.85L209.83 70.96L203.08 74.38C203.08 74.59 202.97 74.81 202.65 75.02L202.43 75.13C201.79 75.45 201.57 75.66 201.47 75.66L197.28 78.02L197.07 77.7C194.06 68.17 194.06 68.07 194.06 67.96C194.06 67.85 194.06 67.75 196.32 65.07L196.53 64.86L198.57 67.1L197.28 65.07C196.21 63.47 194.92 62.18 193.64 61.43L185.7 56.83C182.16 54.8 184.2 52.77 184.2 48.59L184.2 39.5L180.23 36.4L184.84 39.18L184.84 48.49L184.62 48.49Z" fill="#2F2D4F" fill-opacity="1.000000" fill-rule="nonzero"/>
		<path d="M183.55 36.29L200.07 45.71C203.61 47.74 206.4 52.66 206.4 56.73L206.4 69.14C206.4 73.2 203.5 74.81 200.07 72.77L199 72.13C198.14 71.7 197.5 72.03 197.5 72.99L197.5 76.84C197.5 77.91 196.42 77.91 195.67 76.84L190.31 68.71C189.24 67.1 187.95 65.82 186.56 64.96L183.55 63.36C180.01 61.33 177.22 56.4 177.22 52.34L177.22 39.93C177.22 35.86 180.01 34.26 183.55 36.29Z" fill="#C2E6EA" fill-opacity="1.000000" fill-rule="nonzero"/>
		<path d="M199.96 45.49L183.45 36.08C182.59 35.65 181.84 35.33 181.09 35.22C179.8 35.86 179.05 37.25 179.05 39.39L179.05 51.8C179.05 55.87 181.94 60.79 185.38 62.82L188.38 64.43C189.77 65.18 191.06 66.57 192.13 68.17L197.39 76.09L197.39 72.88C197.39 71.92 198.03 71.6 198.89 72.03L199.43 72.35C199.43 72.35 200.39 73.09 201.14 73.52L203.08 73.52C203.93 73.95 203.61 73.09 204.26 73.2C205.54 72.56 206.29 71.17 206.29 69.03L206.29 56.4C206.29 52.45 203.4 47.52 199.96 45.49Z" fill="#F2F3F3" fill-opacity="1.000000" fill-rule="nonzero"/>
		<path d="M183.34 38C181.84 37.15 180.33 36.93 179.26 37.36L184.2 34.79C185.27 34.26 186.77 34.36 188.49 35.33L205.01 44.74C206.29 45.49 207.37 46.56 208.33 47.85L203.4 50.63C202.43 49.24 201.14 48.17 199.86 47.42L183.34 38Z" fill="#C2E6EA" fill-opacity="1.000000" fill-rule="nonzero"/>
		<path d="M195.35 76.84L189.99 68.71C188.92 67.1 187.63 65.82 186.34 65.07L183.34 63.47C179.8 61.43 176.79 56.4 176.79 52.23L176.79 39.93C176.79 37.89 177.55 36.29 178.83 35.54C180.12 34.79 181.84 35.01 183.66 35.97L200.18 45.38C203.72 47.42 206.72 52.45 206.72 56.62L206.72 69.03C206.72 71.06 205.97 72.67 204.68 73.42C203.4 74.16 201.68 73.95 199.86 72.99L198.78 72.35C198.46 72.13 198.25 72.13 198.03 72.24C197.82 72.35 197.71 72.56 197.71 72.99L197.71 76.84C197.71 77.37 197.5 77.8 197.07 77.91C196.96 77.91 196.85 77.91 196.85 77.91C196.32 77.91 195.78 77.48 195.35 76.84ZM199.11 71.81L200.18 72.45C201.79 73.42 203.29 73.52 204.36 72.88C205.44 72.24 206.08 70.85 206.08 69.03L206.08 56.62C206.08 52.66 203.29 47.85 199.86 45.92L183.34 36.5C181.73 35.54 180.23 35.43 179.15 36.08C178.08 36.72 177.44 38.11 177.44 39.93L177.44 52.34C177.44 56.3 180.23 61.11 183.66 63.04L186.66 64.64C188.06 65.5 189.45 66.78 190.52 68.39L195.89 76.52C196.32 77.05 196.75 77.27 196.96 77.27C197.18 77.16 197.18 76.95 197.18 76.73L197.18 72.88C197.18 72.35 197.39 71.92 197.71 71.7C197.93 71.6 198.03 71.6 198.25 71.6C198.57 71.6 198.89 71.7 199.11 71.81Z" fill="#2F2D4F" fill-opacity="1.000000" fill-rule="nonzero"/>
		<path d="M197.93 58.97C198.36 59.19 198.68 58.97 198.68 58.54C198.68 58.12 198.36 57.47 197.93 57.15L196.75 56.51C196.75 56.3 196.64 56.08 196.64 55.87L197.71 55.76C198.03 55.76 198.25 55.23 198.03 54.69C197.82 54.16 197.39 53.73 196.96 53.73L195.89 53.84C195.78 53.62 195.67 53.41 195.46 53.19L196.1 52.34C196.32 52.02 196.21 51.38 195.78 50.95C195.46 50.52 194.92 50.41 194.71 50.63L194.06 51.48C193.85 51.27 193.74 51.16 193.53 51.05L193.53 49.66C193.53 49.13 193.21 48.59 192.78 48.27C192.35 48.06 192.03 48.27 192.03 48.7L192.03 50.09C191.81 49.98 191.7 49.98 191.49 49.98L190.85 48.38C190.63 47.84 190.2 47.42 189.77 47.42C189.45 47.42 189.24 47.95 189.45 48.49L190.1 50.09C189.99 50.2 189.88 50.2 189.67 50.31L188.59 49.02C188.27 48.59 187.74 48.49 187.52 48.7C187.31 49.02 187.41 49.66 187.84 50.09L188.92 51.38C188.81 51.59 188.81 51.7 188.81 51.91L187.63 51.27C187.2 51.05 186.88 51.27 186.88 51.7C186.88 52.23 187.2 52.77 187.63 53.09L188.81 53.73C188.81 53.94 188.92 54.16 188.92 54.37L187.84 54.48C187.52 54.48 187.31 55.01 187.52 55.55C187.74 56.08 188.16 56.51 188.59 56.51L189.67 56.4C189.77 56.62 189.88 56.83 190.1 57.05L189.45 57.9C189.24 58.22 189.35 58.86 189.77 59.29C190.2 59.72 190.63 59.83 190.85 59.61L191.49 58.76C191.7 58.97 191.81 59.08 192.03 59.19L192.03 60.58C192.03 61.11 192.35 61.65 192.78 61.97C193.21 62.29 193.53 61.97 193.53 61.54L193.53 60.04C193.74 60.15 193.85 60.15 194.06 60.15L194.71 61.75C194.92 62.29 195.35 62.72 195.78 62.72C196.1 62.72 196.32 62.18 196.1 61.65L195.35 60.04C195.46 59.93 195.57 59.93 195.78 59.83L196.85 61.11C197.18 61.54 197.71 61.65 197.93 61.43C198.14 61.11 198.03 60.47 197.6 60.04L196.53 58.76C196.64 58.54 196.64 58.44 196.64 58.22L197.93 58.97ZM192.67 57.8C191.38 57.05 190.31 55.23 190.31 53.62C190.31 52.12 191.38 51.48 192.67 52.23C193.96 52.98 195.03 54.8 195.03 56.4C195.03 58.01 194.06 58.54 192.67 57.8Z" fill="#C2E6EA" fill-opacity="1.000000" fill-rule="nonzero"/>
		<path d="M194.71 63.04C194.17 63.04 193.64 62.61 193.42 61.86L192.88 60.47L192.88 61.43C192.88 61.75 192.78 62.07 192.46 62.18C192.24 62.29 191.92 62.29 191.6 62.07C191.06 61.75 190.63 61.11 190.63 60.47L190.63 59.19C190.52 59.19 190.52 59.08 190.42 59.08L189.99 59.61C189.88 59.83 189.67 59.93 189.45 59.93C189.13 59.93 188.7 59.72 188.49 59.4C188.06 58.87 187.84 58.12 188.16 57.69L188.7 56.94C188.59 56.83 188.59 56.73 188.49 56.62L187.63 56.73C187.09 56.83 186.56 56.3 186.23 55.55C186.02 55.12 186.02 54.69 186.23 54.37C186.34 54.16 186.56 54.05 186.77 54.05L187.52 53.94C187.52 53.84 187.52 53.84 187.52 53.73L186.45 53.09C185.91 52.77 185.48 52.12 185.48 51.48C185.48 51.16 185.59 50.84 185.91 50.73C186.13 50.63 186.45 50.63 186.77 50.84L187.63 51.38L186.66 50.2C186.23 49.66 186.02 48.91 186.34 48.49C186.45 48.27 186.66 48.17 186.88 48.17C187.2 48.17 187.63 48.38 187.84 48.7L188.59 49.56L188.16 48.49C187.95 48.06 187.95 47.63 188.16 47.31C188.27 47.1 188.49 46.99 188.7 46.99C189.24 46.88 189.77 47.42 190.1 48.17L190.63 49.56L190.63 48.59C190.63 48.27 190.74 47.95 191.06 47.85C191.28 47.74 191.6 47.74 191.92 47.95C192.46 48.27 192.88 48.91 192.88 49.56L192.88 50.84C192.99 50.84 192.99 50.95 193.1 50.95L193.53 50.41C193.64 50.2 193.85 50.09 194.06 50.09C194.39 50.09 194.82 50.31 195.03 50.63C195.46 51.16 195.67 51.91 195.35 52.34L194.82 53.09C194.92 53.19 194.92 53.3 195.03 53.41L195.89 53.3C196.42 53.19 196.96 53.73 197.28 54.48C197.5 54.91 197.5 55.33 197.28 55.66C197.18 55.87 196.96 55.98 196.75 55.98L196 56.08C196 56.19 196 56.19 196 56.3L197.07 56.94C197.6 57.26 198.03 57.9 198.03 58.54C198.03 58.87 197.93 59.19 197.6 59.29C197.39 59.4 197.07 59.4 196.75 59.19L195.89 58.65L196.85 59.83C197.28 60.36 197.5 61.11 197.18 61.54C197.07 61.75 196.85 61.86 196.64 61.86C196.32 61.86 195.89 61.65 195.67 61.33L194.92 60.47L195.35 61.54C195.57 61.97 195.57 62.4 195.35 62.72C195.25 62.93 195.03 63.04 194.71 63.04ZM192.24 59.61L192.67 59.72C192.78 59.72 192.99 59.83 193.1 59.83L193.31 59.83L193.42 60.04L194.06 61.65C194.28 62.07 194.6 62.4 194.82 62.4C194.82 62.4 194.82 62.4 194.92 62.4C195.03 62.29 195.03 62.07 194.92 61.75L194.17 59.93L194.39 59.83C194.49 59.83 194.6 59.72 194.71 59.61L194.92 59.4L196.21 60.9C196.42 61.11 196.53 61.22 196.75 61.22L196.85 61.22C196.96 61.11 196.85 60.58 196.53 60.15L195.35 58.76L195.46 58.65C195.57 58.44 195.57 58.33 195.57 58.22L195.67 57.8L197.28 58.65C197.39 58.76 197.5 58.76 197.5 58.76C197.5 58.76 197.6 58.65 197.6 58.54C197.6 58.12 197.28 57.69 196.96 57.47L195.67 56.73L195.67 56.62C195.67 56.4 195.57 56.19 195.57 55.98L195.46 55.66L195.78 55.55L196.85 55.44C196.85 55.44 196.85 55.44 196.96 55.44C197.07 55.33 197.07 55.12 196.96 54.8C196.75 54.37 196.42 54.05 196.21 54.05L194.92 54.16L194.82 53.94C194.71 53.73 194.6 53.52 194.49 53.3L194.39 53.09L195.14 52.02C195.25 51.91 195.14 51.38 194.82 50.95C194.6 50.73 194.39 50.63 194.28 50.63L194.17 50.63L193.31 51.8L193.1 51.59C192.88 51.38 192.78 51.27 192.56 51.16L192.46 51.05L192.46 49.56C192.46 49.13 192.13 48.7 191.81 48.49C191.7 48.38 191.6 48.38 191.6 48.38C191.6 48.38 191.49 48.49 191.49 48.59L191.49 50.41L191.06 50.31C190.95 50.31 190.74 50.2 190.63 50.2L190.42 50.2L190.31 49.98L189.67 48.38C189.45 47.95 189.13 47.63 188.92 47.63C188.92 47.63 188.92 47.63 188.81 47.63C188.7 47.74 188.7 47.95 188.81 48.27L189.56 50.09L189.24 50.2C189.13 50.2 189.02 50.31 188.92 50.41L188.7 50.63L187.41 49.13C187.2 48.91 187.09 48.81 186.88 48.81L186.77 48.81C186.66 48.91 186.77 49.45 187.09 49.88L188.27 51.27L188.16 51.38C188.06 51.59 188.06 51.7 188.06 51.8L187.95 52.23L186.34 51.38C186.23 51.27 186.13 51.27 186.13 51.27C186.13 51.27 186.02 51.38 186.02 51.48C186.02 51.91 186.34 52.34 186.66 52.55L187.95 53.3L187.95 53.41C187.95 53.62 188.06 53.84 188.06 53.94L188.16 54.37L186.77 54.48C186.77 54.48 186.77 54.48 186.66 54.48C186.56 54.59 186.56 54.8 186.66 55.12C186.88 55.55 187.2 55.87 187.41 55.87L188.7 55.76L188.81 55.98C188.92 56.19 189.02 56.4 189.13 56.62L189.24 56.83L188.49 57.9C188.38 58.01 188.49 58.54 188.81 58.97C189.02 59.19 189.13 59.29 189.35 59.29L189.45 59.29L190.31 58.12L190.52 58.33C190.74 58.54 190.85 58.65 191.06 58.76L191.17 58.87L191.17 60.36C191.17 60.79 191.49 61.22 191.81 61.43C191.92 61.54 192.03 61.54 192.03 61.43C192.03 61.43 192.13 61.33 192.13 61.22L192.13 59.61L192.24 59.61ZM192.88 58.44C192.46 58.44 192.13 58.33 191.7 58.12C190.31 57.26 189.13 55.33 189.13 53.73C189.13 52.87 189.45 52.23 189.99 51.91C190.52 51.59 191.28 51.7 192.03 52.12C193.42 52.98 194.6 54.91 194.6 56.51C194.6 57.37 194.28 58.01 193.74 58.33C193.42 58.44 193.1 58.44 192.88 58.44ZM190.74 52.34C190.52 52.34 190.42 52.34 190.31 52.45C189.99 52.66 189.77 53.09 189.77 53.73C189.77 55.12 190.74 56.83 192.03 57.58C192.56 57.9 193.1 57.9 193.42 57.8C193.74 57.58 193.96 57.15 193.96 56.51C193.96 55.12 192.99 53.41 191.7 52.66C191.28 52.45 190.95 52.34 190.74 52.34Z" fill="#2F2D4F" fill-opacity="1.000000" fill-rule="nonzero"/>
	</g>
</svg>
