<svg width="240.000000" height="240.000000" viewBox="0 0 240 240" fill="none" xmlns="http://www.w3.org/2000/svg" xmlns:xlink="http://www.w3.org/1999/xlink">
	<desc>
			Created with Pixso.
	</desc>
	<defs>
		<clipPath id="clip22_9606">
			<rect width="235.000000" height="186.000000" transform="translate(3.000000 27.000000)" fill="white" fill-opacity="0"/>
		</clipPath>
	</defs>
	<g opacity="0.500000">
		<circle cx="120.000000" cy="120.000000" r="120.000000" fill="#F2F3F3" fill-opacity="1.000000"/>
	</g>
	<rect width="235.000000" height="186.000000" transform="translate(3.000000 27.000000)" fill="#FFFFFF" fill-opacity="0"/>
	<g clip-path="url(#clip22_9606)">
		<path d="M232.73 132.71L232.73 129.8L230.91 129.8C230.73 129.8 230.73 129.62 230.55 129.62L157.72 87.66C154.46 85.85 149.01 86.03 145.19 88.21L44.4 146.52C43.68 146.88 43.13 147.24 42.77 147.79L41.31 147.79L41.31 154.14C41.31 155.23 42.04 156.32 43.49 157.23L116.32 199.37C119.59 201.19 125.04 201.01 128.85 198.83L229.82 140.52C231.82 139.43 232.73 137.98 232.91 136.52L232.91 134.89L232.91 132.71L232.73 132.71Z" fill="#C2E6EA" fill-opacity="1.000000" fill-rule="nonzero"/>
		<path d="M232.73 136.34L232.73 134.71L232.73 132.89C232.73 132.89 232.73 132.89 232.73 132.71L232.73 129.99L230.91 129.99C230.73 129.99 230.73 129.8 230.55 129.8L203.49 114.18C201.49 114.18 199.86 114.36 199.31 114.55C195.68 115.64 125.76 155.96 124.49 161.41C123.22 166.86 120.86 194.29 120.86 194.29L120.86 200.28C123.58 200.46 126.49 199.92 128.67 198.46L229.64 140.16C231.64 139.07 232.73 137.8 232.73 136.34Z" fill="#2F2D4F" fill-opacity="1.000000" fill-rule="nonzero"/>
		<path d="M121.59 201.01C119.41 201.01 117.41 200.64 115.77 199.74L43.13 157.6C41.5 156.69 40.77 155.42 40.59 153.96L40.59 147.06L42.4 147.06C42.95 146.7 43.31 146.33 44.04 145.97L145.01 87.66C148.83 85.48 154.82 85.12 158.09 87.12L230.91 129.26L231.09 129.44L233.27 129.44L233.27 136.52C233.27 138.16 232 139.79 230 141.07L129.03 199.19C126.85 200.46 124.31 201.01 121.59 201.01ZM41.86 148.33L41.86 154.14C41.86 155.05 42.59 155.96 43.68 156.69L116.5 198.83C119.59 200.64 124.85 200.28 128.3 198.28L229.28 139.98C230.91 139.07 232 137.8 232 136.52L232 132.89L232 130.71L230.73 130.71L230.55 130.53C230.37 130.35 230.37 130.35 230.19 130.35L157.54 88.21C154.46 86.39 149.19 86.75 145.74 88.75L44.58 147.06C44.04 147.42 43.49 147.79 43.13 148.15L42.95 148.33L41.86 148.33Z" fill="#2F2D4F" fill-opacity="1.000000" fill-rule="nonzero"/>
		<path d="M116.32 193.02L43.49 151.06C40.22 149.24 40.77 145.97 44.4 143.79L145.38 85.48C149.01 83.3 154.64 83.12 157.91 84.94L230.73 127.08C234 128.89 233.46 132.17 229.82 134.35L128.67 192.47C125.04 194.65 119.41 194.83 116.32 193.02Z" fill="#C2E6EA" fill-opacity="1.000000" fill-rule="nonzero"/>
		<path d="M121.77 195.01C119.59 195.01 117.59 194.65 115.96 193.74L43.13 151.6C41.5 150.69 40.59 149.42 40.59 147.97C40.59 146.33 41.86 144.52 44.04 143.43L145.01 85.12C148.83 82.94 154.82 82.58 158.09 84.57L230.91 126.72C232.55 127.62 233.46 128.89 233.46 130.35C233.46 131.98 232.18 133.8 230 134.89L129.03 193.02C126.85 194.29 124.31 195.01 121.77 195.01ZM152.46 84.39C150.1 84.39 147.74 84.94 145.74 86.03L44.58 144.34C42.77 145.42 41.86 146.7 41.86 147.79C41.86 148.69 42.59 149.6 43.68 150.33L116.5 192.47C119.59 194.29 124.85 193.92 128.3 191.93L229.28 133.62C231.09 132.53 232 131.26 232 130.17C232 129.26 231.28 128.35 230.19 127.62L157.54 85.48C156.09 84.76 154.27 84.39 152.46 84.39Z" fill="#2F2D4F" fill-opacity="1.000000" fill-rule="nonzero"/>
		<path d="M123.22 189.02L122.86 188.84L52.76 148.15L149.19 92.39L149.55 92.57L219.83 133.07L123.22 189.02Z" fill="#2F2D4F" fill-opacity="1.000000" fill-rule="nonzero"/>
		<path d="M123.58 184.84L52.03 143.61L150.28 86.94L221.83 128.17L123.58 184.84Z" fill="#F2F3F3" fill-opacity="1.000000" fill-rule="nonzero"/>
		<path d="M123.58 185.57L123.22 185.39L50.76 143.61L150.28 86.21L150.64 86.39L223.1 128.17L123.58 185.57ZM53.48 143.61L123.76 184.11L220.74 128.17L150.28 87.66L53.48 143.61Z" fill="#2F2D4F" fill-opacity="1.000000" fill-rule="nonzero"/>
		<path d="M210.39 104.19L210.39 104.56L203.13 100.38C202.95 100.56 202.95 100.56 202.76 100.74C200.77 102.01 199.49 103.83 197.5 102.56C195.5 101.29 193.32 100.92 195.32 99.83C195.5 99.83 195.68 99.65 195.86 99.65L196.59 94.2L193.68 93.29L193.32 98.2L185.33 90.21C183.88 89.48 181.52 89.84 180.97 90.93L179.88 93.48L178.97 93.29L178.97 99.29C178.97 99.65 179.34 100.01 179.7 100.2L201.86 112.91C202.4 113.27 203.31 113.46 204.22 113.27L212.39 112.18C213.66 112 214.39 111.28 214.39 110.73L214.39 104.92L210.39 104.19Z" fill="#2F2D4F" fill-opacity="1.000000" fill-rule="nonzero"/>
		<path d="M203.49 113.82C202.76 113.82 201.86 113.64 201.31 113.27L179.15 100.56C178.79 100.38 178.61 100.2 178.43 99.83L178.06 100.01L178.06 92.2L179.15 92.39L180.06 90.39C180.24 89.84 180.79 89.3 181.7 89.12C182.97 88.75 184.42 88.75 185.33 89.48L185.51 89.66L192.59 96.74L192.96 92.39L197.13 93.84L197.13 100.56L196.04 100.2C195.86 100.38 195.68 100.38 195.68 100.38C195.5 100.56 195.32 100.56 195.32 100.74C195.5 100.92 196.04 101.1 196.41 101.29C196.77 101.47 197.32 101.65 197.86 102.01C198.95 102.56 199.68 102.19 200.95 101.1C201.49 100.74 201.86 100.38 202.58 100.01L202.76 99.83L203.13 99.65L203.67 99.83L210.21 103.65L214.75 104.37C214.93 104.37 215.11 104.56 215.11 104.74L215.11 110.55C215.11 111.64 214.2 112.55 212.57 112.73L204.4 113.82C204.03 113.82 203.85 113.82 203.49 113.82ZM179.52 98.92C179.52 99.11 179.7 99.29 179.88 99.47L202.04 112.18C202.58 112.55 203.31 112.55 204.03 112.55L212.21 111.46C213.12 111.28 213.66 110.91 213.66 110.55L213.66 105.1L211.12 104.74L211.12 105.28L203.31 100.74C203.31 100.74 203.31 100.74 203.13 100.74C202.58 101.1 202.22 101.47 201.67 101.65C200.4 102.56 198.95 103.65 197.13 102.56C196.77 102.38 196.23 102.01 195.86 101.83C194.77 101.29 193.86 100.92 193.86 100.01C193.86 99.29 194.41 98.92 194.95 98.56L195.86 99.11L195.86 94.2L194.23 93.48L193.68 99.11L184.78 90.21C184.06 89.84 183.15 89.84 182.24 90.02C181.88 90.21 181.52 90.39 181.52 90.57L180.24 93.48L179.52 93.48L179.52 98.92Z" fill="#2F2D4F" fill-opacity="1.000000" fill-rule="nonzero"/>
		<path d="M213.48 103.65L203.13 97.65C202.95 97.83 202.95 97.83 202.76 98.02C200.77 99.29 197.32 99.29 195.32 98.02C193.32 96.74 193.32 94.93 195.32 93.66C195.5 93.66 195.68 93.48 195.86 93.48L185.15 87.3C183.69 86.57 181.33 86.94 180.79 88.03L178.97 92.57C178.79 93.11 178.97 93.66 179.7 94.02L201.86 106.74C202.4 107.1 203.31 107.28 204.22 107.1L212.39 106.01C214.2 105.83 214.93 104.56 213.48 103.65Z" fill="#F2F3F3" fill-opacity="1.000000" fill-rule="nonzero"/>
		<path d="M203.49 107.83C202.76 107.83 201.86 107.64 201.31 107.28L179.16 94.57C178.25 94.02 177.88 93.11 178.25 92.39L180.06 87.84C180.25 87.3 180.79 86.75 181.7 86.57C182.97 86.21 184.42 86.21 185.33 86.94L197.13 93.66L196.04 94.2C195.86 94.38 195.68 94.38 195.68 94.38C194.96 94.93 194.41 95.47 194.41 96.02C194.41 96.56 194.77 97.11 195.68 97.65C197.5 98.74 200.59 98.74 202.4 97.65L202.58 97.47L202.95 97.29L203.49 97.47L213.84 103.47C214.57 104.01 215.11 104.56 214.93 105.28C214.75 106.19 213.84 106.92 212.39 107.1L204.22 108.19C204.04 107.83 203.85 107.83 203.49 107.83ZM183.33 87.48C182.97 87.48 182.61 87.48 182.24 87.66C181.88 87.84 181.52 88.03 181.52 88.21L179.7 92.75C179.52 92.93 180.06 93.29 180.06 93.29L202.22 106.01C202.76 106.37 203.49 106.37 204.22 106.37L212.39 105.28C213.3 105.1 213.84 104.74 213.84 104.56C213.84 104.37 213.48 104.01 213.48 104.01L203.49 98.2C203.49 98.2 203.49 98.2 203.31 98.2C201.13 99.47 197.5 99.47 195.14 98.2C193.87 97.47 193.32 96.56 193.32 95.47C193.32 94.57 193.87 93.84 194.77 93.11L185.15 87.48C184.42 87.66 183.88 87.48 183.33 87.48Z" fill="#2F2D4F" fill-opacity="1.000000" fill-rule="nonzero"/>
		<path d="M214.75 124.17L157.36 91.11C155.91 90.39 156.09 88.93 157.72 88.03L161.36 86.03C162.99 85.12 165.35 84.94 166.81 85.85L224.01 118.91C225.46 119.63 225.28 121.09 223.65 121.99L220.02 123.99C218.56 124.9 216.02 125.08 214.75 124.17Z" fill="#F2F3F3" fill-opacity="1.000000" fill-rule="nonzero"/>
		<path d="M217.11 125.44C216.2 125.44 215.11 125.26 214.39 124.9L157.18 91.66C156.45 91.11 155.91 90.57 155.91 89.84C155.91 88.93 156.45 88.21 157.54 87.48L161.17 85.48C162.99 84.39 165.53 84.39 167.17 85.3L224.37 118.36C225.1 118.91 225.65 119.45 225.65 120.18C225.65 121.09 225.1 121.81 224.01 122.54L220.38 124.54C219.47 125.08 218.2 125.44 217.11 125.44ZM215.11 123.63C216.2 124.35 218.38 124.17 219.83 123.45L223.47 121.45C224.01 121.09 224.37 120.72 224.37 120.18C224.37 119.81 224.01 119.63 223.83 119.45L166.44 86.39C165.35 85.66 163.17 85.85 161.72 86.57L158.09 88.57C157.54 88.93 157.18 89.3 157.18 89.84C157.18 90.21 157.54 90.39 157.72 90.57L215.11 123.63Z" fill="#2F2D4F" fill-opacity="1.000000" fill-rule="nonzero"/>
		<path d="M196.77 116.54L168.08 100.02C167.35 99.65 167.53 98.92 168.26 98.38L170.07 97.29C170.8 96.75 172.07 96.75 172.8 97.11L201.49 113.64C202.22 114 202.04 114.73 201.31 115.27L199.49 116.36C198.59 116.91 197.5 117.09 196.77 116.54Z" fill="#C2E6EA" fill-opacity="1.000000" fill-rule="nonzero"/>
		<path d="M197.86 117.45C197.32 117.45 196.77 117.27 196.41 117.09L167.71 100.56C167.17 100.2 166.99 99.83 166.99 99.29C166.99 98.74 167.35 98.2 167.9 97.83L169.71 96.75C170.8 96.2 172.07 96.2 172.98 96.56L201.67 113.09C202.22 113.46 202.4 113.82 202.4 114.36C202.4 114.91 202.04 115.45 201.49 115.82L199.68 116.91C199.31 117.45 198.59 117.45 197.86 117.45ZM171.71 97.83C171.35 97.83 170.8 98.02 170.44 98.2L168.62 99.29C168.44 99.47 168.26 99.65 168.26 99.65C168.26 99.65 168.26 99.65 168.44 99.83L197.13 116.36C197.68 116.73 198.59 116.54 199.13 116.18L200.95 115.09C201.13 114.91 201.31 114.73 201.31 114.73C201.31 114.73 201.31 114.73 201.13 114.55L172.44 98.02C172.25 97.83 171.89 97.83 171.71 97.83Z" fill="#2F2D4F" fill-opacity="1.000000" fill-rule="nonzero"/>
		<path d="M189.14 134.16L189.32 127.26L186.24 127.26C186.24 127.26 186.24 127.26 186.24 127.08L183.69 134.35L182.6 134.35L179.88 137.8L168.44 142.34L152.46 143.79L141.02 141.97L130.3 132.89C130.3 132.53 130.48 132.35 130.48 131.98L127.4 126.17C127.4 126.17 127.4 126.17 127.21 126.35L124.13 126.35L124.13 134.16C124.13 134.35 124.13 134.35 124.13 134.53L124.13 134.89L124.13 135.43C124.49 139.79 127.58 144.34 133.39 147.79C145.92 155.23 166.62 155.6 179.34 148.51C185.33 145.24 188.42 140.88 188.96 136.52L188.96 136.34C189.14 135.25 189.14 134.89 189.14 134.16Z" fill="#C2E6EA" fill-opacity="1.000000" fill-rule="nonzero"/>
		<path d="M157.18 154.33C148.46 154.33 139.56 152.33 133.03 148.33C127.22 144.88 123.76 140.16 123.4 135.25L123.4 134.71L123.58 125.26L127.22 125.26L127.76 124.54L128.49 125.44L131.75 131.62L131.39 132.35C131.39 132.53 131.39 132.53 131.39 132.71L141.56 141.25L152.82 143.06L168.26 141.43L179.34 137.07L182.06 133.44L182.97 133.44L185.87 125.26L186.6 126.17L190.05 126.17L190.05 134.16C190.05 134.89 190.05 135.25 190.05 136.16L190.05 136.34C189.51 141.25 185.87 145.79 179.88 149.06C173.52 152.69 165.35 154.33 157.18 154.33ZM125.04 127.08L124.85 134.71L124.85 135.25C125.22 139.61 128.3 143.79 133.75 146.88C146.1 154.33 166.26 154.51 178.97 147.6C184.42 144.52 187.69 140.52 188.24 136.16L188.24 135.98C188.24 135.07 188.24 134.89 188.24 134.16L188.24 128.17L186.6 128.17L184.06 135.43L182.79 135.43L180.24 138.7L168.62 143.25L152.64 144.7L140.65 142.7L129.39 133.25L129.39 132.71C129.39 132.53 129.39 132.35 129.58 132.17L126.85 127.26L125.04 127.08Z" fill="#2F2D4F" fill-opacity="1.000000" fill-rule="nonzero"/>
		<path d="M126.67 127.08C127.94 128.71 129.21 130.71 130.48 132.35C131.21 129.08 133.75 125.99 138.11 123.63C148.46 117.82 165.17 118 175.52 124.17C179.7 126.72 182.24 129.8 182.97 133.07L186.6 127.44C186.24 127.08 185.87 126.53 185.51 126.17C186.24 126.53 186.78 126.72 186.96 126.9C185.87 125.81 177.7 114 177.7 114L158.81 109.28L141.2 111.64L129.76 120.9L129.03 124.54L127.76 124.9C126.49 125.63 127.4 126.17 126.67 127.08Z" fill="#2F2D4F" fill-opacity="1.000000" fill-rule="nonzero"/>
		<path d="M182.42 135.25L181.88 133.25C181.15 130.17 178.79 127.26 174.98 125.08C164.99 119.09 148.64 118.91 138.47 124.54C134.48 126.72 131.94 129.62 131.21 132.71L130.85 134.53L129.76 133.07C128.49 131.44 127.21 129.44 125.94 127.81L125.58 127.26L125.94 126.72C126.13 126.53 126.13 126.35 126.13 126.17C126.13 125.63 126.13 124.9 127.03 124.35L127.4 124.17L128.12 123.81L128.85 120.36L140.84 110.73L158.81 108.37L178.06 113.09L178.25 113.27C181.33 117.82 186.78 125.44 187.51 125.99L188.05 126.53L187.51 127.26L182.42 135.25ZM156.27 118.54C163.35 118.54 170.62 120.18 176.07 123.45C179.52 125.63 182.06 128.17 183.15 130.89L185.33 127.44C185.15 127.26 184.97 126.9 184.6 126.72L181.7 123.63L184.06 124.72C181.7 121.45 178.06 116.18 176.98 114.73L158.63 110.19L141.56 112.37L130.48 121.27L129.58 125.08L127.94 125.63C127.76 125.81 127.76 125.81 127.76 125.99C127.76 126.17 127.76 126.53 127.58 127.08C128.3 128.17 129.21 129.44 130.12 130.53C131.39 127.62 133.93 125.08 137.57 122.9C142.83 120 149.55 118.54 156.27 118.54Z" fill="#2F2D4F" fill-opacity="1.000000" fill-rule="nonzero"/>
		<path d="M184.24 152.69L189.14 144.15L183.33 140.52C183.33 140.52 183.33 140.52 183.15 140.52C182.61 140.16 181.7 140.16 180.79 140.7C178.79 141.79 177.34 144.52 177.16 146.7C177.16 147.6 177.52 148.33 177.88 148.88C177.88 148.88 178.07 149.06 178.25 149.06L184.24 152.69Z" fill="#C2E6EA" fill-opacity="1.000000" fill-rule="nonzero"/>
		<path d="M133.93 112.91C121.04 120 120.86 131.98 133.57 139.43C146.1 146.88 166.81 147.24 179.52 140.16C192.41 133.07 192.59 121.09 179.88 113.64C167.35 106.01 146.83 105.83 133.93 112.91ZM175.34 137.61C164.99 143.43 148.28 143.25 137.93 137.07C127.76 130.89 127.76 121.27 138.29 115.45C148.64 109.64 165.35 109.82 175.7 116C185.87 122.18 185.69 131.8 175.34 137.61Z" fill="#F2F3F3" fill-opacity="1.000000" fill-rule="nonzero"/>
		<path d="M157.36 146.15C148.64 146.15 139.75 144.15 133.21 140.16C126.85 136.34 123.4 131.26 123.4 125.99C123.4 120.72 127.03 115.64 133.57 112.18C146.65 104.92 167.71 105.28 180.43 112.91C186.78 116.73 190.23 121.81 190.23 127.08C190.23 132.35 186.6 137.43 180.06 140.88C173.71 144.52 165.53 146.15 157.36 146.15ZM156.27 108.55C148.28 108.55 140.47 110.19 134.48 113.64C128.49 116.91 125.22 121.27 125.22 125.99C125.22 130.71 128.3 135.25 134.12 138.7C146.47 146.15 166.62 146.33 179.34 139.43C185.33 136.16 188.6 131.8 188.6 127.08C188.6 122.36 185.51 117.82 179.7 114.36C173.16 110.55 164.63 108.55 156.27 108.55ZM157.18 142.7C150.1 142.7 142.83 141.07 137.39 137.8C132.12 134.71 129.39 130.53 129.39 126.17C129.39 121.81 132.48 117.63 137.75 114.73C148.46 108.73 165.53 109.1 175.89 115.27C181.15 118.36 183.88 122.54 183.88 126.9C183.88 131.26 180.79 135.43 175.52 138.34C170.62 141.25 163.9 142.7 157.18 142.7ZM156.27 112.18C149.92 112.18 143.56 113.46 138.66 116.36C133.93 119.09 131.21 122.54 131.21 126.35C131.21 130.17 133.75 133.62 138.29 136.52C148.28 142.52 164.63 142.7 174.8 137.07C179.52 134.35 182.24 130.89 182.24 127.08C182.24 123.27 179.7 119.81 175.16 116.91C170.07 113.64 163.17 112.18 156.27 112.18Z" fill="#2F2D4F" fill-opacity="1.000000" fill-rule="nonzero"/>
		<path d="M178.61 143.06L184.24 146.52L188.42 143.61L182.42 139.98L178.61 143.06Z" fill="#F2F3F3" fill-opacity="1.000000" fill-rule="nonzero"/>
		<path d="M184.6 153.78L178.06 149.42C177.88 149.42 177.88 149.24 177.7 149.24C176.98 148.69 176.61 147.6 176.61 146.52C176.61 143.97 178.43 141.07 180.61 139.79C181.88 139.07 182.97 139.07 183.88 139.61L184.06 139.79L190.41 143.97L184.6 153.78ZM182.42 140.88C182.06 140.88 181.7 141.07 181.33 141.25C179.7 142.16 178.25 144.52 178.25 146.52C178.25 147.24 178.43 147.79 178.79 147.97L178.97 148.15L184.06 151.42L188.05 144.34L182.97 141.07C182.97 141.07 182.79 140.88 182.42 140.88Z" fill="#2F2D4F" fill-opacity="1.000000" fill-rule="nonzero"/>
		<path d="M189.32 144.15C188.78 143.79 187.87 143.79 186.96 144.34C184.97 145.42 183.51 148.15 183.33 150.33C183.33 151.42 183.69 152.33 184.42 152.69L194.77 161.77L202.4 149.78L189.32 144.15Z" fill="#C2E6EA" fill-opacity="1.000000" fill-rule="nonzero"/>
		<path d="M184.6 146.51L196.41 153.05L201.31 149.24L188.05 143.79L184.6 146.51Z" fill="#F2F3F3" fill-opacity="1.000000" fill-rule="nonzero"/>
		<path d="M194.95 162.86L183.7 153.24C182.97 152.87 182.42 151.6 182.42 150.33C182.42 147.79 184.24 144.88 186.42 143.61C187.51 142.88 188.78 142.88 189.69 143.25L203.67 149.24L194.95 162.86ZM188.42 144.7C188.05 144.7 187.69 144.88 187.33 145.06C185.69 145.97 184.24 148.33 184.24 150.33C184.24 151.06 184.42 151.6 184.78 151.78L194.59 160.32L201.13 150.15L188.96 144.88C188.78 144.88 188.6 144.7 188.42 144.7Z" fill="#2F2D4F" fill-opacity="1.000000" fill-rule="nonzero"/>
		<path d="M220.92 162.86C220.74 162.86 220.74 162.68 220.56 162.68L203.13 149.97C202.22 149.42 200.95 149.42 199.49 150.15C196.59 151.78 194.41 155.6 194.23 158.87C194.23 160.5 194.77 161.59 195.5 162.14C195.68 162.32 195.86 162.32 196.04 162.5L215.11 172.13C215.11 172.13 215.29 172.31 215.48 172.31L222.2 175.58L227.1 167.04L220.92 162.86Z" fill="#C2E6EA" fill-opacity="1.000000" fill-rule="nonzero"/>
		<path d="M196.41 153.05L222.2 169.22L226.01 166.31L202.22 149.78L197.13 151.78L196.41 153.05Z" fill="#F2F3F3" fill-opacity="1.000000" fill-rule="nonzero"/>
		<path d="M222.38 176.67L195.5 163.23C195.32 163.23 195.14 163.04 194.77 162.86C193.68 162.14 192.96 160.68 193.14 158.87C193.14 155.23 195.68 151.06 198.77 149.42C200.4 148.51 202.04 148.33 203.31 149.24L227.83 166.68L222.38 176.67ZM201.67 150.51C201.13 150.51 200.58 150.69 199.86 151.06C197.32 152.51 195.14 156.14 195.14 159.05C195.14 160.32 195.5 161.05 196.04 161.59C196.23 161.59 196.23 161.77 196.41 161.77L221.83 174.49L225.83 167.4L202.58 150.87C202.22 150.51 202.04 150.51 201.67 150.51Z" fill="#2F2D4F" fill-opacity="1.000000" fill-rule="nonzero"/>
		<path d="M232.55 170.67L226.92 167.04C226.92 167.04 226.92 167.04 226.74 167.04C226.19 166.68 225.28 166.68 224.37 167.22C222.38 168.31 220.92 171.04 220.74 173.22C220.74 174.49 221.11 175.21 221.83 175.58L227.46 179.39L232.55 170.67Z" fill="#C2E6EA" fill-opacity="1.000000" fill-rule="nonzero"/>
		<path d="M222.38 169.4L228.37 173.4L231.64 170.13L225.83 166.86L222.38 169.4Z" fill="#F2F3F3" fill-opacity="1.000000" fill-rule="nonzero"/>
		<path d="M227.46 180.12L221.47 176.3C220.56 175.94 219.83 174.67 219.83 173.22C219.83 170.67 221.65 167.77 223.83 166.5C225.1 165.77 226.19 165.77 227.1 166.31L227.28 166.5L233.46 170.49L227.46 180.12ZM226.01 167.59C225.65 167.59 225.28 167.77 224.92 167.95C223.29 168.86 221.83 171.22 221.83 173.22C221.83 173.94 222.01 174.67 222.56 174.85L227.64 178.12L231.64 171.04L226.74 167.77C226.37 167.77 226.19 167.59 226.01 167.59Z" fill="#2F2D4F" fill-opacity="1.000000" fill-rule="nonzero"/>
		<path d="M233.27 170.13C232.37 169.58 231.09 169.58 230 170.31C227.83 171.58 226.01 174.49 226.01 177.03C226.01 178.48 226.55 179.57 227.46 180.12C227.83 180.3 228.37 180.48 228.91 180.48C229.46 180.48 230.19 180.3 230.91 179.94C233.09 178.67 234.91 175.76 234.91 173.22C234.73 171.76 234.18 170.67 233.27 170.13Z" fill="#2F2D4F" fill-opacity="1.000000" fill-rule="nonzero"/>
		<path d="M162.99 38.98L160.45 39.71C159.54 38.8 158.45 37.89 157.18 37.17C150.1 32.99 139.2 32.44 133.03 36.08L107.78 50.79L100.16 53.15L100.16 59.15C100.34 61.87 102.15 64.59 105.97 66.96C113.05 71.13 123.95 71.68 130.12 68.05L158.81 51.33C161.54 49.7 162.99 47.52 162.99 45.34L162.99 38.98Z" fill="#C2E6EA" fill-opacity="1.000000" fill-rule="nonzero"/>
		<path d="M119.59 71.5C114.68 71.5 109.42 70.23 105.42 67.86C101.97 65.87 99.61 63.32 99.07 60.6L99.07 59.33L99.07 52.61L107.24 50.06L132.48 35.35C138.84 31.54 150.1 32.08 157.54 36.44C158.63 37.17 159.72 37.89 160.63 38.8L163.9 39.16L163.9 46.07C163.54 48.43 162.08 50.61 159.36 52.06L130.67 68.77C127.58 70.59 123.58 71.5 119.59 71.5ZM100.88 58.96L100.88 59.33C101.06 61.87 103.06 64.41 106.33 66.41C113.23 70.41 123.76 70.95 129.58 67.5L158.27 50.79C160.63 49.34 161.9 47.52 162.08 45.52L162.08 45.34L162.08 40.25L160.09 40.8L159.72 40.44C158.81 39.53 157.91 38.8 156.64 38.08C149.73 34.08 139.2 33.53 133.39 37.17L107.96 51.88L100.88 54.06L100.88 58.96Z" fill="#2F2D4F" fill-opacity="1.000000" fill-rule="nonzero"/>
		<path d="M158.81 45.34L130.12 62.05C123.95 65.68 113.05 65.14 105.97 60.96C98.88 56.78 97.98 50.43 104.15 46.79L132.84 30.08C139.02 26.45 149.92 27 157 31.17C164.26 35.53 164.99 41.71 158.81 45.34Z" fill="#C2E6EA" fill-opacity="1.000000" fill-rule="nonzero"/>
		<path d="M157 34.62C149.92 30.45 139.02 29.9 132.85 33.53L104.15 50.25C101.97 51.52 100.7 53.15 100.16 54.79C100.88 56.97 102.7 59.33 105.79 61.14C112.87 65.32 123.76 65.87 129.94 62.23L158.63 45.52C160.81 44.25 162.08 42.62 162.63 40.98C162.08 38.62 160.09 36.44 157 34.62Z" fill="#F2F3F3" fill-opacity="1.000000" fill-rule="nonzero"/>
		<path d="M119.59 65.32C114.68 65.32 109.42 64.05 105.42 61.69C101.43 59.33 99.07 56.24 99.07 52.97C99.07 50.25 100.7 47.88 103.61 46.07L132.3 29.36C138.84 25.72 150.1 26.27 157.54 30.63C161.54 32.99 163.9 36.08 163.9 39.35C163.9 42.07 162.27 44.43 159.36 46.25L130.67 62.96C127.58 64.59 123.58 65.32 119.59 65.32ZM143.38 28.63C139.56 28.63 135.93 29.36 133.39 30.99L104.7 47.7C102.33 49.16 100.88 50.97 100.88 53.15C100.88 55.69 102.88 58.42 106.33 60.42C113.23 64.41 123.76 64.96 129.58 61.51L158.27 44.8C160.63 43.34 162.08 41.53 162.08 39.35C162.08 36.8 160.09 34.08 156.64 32.08C152.82 29.9 147.92 28.63 143.38 28.63Z" fill="#2F2D4F" fill-opacity="1.000000" fill-rule="nonzero"/>
		<path d="M153 36.99C158.27 40.07 158.27 44.98 153 47.88C147.74 50.97 139.2 50.97 133.93 47.88C128.67 44.8 128.67 39.89 133.93 36.99C139.2 34.08 147.74 34.08 153 36.99Z" fill="#C2E6EA" fill-opacity="1.000000" fill-rule="nonzero"/>
		<path d="M143.56 47.52C139.93 47.52 136.29 46.79 133.57 45.16C130.85 43.52 129.21 41.34 129.21 38.98C129.21 36.62 130.85 34.44 133.57 32.81C139.02 29.72 147.92 29.72 153.37 32.81C156.09 34.44 157.72 36.62 157.72 38.98C157.72 41.34 156.09 43.52 153.37 45.16C150.64 46.61 147.19 47.52 143.56 47.52ZM143.56 31.9C140.29 31.9 137.02 32.63 134.48 34.08C132.3 35.35 131.03 36.99 131.03 38.8C131.03 40.62 132.3 42.25 134.48 43.52C139.56 46.43 147.55 46.43 152.64 43.52C154.82 42.25 156.09 40.62 156.09 38.8C156.09 36.99 154.82 35.35 152.64 34.08C150.1 32.63 146.83 31.9 143.56 31.9Z" fill="#2F2D4F" fill-opacity="1.000000" fill-rule="nonzero"/>
		<path d="M124.31 64.59L124.31 70.23L129.21 68.59L161.17 49.88L163.35 45.7L162.63 41.71L131.39 61.33L124.31 64.59Z" fill="#2F2D4F" fill-opacity="1.000000" fill-rule="nonzero"/>
		<path d="M119.22 64.59L119.22 70.95L115.05 70.59L115.05 64.23L119.22 64.59Z" fill="#2F2D4F" fill-opacity="1.000000" fill-rule="nonzero"/>
		<path d="M50.94 93.29L50.94 61.87L68.92 72.22L68.92 103.65L50.94 93.29Z" fill="#C2E6EA" fill-opacity="1.000000" fill-rule="nonzero"/>
		<path d="M50.94 61.87L67.28 52.42L85.26 62.78L68.92 72.22L50.94 61.87Z" fill="#C2E6EA" fill-opacity="1.000000" fill-rule="nonzero"/>
		<path d="M51.12 66.23L67.28 56.97L85.26 67.32L68.74 76.4L51.12 66.23Z" fill="#F2F3F3" fill-opacity="1.000000" fill-rule="nonzero"/>
		<path d="M67.28 51.52L50.21 61.33L50.21 93.66L68.92 104.37L86.17 94.57L86.17 62.41L67.28 51.52ZM68.01 102.38L51.48 92.93L51.48 63.14L68.01 72.59L68.01 102.38ZM52.39 61.87L67.28 53.33L83.63 62.78L68.74 71.32L52.39 61.87Z" fill="#2F2D4F" fill-opacity="1.000000" fill-rule="nonzero"/>
		<path d="M27.51 106.37L27.51 87.66L45.49 98.02L45.49 116.73L27.51 106.37Z" fill="#C2E6EA" fill-opacity="1.000000" fill-rule="nonzero"/>
		<path d="M27.51 87.66L43.86 78.22L61.84 88.57L45.31 98.02L27.51 87.66Z" fill="#C2E6EA" fill-opacity="1.000000" fill-rule="nonzero"/>
		<path d="M27.69 92.02L43.86 82.76L61.84 93.11L45.31 102.19L27.69 92.02Z" fill="#F2F3F3" fill-opacity="1.000000" fill-rule="nonzero"/>
		<path d="M43.86 77.31L26.6 87.3L26.6 106.92L45.31 117.63L62.56 107.83L62.56 88.21L43.86 77.31ZM44.58 115.45L28.06 106.01L28.06 89.12L44.58 98.56L44.58 115.45ZM28.96 87.66L43.86 79.13L60.2 88.57L45.31 97.11L28.96 87.66Z" fill="#2F2D4F" fill-opacity="1.000000" fill-rule="nonzero"/>
		<path d="M3.72 119.81L3.72 111.46L21.7 121.81L21.7 130.17L3.72 119.81Z" fill="#C2E6EA" fill-opacity="1.000000" fill-rule="nonzero"/>
		<path d="M3.72 111.46L20.25 102.01L38.05 112.37L21.7 121.81L3.72 111.46Z" fill="#C2E6EA" fill-opacity="1.000000" fill-rule="nonzero"/>
		<path d="M4.08 115.82L20.25 106.55L38.05 116.91L21.52 125.99L4.08 115.82Z" fill="#F2F3F3" fill-opacity="1.000000" fill-rule="nonzero"/>
		<path d="M20.25 101.1L3 110.91L3 120.18L21.7 130.89L38.95 121.09L38.95 111.82L20.25 101.1ZM20.97 128.89L4.45 119.45L4.45 112.91L20.97 122.36L20.97 128.89ZM5.36 111.46L20.25 102.92L36.59 112.37L21.7 120.9L5.36 111.46Z" fill="#2F2D4F" fill-opacity="1.000000" fill-rule="nonzero"/>
		<path d="M212.57 57.51L210.75 58.24C210.21 57.69 209.66 57.15 208.76 56.6C208.58 56.42 208.39 56.42 208.21 56.24C208.39 55.88 208.39 55.33 208.39 55.15C208.21 54.6 204.22 51.88 202.76 51.15C201.49 50.43 195.32 50.24 195.32 50.24L188.42 55.15L189.51 55.69C189.14 55.88 188.78 56.06 188.42 56.24C187.69 56.6 187.15 56.97 186.6 57.33L183.69 57.33L183.69 62.41C183.69 64.41 184.97 66.23 187.51 67.86C192.78 71.13 202.04 71.32 207.85 68.23C210.94 66.59 212.39 64.41 212.57 62.23L212.57 57.51ZM195.14 63.87L191.5 60.05C191.87 59.69 192.41 59.33 192.96 58.96C196.04 57.33 201.13 57.33 204.03 59.15C204.94 59.69 205.49 60.42 205.85 60.96L195.14 63.87Z" fill="#C2E6EA" fill-opacity="1.000000" fill-rule="nonzero"/>
		<path d="M197.86 71.32C193.86 71.32 190.05 70.41 187.15 68.59C184.78 67.14 183.33 65.14 183.15 62.96L183.15 62.78L183.15 56.97L186.42 56.97C186.96 56.6 187.51 56.24 188.05 55.88L188.23 55.88L187.33 55.33L195.14 49.88L195.32 49.88C196.04 49.88 201.67 50.25 203.13 50.79C203.13 50.79 208.76 54.06 208.94 55.15C208.94 55.33 208.94 55.51 208.94 56.06C208.94 56.06 209.12 56.06 209.12 56.24C209.85 56.6 210.39 57.15 210.94 57.51L213.12 56.6L213.12 62.6C212.93 64.96 211.12 67.14 208.21 68.77C205.12 70.41 201.49 71.32 197.86 71.32ZM184.42 62.6C184.42 64.41 185.69 66.23 187.87 67.5C193.14 70.77 201.86 70.77 207.67 67.86C210.39 66.41 212.03 64.41 212.03 62.41L212.03 62.05L212.03 58.42L210.57 58.96L210.21 58.6C209.66 58.06 209.12 57.51 208.39 57.15C208.21 57.15 208.21 56.97 208.03 56.97L207.49 56.6L207.67 56.06C207.85 55.33 207.85 55.15 207.85 55.15C207.49 54.79 204.03 52.42 202.58 51.7C201.67 51.33 197.86 50.97 195.5 50.79L189.51 54.97L190.78 55.69L189.69 56.24C189.32 56.42 188.96 56.6 188.6 56.78C188.05 57.15 187.33 57.51 186.96 57.87L186.78 58.06L184.24 58.06L184.24 62.6L184.42 62.6ZM194.95 64.59L190.6 60.24L190.96 59.87C191.32 59.51 191.87 58.96 192.59 58.78C195.86 56.97 201.13 57.15 204.22 58.96C205.12 59.51 205.85 60.24 206.21 61.14L206.58 61.87L194.95 64.59ZM192.23 60.24L195.14 63.32L204.58 60.96C204.22 60.6 203.85 60.24 203.49 59.87C200.77 58.24 196.04 58.06 193.14 59.69C192.77 59.87 192.59 60.05 192.23 60.24Z" fill="#2F2D4F" fill-opacity="1.000000" fill-rule="nonzero"/>
		<path d="M207.85 63.5C202.04 66.59 192.78 66.59 187.51 63.14C182.24 59.87 182.61 54.6 188.42 51.33C194.23 48.25 203.49 48.25 208.76 51.7C214.2 55.15 213.66 60.42 207.85 63.5ZM192.96 54.24C189.87 55.88 189.51 58.78 192.41 60.6C195.32 62.41 200.22 62.41 203.49 60.78C206.58 59.15 206.94 56.24 204.04 54.42C200.95 52.61 196.04 52.61 192.96 54.24Z" fill="#C2E6EA" fill-opacity="1.000000" fill-rule="nonzero"/>
		<path d="M208.76 53.51C203.49 50.25 194.23 50.06 188.42 53.15C186.42 54.24 184.97 55.69 184.24 57.15L184.24 61.51C184.78 62.78 185.87 63.87 187.51 64.96C192.78 68.23 202.04 68.41 207.85 65.32C213.84 62.05 214.2 56.78 208.76 53.51ZM203.49 62.41C200.4 64.05 195.32 64.05 192.41 62.23C189.51 60.42 189.69 57.51 192.96 55.88C196.04 54.24 201.13 54.24 204.04 56.06C206.76 57.87 206.58 60.78 203.49 62.41Z" fill="#F2F3F3" fill-opacity="1.000000" fill-rule="nonzero"/>
		<path d="M197.86 66.41C193.87 66.41 190.05 65.5 187.15 63.69C184.42 62.05 182.97 59.87 183.15 57.51C183.15 54.97 184.97 52.61 188.24 50.97C194.23 47.7 203.67 47.88 209.12 51.33C211.84 52.97 213.3 55.15 213.12 57.51C213.12 60.05 211.3 62.41 208.03 64.05C205.12 65.68 201.49 66.41 197.86 66.41ZM198.41 49.88C194.95 49.88 191.5 50.61 188.78 52.06C186.06 53.51 184.42 55.51 184.42 57.51C184.42 59.33 185.51 61.33 187.87 62.6C193.14 65.87 201.86 65.87 207.67 62.96C210.39 61.51 212.03 59.51 212.03 57.51C212.03 55.51 210.94 53.7 208.58 52.42C205.67 50.61 202.04 49.88 198.41 49.88ZM198.04 62.6C195.86 62.6 193.68 62.05 192.05 61.14C190.6 60.24 189.69 58.96 189.69 57.51C189.69 56.06 190.78 54.79 192.59 53.7C195.86 51.88 201.13 52.06 204.22 53.88C205.67 54.79 206.58 56.06 206.58 57.51C206.58 58.96 205.49 60.24 203.67 61.33C202.04 62.23 200.04 62.6 198.04 62.6ZM198.22 53.7C196.41 53.7 194.59 54.06 193.14 54.79C191.69 55.51 190.96 56.6 190.96 57.51C190.96 58.42 191.5 59.33 192.78 60.05C195.5 61.69 200.22 61.87 203.13 60.24C204.58 59.51 205.31 58.42 205.31 57.51C205.31 56.6 204.76 55.69 203.49 54.97C202.22 54.06 200.22 53.7 198.22 53.7Z" fill="#2F2D4F" fill-opacity="1.000000" fill-rule="nonzero"/>
		<path d="M199.31 53.33L199.31 57.87L192.96 58.78L191.69 59.87L190.41 57.87L191.87 54.6L197.32 53.33L199.31 53.33Z" fill="#2F2D4F" fill-opacity="1.000000" fill-rule="nonzero"/>
		<path d="M195.32 65.5L195.32 70.59L205.67 69.68L211.84 65.14L212.75 59.69L211.48 60.42L207.85 63.5L201.86 65.87L195.32 65.5Z" fill="#2F2D4F" fill-opacity="1.000000" fill-rule="nonzero"/>
	</g>
</svg>
