<svg width="240.000000" height="240.000000" viewBox="0 0 240 240" fill="none" xmlns="http://www.w3.org/2000/svg" xmlns:xlink="http://www.w3.org/1999/xlink">
	<desc>
			Created with Pixso.
	</desc>
	<defs>
		<clipPath id="clip22_9707">
			<rect width="210.000000" height="181.000000" transform="translate(15.000000 30.000000)" fill="white" fill-opacity="0"/>
		</clipPath>
	</defs>
	<g opacity="0.500000">
		<circle cx="120.000000" cy="120.000000" r="120.000000" fill="#F2F3F3" fill-opacity="1.000000"/>
	</g>
	<rect width="210.000000" height="181.000000" transform="translate(15.000000 30.000000)" fill="#FFFFFF" fill-opacity="0"/>
	<g clip-path="url(#clip22_9707)">
		<path d="M145 90.98L145 60.55C145 60.16 144.61 59.77 144.22 59.77L124.32 59.77C124.05 59.77 123.79 60.03 123.79 60.29L123.79 90.98L123.79 91.11C123.92 91.63 123.92 91.76 124.45 92.03L132.56 96.73C133.61 97.25 135.31 97.25 136.36 96.6L143.95 92.29C144.61 91.9 145 91.5 145 90.98Z" fill="#C2E6EA" fill-opacity="1.000000" fill-rule="nonzero"/>
		<path d="M132.56 72.7L125.76 68.78L125.76 93.2L134.4 97.38L134.4 72.96C133.74 73.09 133.09 72.96 132.56 72.7Z" fill="#F2F3F3" fill-opacity="1.000000" fill-rule="nonzero"/>
		<path d="M134.27 97.64C133.48 97.64 132.83 97.51 132.3 97.25L124.18 92.55C123.53 92.16 123.4 91.9 123.27 91.24L123.27 91.11L123.27 60.42C123.27 59.77 123.79 59.25 124.45 59.25L144.22 59.25C145 59.25 145.53 59.9 145.53 60.55L145.53 90.98C145.53 91.9 144.87 92.29 144.35 92.68L136.75 96.99C135.97 97.38 135.05 97.64 134.27 97.64ZM124.32 60.29L124.32 90.98C124.45 91.37 124.45 91.37 124.71 91.5L132.83 96.21C133.61 96.73 135.18 96.6 136.1 96.07L143.69 91.76C144.35 91.37 144.35 91.24 144.35 91.11L144.35 60.68C144.35 60.55 144.22 60.42 144.09 60.42L124.32 60.42L124.32 60.29Z" fill="#2F2D4F" fill-opacity="1.000000" fill-rule="nonzero"/>
		<path d="M132.56 65.52L124.45 60.81C123.4 60.29 123.53 59.25 124.71 58.59L132.3 54.29C133.48 53.63 135.18 53.5 136.1 54.15L144.22 58.86C145.26 59.38 145.13 60.42 143.95 61.08L136.36 65.39C135.31 66.04 133.61 66.04 132.56 65.52Z" fill="#C2E6EA" fill-opacity="1.000000" fill-rule="nonzero"/>
		<path d="M144.35 63.03L136.1 58.2C135.05 57.68 133.35 57.68 132.3 58.33L124.71 62.64C124.58 62.77 124.45 62.77 124.32 62.9L124.32 64.73C124.32 64.73 124.45 64.73 124.45 64.86L132.56 69.56C133.61 70.09 135.31 70.09 136.36 69.43L143.95 65.12C144.09 64.99 144.22 64.99 144.35 64.86L144.35 63.03Z" fill="#F2F3F3" fill-opacity="1.000000" fill-rule="nonzero"/>
		<path d="M134.27 66.43C133.48 66.43 132.83 66.3 132.3 66.04L124.18 61.34C123.53 60.95 123.27 60.42 123.27 59.9C123.27 59.25 123.66 58.59 124.45 58.2L132.04 53.89C133.35 53.11 135.31 53.11 136.49 53.76L144.61 58.46C145.26 58.86 145.53 59.38 145.53 59.9C145.53 60.55 145.13 61.21 144.35 61.6L136.75 65.91C135.97 66.17 135.05 66.43 134.27 66.43ZM134.53 54.15C133.87 54.15 133.22 54.29 132.56 54.68L124.97 59.12C124.45 59.38 124.32 59.64 124.32 59.9C124.32 60.16 124.58 60.29 124.71 60.42L132.83 65.12C133.61 65.65 135.18 65.52 136.1 64.99L143.69 60.68C144.22 60.42 144.35 60.16 144.35 59.9C144.35 59.64 144.09 59.51 143.95 59.38L135.84 54.68C135.44 54.29 135.05 54.15 134.53 54.15Z" fill="#2F2D4F" fill-opacity="1.000000" fill-rule="nonzero"/>
		<path d="M127.2 101.43L127.2 84.84C127.2 84.45 126.8 84.06 126.41 84.06L106.51 84.06C106.25 84.06 105.99 84.32 105.99 84.58L105.99 101.43L105.99 101.56C106.12 102.08 106.12 102.21 106.64 102.47L114.76 107.18C115.81 107.7 117.51 107.7 118.56 107.04L126.15 102.74C126.8 102.21 127.2 101.95 127.2 101.43Z" fill="#C2E6EA" fill-opacity="1.000000" fill-rule="nonzero"/>
		<path d="M114.76 96.86L107.95 92.94L107.95 103.65L116.59 107.83L116.59 97.25C115.94 97.25 115.28 97.12 114.76 96.86Z" fill="#F2F3F3" fill-opacity="1.000000" fill-rule="nonzero"/>
		<path d="M116.46 108.09C115.68 108.09 115.02 107.96 114.5 107.7L106.38 103C105.72 102.6 105.59 102.34 105.46 101.69L105.46 101.56L105.46 84.58C105.46 83.93 105.99 83.41 106.64 83.41L126.41 83.41C127.2 83.41 127.72 84.06 127.72 84.71L127.72 101.3C127.72 102.21 127.07 102.6 126.54 103L118.95 107.31C118.16 107.83 117.38 108.09 116.46 108.09ZM106.51 84.58L106.51 101.43C106.64 101.82 106.64 101.82 106.9 101.95L115.02 106.65C115.81 107.17 117.38 107.04 118.29 106.52L125.89 102.21C126.54 101.82 126.54 101.69 126.54 101.56L126.54 84.97C126.54 84.84 126.41 84.71 126.28 84.71L106.51 84.71L106.51 84.58Z" fill="#2F2D4F" fill-opacity="1.000000" fill-rule="nonzero"/>
		<path d="M114.76 89.68L106.64 84.97C105.59 84.45 105.72 83.41 106.9 82.75L114.5 78.44C115.67 77.79 117.38 77.66 118.29 78.31L126.41 83.02C127.46 83.54 127.33 84.58 126.15 85.24L118.56 89.54C117.51 90.2 115.81 90.2 114.76 89.68Z" fill="#C2E6EA" fill-opacity="1.000000" fill-rule="nonzero"/>
		<path d="M126.67 87.19L118.42 82.36C117.38 81.84 115.68 81.84 114.63 82.49L107.03 86.8C106.9 86.93 106.77 86.93 106.64 87.06L106.64 88.89C106.64 88.89 106.77 88.89 106.77 89.02L114.89 93.72C115.94 94.25 117.64 94.25 118.69 93.59L126.28 89.28C126.41 89.15 126.54 89.15 126.67 89.02L126.67 87.19Z" fill="#F2F3F3" fill-opacity="1.000000" fill-rule="nonzero"/>
		<path d="M116.46 90.59C115.68 90.59 115.02 90.46 114.5 90.2L106.38 85.5C105.72 85.1 105.46 84.58 105.46 84.06C105.46 83.41 105.86 82.75 106.64 82.36L114.24 78.05C115.54 77.27 117.51 77.27 118.69 77.92L126.8 82.62C127.46 83.02 127.72 83.54 127.72 84.06C127.72 84.71 127.33 85.37 126.54 85.76L118.95 90.07C118.16 90.46 117.25 90.59 116.46 90.59ZM116.72 78.44C116.07 78.44 115.41 78.58 114.76 78.97L107.17 83.28C106.64 83.54 106.51 83.8 106.51 84.06C106.51 84.32 106.77 84.45 106.9 84.58L115.02 89.28C115.81 89.81 117.38 89.68 118.29 89.15L125.89 84.84C126.41 84.58 126.54 84.32 126.54 84.06C126.54 83.8 126.28 83.67 126.15 83.54L118.03 78.84C117.77 78.58 117.25 78.44 116.72 78.44Z" fill="#2F2D4F" fill-opacity="1.000000" fill-rule="nonzero"/>
		<path d="M109.65 111.62L109.65 37.44C109.65 37.05 109.26 36.66 108.87 36.66L89.1 36.66C88.84 36.66 88.57 36.92 88.57 37.18L88.57 111.62L88.57 111.75C88.7 112.27 88.7 112.4 89.23 112.66L97.35 117.36C98.39 117.88 100.1 117.88 101.14 117.23L108.74 112.92C109.26 112.4 109.65 112.14 109.65 111.62Z" fill="#C2E6EA" fill-opacity="1.000000" fill-rule="nonzero"/>
		<path d="M97.35 49.58L90.54 45.67L90.54 113.84L99.18 118.01L99.18 49.98C98.39 49.98 97.74 49.84 97.35 49.58Z" fill="#F2F3F3" fill-opacity="1.000000" fill-rule="nonzero"/>
		<path d="M98.92 118.28C98.13 118.28 97.48 118.14 96.95 117.88L88.84 113.18C88.18 112.79 88.05 112.53 87.92 111.88L87.92 111.75L87.92 37.31C87.92 36.66 88.44 36.13 89.1 36.13L108.87 36.13C109.65 36.13 110.18 36.79 110.18 37.44L110.18 111.62C110.18 112.53 109.52 112.92 109 113.31L101.4 117.62C100.75 118.01 99.83 118.28 98.92 118.28ZM89.1 37.18L89.1 111.62C89.23 112.01 89.23 112.01 89.49 112.14L97.61 116.84C98.39 117.36 99.96 117.23 100.88 116.71L108.47 112.4C109.13 112.01 109.13 111.88 109.13 111.75L109.13 37.57C109.13 37.44 109 37.31 108.87 37.31L89.1 37.31L89.1 37.18Z" fill="#2F2D4F" fill-opacity="1.000000" fill-rule="nonzero"/>
		<path d="M97.35 42.4L89.23 37.7C88.18 37.18 88.31 36.13 89.49 35.48L97.08 31.17C98.26 30.52 99.96 30.39 100.88 31.04L109 35.74C110.05 36.26 109.91 37.31 108.74 37.96L101.14 42.27C99.96 42.92 98.26 42.92 97.35 42.4Z" fill="#C2E6EA" fill-opacity="1.000000" fill-rule="nonzero"/>
		<path d="M109.13 39.92L100.88 35.09C99.83 34.57 98.13 34.57 97.08 35.22L89.49 39.53C89.36 39.66 89.23 39.66 89.1 39.79L89.1 41.75C89.1 41.75 89.23 41.75 89.23 41.88L97.35 46.58C98.39 47.1 100.1 47.1 101.14 46.45L108.74 42.14C108.87 42.01 109 42.01 109.13 41.88L109.13 39.92Z" fill="#F2F3F3" fill-opacity="1.000000" fill-rule="nonzero"/>
		<path d="M98.92 43.32C98.13 43.32 97.48 43.18 96.95 42.92L88.84 38.22C88.31 37.83 87.92 37.31 87.92 36.66C87.92 36 88.31 35.35 89.1 34.96L96.69 30.65C98 29.86 99.96 29.86 101.14 30.52L109.26 35.09C109.91 35.48 110.18 36 110.18 36.52C110.18 37.18 109.78 37.83 109 38.22L101.4 42.66C100.75 43.05 99.83 43.32 98.92 43.32ZM99.18 31.04C98.52 31.04 97.87 31.17 97.21 31.56L89.62 35.87C89.1 36.13 88.97 36.39 88.97 36.66C88.97 36.92 89.23 37.05 89.36 37.18L97.48 41.88C98.26 42.4 99.83 42.27 100.75 41.75L108.34 37.44C108.87 37.18 109 36.92 109 36.66C109 36.39 108.74 36.26 108.6 36.13L100.49 31.43C100.23 31.17 99.7 31.04 99.18 31.04Z" fill="#2F2D4F" fill-opacity="1.000000" fill-rule="nonzero"/>
		<path d="M91.19 122.19L91.19 100.12C91.19 99.73 90.8 99.34 90.41 99.34L70.64 99.34C70.37 99.34 70.11 99.6 70.11 99.86L70.11 122.06L70.11 122.19C70.24 122.72 70.24 122.85 70.77 123.11L78.89 127.81C79.93 128.33 81.63 128.33 82.68 127.68L90.28 123.37C90.93 122.98 91.19 122.72 91.19 122.19Z" fill="#C2E6EA" fill-opacity="1.000000" fill-rule="nonzero"/>
		<path d="M78.89 112.27L72.08 108.35L72.08 124.41L80.72 128.59L80.72 112.66C79.93 112.66 79.28 112.53 78.89 112.27Z" fill="#F2F3F3" fill-opacity="1.000000" fill-rule="nonzero"/>
		<path d="M80.59 128.85C79.8 128.85 79.15 128.72 78.62 128.46L70.51 123.76C69.85 123.37 69.72 123.11 69.59 122.45L69.59 122.32L69.59 99.99C69.59 99.34 70.11 98.82 70.77 98.82L90.54 98.82C91.32 98.82 91.85 99.47 91.85 100.12L91.85 122.19C91.85 123.11 91.19 123.5 90.67 123.89L83.07 128.2C82.29 128.59 81.37 128.85 80.59 128.85ZM70.64 99.86L70.64 122.19C70.77 122.58 70.77 122.58 71.03 122.72L79.15 127.42C79.93 127.94 81.5 127.81 82.42 127.29L90.01 122.98C90.67 122.58 90.67 122.45 90.67 122.32L90.67 100.12C90.67 99.99 90.54 99.86 90.41 99.86L70.64 99.86Z" fill="#2F2D4F" fill-opacity="1.000000" fill-rule="nonzero"/>
		<path d="M78.89 105.09L70.77 100.38C69.72 99.86 69.85 98.82 71.03 98.16L78.62 93.85C79.8 93.2 81.5 93.07 82.42 93.72L90.54 98.43C91.58 98.95 91.45 99.99 90.28 100.65L82.68 104.96C81.5 105.61 79.8 105.61 78.89 105.09Z" fill="#C2E6EA" fill-opacity="1.000000" fill-rule="nonzero"/>
		<path d="M90.67 102.6L82.42 97.77C81.37 97.25 79.67 97.25 78.62 97.9L71.03 102.21C70.9 102.34 70.77 102.34 70.64 102.47L70.64 104.43C70.64 104.43 70.77 104.43 70.77 104.56L78.89 109.26C79.93 109.79 81.63 109.79 82.68 109.13L90.28 104.82C90.41 104.69 90.54 104.69 90.67 104.56L90.67 102.6Z" fill="#F2F3F3" fill-opacity="1.000000" fill-rule="nonzero"/>
		<path d="M80.59 106C79.8 106 79.15 105.87 78.62 105.61L70.51 100.91C69.85 100.52 69.59 99.99 69.59 99.47C69.59 98.82 69.98 98.16 70.77 97.77L78.36 93.46C79.67 92.68 81.63 92.68 82.81 93.33L90.93 98.03C91.58 98.43 91.85 98.95 91.85 99.47C91.85 100.12 91.45 100.78 90.67 101.17L83.07 105.48C82.29 105.74 81.37 106 80.59 106ZM80.72 93.85C80.06 93.85 79.41 93.99 78.75 94.38L71.29 98.69C70.77 98.95 70.64 99.21 70.64 99.47C70.64 99.73 70.9 99.86 71.03 99.99L79.15 104.69C79.93 105.22 81.5 105.09 82.42 104.56L90.01 100.25C90.54 99.99 90.67 99.73 90.67 99.47C90.67 99.21 90.41 99.08 90.28 98.95L82.16 94.25C81.77 93.85 81.24 93.85 80.72 93.85Z" fill="#2F2D4F" fill-opacity="1.000000" fill-rule="nonzero"/>
		<path d="M72.73 132.51L72.73 84.19C72.73 83.8 72.34 83.41 71.95 83.41L52.18 83.41C51.91 83.41 51.65 83.67 51.65 83.93L51.65 132.51L51.65 132.64C51.78 133.16 51.78 133.29 52.31 133.55L60.43 138.25C61.47 138.78 63.17 138.78 64.22 138.13L71.82 133.82C72.47 133.29 72.73 133.03 72.73 132.51Z" fill="#C2E6EA" fill-opacity="1.000000" fill-rule="nonzero"/>
		<path d="M60.43 96.21L53.62 92.29L53.62 134.73L62.26 138.91L62.13 96.6C61.47 96.6 60.82 96.47 60.43 96.21Z" fill="#F2F3F3" fill-opacity="1.000000" fill-rule="nonzero"/>
		<path d="M62.13 139.17C61.34 139.17 60.69 139.04 60.16 138.78L52.05 134.08C51.39 133.69 51.26 133.42 51.13 132.77L51.13 132.64L51.13 83.93C51.13 83.28 51.65 82.75 52.31 82.75L72.08 82.75C72.86 82.75 73.39 83.41 73.39 84.06L73.39 132.38C73.39 133.29 72.73 133.69 72.21 134.08L64.61 138.39C63.83 138.91 62.91 139.17 62.13 139.17ZM52.18 83.93L52.18 132.51C52.31 132.9 52.31 132.9 52.57 133.03L60.69 137.73C61.47 138.25 63.04 138.13 63.96 137.6L71.55 133.29C72.21 132.9 72.21 132.77 72.21 132.64L72.21 84.32C72.21 84.19 72.08 84.06 71.95 84.06L52.18 84.06L52.18 83.93Z" fill="#2F2D4F" fill-opacity="1.000000" fill-rule="nonzero"/>
		<path d="M60.43 89.02L52.31 84.32C51.26 83.8 51.39 82.75 52.57 82.1L60.16 77.79C61.34 77.14 63.04 77.01 63.96 77.66L72.08 82.36C73.12 82.88 72.99 83.93 71.82 84.58L64.22 88.89C63.17 89.55 61.34 89.55 60.43 89.02Z" fill="#C2E6EA" fill-opacity="1.000000" fill-rule="nonzero"/>
		<path d="M72.21 86.54L63.96 81.71C62.91 81.19 61.21 81.19 60.16 81.84L52.57 86.15C52.44 86.28 52.31 86.28 52.18 86.41L52.18 88.24C52.18 88.24 52.31 88.24 52.31 88.37L60.43 93.07C61.47 93.59 63.17 93.59 64.22 92.94L71.82 88.63C71.95 88.5 72.08 88.5 72.21 88.37L72.21 86.54Z" fill="#F2F3F3" fill-opacity="1.000000" fill-rule="nonzero"/>
		<path d="M62.13 89.94C61.34 89.94 60.69 89.81 60.16 89.54L52.05 84.84C51.39 84.45 51.13 83.93 51.13 83.41C51.13 82.75 51.52 82.1 52.31 81.71L59.9 77.4C61.21 76.62 63.17 76.62 64.35 77.27L72.47 81.97C73.12 82.36 73.39 82.88 73.39 83.41C73.39 84.06 72.99 84.71 72.21 85.1L64.61 89.41C63.83 89.81 62.91 89.94 62.13 89.94ZM62.26 77.79C61.6 77.79 60.95 77.92 60.29 78.31L52.7 82.62C52.18 82.88 52.05 83.15 52.05 83.41C52.05 83.67 52.31 83.8 52.44 83.93L60.56 88.63C61.34 89.15 62.91 89.02 63.83 88.5L71.42 84.19C71.95 83.93 72.08 83.67 72.08 83.41C72.08 83.15 71.82 83.02 71.68 82.88L63.57 78.18C63.31 77.92 62.78 77.79 62.26 77.79Z" fill="#2F2D4F" fill-opacity="1.000000" fill-rule="nonzero"/>
		<path d="M54.93 143.09L54.93 115.66C54.93 115.27 54.53 114.88 54.14 114.88L34.24 114.88C33.98 114.88 33.72 115.14 33.72 115.4L33.72 143.09L33.72 143.22C33.85 143.74 33.85 143.87 34.37 144.13L42.49 148.83C43.54 149.36 45.24 149.36 46.29 148.7L53.88 144.39C54.53 144 54.93 143.61 54.93 143.09Z" fill="#C2E6EA" fill-opacity="1.000000" fill-rule="nonzero"/>
		<path d="M42.49 127.81L35.68 123.89L35.68 145.31L44.32 149.49L44.32 128.2C43.67 128.2 43.01 128.07 42.49 127.81Z" fill="#F2F3F3" fill-opacity="1.000000" fill-rule="nonzero"/>
		<path d="M44.19 149.75C43.41 149.75 42.75 149.62 42.23 149.36L34.11 144.66C33.46 144.26 33.32 144 33.19 143.35L33.19 143.22L33.19 115.53C33.19 114.88 33.72 114.36 34.37 114.36L54.14 114.36C54.93 114.36 55.45 115.01 55.45 115.66L55.45 143.09C55.45 144 54.8 144.39 54.27 144.78L46.68 149.1C45.89 149.62 45.11 149.75 44.19 149.75ZM34.24 115.53L34.24 143.22C34.37 143.61 34.37 143.61 34.63 143.74L42.75 148.44C43.54 148.96 45.11 148.83 46.02 148.31L53.62 144C54.27 143.61 54.27 143.48 54.27 143.35L54.27 115.92C54.27 115.79 54.14 115.66 54.01 115.66L34.24 115.66L34.24 115.53Z" fill="#2F2D4F" fill-opacity="1.000000" fill-rule="nonzero"/>
		<path d="M42.49 120.63L34.37 115.92C33.32 115.4 33.46 114.36 34.63 113.7L42.23 109.4C43.41 108.74 45.11 108.61 46.02 109.26L54.14 113.97C55.19 114.49 55.06 115.53 53.88 116.19L46.42 120.5C45.24 121.15 43.54 121.28 42.49 120.63Z" fill="#C2E6EA" fill-opacity="1.000000" fill-rule="nonzero"/>
		<path d="M54.4 118.14L46.15 113.31C45.11 112.79 43.41 112.79 42.36 113.44L34.63 117.88C34.5 118.01 34.37 118.01 34.24 118.14L34.24 120.1C34.24 120.1 34.37 120.1 34.37 120.23L42.49 124.94C43.54 125.46 45.24 125.46 46.29 124.81L53.88 120.5C54.01 120.36 54.14 120.36 54.27 120.23L54.27 118.14L54.4 118.14Z" fill="#F2F3F3" fill-opacity="1.000000" fill-rule="nonzero"/>
		<path d="M44.19 121.67C43.41 121.67 42.75 121.54 42.23 121.28L34.11 116.58C33.46 116.19 33.19 115.66 33.19 115.14C33.19 114.49 33.59 113.84 34.37 113.44L41.97 109.13C43.27 108.35 45.24 108.35 46.42 109L54.53 113.7C55.19 114.1 55.45 114.62 55.45 115.14C55.45 115.79 55.06 116.45 54.27 116.84L46.68 121.15C45.89 121.41 45.11 121.67 44.19 121.67ZM44.45 109.4C43.8 109.4 43.14 109.53 42.49 109.92L34.9 114.23C34.37 114.49 34.24 114.75 34.24 115.01C34.24 115.27 34.5 115.4 34.63 115.53L42.75 120.23C43.54 120.76 45.11 120.63 46.02 120.1L53.62 115.79C54.14 115.53 54.27 115.27 54.27 115.01C54.27 114.75 54.01 114.62 53.88 114.49L45.76 109.66C45.5 109.53 44.98 109.4 44.45 109.4Z" fill="#2F2D4F" fill-opacity="1.000000" fill-rule="nonzero"/>
		<path d="M36.73 153.27L36.73 142.57C36.73 142.17 36.34 141.78 35.94 141.78L16.17 141.78C15.91 141.78 15.65 142.04 15.65 142.3L15.65 153.27L15.65 153.4C15.78 153.93 15.78 154.06 16.3 154.32L24.42 159.02C25.47 159.54 27.17 159.54 28.22 158.89L35.81 154.58C36.34 154.19 36.73 153.8 36.73 153.27Z" fill="#C2E6EA" fill-opacity="1.000000" fill-rule="nonzero"/>
		<path d="M24.42 154.58L17.61 150.66L17.61 155.49L26.25 159.67L26.25 154.97C25.47 154.97 24.81 154.84 24.42 154.58Z" fill="#F2F3F3" fill-opacity="1.000000" fill-rule="nonzero"/>
		<path d="M25.99 159.93C25.21 159.93 24.55 159.8 24.03 159.54L15.91 154.84C15.26 154.45 15.13 154.19 15 153.53L15 153.4L15 142.3C15 141.65 15.52 141.13 16.17 141.13L35.94 141.13C36.73 141.13 37.25 141.78 37.25 142.43L37.25 153.14C37.25 154.06 36.6 154.45 36.07 154.84L28.48 159.28C27.83 159.67 26.91 159.93 25.99 159.93ZM16.17 142.3L16.17 153.27C16.3 153.67 16.3 153.67 16.57 153.8L24.68 158.5C25.47 159.02 27.04 158.89 27.96 158.37L35.55 154.06C36.2 153.67 36.2 153.53 36.2 153.4L36.2 142.7C36.2 142.57 36.07 142.43 35.94 142.43L16.17 142.43L16.17 142.3Z" fill="#2F2D4F" fill-opacity="1.000000" fill-rule="nonzero"/>
		<path d="M24.42 147.4L16.3 142.7C15.26 142.17 15.39 141.13 16.57 140.48L24.16 136.17C25.34 135.51 27.04 135.38 27.96 136.03L36.07 140.74C37.12 141.26 36.99 142.3 35.81 142.96L28.22 147.27C27.04 147.92 25.34 148.05 24.42 147.4Z" fill="#C2E6EA" fill-opacity="1.000000" fill-rule="nonzero"/>
		<path d="M36.2 144.92L27.96 140.08C26.91 139.56 25.21 139.56 24.16 140.21L16.57 144.52C16.3 144.78 16.17 144.92 16.04 144.92L16.04 146.74C16.04 146.74 16.17 146.74 16.17 146.87L24.29 151.58C25.34 152.1 27.04 152.1 28.09 151.45L35.68 147.14C35.81 147 35.94 147 36.07 146.87L36.07 144.92L36.2 144.92Z" fill="#F2F3F3" fill-opacity="1.000000" fill-rule="nonzero"/>
		<path d="M25.99 148.44C25.21 148.44 24.55 148.31 24.03 148.05L15.91 143.35C15.39 142.83 15 142.3 15 141.78C15 141.13 15.39 140.48 16.17 140.08L23.77 135.77C25.08 134.99 27.04 134.99 28.22 135.64L36.34 140.35C36.99 140.74 37.25 141.26 37.25 141.78C37.25 142.43 36.86 143.09 36.07 143.48L28.48 147.79C27.83 148.18 26.91 148.44 25.99 148.44ZM26.25 136.17C25.6 136.17 24.95 136.3 24.29 136.69L16.83 141C16.3 141.26 16.17 141.52 16.17 141.78C16.17 142.04 16.43 142.17 16.57 142.3L24.68 147C25.47 147.53 27.04 147.4 27.96 146.87L35.55 142.57C36.07 142.3 36.2 142.04 36.2 141.78C36.2 141.52 35.94 141.39 35.81 141.26L27.69 136.56C27.3 136.3 26.78 136.17 26.25 136.17Z" fill="#2F2D4F" fill-opacity="1.000000" fill-rule="nonzero"/>
		<path d="M120.91 180.31L121.04 173.65L111.35 172.73L76.66 152.75C73.26 150.79 68.15 150.53 65.27 152.23L41.31 165.94L34.37 165.29L34.24 171.56C34.11 172.86 35.03 174.43 36.99 175.47L78.49 199.37C81.9 201.33 87 201.59 89.88 199.9L118.95 183.18C120.26 182.4 120.91 181.35 120.91 180.31Z" fill="#C2E6EA" fill-opacity="1.000000" fill-rule="nonzero"/>
		<path d="M111.49 172.08L77.05 152.1C73.52 150.01 68.15 149.88 65.01 151.58L41.18 165.29L33.72 164.64L33.59 171.56C33.46 173.25 34.63 174.82 36.73 176.13L78.23 200.03C80.19 201.2 82.68 201.72 85.04 201.72C87 201.72 88.84 201.33 90.28 200.55L119.34 183.83C120.78 183.05 121.57 181.74 121.57 180.44L121.7 173.12L111.49 172.08ZM80.46 199.63L80.46 194.02L77.05 192.06L77.05 197.81L37.38 174.95C36.99 174.69 36.73 174.56 36.47 174.3L36.47 168.55L35.03 167.38L35.03 165.94L41.57 166.59L65.53 152.75C68.28 151.18 73.12 151.45 76.27 153.27L110.96 173.25L111.09 173.38L120.39 174.3L120.39 175.61L90.8 193.89L86.87 194.8L84.38 194.8L84.38 200.55C83.07 200.29 81.77 200.03 80.46 199.63Z" fill="#2F2D4F" fill-opacity="1.000000" fill-rule="nonzero"/>
		<path d="M119.08 176.65L90.01 193.37C87.13 195.06 82.03 194.8 78.62 192.84L37.12 168.94C33.72 166.99 33.32 164.11 36.34 162.42L65.4 145.7C68.28 144 73.39 144.26 76.79 146.22L118.29 170.12C121.7 172.08 122.09 175.08 119.08 176.65Z" fill="#C2E6EA" fill-opacity="1.000000" fill-rule="nonzero"/>
		<path d="M85.04 195.19C82.68 195.19 80.19 194.67 78.23 193.5L36.73 169.6C34.76 168.42 33.59 166.86 33.59 165.29C33.59 163.98 34.37 162.68 35.81 161.89L64.88 145.18C68.02 143.35 73.39 143.61 76.92 145.7L118.42 169.6C120.39 170.77 121.57 172.34 121.57 173.91C121.57 175.21 120.78 176.52 119.34 177.3L90.28 194.02C88.97 194.8 87.13 195.19 85.04 195.19ZM70.37 145.31C68.67 145.31 66.97 145.7 65.79 146.35L36.73 163.07C35.68 163.72 35.03 164.51 35.03 165.42C35.03 166.46 35.94 167.64 37.51 168.55L79.02 192.45C82.16 194.28 87 194.54 89.75 192.97L118.82 176.26C119.86 175.61 120.52 174.82 120.52 173.91C120.52 172.86 119.6 171.69 118.03 170.77L76.53 146.74C74.7 145.83 72.47 145.31 70.37 145.31Z" fill="#2F2D4F" fill-opacity="1.000000" fill-rule="nonzero"/>
		<path d="M77.31 154.84L49.69 170.77C48.38 171.56 46.02 171.43 44.58 170.51L42.36 169.21C40.79 168.29 40.66 166.99 41.96 166.2L69.59 150.27C70.9 149.49 73.26 149.62 74.7 150.53L76.92 151.84C78.49 152.75 78.75 154.19 77.31 154.84Z" fill="#F2F3F3" fill-opacity="1.000000" fill-rule="nonzero"/>
		<path d="M47.46 169.73C46.29 169.73 45.11 169.47 44.19 168.94L41.97 167.64C40.92 167.12 40.39 166.2 40.39 165.42C40.39 164.64 40.79 163.98 41.57 163.59L69.2 147.66C70.77 146.74 73.26 146.88 74.96 147.92L77.18 149.23C78.23 149.75 78.75 150.66 78.75 151.45C78.75 152.23 78.36 152.88 77.58 153.27L49.95 169.21C49.3 169.47 48.38 169.73 47.46 169.73ZM71.82 148.31C71.03 148.31 70.38 148.44 69.85 148.7L42.23 164.64C41.97 164.77 41.7 165.03 41.7 165.42C41.7 165.81 42.1 166.2 42.62 166.59L44.85 167.9C46.15 168.68 48.25 168.81 49.43 168.16L77.05 152.23C77.31 152.1 77.58 151.84 77.58 151.45C77.58 151.05 77.18 150.66 76.66 150.27L74.43 148.96C73.65 148.44 72.73 148.31 71.82 148.31Z" fill="#2F2D4F" fill-opacity="1.000000" fill-rule="nonzero"/>
		<path d="M61.73 175.08L58.46 177.04C57.68 177.43 56.5 177.43 55.58 176.91L52.96 175.47C52.18 174.95 52.05 174.3 52.7 173.78L55.97 171.82C56.76 171.43 57.94 171.43 58.85 171.95L61.47 173.39C62.39 174.04 62.52 174.69 61.73 175.08Z" fill="#F2F3F3" fill-opacity="1.000000" fill-rule="nonzero"/>
		<path d="M57.15 175.74C56.5 175.74 55.84 175.61 55.19 175.21L52.57 173.78C51.91 173.38 51.52 172.86 51.52 172.34C51.52 171.82 51.78 171.43 52.31 171.03L55.58 169.08C56.5 168.55 58.07 168.55 59.12 169.21L61.73 170.64C62.39 171.03 62.78 171.56 62.78 172.08C62.78 172.6 62.52 172.99 62 173.38L58.72 175.34C58.2 175.61 57.68 175.74 57.15 175.74ZM57.28 169.99C56.89 169.99 56.63 169.99 56.37 170.25L53.09 172.21C52.96 172.34 52.96 172.34 52.96 172.34C52.96 172.34 53.09 172.6 53.36 172.73L55.97 174.17C56.63 174.56 57.68 174.56 58.2 174.3L61.47 172.34C61.6 172.21 61.6 172.21 61.6 172.21C61.6 172.21 61.47 171.95 61.21 171.82L58.59 170.38C58.2 170.12 57.68 169.99 57.28 169.99Z" fill="#2F2D4F" fill-opacity="1.000000" fill-rule="nonzero"/>
		<path d="M70.51 170.12L67.23 172.08C66.45 172.47 65.27 172.47 64.35 171.95L61.73 170.51C60.95 169.99 60.82 169.34 61.47 168.81L64.75 166.86C65.53 166.46 66.71 166.46 67.63 166.99L70.24 168.42C71.16 168.94 71.29 169.6 70.51 170.12Z" fill="#F2F3F3" fill-opacity="1.000000" fill-rule="nonzero"/>
		<path d="M65.92 170.64C65.27 170.64 64.61 170.51 63.96 170.12L61.34 168.68C60.69 168.29 60.29 167.77 60.29 167.25C60.29 166.72 60.56 166.33 61.08 165.94L64.35 163.98C65.27 163.46 66.84 163.46 67.89 164.11L70.51 165.55C71.16 165.94 71.55 166.46 71.55 166.99C71.55 167.51 71.29 167.9 70.77 168.29L67.5 170.25C67.1 170.51 66.45 170.64 65.92 170.64ZM66.06 164.9C65.66 164.9 65.4 165.03 65.14 165.16L61.87 167.12C61.73 167.25 61.73 167.25 61.73 167.25C61.73 167.25 61.87 167.51 62.13 167.64L64.75 169.08C65.4 169.47 66.45 169.47 66.97 169.21L70.24 167.25C70.38 167.12 70.38 167.12 70.38 167.12C70.38 167.12 70.24 166.86 69.98 166.72L67.36 165.29C66.97 165.03 66.45 164.9 66.06 164.9Z" fill="#2F2D4F" fill-opacity="1.000000" fill-rule="nonzero"/>
		<path d="M79.41 165.03L76.14 166.99C75.35 167.38 74.17 167.38 73.26 166.86L70.64 165.42C69.85 164.9 69.72 164.24 70.37 163.72L73.65 161.76C74.43 161.37 75.61 161.37 76.53 161.89L79.15 163.33C80.06 163.85 80.06 164.51 79.41 165.03Z" fill="#F2F3F3" fill-opacity="1.000000" fill-rule="nonzero"/>
		<path d="M74.7 165.55C74.04 165.55 73.39 165.42 72.73 165.03L70.11 163.59C69.46 163.2 69.07 162.68 69.07 162.15C69.07 161.63 69.33 161.24 69.85 160.85L73.12 158.89C74.04 158.37 75.61 158.37 76.66 159.02L79.28 160.46C79.93 160.85 80.33 161.37 80.33 161.89C80.33 162.42 80.06 162.81 79.54 163.2L76.27 165.16C75.87 165.42 75.35 165.55 74.7 165.55ZM74.83 159.8C74.43 159.8 74.17 159.93 73.91 160.06L70.64 162.02C70.51 162.15 70.51 162.15 70.51 162.15C70.51 162.15 70.64 162.42 70.9 162.55L73.52 163.98C74.17 164.37 75.22 164.37 75.74 164.11L79.02 162.15C79.15 162.02 79.15 162.02 79.15 162.02C79.15 162.02 79.02 161.76 78.75 161.63L76.14 160.2C75.87 159.93 75.35 159.8 74.83 159.8Z" fill="#2F2D4F" fill-opacity="1.000000" fill-rule="nonzero"/>
		<path d="M88.18 159.93L84.91 161.89C84.12 162.28 82.94 162.28 82.03 161.76L79.41 160.33C78.62 159.8 78.49 159.15 79.15 158.63L82.42 156.67C83.21 156.28 84.38 156.28 85.3 156.8L87.92 158.24C88.84 158.76 88.97 159.54 88.18 159.93Z" fill="#F2F3F3" fill-opacity="1.000000" fill-rule="nonzero"/>
		<path d="M83.6 160.46C82.94 160.46 82.29 160.33 81.63 159.93L79.02 158.5C78.36 158.11 77.97 157.58 77.97 157.06C77.97 156.54 78.23 156.15 78.75 155.75L82.03 153.8C82.94 153.27 84.51 153.27 85.56 153.93L88.18 155.36C88.84 155.75 89.23 156.28 89.23 156.8C89.23 157.32 88.97 157.71 88.44 158.11L85.17 160.06C84.65 160.33 84.12 160.46 83.6 160.46ZM83.73 154.71C83.34 154.71 83.07 154.71 82.81 154.97L79.54 156.93C79.41 157.06 79.41 157.06 79.41 157.06C79.41 157.06 79.54 157.32 79.8 157.45L82.42 158.89C83.07 159.28 84.12 159.28 84.65 159.02L87.92 157.06C88.05 156.93 88.05 156.93 88.05 156.93C88.05 156.93 87.92 156.67 87.66 156.54L85.04 155.1C84.65 154.84 84.12 154.71 83.73 154.71Z" fill="#2F2D4F" fill-opacity="1.000000" fill-rule="nonzero"/>
		<path d="M70.38 180.05L67.1 182C66.32 182.4 65.14 182.4 64.22 181.87L61.6 180.44C60.82 179.91 60.69 179.26 61.34 178.74L64.62 176.78C65.4 176.39 66.58 176.39 67.5 176.91L70.11 178.35C70.9 178.87 71.03 179.65 70.38 180.05Z" fill="#F2F3F3" fill-opacity="1.000000" fill-rule="nonzero"/>
		<path d="M65.66 180.7C65.01 180.7 64.35 180.57 63.7 180.18L61.08 178.74C60.42 178.35 60.03 177.83 60.03 177.3C60.03 176.78 60.29 176.39 60.82 176L64.09 174.04C65.01 173.52 66.58 173.52 67.63 174.17L70.24 175.61C70.9 176 71.29 176.52 71.29 177.04C71.29 177.56 71.03 177.96 70.51 178.35L67.23 180.31C66.84 180.57 66.32 180.7 65.66 180.7ZM65.79 174.95C65.4 174.95 65.14 175.08 64.88 175.21L61.6 177.17C61.47 177.3 61.47 177.3 61.47 177.3C61.47 177.3 61.6 177.56 61.87 177.69L64.48 179.13C65.14 179.52 66.19 179.52 66.71 179.26L69.98 177.3C70.11 177.17 70.11 177.17 70.11 177.17C70.11 177.17 69.98 176.91 69.72 176.78L67.1 175.34C66.71 174.95 66.32 174.95 65.79 174.95Z" fill="#2F2D4F" fill-opacity="1.000000" fill-rule="nonzero"/>
		<path d="M79.15 174.95L75.87 176.91C75.09 177.3 73.91 177.3 72.99 176.78L70.38 175.34C69.59 174.82 69.46 174.17 70.11 173.65L73.39 171.69C74.17 171.3 75.35 171.3 76.27 171.82L78.89 173.25C79.8 173.91 79.8 174.56 79.15 174.95Z" fill="#F2F3F3" fill-opacity="1.000000" fill-rule="nonzero"/>
		<path d="M74.57 175.61C73.91 175.61 73.26 175.47 72.6 175.08L69.98 173.65C69.33 173.25 68.94 172.73 68.94 172.21C68.94 171.69 69.2 171.3 69.72 170.9L72.99 168.94C73.91 168.42 75.48 168.42 76.53 169.08L79.15 170.51C79.8 170.9 80.19 171.43 80.19 171.95C80.19 172.47 79.93 172.86 79.41 173.25L76.14 175.21C75.61 175.47 75.09 175.61 74.57 175.61ZM74.7 169.86C74.3 169.86 74.04 169.99 73.78 170.12L70.51 172.08C70.38 172.21 70.38 172.21 70.38 172.21C70.38 172.21 70.51 172.47 70.77 172.6L73.39 174.04C74.04 174.43 75.09 174.43 75.61 174.17L78.89 172.21C79.02 172.08 79.02 172.08 79.02 172.08C79.02 172.08 78.89 171.82 78.62 171.69L76.01 170.25C75.61 169.99 75.09 169.86 74.7 169.86Z" fill="#2F2D4F" fill-opacity="1.000000" fill-rule="nonzero"/>
		<path d="M87.92 169.99L84.65 171.95C83.86 172.34 82.68 172.34 81.77 171.82L79.15 170.38C78.36 169.86 78.23 169.21 78.89 168.68L82.16 166.72C82.94 166.33 84.12 166.33 85.04 166.86L87.66 168.29C88.57 168.81 88.7 169.47 87.92 169.99Z" fill="#F2F3F3" fill-opacity="1.000000" fill-rule="nonzero"/>
		<path d="M83.34 170.51C82.68 170.51 82.03 170.38 81.37 169.99L78.75 168.55C78.1 168.16 77.71 167.64 77.71 167.12C77.71 166.59 77.97 166.2 78.49 165.81L81.77 163.85C82.68 163.33 84.25 163.33 85.3 163.98L87.92 165.42C88.57 165.81 88.97 166.33 88.97 166.86C88.97 167.38 88.7 167.77 88.18 168.16L84.91 170.12C84.52 170.38 83.86 170.51 83.34 170.51ZM83.47 164.77C83.07 164.77 82.81 164.9 82.55 165.03L79.28 166.99C79.15 167.12 79.15 167.12 79.15 167.12C79.15 167.12 79.28 167.38 79.54 167.51L82.16 168.94C82.81 169.34 83.86 169.34 84.38 169.08L87.66 167.12C87.79 166.99 87.79 166.99 87.79 166.99C87.79 166.99 87.66 166.72 87.4 166.59L84.78 165.16C84.38 164.9 83.86 164.77 83.47 164.77Z" fill="#2F2D4F" fill-opacity="1.000000" fill-rule="nonzero"/>
		<path d="M96.82 164.9L93.55 166.86C92.76 167.25 91.58 167.25 90.67 166.72L88.05 165.29C87.26 164.77 87.13 164.11 87.79 163.59L91.06 161.63C91.85 161.24 93.03 161.24 93.94 161.76L96.56 163.2C97.48 163.72 97.48 164.37 96.82 164.9Z" fill="#F2F3F3" fill-opacity="1.000000" fill-rule="nonzero"/>
		<path d="M92.11 165.42C91.45 165.42 90.8 165.29 90.14 164.9L87.53 163.46C86.87 163.07 86.48 162.55 86.48 162.02C86.48 161.5 86.74 161.11 87.26 160.72L90.54 158.76C91.45 158.24 93.02 158.24 94.07 158.89L96.69 160.33C97.35 160.72 97.74 161.24 97.74 161.76C97.74 162.28 97.48 162.68 96.95 163.07L93.68 165.03C93.29 165.29 92.76 165.42 92.11 165.42ZM92.24 159.67C91.85 159.67 91.58 159.67 91.32 159.93L88.05 161.89C87.92 162.02 87.92 162.02 87.92 162.02C87.92 162.02 88.05 162.28 88.31 162.42L90.93 163.85C91.58 164.24 92.63 164.24 93.16 163.98L96.43 162.02C96.56 161.89 96.56 161.89 96.56 161.89C96.56 161.89 96.43 161.63 96.17 161.5L93.55 160.06C93.29 159.8 92.76 159.67 92.24 159.67Z" fill="#2F2D4F" fill-opacity="1.000000" fill-rule="nonzero"/>
		<path d="M79.02 185.14L75.74 187.1C74.96 187.49 73.78 187.49 72.86 186.97L70.24 185.53C69.46 185.01 69.33 184.35 69.98 183.83L73.26 181.87C74.04 181.48 75.22 181.48 76.14 182L78.75 183.44C79.67 183.96 79.67 184.62 79.02 185.14Z" fill="#F2F3F3" fill-opacity="1.000000" fill-rule="nonzero"/>
		<path d="M74.3 185.66C73.65 185.66 72.99 185.53 72.34 185.14L69.72 183.7C69.07 183.31 68.67 182.79 68.67 182.27C68.67 181.74 68.93 181.35 69.46 180.96L72.73 179C73.65 178.48 75.22 178.48 76.27 179.13L78.89 180.57C79.54 180.96 79.93 181.48 79.93 182C79.93 182.53 79.67 182.92 79.15 183.31L75.87 185.27C75.48 185.53 74.96 185.66 74.3 185.66ZM74.43 179.91C74.04 179.91 73.78 180.05 73.52 180.18L70.24 182.13C70.11 182.27 70.11 182.27 70.11 182.27C70.11 182.27 70.24 182.53 70.51 182.66L73.12 184.09C73.78 184.49 74.83 184.49 75.35 184.22L78.62 182.27C78.75 182.13 78.75 182.13 78.75 182.13C78.75 182.13 78.62 181.87 78.36 181.74L75.74 180.31C75.48 180.05 74.96 179.91 74.43 179.91Z" fill="#2F2D4F" fill-opacity="1.000000" fill-rule="nonzero"/>
		<path d="M87.79 180.05L84.52 182C83.73 182.4 82.55 182.4 81.63 181.87L79.02 180.44C78.23 179.91 78.1 179.26 78.75 178.74L82.03 176.78C82.81 176.39 83.99 176.39 84.91 176.91L87.53 178.35C88.44 178.87 88.57 179.52 87.79 180.05Z" fill="#F2F3F3" fill-opacity="1.000000" fill-rule="nonzero"/>
		<path d="M83.21 180.57C82.55 180.57 81.9 180.44 81.24 180.05L78.62 178.61C77.97 178.22 77.58 177.69 77.58 177.17C77.58 176.65 77.84 176.26 78.36 175.87L81.63 173.91C82.55 173.39 84.12 173.39 85.17 174.04L87.79 175.47C88.44 175.87 88.84 176.39 88.84 176.91C88.84 177.43 88.57 177.83 88.05 178.22L84.78 180.18C84.25 180.44 83.73 180.57 83.21 180.57ZM83.34 174.82C82.94 174.82 82.68 174.95 82.42 175.08L79.15 177.04C79.02 177.17 79.02 177.17 79.02 177.17C79.02 177.17 79.15 177.43 79.41 177.56L82.03 179C82.68 179.39 83.73 179.39 84.25 179.13L87.53 177.17C87.66 177.04 87.66 177.04 87.66 177.04C87.66 177.04 87.53 176.78 87.26 176.65L84.65 175.21C84.25 174.95 83.73 174.82 83.34 174.82Z" fill="#2F2D4F" fill-opacity="1.000000" fill-rule="nonzero"/>
		<path d="M96.56 174.95L93.29 176.91C92.5 177.3 91.32 177.3 90.41 176.78L87.79 175.34C87 174.82 86.87 174.17 87.53 173.65L90.8 171.69C91.58 171.3 92.76 171.3 93.68 171.82L96.3 173.25C97.21 173.78 97.35 174.43 96.56 174.95Z" fill="#F2F3F3" fill-opacity="1.000000" fill-rule="nonzero"/>
		<path d="M91.98 175.47C91.32 175.47 90.67 175.34 90.01 174.95L87.4 173.52C86.74 173.12 86.35 172.6 86.35 172.08C86.35 171.56 86.61 171.17 87.13 170.77L90.41 168.81C91.32 168.29 92.89 168.29 93.94 168.94L96.56 170.38C97.21 170.77 97.61 171.3 97.61 171.82C97.61 172.34 97.35 172.73 96.82 173.12L93.55 175.08C93.16 175.34 92.63 175.47 91.98 175.47ZM92.11 169.73C91.72 169.73 91.45 169.73 91.19 169.99L87.92 171.95C87.79 172.08 87.79 172.08 87.79 172.08C87.79 172.08 87.92 172.34 88.18 172.47L90.8 173.91C91.45 174.3 92.5 174.3 93.03 174.04L96.3 172.08C96.43 171.95 96.43 171.95 96.43 171.95C96.43 171.95 96.3 171.69 96.04 171.56L93.42 170.12C93.03 169.86 92.63 169.73 92.11 169.73Z" fill="#2F2D4F" fill-opacity="1.000000" fill-rule="nonzero"/>
		<path d="M105.46 169.86L102.19 171.82C101.4 172.21 100.23 172.21 99.31 171.69L96.69 170.25C95.91 169.73 95.77 169.08 96.43 168.55L99.7 166.59C100.49 166.2 101.67 166.2 102.58 166.72L105.2 168.16C106.12 168.68 106.12 169.47 105.46 169.86Z" fill="#F2F3F3" fill-opacity="1.000000" fill-rule="nonzero"/>
		<path d="M100.88 170.38C100.23 170.38 99.44 170.25 98.92 169.86L96.3 168.42C95.64 168.03 95.25 167.51 95.25 166.99C95.25 166.46 95.51 166.07 96.04 165.68L99.31 163.72C100.23 163.2 101.8 163.2 102.85 163.85L105.46 165.29C106.12 165.68 106.51 166.2 106.51 166.72C106.51 167.25 106.25 167.64 105.72 168.03L102.45 169.99C101.93 170.25 101.4 170.38 100.88 170.38ZM101.01 164.64C100.62 164.64 100.36 164.64 100.1 164.9L96.82 166.86C96.69 166.99 96.69 166.99 96.69 166.99C96.69 166.99 96.82 167.25 97.08 167.38L99.7 168.81C100.36 169.21 101.4 169.21 101.93 168.94L105.2 166.99L105.46 167.51L105.2 166.99C105.33 166.86 105.33 166.86 105.33 166.86C105.33 166.86 105.2 166.59 104.94 166.46L102.32 165.03C101.93 164.77 101.4 164.64 101.01 164.64Z" fill="#2F2D4F" fill-opacity="1.000000" fill-rule="nonzero"/>
		<path d="M87.53 189.97L84.25 191.93C83.47 192.32 82.29 192.32 81.37 191.8L78.75 190.36C77.97 189.84 77.84 189.19 78.49 188.66L81.77 186.71C82.55 186.31 83.73 186.31 84.65 186.84L87.26 188.27C88.18 188.93 88.31 189.58 87.53 189.97Z" fill="#F2F3F3" fill-opacity="1.000000" fill-rule="nonzero"/>
		<path d="M82.94 190.62C82.29 190.62 81.63 190.49 80.98 190.1L78.36 188.66C77.71 188.27 77.31 187.75 77.31 187.23C77.31 186.71 77.58 186.31 78.1 185.92L81.37 183.96C82.29 183.44 83.86 183.44 84.91 184.09L87.53 185.53C88.18 185.92 88.57 186.44 88.57 186.97C88.57 187.49 88.31 187.88 87.79 188.27L84.52 190.23C84.12 190.49 83.47 190.62 82.94 190.62ZM83.08 184.88C82.68 184.88 82.42 185.01 82.16 185.14L78.89 187.1C78.75 187.23 78.75 187.23 78.75 187.23C78.75 187.23 78.89 187.49 79.15 187.62L81.77 189.06C82.42 189.45 83.47 189.45 83.99 189.19L87.26 187.23C87.4 187.1 87.4 187.1 87.4 187.1C87.4 187.1 87.26 186.84 87 186.71L84.38 185.27C83.99 185.01 83.47 184.88 83.08 184.88Z" fill="#2F2D4F" fill-opacity="1.000000" fill-rule="nonzero"/>
		<path d="M96.43 184.88L93.16 186.84C92.37 187.23 91.19 187.23 90.28 186.71L87.66 185.27C86.87 184.75 86.74 184.09 87.39 183.57L90.67 181.61C91.45 181.22 92.63 181.22 93.55 181.74L96.17 183.18C97.08 183.83 97.08 184.49 96.43 184.88Z" fill="#F2F3F3" fill-opacity="1.000000" fill-rule="nonzero"/>
		<path d="M91.72 185.53C91.06 185.53 90.41 185.4 89.75 185.01L87.13 183.57C86.48 183.18 86.09 182.66 86.09 182.13C86.09 181.61 86.35 181.22 86.87 180.83L90.14 178.87C91.06 178.35 92.63 178.35 93.68 179L96.3 180.44C96.95 180.83 97.35 181.35 97.35 181.87C97.35 182.4 97.08 182.79 96.56 183.18L93.29 185.14C92.89 185.4 92.37 185.53 91.72 185.53ZM91.85 179.78C91.45 179.78 91.19 179.91 90.93 180.05L87.66 182C87.53 182.13 87.53 182.13 87.53 182.13C87.53 182.13 87.66 182.4 87.92 182.53L90.54 183.96C91.19 184.35 92.24 184.35 92.76 184.09L96.04 182.13C96.17 182 96.17 182 96.17 182C96.17 182 96.04 181.74 95.77 181.61L93.16 180.18C92.89 179.91 92.37 179.78 91.85 179.78Z" fill="#2F2D4F" fill-opacity="1.000000" fill-rule="nonzero"/>
		<path d="M105.2 179.91L101.93 181.87C101.14 182.27 99.96 182.27 99.05 181.74L96.43 180.31C95.64 179.78 95.51 179.13 96.17 178.61L99.44 176.65C100.23 176.26 101.4 176.26 102.32 176.78L104.94 178.22C105.86 178.74 105.99 179.39 105.2 179.91Z" fill="#F2F3F3" fill-opacity="1.000000" fill-rule="nonzero"/>
		<path d="M100.62 180.44C99.96 180.44 99.18 180.31 98.65 179.91L96.04 178.48C95.38 178.09 94.99 177.56 94.99 177.04C94.99 176.52 95.25 176.13 95.77 175.74L99.05 173.78C99.96 173.25 101.54 173.25 102.58 173.91L105.2 175.34C105.86 175.74 106.25 176.26 106.25 176.78C106.25 177.3 105.99 177.69 105.46 178.09L102.19 180.05C101.67 180.31 101.14 180.44 100.62 180.44ZM100.75 174.69C100.36 174.69 100.1 174.69 99.83 174.95L96.56 176.91C96.43 177.04 96.43 177.04 96.43 177.04C96.43 177.04 96.56 177.3 96.82 177.43L99.44 178.87C100.1 179.26 101.14 179.26 101.67 179L104.94 177.04C105.07 176.91 105.07 176.91 105.07 176.91C105.07 176.91 104.94 176.65 104.68 176.52L102.06 175.08C101.67 174.82 101.14 174.69 100.75 174.69Z" fill="#2F2D4F" fill-opacity="1.000000" fill-rule="nonzero"/>
		<path d="M113.97 174.82L110.7 176.78C109.91 177.17 108.74 177.17 107.82 176.65L105.2 175.21C104.42 174.69 104.29 174.04 104.94 173.52L108.21 171.56C109 171.16 110.18 171.16 111.09 171.69L113.71 173.12C114.63 173.65 114.76 174.3 113.97 174.82Z" fill="#F2F3F3" fill-opacity="1.000000" fill-rule="nonzero"/>
		<path d="M109.39 175.34C108.74 175.34 108.08 175.21 107.43 174.82L104.81 173.39C104.15 172.99 103.76 172.47 103.76 171.95C103.76 171.43 104.02 171.03 104.55 170.64L107.82 168.68C108.74 168.16 110.31 168.16 111.35 168.81L113.97 170.25C114.63 170.64 115.02 171.17 115.02 171.69C115.02 172.21 114.76 172.6 114.23 172.99L110.96 174.95C110.57 175.21 110.05 175.34 109.39 175.34ZM109.52 169.6C109.13 169.6 108.87 169.73 108.61 169.86L105.33 171.82C105.2 171.95 105.2 171.95 105.2 171.95C105.2 171.95 105.33 172.21 105.59 172.34L108.21 173.78C108.87 174.17 109.91 174.17 110.44 173.91L113.71 171.95C113.84 171.82 113.84 171.82 113.84 171.82C113.84 171.82 113.71 171.56 113.45 171.43L110.83 169.99C110.44 169.73 110.05 169.6 109.52 169.6Z" fill="#2F2D4F" fill-opacity="1.000000" fill-rule="nonzero"/>
		<path d="M221.59 120.1L214.91 120.1C214.91 119.97 214.78 119.97 214.78 119.84L214.78 114.88L212.3 116.06C211.9 115.66 211.51 115.27 211.12 114.88L215.83 112.14C216.75 111.62 216.75 110.83 215.83 110.31L208.24 106C207.32 105.48 205.88 105.48 204.96 106L200.25 108.74C197.5 107.83 194.62 107.18 191.74 106.65L191.74 102.74C191.74 101.95 190.69 101.43 189.52 101.43L178.91 101.43C177.6 101.43 176.55 101.95 176.55 102.74L176.55 106.65C173.41 107.04 170.53 107.83 167.65 108.74L162.94 106C162.02 105.48 160.58 105.48 159.66 106L152.2 110.31C151.29 110.83 151.29 111.62 152.2 112.14L156.92 114.88C156.52 115.27 156.13 115.66 155.87 115.92L153.25 114.49L153.25 119.71L146.7 119.71C145.39 119.71 144.35 120.23 144.35 121.02L144.22 127.16C144.22 127.94 145.26 128.46 146.44 128.46L153.12 128.46C153.9 130.29 155.08 131.99 156.78 133.69L152.07 136.43C151.16 136.95 151.16 137.73 152.07 138.25L159.66 142.57C160.58 143.09 162.02 143.09 162.94 142.57L167.65 139.82C170.4 140.74 173.15 141.39 176.16 141.91L176.16 145.7C176.16 146.48 177.21 147 178.39 147L188.99 147C190.3 147 191.35 146.48 191.35 145.7L191.35 141.91C194.49 141.52 197.5 140.74 200.25 139.82L204.96 142.57C205.88 143.09 207.32 143.09 208.24 142.57L215.7 138.25C216.62 137.73 216.62 136.95 215.7 136.43L210.99 133.69C212.56 132.12 213.74 130.42 214.52 128.72L221.2 128.72C222.51 128.72 223.56 128.2 223.56 127.42L223.69 121.28C223.82 120.76 222.77 120.1 221.59 120.1ZM172.5 117.62C178.91 113.97 189.25 113.97 195.67 117.62C197.89 118.93 199.33 120.36 199.99 121.93L198.94 122.45L177.34 127.94L167.91 122.72C168.44 120.76 170.01 119.06 172.5 117.62Z" fill="#C2E6EA" fill-opacity="1.000000" fill-rule="nonzero"/>
		<path d="M189.12 147.66L178.52 147.66C177.6 147.66 176.69 147.4 176.16 146.87C175.9 146.61 175.77 146.22 175.77 145.83L175.77 142.43C173.02 142.04 170.27 141.39 167.78 140.48L163.2 143.09C162.15 143.74 160.45 143.74 159.4 143.09L151.81 138.78C151.29 138.39 150.89 137.99 150.89 137.47C150.89 136.95 151.29 136.43 151.81 136.17L156 133.69C154.56 132.25 153.51 130.68 152.86 129.11L146.44 129.11C145.53 129.11 144.61 128.85 144.09 128.33C143.82 128.07 143.69 127.68 143.69 127.29L143.82 121.15C143.82 120.1 145 119.32 146.57 119.32L152.73 119.32L152.73 113.7L155.74 115.4C155.87 115.27 156 115.14 156.13 115.01L151.94 112.66C151.42 112.27 151.02 111.88 151.02 111.35C151.02 110.83 151.42 110.31 151.94 110.05L159.4 105.74C160.45 105.09 162.15 105.09 163.2 105.74L167.78 108.35C170.4 107.44 173.15 106.78 176.16 106.39L176.16 102.87C176.16 101.82 177.34 101.04 178.91 101.04L189.52 101.04C190.43 101.04 191.35 101.3 191.87 101.82C192.13 102.08 192.27 102.47 192.27 102.87L192.27 106.39C195.01 106.78 197.76 107.44 200.25 108.35L204.83 105.74C205.88 105.09 207.58 105.09 208.63 105.74L216.22 110.05C216.75 110.44 217.14 110.83 217.14 111.35C217.14 111.88 216.75 112.4 216.22 112.66L212.03 115.01C212.17 115.14 212.3 115.27 212.43 115.53L215.31 114.1L215.31 119.58L221.59 119.58C222.51 119.58 223.42 119.84 223.95 120.36C224.21 120.63 224.34 121.02 224.34 121.41L224.21 127.55C224.21 128.59 223.03 129.38 221.46 129.38L215.05 129.38C214.39 130.94 213.34 132.38 211.9 133.69L216.09 136.17C216.62 136.56 217.01 136.95 217.01 137.47C217.01 137.99 216.62 138.52 216.09 138.78L208.63 143.09C207.58 143.74 205.88 143.74 204.83 143.09L200.25 140.48C197.63 141.39 194.75 142.04 191.87 142.43L191.87 145.83C191.87 146.87 190.69 147.66 189.12 147.66ZM167.65 139.43L167.91 139.56C170.53 140.48 173.41 141.13 176.29 141.65L176.69 141.65L176.69 145.96C176.69 146.09 176.69 146.22 176.82 146.22C177.08 146.48 177.73 146.74 178.39 146.74L188.99 146.74C190.04 146.74 190.83 146.22 190.83 145.96L190.83 141.65L191.22 141.65C194.36 141.26 197.37 140.48 200.12 139.56L200.38 139.43L205.36 142.3C206.14 142.7 207.32 142.7 208.11 142.3L215.57 137.99C215.83 137.86 215.96 137.6 215.96 137.47C215.96 137.34 215.83 137.08 215.57 136.95L210.2 133.82L210.72 133.42C212.3 131.99 213.47 130.29 214.13 128.72L214.26 128.46L221.33 128.46C222.38 128.46 223.16 127.94 223.16 127.68L223.29 121.54C223.29 121.41 223.29 121.28 223.16 121.28C222.9 121.02 222.25 120.76 221.59 120.76L214.52 120.76L214.26 119.97L214.26 115.79L212.17 116.84L211.9 116.58C211.51 116.19 211.25 115.79 210.86 115.4L210.33 115.01L215.57 112.01C215.83 111.88 215.96 111.62 215.96 111.48C215.96 111.35 215.83 111.09 215.57 110.96L207.98 106.65C207.19 106.26 206.01 106.26 205.23 106.65L200.25 109.53L199.99 109.4C197.37 108.48 194.49 107.83 191.48 107.44L191.09 107.44L191.09 103.13C191.09 103 191.09 102.87 190.96 102.87C190.69 102.6 190.04 102.34 189.38 102.34L178.78 102.34C177.73 102.34 176.95 102.87 176.95 103.13L176.95 107.44L176.55 107.44C173.41 107.83 170.53 108.61 167.78 109.53L167.52 109.66L162.55 106.78C161.76 106.39 160.58 106.39 159.8 106.78L152.33 111.09C152.07 111.22 151.94 111.48 151.94 111.62C151.94 111.75 152.07 112.01 152.33 112.14L157.57 115.14L157.05 115.53C156.65 115.92 156.39 116.19 156 116.58L155.74 116.84L153.51 115.66L153.51 120.63L146.44 120.63C145.39 120.63 144.61 121.15 144.61 121.41L144.48 127.55C144.48 127.68 144.48 127.81 144.61 127.81C144.87 128.07 145.53 128.33 146.18 128.33L153.25 128.33L153.38 128.59C154.17 130.29 155.35 131.99 156.92 133.55L157.44 133.95L152.07 136.95C151.81 137.08 151.68 137.34 151.68 137.47C151.68 137.6 151.81 137.86 152.07 137.99L159.67 142.3C160.45 142.7 161.63 142.7 162.41 142.3L167.65 139.43ZM177.34 128.46L167.39 122.98L167.52 122.58C168.18 120.5 169.75 118.67 172.23 117.23C178.78 113.44 189.38 113.44 195.93 117.23C198.16 118.54 199.73 120.1 200.38 121.8L200.51 122.19L198.94 122.98L177.34 128.46ZM168.44 122.45L177.34 127.42L198.68 122.06L199.2 121.8C198.42 120.36 197.11 119.19 195.28 118.14C188.99 114.49 178.78 114.49 172.5 118.14C170.53 119.32 169.09 120.76 168.44 122.45Z" fill="#2F2D4F" fill-opacity="1.000000" fill-rule="nonzero"/>
		<path d="M151.55 97.38L151.55 106.91L162.94 106L162.41 99.08L151.55 97.38Z" fill="#C2E6EA" fill-opacity="1.000000" fill-rule="nonzero"/>
		<path d="M151.02 107.44L151.02 97.64C151.02 97.25 151.42 96.99 151.81 96.99L162.94 98.69L163.46 106.39L151.02 107.44ZM152.07 98.03L152.07 106.52L162.41 105.61L162.02 99.6L152.07 98.03Z" fill="#2F2D4F" fill-opacity="1.000000" fill-rule="nonzero"/>
		<path d="M215.7 109.53C210.33 109.53 210.2 108.74 210.07 108.35C209.94 107.83 207.45 103.65 205.1 99.99L204.7 99.34L217.01 96.73L217.01 109.4L216.49 109.4C216.22 109.53 215.96 109.53 215.7 109.53ZM210.99 108.09C211.51 108.35 213.74 108.61 215.96 108.61L215.96 98.03L206.27 100.12C207.71 102.34 210.59 107.04 210.99 108.09Z" fill="#2F2D4F" fill-opacity="1.000000" fill-rule="nonzero"/>
		<path d="M199.33 101.43L184.02 96.6L167 103.78L167.13 113.57L173.02 117.36C179.3 114.1 188.73 114.1 195.01 117.36L201.82 115.53C201.82 115.53 203 111.48 202.35 107.7L199.33 101.43Z" fill="#C2E6EA" fill-opacity="1.000000" fill-rule="nonzero"/>
		<path d="M195.14 117.75L194.88 117.75C188.73 114.49 179.43 114.49 173.28 117.75L173.02 117.75L172.89 117.75L172.76 117.62L166.6 113.7L166.47 103.39L183.89 95.94L199.47 100.91L202.61 107.57C203.26 111.35 202.08 115.4 202.08 115.53L201.95 115.79L195.14 117.75ZM184.02 114.36C187.94 114.36 191.87 115.14 195.14 116.84L201.43 115.14C201.69 114.23 202.35 110.96 201.95 107.96L199.07 101.82L184.15 97.12L167.65 104.17L167.78 113.31L173.28 116.84C176.16 115.14 180.09 114.36 184.02 114.36Z" fill="#2F2D4F" fill-opacity="1.000000" fill-rule="nonzero"/>
		<path d="M221.59 110.57L214.78 112.27C214.78 112.14 214.78 119.84 214.78 119.84L214.78 128.85L221.46 128.85C222.77 128.85 223.82 128.33 223.82 127.55L223.95 111.88C223.82 111.09 222.77 110.57 221.59 110.57Z" fill="#C2E6EA" fill-opacity="1.000000" fill-rule="nonzero"/>
		<path d="M221.46 129.38L214.26 129.38L214.26 119.45C214.26 118.8 214.26 117.23 214.26 116.06C214.26 111.88 214.26 111.88 214.65 111.88L221.59 110.05C222.51 110.05 223.42 110.31 223.95 110.83C224.21 111.09 224.34 111.48 224.34 111.88L224.21 127.55C224.21 128.59 223.03 129.38 221.46 129.38ZM215.18 128.33L221.46 128.33C222.51 128.33 223.29 127.81 223.29 127.55L223.42 111.88C223.42 111.75 223.42 111.62 223.29 111.62C223.03 111.35 222.38 111.09 221.72 111.09L215.31 112.79C215.31 113.44 215.31 114.88 215.31 116.19C215.31 118.41 215.31 119.58 215.31 119.97L215.31 128.33L215.18 128.33Z" fill="#2F2D4F" fill-opacity="1.000000" fill-rule="nonzero"/>
		<path d="M146.57 110.31L153.38 112.01C153.38 111.88 153.38 119.58 153.38 119.58L153.38 128.59L146.7 128.59C145.39 128.59 144.35 128.07 144.35 127.29L144.22 111.62C144.22 110.96 145.26 110.31 146.57 110.31Z" fill="#C2E6EA" fill-opacity="1.000000" fill-rule="nonzero"/>
		<path d="M146.7 129.11C145.13 129.11 143.95 128.33 143.95 127.29L143.82 111.62C143.82 111.22 143.95 110.96 144.22 110.57C144.74 110.05 145.53 109.79 146.57 109.79L146.7 109.79L153.51 111.48C153.9 111.62 153.9 111.62 153.9 115.66C153.9 116.97 153.9 118.41 153.9 119.06L153.9 128.98L146.7 129.11ZM146.44 110.83C145.79 110.83 145.13 111.09 144.87 111.35C144.74 111.48 144.74 111.62 144.74 111.62L144.87 127.29C144.87 127.68 145.53 128.07 146.7 128.07L152.99 128.07L152.99 119.58C152.99 119.06 152.99 118.01 152.99 115.66C152.99 114.36 152.99 113.05 152.99 112.4L146.44 110.83Z" fill="#2F2D4F" fill-opacity="1.000000" fill-rule="nonzero"/>
		<path d="M176.16 142.04L176.16 145.57L176.16 145.96C176.16 146.74 177.21 147.27 178.39 147.27L188.99 147.27C190.3 147.27 191.35 146.74 191.35 145.96L191.35 131.86L176.16 131.47L176.16 142.04Z" fill="#C2E6EA" fill-opacity="1.000000" fill-rule="nonzero"/>
		<path d="M189.12 147.66L178.52 147.66C176.95 147.66 175.77 146.87 175.77 145.83L175.77 145.44C175.77 144.39 175.77 143.09 175.77 142.3L175.77 130.94L192 131.33L192 145.83C191.87 146.87 190.69 147.66 189.12 147.66ZM176.68 142.04C176.68 142.57 176.68 143.48 176.68 145.57L176.68 145.96C176.68 146.35 177.34 146.74 178.52 146.74L189.12 146.74C190.17 146.74 190.96 146.22 190.96 145.96L190.96 132.38L176.68 131.99L176.68 142.04Z" fill="#2F2D4F" fill-opacity="1.000000" fill-rule="nonzero"/>
		<path d="M160.06 123.63L151.55 123.37L151.55 128.46C151.55 128.46 151.55 136.95 151.55 137.34C151.55 137.73 151.81 137.99 152.2 138.25L159.8 142.57C160.71 143.09 162.15 143.09 163.07 142.57L167.78 139.82L167.78 125.98L160.06 123.63Z" fill="#C2E6EA" fill-opacity="1.000000" fill-rule="nonzero"/>
		<path d="M161.37 143.61C160.71 143.61 160.06 143.48 159.53 143.22L151.94 138.91C151.42 138.52 151.02 138.13 151.02 137.6L151.02 123.76C151.02 123.37 151.42 122.98 151.81 122.98L160.19 123.24L168.18 125.59L168.18 140.21L163.2 143.09C162.68 143.35 162.02 143.61 161.37 143.61ZM152.07 123.89L152.07 137.34C152.07 137.47 152.2 137.73 152.46 137.86L160.06 142.17C160.84 142.57 162.02 142.57 162.81 142.17L167.26 139.56L167.26 126.24L160.06 124.02L152.07 123.89Z" fill="#2F2D4F" fill-opacity="1.000000" fill-rule="nonzero"/>
		<path d="M208.11 123.63L216.62 123.37L216.62 128.46C216.62 128.46 216.62 136.95 216.62 137.34C216.62 137.73 216.35 137.99 215.96 138.25L208.37 142.57C207.45 143.09 206.01 143.09 205.1 142.57L200.38 139.82L200.38 125.85L208.11 123.63Z" fill="#C2E6EA" fill-opacity="1.000000" fill-rule="nonzero"/>
		<path d="M206.8 143.48C206.14 143.48 205.49 143.35 204.96 143.09L199.99 140.21L199.99 125.46L208.11 122.98L216.35 122.72C216.88 122.72 217.27 123.11 217.27 123.5L217.27 128.33C217.27 128.33 217.27 136.82 217.27 137.21C217.27 137.73 216.88 138.25 216.35 138.52L208.76 142.83C208.11 143.35 207.45 143.48 206.8 143.48ZM200.91 139.56L205.36 142.17C206.14 142.57 207.32 142.57 208.11 142.17L215.7 137.86C215.96 137.73 216.09 137.47 216.09 137.34C216.09 136.95 216.09 128.46 216.09 128.46L216.09 123.76L208.11 123.89L200.91 126.11L200.91 139.56Z" fill="#2F2D4F" fill-opacity="1.000000" fill-rule="nonzero"/>
		<path d="M208.37 91.9C207.45 91.37 206.01 91.37 205.1 91.9L200.38 94.64C197.63 93.72 194.75 93.07 191.87 92.55L191.87 88.63C191.87 87.85 190.82 87.32 189.65 87.32L179.04 87.32C177.73 87.32 176.68 87.85 176.68 88.63L176.68 92.55C173.54 92.94 170.66 93.72 167.78 94.64L163.07 91.9C162.15 91.37 160.71 91.37 159.8 91.9L152.33 96.2C151.42 96.73 151.42 97.51 152.33 98.03L157.05 100.78C155.48 102.34 154.3 104.04 153.51 105.74L146.83 105.74C145.53 105.74 144.48 106.26 144.48 107.04L144.35 113.18C144.35 113.97 145.39 114.49 146.57 114.49L153.25 114.49C154.03 116.32 155.21 118.01 156.92 119.71L152.2 122.45C151.29 122.98 151.29 123.76 152.2 124.28L159.8 128.59C160.71 129.11 162.15 129.11 163.07 128.59L167.78 125.85C170.53 126.76 173.28 127.42 176.29 127.94L176.29 131.73C176.29 132.51 177.34 133.03 178.52 133.03L189.12 133.03C190.43 133.03 191.48 132.51 191.48 131.73L191.48 127.94C194.62 127.55 197.63 126.76 200.38 125.85L205.1 128.59C206.01 129.11 207.45 129.11 208.37 128.59L215.83 124.28C216.75 123.76 216.75 122.98 215.83 122.45L211.12 119.71C212.69 118.14 213.87 116.45 214.65 114.75L221.33 114.75C222.64 114.75 223.69 114.23 223.69 113.44L223.82 107.31C223.82 106.52 222.77 106 221.59 106L214.91 106C214.13 104.17 212.95 102.47 211.25 100.78L215.96 98.03C216.88 97.51 216.88 96.73 215.96 96.2L208.37 91.9ZM195.67 116.97C189.25 120.63 178.91 120.63 172.5 116.97C166.08 113.31 166.08 107.31 172.5 103.65C178.91 99.99 189.25 99.99 195.67 103.65C202.08 107.31 202.08 113.31 195.67 116.97Z" fill="#C2E6EA" fill-opacity="1.000000" fill-rule="nonzero"/>
		<path d="M221.46 109.4L214.78 109.4C214 107.57 212.82 105.87 211.12 104.17L215.83 101.43C216.75 100.91 216.75 100.12 215.83 99.6L208.37 95.29C207.45 94.77 206.01 94.77 205.1 95.29L200.38 98.03C197.63 97.12 194.75 96.47 191.87 95.94L191.87 92.03C191.87 91.24 190.82 90.72 189.65 90.72L179.04 90.72C177.73 90.72 176.68 91.24 176.68 92.03L176.68 95.94C173.54 96.34 170.66 97.12 167.78 98.03L163.07 95.29C162.15 94.77 160.71 94.77 159.8 95.29L152.33 99.6L152.33 101.43L157.05 104.17C155.48 105.74 154.3 107.44 153.51 109.13L146.83 109.13C146.18 109.13 145.53 109.26 145.13 109.53L145.13 117.49C145.53 117.75 146.05 117.88 146.7 117.88L153.38 117.88C154.17 119.71 155.34 121.41 157.05 123.11L152.33 125.85L152.33 127.68L159.8 131.99C160.71 132.51 162.15 132.51 163.07 131.99L167.78 129.25C170.53 130.16 173.94 131.07 176.82 131.47L176.82 135.25C176.82 136.03 177.21 136.43 178.52 136.43L189.12 136.43C190.43 136.43 191.48 135.91 191.48 135.12L191.48 131.33C194.62 130.94 197.63 130.16 200.38 129.25L205.1 131.99C206.01 132.51 207.45 132.51 208.37 131.99L215.83 127.68C216.75 127.16 216.75 126.37 215.83 125.85L211.12 123.11C212.69 121.54 213.87 119.84 214.65 118.14L221.33 118.14C222.12 118.14 222.9 117.88 223.29 117.49L223.29 109.92C222.9 109.53 222.25 109.4 221.46 109.4ZM195.54 120.23C189.12 123.89 178.78 123.89 172.36 120.23C165.95 116.58 165.95 110.57 172.36 106.91C178.78 103.26 189.12 103.26 195.54 106.91C201.95 110.57 201.95 116.58 195.54 120.23Z" fill="#F2F3F3" fill-opacity="1.000000" fill-rule="nonzero"/>
		<path d="M189.12 133.69L178.52 133.69C177.6 133.69 176.69 133.42 176.16 132.9C175.9 132.64 175.77 132.25 175.77 131.86L175.77 128.46C173.02 128.07 170.27 127.42 167.78 126.5L163.2 129.11C162.15 129.77 160.45 129.77 159.4 129.11L151.81 124.81C151.29 124.41 150.89 124.02 150.89 123.5C150.89 122.98 151.29 122.45 151.81 122.19L156 119.71C154.56 118.28 153.51 116.71 152.86 115.14L146.44 115.14C145.53 115.14 144.61 114.88 144.09 114.36C143.82 114.1 143.69 113.7 143.69 113.31L143.82 107.18C143.82 106.13 145 105.35 146.57 105.35L152.99 105.35C153.64 103.78 154.69 102.34 156.13 101.04L151.94 98.69C151.42 98.29 151.02 97.9 151.02 97.38C151.02 96.86 151.42 96.34 151.94 96.07L159.4 91.77C160.45 91.11 162.15 91.11 163.2 91.77L167.78 94.38C170.4 93.46 173.15 92.81 176.16 92.42L176.16 88.89C176.16 87.85 177.34 87.06 178.91 87.06L189.52 87.06C190.43 87.06 191.35 87.32 191.87 87.85C192.13 88.11 192.27 88.5 192.27 88.89L192.27 92.42C195.01 92.81 197.76 93.46 200.25 94.38L204.83 91.77C205.88 91.11 207.58 91.11 208.63 91.77L216.22 96.07C216.75 96.47 217.14 96.86 217.14 97.38C217.14 97.9 216.75 98.43 216.22 98.69L212.03 101.04C213.47 102.47 214.52 104.04 215.31 105.61L221.72 105.61C222.64 105.61 223.56 105.87 224.08 106.39C224.34 106.65 224.47 107.04 224.47 107.44L224.34 113.57C224.34 114.62 223.16 115.4 221.59 115.4L215.18 115.4C214.52 116.97 213.47 118.41 212.03 119.71L216.22 122.19C216.75 122.59 217.14 122.98 217.14 123.5C217.14 124.02 216.75 124.54 216.22 124.81L208.76 129.11C207.71 129.77 206.01 129.77 204.96 129.11L200.38 126.5C197.76 127.42 194.88 128.07 192 128.46L192 131.86C191.87 132.9 190.69 133.69 189.12 133.69ZM167.65 125.46L167.91 125.59C170.53 126.5 173.41 127.16 176.29 127.68L176.69 127.68L176.69 131.99C176.69 132.12 176.69 132.25 176.82 132.25C177.08 132.51 177.73 132.77 178.39 132.77L188.99 132.77C190.04 132.77 190.83 132.25 190.83 131.99L190.83 127.68L191.22 127.68C194.36 127.29 197.37 126.5 200.12 125.59L200.38 125.46L205.36 128.33C206.14 128.72 207.32 128.72 208.11 128.33L215.57 124.02C215.83 123.89 215.96 123.63 215.96 123.5C215.96 123.37 215.83 123.11 215.57 122.98L210.2 119.84L210.72 119.45C212.3 118.01 213.47 116.32 214.13 114.75L214.26 114.49L221.33 114.49C222.38 114.49 223.16 113.97 223.16 113.7L223.29 107.57C223.29 107.44 223.29 107.31 223.16 107.31C222.9 107.04 222.25 106.78 221.59 106.78L214.52 106.78L214.39 106.52C213.61 104.69 212.43 103 210.72 101.43L210.2 101.04L215.44 98.03C215.7 97.9 215.83 97.64 215.83 97.51C215.83 97.38 215.7 97.12 215.44 96.99L207.85 92.68C207.06 92.29 205.88 92.29 205.1 92.68L200.12 95.55L199.86 95.42C197.24 94.51 194.36 93.85 191.35 93.46L190.96 93.46L190.96 89.15C190.96 89.02 190.96 88.89 190.83 88.89C190.56 88.63 189.91 88.37 189.25 88.37L178.65 88.37C177.6 88.37 176.82 88.89 176.82 89.15L176.82 93.46L176.42 93.46C173.28 93.85 170.4 94.64 167.65 95.55L167.39 95.68L162.41 92.81C161.63 92.42 160.45 92.42 159.67 92.81L152.2 97.12C151.94 97.25 151.81 97.51 151.81 97.64C151.81 97.77 151.94 98.03 152.2 98.16L157.44 101.17L156.92 101.56C155.35 103 154.17 104.69 153.51 106.26L153.38 106.52L146.31 106.52C145.26 106.52 144.48 107.04 144.48 107.31L144.35 113.44C144.35 113.57 144.35 113.7 144.48 113.7C144.74 113.97 145.39 114.23 146.05 114.23L153.12 114.23L153.25 114.49C154.03 116.19 155.21 117.88 156.78 119.45L157.31 119.84L151.94 122.85C151.68 122.98 151.55 123.24 151.55 123.37C151.55 123.5 151.68 123.76 151.94 123.89L159.53 128.2C160.32 128.59 161.5 128.59 162.28 128.2L167.65 125.46ZM184.02 120.23C179.7 120.23 175.38 119.32 172.1 117.36C168.83 115.53 167 112.92 167 110.31C167 107.57 168.83 105.09 172.1 103.26C178.65 99.47 189.25 99.47 195.8 103.26C199.07 105.09 200.91 107.7 200.91 110.31C200.91 113.05 199.07 115.53 195.8 117.36C192.66 119.32 188.34 120.23 184.02 120.23ZM184.02 101.3C179.96 101.3 175.77 102.21 172.63 104.04C169.75 105.74 168.04 107.96 168.04 110.31C168.04 112.66 169.62 114.88 172.63 116.58C178.91 120.23 189.12 120.23 195.41 116.58C198.29 114.88 199.99 112.66 199.99 110.31C199.99 107.96 198.42 105.74 195.41 104.04C192.27 102.21 188.21 101.3 184.02 101.3Z" fill="#2F2D4F" fill-opacity="1.000000" fill-rule="nonzero"/>
		<path d="M190.96 128.33L190.96 142.04L200.91 139.82L200.91 126.24L190.96 128.33Z" fill="#2F2D4F" fill-opacity="1.000000" fill-rule="nonzero"/>
		<path d="M206.93 129.11L206.93 142.96L213.08 139.95L216.35 137.86L216.62 123.89L208.89 128.46L206.93 129.11Z" fill="#2F2D4F" fill-opacity="1.000000" fill-rule="nonzero"/>
		<path d="M161.37 129.11L161.37 142.96L168.18 139.95L168.18 125.98L161.37 129.11Z" fill="#2F2D4F" fill-opacity="1.000000" fill-rule="nonzero"/>
		<path d="M181.92 100.91L181.92 114.88L175.25 116.19L173.02 117.36L168.44 114.23L167.26 109.66L171.32 103.78L181.92 100.91Z" fill="#2F2D4F" fill-opacity="1.000000" fill-rule="nonzero"/>
		<path d="M184.54 100.91L184.54 114.75L189.12 115.4L189.12 101.17L184.54 100.91Z" fill="#2F2D4F" fill-opacity="1.000000" fill-rule="nonzero"/>
		<path d="M216.49 97.38L216.49 105.87C216.49 105.87 214.65 106.52 214 104.3C213.74 103.52 211.12 100.65 211.12 100.65L216.49 97.38Z" fill="#2F2D4F" fill-opacity="1.000000" fill-rule="nonzero"/>
		<path d="M152.99 114.88L153.9 114.88L153.9 119.97L152.99 119.97L152.99 114.88Z" fill="#2F2D4F" fill-opacity="1.000000" fill-rule="evenodd"/>
		<path d="M211.38 119.45L215.18 114.88L215.18 121.8L211.38 119.45Z" fill="#2F2D4F" fill-opacity="1.000000" fill-rule="nonzero"/>
		<path d="M154.56 139.56L149.85 139.56C149.85 139.56 149.85 139.43 149.71 139.43L149.71 135.91L148.01 136.69C147.75 136.43 147.49 136.17 147.23 135.91L150.5 133.95C151.16 133.55 151.16 133.03 150.5 132.64L145.26 129.64C144.61 129.25 143.69 129.25 143.04 129.64L139.76 131.6C137.93 130.94 135.84 130.42 133.87 130.16L133.87 127.42C133.87 126.89 133.22 126.5 132.3 126.5L124.97 126.5C124.05 126.5 123.4 126.89 123.4 127.42L123.4 130.16C121.3 130.42 119.21 130.94 117.25 131.6L113.97 129.77C113.32 129.38 112.4 129.38 111.75 129.77L106.51 132.77C105.86 133.16 105.86 133.69 106.51 134.08L109.78 135.91C109.52 136.17 109.26 136.43 109 136.69L107.16 135.64L107.16 139.3L102.58 139.3C101.67 139.3 101.01 139.69 101.01 140.21L101.01 144.39C101.01 144.92 101.67 145.31 102.58 145.31L107.3 145.31C107.82 146.61 108.61 147.79 109.78 148.83L106.51 150.79C105.86 151.18 105.86 151.71 106.51 152.1L111.75 155.1C112.4 155.49 113.32 155.49 113.97 155.1L117.25 153.14C119.08 153.8 121.04 154.32 123.14 154.58L123.14 157.19C123.14 157.71 123.79 158.11 124.71 158.11L132.04 158.11C132.96 158.11 133.61 157.71 133.61 157.19L133.61 154.58C135.84 154.32 137.93 153.8 139.76 153.14L143.04 155.1C143.69 155.49 144.61 155.49 145.26 155.1L150.5 152.1C151.16 151.71 151.16 151.18 150.5 150.79L147.23 148.83C148.41 147.79 149.19 146.61 149.71 145.44L154.43 145.44C155.34 145.44 156 145.05 156 144.52L156 140.35C156.13 139.95 155.34 139.56 154.56 139.56ZM120.52 137.86C124.97 135.25 132.17 135.25 136.62 137.86C138.19 138.78 139.11 139.82 139.63 140.87L138.85 141.26L123.92 144.92L117.38 141.26C117.77 140.08 118.82 138.78 120.52 137.86Z" fill="#C2E6EA" fill-opacity="1.000000" fill-rule="nonzero"/>
		<path d="M132.04 158.63L124.71 158.63C124.05 158.63 123.4 158.37 123.14 158.11C122.88 157.84 122.88 157.71 122.88 157.45L122.88 155.1C120.91 154.84 119.08 154.32 117.38 153.8L114.23 155.62C113.45 156.02 112.4 156.02 111.62 155.62L106.38 152.62C105.99 152.36 105.72 152.1 105.72 151.71C105.72 151.32 105.99 151.05 106.38 150.79L109.26 149.09C108.34 148.05 107.56 147 107.03 145.96L102.58 145.96C101.93 145.96 101.27 145.7 101.01 145.44C100.75 145.18 100.75 145.05 100.75 144.78L100.75 140.61C100.75 139.95 101.67 139.3 102.71 139.3L106.9 139.3L106.9 135.38L109 136.56C109.13 136.43 109.13 136.43 109.26 136.3L106.38 134.6C105.99 134.34 105.72 134.08 105.72 133.69C105.72 133.29 105.99 133.03 106.38 132.77L111.62 129.77C112.4 129.38 113.45 129.38 114.23 129.77L117.38 131.6C119.21 130.94 121.17 130.55 123.14 130.16L123.14 127.81C123.14 127.16 124.05 126.5 125.1 126.5L132.43 126.5C133.09 126.5 133.74 126.76 134 127.03C134.27 127.29 134.27 127.42 134.27 127.68L134.27 130.03C136.23 130.29 138.06 130.81 139.77 131.33L142.91 129.51C143.69 129.11 144.74 129.11 145.53 129.51L150.76 132.51C151.16 132.77 151.42 133.03 151.42 133.42C151.42 133.82 151.16 134.08 150.76 134.34L147.88 136.03C148.01 136.17 148.14 136.3 148.14 136.3L150.11 135.38L150.11 139.17L154.56 139.17C155.21 139.17 155.87 139.43 156.13 139.69C156.39 139.95 156.39 140.08 156.39 140.35L156.39 144.52C156.39 145.18 155.48 145.83 154.43 145.83L149.98 145.83C149.45 146.87 148.8 147.92 147.88 148.83L150.76 150.53C151.16 150.79 151.42 151.05 151.42 151.45C151.42 151.84 151.16 152.1 150.76 152.36L145.53 155.36C144.74 155.75 143.69 155.75 142.91 155.36L139.77 153.53C137.93 154.19 135.97 154.58 133.87 154.97L133.87 157.32C134 158.11 133.09 158.63 132.04 158.63ZM117.12 152.88L117.25 152.88C119.08 153.53 121.04 153.93 123.14 154.32L123.4 154.32L123.4 157.32C123.4 157.45 123.4 157.45 123.53 157.58C123.79 157.84 124.18 157.98 124.71 157.98L132.04 157.98C132.83 157.98 133.35 157.58 133.35 157.45L133.35 154.45L133.61 154.45C135.84 154.19 137.8 153.67 139.77 153.01L139.89 153.01L143.3 154.97C143.82 155.23 144.74 155.23 145.26 154.97L150.5 151.97C150.63 151.84 150.76 151.71 150.76 151.58C150.76 151.45 150.63 151.32 150.5 151.18L146.83 149.09L147.23 148.83C148.27 147.79 149.06 146.74 149.58 145.57L149.72 145.31L154.56 145.31C155.34 145.31 155.87 144.92 155.87 144.78L155.87 140.61C155.87 140.48 155.87 140.48 155.74 140.35C155.48 140.08 155.08 139.95 154.56 139.95L149.72 139.95L149.58 139.43L149.58 136.56L148.14 137.21L148.01 137.08C147.75 136.82 147.49 136.56 147.23 136.3L146.83 136.03L150.5 133.95C150.63 133.82 150.76 133.69 150.76 133.55C150.76 133.42 150.63 133.29 150.5 133.16L145.26 130.16C144.74 129.9 143.82 129.9 143.3 130.16L139.89 132.12L139.77 132.12C137.93 131.46 135.97 131.07 133.87 130.68L133.61 130.68L133.61 127.68C133.61 127.55 133.61 127.55 133.48 127.42C133.22 127.16 132.83 127.03 132.3 127.03L124.97 127.03C124.18 127.03 123.66 127.42 123.66 127.55L123.66 130.55L123.4 130.55C121.3 130.81 119.21 131.33 117.38 131.99L117.25 131.99L113.84 130.03C113.32 129.77 112.4 129.77 111.88 130.03L106.64 133.03C106.51 133.16 106.38 133.29 106.38 133.42C106.38 133.55 106.51 133.69 106.64 133.82L110.31 135.91L109.91 136.17C109.65 136.43 109.39 136.69 109.13 136.95L109.13 137.08L107.56 136.17L107.56 139.69L102.58 139.69C101.8 139.69 101.27 140.08 101.27 140.21L101.27 144.39C101.27 144.52 101.27 144.52 101.4 144.65C101.67 144.92 102.06 145.05 102.58 145.05L107.43 145.05L107.56 145.31C108.08 146.48 108.87 147.66 110.05 148.83L110.44 149.09L106.64 151.18C106.51 151.32 106.38 151.45 106.38 151.58C106.38 151.71 106.51 151.84 106.64 151.97L111.88 154.97C112.4 155.23 113.32 155.23 113.84 154.97L117.12 152.88ZM123.92 145.31L116.98 141.52L117.12 141.26C117.51 139.82 118.69 138.65 120.39 137.6C124.97 134.99 132.3 134.99 136.88 137.6C138.46 138.52 139.5 139.56 140.03 140.74L140.16 141L139.11 141.52L123.92 145.31ZM117.77 141.13L123.92 144.52L138.72 140.87L139.11 140.74C138.59 139.82 137.67 138.91 136.36 138.13C132.04 135.64 124.97 135.64 120.65 138.13C119.21 138.91 118.16 139.95 117.77 141.13Z" fill="#2F2D4F" fill-opacity="1.000000" fill-rule="nonzero"/>
		<path d="M105.99 123.76L105.99 130.42L113.97 129.77L113.58 124.94L105.99 123.76Z" fill="#C2E6EA" fill-opacity="1.000000" fill-rule="nonzero"/>
		<path d="M105.72 130.81L105.72 124.02C105.72 123.76 105.99 123.5 106.25 123.63L113.97 124.8L114.37 130.16L105.72 130.81ZM106.38 124.15L106.38 130.03L113.58 129.38L113.19 125.33L106.38 124.15Z" fill="#2F2D4F" fill-opacity="1.000000" fill-rule="nonzero"/>
		<path d="M150.5 132.25C146.83 132.25 146.7 131.73 146.57 131.47C146.44 131.07 144.74 128.2 143.17 125.72L142.91 125.33L151.42 123.5L151.42 132.25L151.02 132.25C150.89 132.25 150.63 132.25 150.5 132.25ZM147.23 131.2C147.49 131.47 149.19 131.6 150.76 131.47L150.76 124.15L144.09 125.59C144.87 127.16 146.97 130.42 147.23 131.2Z" fill="#2F2D4F" fill-opacity="1.000000" fill-rule="nonzero"/>
		<path d="M139.11 126.5L128.5 123.11L116.72 128.07L116.72 134.86L120.78 137.47C125.1 135.25 131.65 135.25 135.97 137.47L140.68 136.3C140.68 136.3 141.47 133.55 141.07 130.94L139.11 126.5Z" fill="#C2E6EA" fill-opacity="1.000000" fill-rule="nonzero"/>
		<path d="M136.23 137.99L135.97 137.99C131.65 135.77 125.23 135.77 121.04 137.99L120.91 137.99L120.78 137.99L120.65 137.99L116.46 135.25L116.46 128.07L128.5 122.98L139.37 126.37L141.6 131.07C141.99 133.69 141.2 136.56 141.2 136.56L141.2 136.69L136.23 137.99ZM128.5 135.51C131.25 135.51 134 136.03 136.23 137.21L140.55 136.03C140.68 135.38 141.2 133.16 140.81 131.07L138.72 126.89L128.37 123.63L117.12 128.46L117.12 134.86L120.91 137.34C123.14 136.17 125.89 135.51 128.5 135.51Z" fill="#2F2D4F" fill-opacity="1.000000" fill-rule="nonzero"/>
		<path d="M154.56 132.9L149.85 134.08L149.85 139.3L149.85 145.57L154.56 145.57C155.48 145.57 156.13 145.18 156.13 144.65L156.13 133.82C156.13 133.29 155.34 132.9 154.56 132.9Z" fill="#C2E6EA" fill-opacity="1.000000" fill-rule="nonzero"/>
		<path d="M154.43 145.96L149.45 145.96L149.45 139.04C149.45 138.52 149.45 137.6 149.45 136.69C149.45 133.82 149.45 133.82 149.71 133.82L154.56 132.64C155.21 132.64 155.87 132.9 156.13 133.16C156.39 133.42 156.39 133.55 156.39 133.82L156.39 144.65C156.39 145.44 155.61 145.96 154.43 145.96ZM150.11 145.18L154.43 145.18C155.21 145.18 155.74 144.78 155.74 144.65L155.74 133.82C155.74 133.69 155.74 133.69 155.61 133.55C155.34 133.29 154.95 133.16 154.56 133.16L150.11 134.34C150.11 134.73 150.11 135.77 150.11 136.69C150.11 138.25 150.11 139.04 150.11 139.3L150.11 145.18Z" fill="#2F2D4F" fill-opacity="1.000000" fill-rule="nonzero"/>
		<path d="M102.58 132.77L107.3 133.95L107.3 139.17L107.3 145.44L102.58 145.44C101.67 145.44 101.01 145.05 101.01 144.52L101.01 133.69C101.01 133.16 101.67 132.77 102.58 132.77Z" fill="#C2E6EA" fill-opacity="1.000000" fill-rule="nonzero"/>
		<path d="M102.58 145.83C101.54 145.83 100.62 145.31 100.62 144.52L100.62 133.69C100.62 133.42 100.75 133.16 100.88 133.03C101.27 132.64 101.8 132.51 102.45 132.51L102.58 132.51L107.3 133.69C107.56 133.69 107.56 133.69 107.56 136.56C107.56 137.47 107.56 138.52 107.56 138.91L107.56 145.83L102.58 145.83ZM102.45 133.03C102.06 133.03 101.54 133.16 101.4 133.42C101.27 133.55 101.27 133.55 101.27 133.69L101.27 144.52C101.27 144.78 101.8 145.05 102.58 145.05L106.9 145.05L106.9 139.17C106.9 138.78 106.9 138.13 106.9 136.56C106.9 135.64 106.9 134.73 106.9 134.21L102.45 133.03Z" fill="#2F2D4F" fill-opacity="1.000000" fill-rule="nonzero"/>
		<path d="M123.14 154.71L123.14 157.19L123.14 157.45C123.14 157.98 123.79 158.37 124.71 158.37L132.04 158.37C132.96 158.37 133.61 157.98 133.61 157.45L133.61 147.79L123.01 147.53L123.01 154.71L123.14 154.71Z" fill="#C2E6EA" fill-opacity="1.000000" fill-rule="nonzero"/>
		<path d="M132.04 158.63L124.71 158.63C123.66 158.63 122.75 158.11 122.75 157.32L122.75 157.06C122.75 156.41 122.75 155.36 122.75 154.97L122.75 147L134 147.27L134 157.32C134 158.11 133.09 158.63 132.04 158.63ZM123.4 154.71C123.4 155.1 123.4 155.75 123.4 157.19L123.4 157.45C123.4 157.71 123.92 157.98 124.58 157.98L131.91 157.98C132.7 157.98 133.22 157.58 133.22 157.45L133.22 148.05L123.4 147.79L123.4 154.71Z" fill="#2F2D4F" fill-opacity="1.000000" fill-rule="nonzero"/>
		<path d="M111.88 142.04L105.99 141.91L105.99 145.44C105.99 145.44 105.99 151.32 105.99 151.58C105.99 151.84 106.12 152.1 106.51 152.23L111.75 155.23C112.4 155.62 113.32 155.62 113.97 155.23L117.25 153.27L117.25 143.61L111.88 142.04Z" fill="#C2E6EA" fill-opacity="1.000000" fill-rule="nonzero"/>
		<path d="M112.79 155.75C112.27 155.75 111.88 155.62 111.49 155.49L106.25 152.49C105.86 152.23 105.59 151.97 105.59 151.58L105.59 142.04C105.59 141.78 105.86 141.52 106.12 141.52L111.88 141.65L117.38 143.35L117.38 153.53L113.97 155.49C113.71 155.62 113.32 155.75 112.79 155.75ZM106.38 142.17L106.38 151.58C106.38 151.71 106.51 151.84 106.64 151.97L111.88 154.97C112.4 155.23 113.32 155.23 113.84 154.97L116.98 153.14L116.98 143.87L111.88 142.3L106.38 142.17Z" fill="#2F2D4F" fill-opacity="1.000000" fill-rule="nonzero"/>
		<path d="M145.26 141.91L151.16 141.78L151.16 145.31C151.16 145.31 151.16 151.18 151.16 151.45C151.16 151.71 151.02 151.97 150.63 152.1L145.39 155.1C144.74 155.49 143.82 155.49 143.17 155.1L139.89 153.14L139.89 143.48L145.26 141.91Z" fill="#C2E6EA" fill-opacity="1.000000" fill-rule="nonzero"/>
		<path d="M144.35 155.75C143.82 155.75 143.43 155.62 143.04 155.49L139.63 153.53L139.63 143.35L145.26 141.65L150.89 141.52C151.16 141.52 151.55 141.78 151.55 142.04L151.55 145.44C151.55 145.44 151.55 151.32 151.55 151.58C151.55 151.97 151.29 152.23 150.89 152.49L145.66 155.49C145.26 155.62 144.74 155.75 144.35 155.75ZM140.29 153.01L143.43 154.84C143.95 155.1 144.87 155.1 145.39 154.84L150.63 151.84C150.76 151.71 150.89 151.58 150.89 151.45C150.89 151.18 150.89 145.31 150.89 145.31L150.89 142.04L145.26 142.3L140.29 143.87L140.29 153.01Z" fill="#2F2D4F" fill-opacity="1.000000" fill-rule="nonzero"/>
		<path d="M145.39 119.97C144.74 119.58 143.82 119.58 143.17 119.97L139.89 121.93C138.06 121.28 135.97 120.76 134 120.5L134 117.75C134 117.23 133.35 116.84 132.43 116.84L125.1 116.84C124.19 116.84 123.53 117.23 123.53 117.75L123.53 120.5C121.44 120.76 119.34 121.28 117.38 121.93L114.1 120.1C113.45 119.71 112.53 119.71 111.88 120.1L106.64 123.11C105.99 123.5 105.99 124.02 106.64 124.41L109.91 126.24C108.74 127.29 107.95 128.46 107.43 129.64L102.71 129.64C101.8 129.64 101.14 130.03 101.14 130.55L101.14 134.73C101.14 135.25 101.8 135.64 102.71 135.64L107.43 135.64C107.95 136.95 108.74 138.13 109.91 139.17L106.64 141.13C105.99 141.52 105.99 142.04 106.64 142.43L111.88 145.44C112.53 145.83 113.45 145.83 114.1 145.44L117.38 143.48C119.21 144.13 121.17 144.65 123.27 144.92L123.27 147.53C123.27 148.05 123.92 148.44 124.84 148.44L132.17 148.44C133.09 148.44 133.74 148.05 133.74 147.53L133.74 144.92C135.97 144.65 138.06 144.13 139.89 143.48L143.17 145.44C143.82 145.83 144.74 145.83 145.39 145.44L150.63 142.43C151.29 142.04 151.29 141.52 150.63 141.13L147.36 139.17C148.54 138.13 149.32 136.95 149.85 135.77L154.56 135.77C155.48 135.77 156.13 135.38 156.13 134.86L156.13 130.68C156.13 130.16 155.48 129.77 154.56 129.77L149.85 129.77C149.32 128.46 148.41 127.29 147.23 126.11L150.5 124.15C151.16 123.76 151.16 123.24 150.5 122.85L145.39 119.97ZM136.62 137.34C132.17 139.95 124.97 139.95 120.52 137.34C116.07 134.73 116.07 130.68 120.52 128.07C124.97 125.46 132.17 125.46 136.62 128.07C141.07 130.68 141.07 134.86 136.62 137.34Z" fill="#C2E6EA" fill-opacity="1.000000" fill-rule="nonzero"/>
		<path d="M154.43 132.12L149.72 132.12C149.19 130.81 148.28 129.64 147.1 128.46L150.37 126.5C151.02 126.11 151.02 125.59 150.37 125.2L145.13 122.19C144.48 121.8 143.56 121.8 142.91 122.19L139.63 124.15C137.8 123.5 135.71 122.98 133.74 122.72L133.74 119.97C133.74 119.45 133.09 119.06 132.17 119.06L124.84 119.06C123.92 119.06 123.27 119.45 123.27 119.97L123.27 122.72C121.17 122.98 119.08 123.5 117.12 124.15L113.84 122.32C113.19 121.93 112.27 121.93 111.62 122.32L106.38 125.33L106.38 126.63L109.65 128.46C108.47 129.51 107.69 130.68 107.17 131.86L102.45 131.86C101.93 131.86 101.54 131.99 101.27 132.12L101.27 137.6C101.54 137.73 101.93 137.86 102.32 137.86L107.03 137.86C107.56 139.17 108.34 140.35 109.52 141.39L106.25 143.35L106.25 144.65L111.49 147.66C112.14 148.05 113.06 148.05 113.71 147.66L116.98 145.7C118.82 146.35 121.17 146.87 123.27 147.27L123.27 149.88C123.27 150.4 123.53 150.66 124.45 150.66L131.78 150.66C132.7 150.66 133.35 150.27 133.35 149.75L133.35 147.14C135.58 146.87 137.67 146.35 139.5 145.7L142.78 147.66C143.43 148.05 144.35 148.05 145 147.66L150.24 144.65C150.89 144.26 150.89 143.74 150.24 143.35L146.97 141.39C148.14 140.35 148.93 139.17 149.45 137.99L154.17 137.99C154.69 137.99 155.21 137.86 155.48 137.6L155.48 132.38C155.48 132.25 154.95 132.12 154.43 132.12ZM136.49 139.69C132.04 142.3 124.84 142.3 120.39 139.69C115.94 137.08 115.94 133.03 120.39 130.42C124.84 127.81 132.04 127.81 136.49 130.42C140.94 132.9 140.94 137.08 136.49 139.69Z" fill="#F2F3F3" fill-opacity="1.000000" fill-rule="nonzero"/>
		<path d="M132.04 148.96L124.71 148.96C124.05 148.96 123.4 148.7 123.14 148.44C122.88 148.18 122.88 148.05 122.88 147.79L122.88 145.44C120.91 145.18 119.08 144.65 117.38 144.13L114.23 145.96C113.45 146.35 112.4 146.35 111.62 145.96L106.38 142.96C105.99 142.7 105.72 142.43 105.72 142.04C105.72 141.65 105.99 141.39 106.38 141.13L109.26 139.43C108.34 138.39 107.56 137.34 107.03 136.3L102.58 136.3C101.93 136.3 101.27 136.04 101.01 135.77C100.75 135.51 100.75 135.38 100.75 135.12L100.75 130.94C100.75 130.29 101.67 129.64 102.71 129.64L107.16 129.64C107.69 128.59 108.34 127.55 109.26 126.63L106.38 124.94C105.99 124.67 105.72 124.41 105.72 124.02C105.72 123.63 105.99 123.37 106.38 123.11L111.62 120.1C112.4 119.71 113.45 119.71 114.23 120.1L117.38 121.93C119.21 121.28 121.17 120.89 123.14 120.5L123.14 118.14C123.14 117.49 124.05 116.84 125.1 116.84L132.43 116.84C133.09 116.84 133.74 117.1 134 117.36C134.27 117.62 134.27 117.75 134.27 118.01L134.27 120.36C136.23 120.63 138.06 121.15 139.77 121.67L142.91 119.84C143.69 119.45 144.74 119.45 145.53 119.84L150.76 122.85C151.16 123.11 151.42 123.37 151.42 123.76C151.42 124.15 151.16 124.41 150.76 124.67L147.88 126.37C148.93 127.42 149.58 128.46 150.11 129.51L154.56 129.51C155.21 129.51 155.87 129.77 156.13 130.03C156.39 130.29 156.39 130.42 156.39 130.68L156.39 134.86C156.39 135.51 155.48 136.17 154.43 136.17L149.98 136.17C149.45 137.21 148.8 138.25 147.88 139.17L150.76 140.87C151.16 141.13 151.42 141.39 151.42 141.78C151.42 142.17 151.16 142.43 150.76 142.7L145.53 145.7C144.74 146.09 143.69 146.09 142.91 145.7L139.77 143.87C137.93 144.52 135.97 144.92 133.87 145.31L133.87 147.66C134 148.44 133.09 148.96 132.04 148.96ZM117.12 143.22L117.25 143.22C119.08 143.87 121.04 144.26 123.14 144.65L123.4 144.65L123.4 147.66C123.4 147.79 123.4 147.79 123.53 147.92C123.79 148.18 124.18 148.31 124.71 148.31L132.04 148.31C132.83 148.31 133.35 147.92 133.35 147.79L133.35 144.78L133.61 144.78C135.84 144.52 137.8 144 139.77 143.35L139.89 143.35L143.3 145.31C143.82 145.57 144.74 145.57 145.26 145.31L150.5 142.3C150.63 142.17 150.76 142.04 150.76 141.91C150.76 141.78 150.63 141.65 150.5 141.52L146.83 139.43L147.23 139.17C148.27 138.13 149.06 137.08 149.58 135.91L149.72 135.64L154.56 135.64C155.34 135.64 155.87 135.25 155.87 135.12L155.87 130.94C155.87 130.81 155.87 130.81 155.74 130.68C155.48 130.42 155.08 130.29 154.56 130.29L149.72 130.29L149.58 130.03C149.06 128.85 148.27 127.68 147.1 126.5L146.7 126.24L150.37 124.15C150.5 124.02 150.63 123.89 150.63 123.76C150.63 123.63 150.5 123.5 150.37 123.37L145.13 120.36C144.61 120.1 143.69 120.1 143.17 120.36L139.77 122.32L139.63 122.32C137.8 121.67 135.84 121.28 133.74 120.89L133.48 120.89L133.48 117.88C133.48 117.75 133.48 117.75 133.35 117.62C133.09 117.36 132.7 117.23 132.17 117.23L124.84 117.23C124.05 117.23 123.53 117.62 123.53 117.75L123.53 120.76L123.27 120.76C121.17 121.02 119.08 121.54 117.25 122.19L117.12 122.19L113.71 120.23C113.19 119.97 112.27 119.97 111.75 120.23L106.51 123.24C106.38 123.37 106.25 123.5 106.25 123.63C106.25 123.76 106.38 123.89 106.51 124.02L110.18 126.11L109.78 126.37C108.74 127.42 107.95 128.46 107.43 129.64L107.3 129.9L102.45 129.9C101.67 129.9 101.14 130.29 101.14 130.42L101.14 134.6C101.14 134.73 101.14 134.73 101.27 134.86C101.54 135.12 101.93 135.25 102.45 135.25L107.3 135.25L107.43 135.51C107.95 136.69 108.74 137.86 109.91 139.04L110.31 139.3L106.64 141.52C106.51 141.65 106.38 141.78 106.38 141.91C106.38 142.04 106.51 142.17 106.64 142.3L111.88 145.31C112.4 145.57 113.32 145.57 113.84 145.31L117.12 143.22ZM128.5 139.69C125.49 139.69 122.61 139.04 120.26 137.73C118.03 136.43 116.72 134.73 116.72 132.77C116.72 130.94 118.03 129.11 120.26 127.81C124.84 125.2 132.17 125.2 136.75 127.81C138.98 129.11 140.29 130.81 140.29 132.77C140.29 134.6 138.98 136.43 136.75 137.73C134.53 139.04 131.52 139.69 128.5 139.69ZM128.5 126.5C125.63 126.5 122.75 127.16 120.65 128.33C118.56 129.51 117.51 131.07 117.51 132.64C117.51 134.21 118.69 135.77 120.65 136.95C124.97 139.43 132.04 139.43 136.36 136.95C138.46 135.77 139.5 134.21 139.5 132.64C139.5 131.07 138.32 129.51 136.36 128.33C134.27 127.16 131.39 126.5 128.5 126.5Z" fill="#2F2D4F" fill-opacity="1.000000" fill-rule="nonzero"/>
		<path d="M133.35 145.31L133.35 154.71L140.29 153.27L140.29 143.74L133.35 145.31Z" fill="#2F2D4F" fill-opacity="1.000000" fill-rule="nonzero"/>
		<path d="M144.48 145.7L144.48 155.36L148.67 153.27L151.02 151.84L151.16 142.17L145.79 145.31L144.48 145.7Z" fill="#2F2D4F" fill-opacity="1.000000" fill-rule="nonzero"/>
		<path d="M112.79 145.7L112.79 155.36L117.51 153.27L117.51 143.61L112.79 145.7Z" fill="#2F2D4F" fill-opacity="1.000000" fill-rule="nonzero"/>
		<path d="M127.07 126.24L127.07 135.91L122.48 136.82L120.91 137.6L117.77 135.51L116.98 132.25L119.73 128.2L127.07 126.24Z" fill="#2F2D4F" fill-opacity="1.000000" fill-rule="nonzero"/>
		<path d="M128.9 126.24L128.9 135.77L132.04 136.3L132.04 126.37L128.9 126.24Z" fill="#2F2D4F" fill-opacity="1.000000" fill-rule="nonzero"/>
		<path d="M151.02 123.76L151.02 129.64C151.02 129.64 149.71 130.03 149.32 128.59C149.19 128.07 147.36 125.98 147.36 125.98L151.02 123.76Z" fill="#2F2D4F" fill-opacity="1.000000" fill-rule="nonzero"/>
		<path d="M107.03 135.91L107.69 135.91L107.69 139.43L107.03 139.43L107.03 135.91Z" fill="#2F2D4F" fill-opacity="1.000000" fill-rule="evenodd"/>
		<path d="M147.49 139.04L150.11 135.91L150.11 140.74L147.49 139.04Z" fill="#2F2D4F" fill-opacity="1.000000" fill-rule="nonzero"/>
	</g>
</svg>
