<svg width="30.000000" height="30.000000" viewBox="0 0 30 30" fill="none" xmlns="http://www.w3.org/2000/svg" xmlns:xlink="http://www.w3.org/1999/xlink">
	<desc>
			Created with Pixso.
	</desc>
	<defs>
		<clipPath id="clip2_352">
			<rect width="18.000000" height="18.000000" transform="translate(6.000000 6.000000)" fill="white" fill-opacity="0"/>
		</clipPath>
	</defs>
	<rect width="30.000000" height="30.000000" fill="#FFFFFF" fill-opacity="0"/>
	<g opacity="0.100000">
		<path d="M0 15C0 6.71 6.71 0 15 0C23.28 0 30 6.71 30 15C30 23.28 23.28 30 15 30C6.71 30 0 23.28 0 15Z" fill="#FFFFFF" fill-opacity="1.000000" fill-rule="evenodd"/>
	</g>
	<rect width="18.000000" height="18.000000" transform="translate(6.000000 6.000000)" fill="#FFFFFF" fill-opacity="0"/>
	<g clip-path="url(#clip2_352)">
		<path d="M19.5 7.5L17.25 7.5C16.25 7.5 15.3 7.89 14.59 8.59C13.89 9.3 13.5 10.25 13.5 11.25L13.5 13.5L11.25 13.5L11.25 16.5L13.5 16.5L13.5 22.5L16.5 22.5L16.5 16.5L18.75 16.5L19.5 13.5L16.5 13.5L16.5 11.25C16.5 11.05 16.57 10.86 16.71 10.71C16.86 10.57 17.05 10.5 17.25 10.5L19.5 10.5L19.5 7.5Z" fill="#FFFFFF" fill-opacity="1.000000" fill-rule="nonzero"/>
	</g>
</svg>
