<svg width="24.000000" height="24.000000" viewBox="0 0 24 24" fill="none" xmlns="http://www.w3.org/2000/svg" xmlns:xlink="http://www.w3.org/1999/xlink">
	<desc>
			Created with Pixso.
	</desc>
	<defs/>
	<path d="M16.9395 3C18.2803 3 19.5703 3.52979 20.5195 4.48096C21.4697 5.43018 22.0005 6.70996 22.0005 8.0498L22.0005 15.9502C22.0005 18.7402 19.7305 21 16.9395 21L7.06055 21C4.26953 21 2.00049 18.7402 2.00049 15.9502L2.00049 8.0498C2.00049 5.25977 4.25928 3 7.06055 3L16.9395 3ZM18.6104 9.45996L18.5303 9.54004L14.0195 13.1499C13.4604 13.5898 12.7695 13.8301 12.0605 13.8301C11.3496 13.8301 10.6704 13.5898 10.1104 13.1499L5.56055 9.6001L5.42969 9.47021C5.20068 9.16992 5.23047 8.74023 5.50049 8.47021C5.75928 8.2002 6.18945 8.16992 6.50049 8.3999L11.0005 12C11.5894 12.481 12.4204 12.481 13.0005 12L17.5093 8.3999C17.6606 8.25977 17.8604 8.18896 18.0703 8.2002C18.2695 8.22021 18.4604 8.31104 18.5996 8.45996C18.8496 8.75 18.8496 9.16992 18.6104 9.45996Z" clip-rule="evenodd" fill="#C2E6EA" fill-opacity="1.000000" fill-rule="evenodd"/>
</svg>
