<svg width="18.000000" height="18.000000" viewBox="0 0 18 18" fill="none" xmlns="http://www.w3.org/2000/svg" xmlns:xlink="http://www.w3.org/1999/xlink">
	<desc>
			Created with Pixso.
	</desc>
	<defs>
		<clipPath id="clip2_387">
			<rect width="18.000000" height="18.000000" fill="white" fill-opacity="0"/>
		</clipPath>
	</defs>
	<rect width="18.000000" height="18.000000" fill="#FFFFFF" fill-opacity="0"/>
	<g clip-path="url(#clip2_387)">
		<path d="M17.03 0.96C17.23 1.17 17.3 1.47 17.2 1.74L11.95 16.74C11.85 17.03 11.58 17.23 11.28 17.24C10.97 17.26 10.68 17.08 10.56 16.8L7.68 10.31L1.19 7.43C0.91 7.31 0.73 7.02 0.75 6.71C0.76 6.41 0.96 6.14 1.25 6.04L16.25 0.79C16.52 0.69 16.82 0.76 17.03 0.96ZM9.14 9.91L11.16 14.46L14.7 4.35L9.14 9.91ZM13.64 3.29L3.53 6.83L8.08 8.85L13.64 3.29Z" fill="#FFFFFF" fill-opacity="1.000000" fill-rule="evenodd"/>
	</g>
</svg>
