<svg width="30.000000" height="30.000000" viewBox="0 0 30 30" fill="none" xmlns="http://www.w3.org/2000/svg" xmlns:xlink="http://www.w3.org/1999/xlink">
	<desc>
			Created with Pixso.
	</desc>
	<defs/>
	<rect width="30.000000" height="30.000000" fill="#FFFFFF" fill-opacity="0"/>
	<g opacity="0.100000">
		<path d="M0 15C0 6.71 6.71 0 15 0C23.28 0 30 6.71 30 15C30 23.28 23.28 30 15 30C6.71 30 0 23.28 0 15Z" fill="#FFFFFF" fill-opacity="1.000000" fill-rule="evenodd"/>
	</g>
	<path d="M15 7C12.82 7 12.55 7 11.7 7.04C10.85 7.08 10.26 7.22 9.76 7.41C9.23 7.62 8.78 7.89 8.34 8.34C7.89 8.78 7.62 9.23 7.41 9.75C7.22 10.26 7.08 10.85 7.04 11.7C7 12.55 7 12.82 7 15C7 17.17 7 17.44 7.04 18.29C7.08 19.14 7.22 19.73 7.41 20.23C7.62 20.76 7.89 21.21 8.34 21.65C8.78 22.1 9.23 22.37 9.75 22.58C10.26 22.77 10.85 22.91 11.7 22.95C12.55 22.99 12.82 23 14.99 23C17.17 23 17.44 22.99 18.29 22.95C19.14 22.91 19.73 22.77 20.24 22.58C20.76 22.37 21.21 22.1 21.65 21.65C22.1 21.21 22.37 20.76 22.58 20.23C22.77 19.73 22.91 19.14 22.95 18.29C22.99 17.44 23 17.17 23 15C23 12.82 22.99 12.55 22.95 11.7C22.91 10.84 22.77 10.26 22.58 9.75C22.37 9.23 22.1 8.78 21.65 8.34C21.21 7.89 20.76 7.62 20.23 7.41C19.73 7.22 19.14 7.08 18.29 7.04C17.44 7 17.17 7 14.99 7L15 7ZM14.28 8.44C14.49 8.44 14.73 8.44 15 8.44C17.13 8.44 17.39 8.44 18.23 8.48C19.01 8.52 19.43 8.65 19.71 8.76C20.09 8.9 20.35 9.08 20.63 9.36C20.91 9.64 21.09 9.9 21.23 10.28C21.34 10.56 21.47 10.98 21.51 11.76C21.55 12.6 21.55 12.86 21.55 14.99C21.55 17.13 21.55 17.38 21.51 18.23C21.47 19 21.34 19.43 21.23 19.71C21.09 20.08 20.91 20.35 20.63 20.63C20.35 20.91 20.09 21.08 19.71 21.23C19.43 21.34 19.01 21.47 18.23 21.5C17.39 21.54 17.13 21.55 15 21.55C12.86 21.55 12.61 21.54 11.76 21.5C10.98 21.47 10.56 21.34 10.28 21.23C9.9 21.08 9.64 20.91 9.36 20.63C9.08 20.35 8.9 20.08 8.76 19.71C8.65 19.43 8.52 19 8.48 18.22C8.45 17.38 8.44 17.13 8.44 14.99C8.44 12.85 8.45 12.6 8.48 11.76C8.52 10.98 8.65 10.56 8.76 10.27C8.9 9.9 9.08 9.63 9.36 9.35C9.64 9.07 9.9 8.9 10.28 8.76C10.56 8.65 10.98 8.52 11.76 8.48C12.5 8.45 12.79 8.44 14.28 8.43L14.28 8.44ZM19.27 9.77C18.74 9.77 18.31 10.19 18.31 10.72C18.31 11.25 18.74 11.68 19.27 11.68C19.8 11.68 20.23 11.25 20.23 10.72C20.23 10.19 19.8 9.77 19.27 9.77ZM15 10.89C12.73 10.89 10.89 12.73 10.89 15C10.89 17.26 12.73 19.1 15 19.1C17.26 19.1 19.1 17.26 19.1 15C19.1 12.73 17.26 10.89 15 10.89ZM15 12.33C16.47 12.33 17.66 13.52 17.66 15C17.66 16.47 16.47 17.66 15 17.66C13.52 17.66 12.33 16.47 12.33 15C12.33 13.52 13.52 12.33 15 12.33Z" fill="#FFFFFF" fill-opacity="1.000000" fill-rule="evenodd"/>
</svg>
