<svg width="30.000000" height="30.000000" viewBox="0 0 30 30" fill="none" xmlns="http://www.w3.org/2000/svg" xmlns:xlink="http://www.w3.org/1999/xlink">
	<desc>
			Created with Pixso.
	</desc>
	<defs/>
	<rect width="30.000000" height="30.000000" fill="#FFFFFF" fill-opacity="0"/>
	<g opacity="0.100000">
		<path d="M0 15C0 6.71 6.71 0 15 0C23.28 0 30 6.71 30 15C30 23.28 23.28 30 15 30C6.71 30 0 23.28 0 15Z" fill="#FFFFFF" fill-opacity="1.000000" fill-rule="evenodd"/>
	</g>
	<path d="M21.25 9.84C21.93 10.03 22.48 10.58 22.66 11.29C23 12.57 23 15.25 23 15.25C23 15.25 23 17.92 22.66 19.2C22.48 19.91 21.93 20.46 21.25 20.65C20 21 15 21 15 21C15 21 9.99 21 8.74 20.65C8.06 20.46 7.51 19.91 7.33 19.2C7 17.92 7 15.25 7 15.25C7 15.25 7 12.57 7.33 11.29C7.51 10.58 8.06 10.03 8.74 9.84C9.99 9.5 15 9.5 15 9.5C15 9.5 20 9.5 21.25 9.84ZM13.5 13L13.5 18L17.5 15.5L13.5 13Z" fill="#FFFFFF" fill-opacity="1.000000" fill-rule="evenodd"/>
</svg>
