<svg width="14.000000" height="20.000000" viewBox="0 0 14 20" fill="none" xmlns="http://www.w3.org/2000/svg" xmlns:xlink="http://www.w3.org/1999/xlink">
	<desc>
			Created with Pixso.
	</desc>
	<defs/>
	<path id="Mobile" d="M0.0336914 5.88818C0.0253906 6.83008 0.00830078 7.7627 0.00830078 8.69482L0 10.167C0 11.5015 0.0170898 12.8164 0.0336914 14.1021C0.0336914 17.5171 2.16553 20 5.10938 20L8.89062 20C11.8345 20 13.9663 17.5171 13.9663 14.1118C13.9917 12.7476 14 11.3643 14 9.99023C14 8.61621 13.9917 7.25244 13.9663 5.88818C13.9663 2.48291 11.8345 0 8.89062 0L5.10938 0C2.16553 0 0.0336914 2.48291 0.0336914 5.88818ZM2.02393 5.82764C2.01807 6.43994 2.00586 7.0459 2.00586 7.65186L2 8.60889C2 9.47607 2.01221 10.3311 2.02393 11.1665C2.02393 13.3862 3.54688 15 5.64941 15L8.35059 15C10.4531 15 11.9756 13.3862 11.9756 11.1729C11.9941 10.2861 12 9.38672 12 8.49365C12 7.60107 11.9941 6.71436 11.9756 5.82764C11.9756 3.61426 10.4531 2 8.35059 2L5.64941 2C3.54688 2 2.02393 3.61426 2.02393 5.82764ZM8.27979 17.6401L8.27979 17.8003C8.27979 18.4736 7.7168 19 7 19C6.30029 19 5.72021 18.4736 5.72021 17.8003L5.72021 17.6401C5.72021 16.9844 6.30029 16.4404 7 16.4404C7.7168 16.4404 8.27979 16.9844 8.27979 17.6401Z" clip-rule="evenodd" fill="#C2E6EA" fill-opacity="1.000000" fill-rule="evenodd"/>
</svg>
