<svg width="30.000000" height="30.000000" viewBox="0 0 30 30" fill="none" xmlns="http://www.w3.org/2000/svg" xmlns:xlink="http://www.w3.org/1999/xlink">
	<desc>
			Created with Pixso.
	</desc>
	<defs/>
	<rect width="30.000000" height="30.000000" fill="#FFFFFF" fill-opacity="0"/>
	<g opacity="0.100000">
		<path d="M0 15C0 6.71 6.71 0 15 0C23.28 0 30 6.71 30 15C30 23.28 23.28 30 15 30C6.71 30 0 23.28 0 15Z" fill="#FFFFFF" fill-opacity="1.000000" fill-rule="evenodd"/>
	</g>
	<path d="M14.55 12.19L14.58 12.71L14.05 12.64C12.14 12.4 10.48 11.57 9.06 10.19L8.37 9.5L8.19 10.01C7.81 11.14 8.05 12.34 8.84 13.14C9.26 13.59 9.16 13.65 8.44 13.38C8.19 13.3 7.97 13.24 7.95 13.27C7.87 13.34 8.12 14.31 8.32 14.69C8.6 15.22 9.15 15.74 9.76 16.04L10.28 16.29L9.67 16.3C9.08 16.3 9.06 16.31 9.12 16.53C9.33 17.22 10.16 17.95 11.08 18.27L11.73 18.49L11.17 18.83C10.33 19.32 9.34 19.59 8.36 19.61C7.88 19.62 7.5 19.67 7.5 19.7C7.5 19.8 8.78 20.4 9.52 20.63C11.75 21.32 14.41 21.02 16.4 19.85C17.82 19.01 19.24 17.35 19.9 15.74C20.25 14.88 20.61 13.31 20.61 12.56C20.61 12.07 20.64 12.01 21.23 11.42C21.58 11.09 21.9 10.71 21.96 10.61C22.07 10.41 22.06 10.41 21.52 10.59C20.63 10.91 20.51 10.86 20.95 10.39C21.27 10.05 21.66 9.43 21.66 9.25C21.66 9.22 21.5 9.27 21.32 9.37C21.13 9.48 20.72 9.63 20.4 9.73L19.83 9.91L19.32 9.56C19.04 9.37 18.64 9.16 18.43 9.09C17.89 8.95 17.07 8.97 16.59 9.14C15.28 9.61 14.45 10.84 14.55 12.19Z" fill="#FFFFFF" fill-opacity="1.000000" fill-rule="evenodd"/>
</svg>
