<svg width="24.000000" height="24.000000" viewBox="0 0 24 24" fill="none" xmlns="http://www.w3.org/2000/svg" xmlns:xlink="http://www.w3.org/1999/xlink">
	<desc>
			Created with Pixso.
	</desc>
	<defs/>
	<rect width="24.000000" height="24.000000" fill="#FFFFFF" fill-opacity="0"/>
	<path d="M12.0298 2C14.29 2.01025 16.4502 2.91016 18.0298 4.49023C19.6201 6.08008 20.5098 8.22998 20.5 10.46L20.5 10.5103C20.4399 13.54 18.7402 16.3301 16.6201 18.5103C15.4199 19.7402 14.0898 20.8301 12.6401 21.75C12.25 22.0801 11.6802 22.0801 11.29 21.75C9.14014 20.3501 7.24023 18.5898 5.7002 16.54C4.3501 14.7603 3.58008 12.6201 3.5 10.3901C3.52002 5.74023 7.33984 1.99023 12.0298 2ZM12.0298 13.2603C12.7402 13.2603 13.4199 12.9902 13.9199 12.5C14.4399 11.9902 14.731 11.311 14.731 10.6001C14.731 9.12012 13.52 7.93018 12.0298 7.93018C10.54 7.93018 9.33984 9.12012 9.33984 10.6001C9.33984 12.061 10.52 13.2402 12 13.2603L12.0298 13.2603Z" clip-rule="evenodd" fill="#C2E6EA" fill-opacity="1.000000" fill-rule="evenodd"/>
</svg>
