<svg width="133.000000" height="27.000000" viewBox="0 0 133 27" fill="none" xmlns="http://www.w3.org/2000/svg" xmlns:xlink="http://www.w3.org/1999/xlink">
	<desc>
			Created with Pixso.
	</desc>
	<defs/>
	<path id="Arrow 1" d="M125.17 11L117.27 3.1C116.48 2.3 116.48 1.06 117.27 0.27C118.06 -0.52 119.3 -0.52 120.1 0.27L131.41 11.58C132.2 12.37 132.2 13.62 131.41 14.41L120.1 25.72C119.3 26.51 118.06 26.51 117.27 25.72C116.48 24.93 116.48 23.69 117.27 22.89L125.17 15L124.58 15L124.58 11L125.17 11ZM5.41 11L0 11L0 15L5.41 15L5.41 11ZM27.08 11L16.25 11L16.25 15L27.08 15L27.08 11ZM48.75 11L37.91 11L37.91 15L48.75 15L48.75 11ZM70.41 11L59.58 11L59.58 15L70.41 15L70.41 11ZM92.08 11L81.25 11L81.25 15L92.08 15L92.08 11ZM113.75 11L102.91 11L102.91 15L113.75 15L113.75 11Z" fill="#C2E6EA" fill-opacity="1.000000" fill-rule="evenodd"/>
</svg>
