<svg width="51.000000" height="46.000000" viewBox="0 0 51 46" fill="none" xmlns="http://www.w3.org/2000/svg" xmlns:xlink="http://www.w3.org/1999/xlink">
	<desc>
			Created with Pixso.
	</desc>
	<defs/>
	<path d="M20.4 46L20.4 23.93L10.92 23.93C10.92 20.39 11.59 17.43 12.93 15.04C14.27 12.56 16.76 10.7 20.4 9.45L20.4 0C17.43 0.38 14.66 1.28 12.07 2.72C9.58 4.06 7.43 5.77 5.61 7.88C3.79 9.98 2.35 12.41 1.3 15.18C0.34 17.96 -0.09 20.92 0.01 24.07L0.01 46L20.4 46ZM51 46L51 23.93L41.52 23.93C41.52 20.39 42.19 17.43 43.53 15.04C44.87 12.56 47.36 10.7 51 9.45L51 0C48.03 0.38 45.25 1.28 42.66 2.72C40.18 4.06 38.02 5.77 36.2 7.88C34.38 9.98 32.95 12.41 31.89 15.18C30.94 17.96 30.5 20.92 30.6 24.07L30.6 46L51 46Z" fill="#C2E6EA" fill-opacity="1.000000" fill-rule="nonzero"/>
</svg>
