<svg width="201.000000" height="201.000000" viewBox="0 0 201 201" fill="none" xmlns="http://www.w3.org/2000/svg" xmlns:xlink="http://www.w3.org/1999/xlink">
	<desc>
			Created with Pixso.
	</desc>
	<defs>
		<clipPath id="clip22_10351">
			<rect width="181.000000" height="172.000000" transform="translate(4.000000 1.000000)" fill="white" fill-opacity="0"/>
		</clipPath>
	</defs>
	<g opacity="0.500000">
		<path d="M200.18 53.6L53.6 200.18L-0.05 -0.05L200.18 53.6Z" fill="#C2E6EA" fill-opacity="1.000000" fill-rule="evenodd"/>
	</g>
	<rect width="181.000000" height="172.000000" transform="translate(4.000000 1.000000)" fill="#FFFFFF" fill-opacity="0"/>
	<g clip-path="url(#clip22_10351)">
		<path d="M152.06 111.73L150.53 112.34C150.08 111.88 149.62 111.42 148.86 110.97C148.7 110.81 148.55 110.81 148.4 110.66C148.55 110.35 148.55 109.89 148.55 109.74C148.4 109.28 145.04 106.98 143.82 106.37C142.76 105.76 137.57 105.6 137.57 105.6L131.93 109.74L132.85 110.2C132.54 110.35 132.24 110.51 131.93 110.66C131.32 110.97 130.86 111.27 130.41 111.58L127.97 111.58L127.97 115.87C127.97 117.55 129.03 119.08 131.17 120.46C135.59 123.22 143.37 123.37 148.25 120.77C150.84 119.39 152.06 117.55 152.21 115.71L152.06 111.73ZM137.42 117.09L134.37 113.88C134.67 113.57 135.13 113.26 135.59 112.96C138.18 111.58 142.45 111.58 144.89 113.11C145.65 113.57 146.11 114.18 146.42 114.64L137.42 117.09Z" fill="#FFFFFF" fill-opacity="1.000000" fill-rule="nonzero"/>
		<path d="M139.71 123.22C136.35 123.22 133.15 122.45 130.71 120.92C128.73 119.7 127.51 118.01 127.36 116.17L127.36 116.02L127.36 111.12L130.1 111.12C130.56 110.81 131.02 110.51 131.47 110.2L131.63 110.2L131.02 109.74L137.57 105.15L137.72 105.15C138.33 105.15 143.06 105.45 144.28 105.91C144.28 105.91 149.01 108.67 149.16 109.59C149.16 109.74 149.16 109.89 149.16 110.35C149.16 110.35 149.31 110.35 149.31 110.51C149.92 110.81 150.38 111.27 150.84 111.58L152.67 110.81L152.67 115.87C152.52 117.86 150.99 119.7 148.55 121.07C145.96 122.61 142.76 123.22 139.71 123.22ZM128.42 116.02C128.42 117.55 129.49 119.08 131.32 120.15C135.74 122.91 143.06 122.91 147.94 120.46C150.23 119.24 151.6 117.55 151.6 115.87L151.6 115.56L151.6 112.5L150.38 112.8L150.08 112.5C149.62 112.04 149.16 111.58 148.55 111.27C148.4 111.27 148.4 111.12 148.25 111.12L147.79 110.81L147.94 110.35C148.09 109.74 148.09 109.59 148.09 109.59C147.79 109.28 144.89 107.29 143.67 106.68C142.91 106.37 139.71 106.06 137.72 105.91L132.69 109.43L133.76 110.05L132.85 110.51C132.54 110.66 132.24 110.81 131.93 110.97C131.47 111.27 130.86 111.58 130.56 111.88L130.41 112.04L128.27 112.04L128.27 116.02L128.42 116.02ZM137.27 117.55L133.61 113.88L133.91 113.57C134.22 113.26 134.67 112.8 135.28 112.65C138.03 111.12 142.45 111.27 145.04 112.8C145.81 113.26 146.42 113.88 146.72 114.64L147.03 115.25L137.27 117.55ZM134.98 113.88L137.42 116.48L145.35 114.49C145.04 114.18 144.74 113.88 144.43 113.57C142.15 112.19 138.18 112.04 135.74 113.42C135.44 113.57 135.28 113.72 134.98 113.88Z" fill="#2F2D4F" fill-opacity="1.000000" fill-rule="nonzero"/>
		<path d="M148.09 116.79C143.21 119.39 135.44 119.39 131.02 116.48C126.59 113.72 126.9 109.28 131.78 106.52C136.66 103.92 144.43 103.92 148.86 106.83C153.43 109.74 152.97 114.18 148.09 116.79ZM135.59 108.97C132.85 110.35 132.69 112.8 135.13 114.33C137.57 115.87 141.69 115.87 144.43 114.49C147.03 113.11 147.33 110.66 144.89 109.13C142.3 107.6 138.18 107.44 135.59 108.97Z" fill="#FFFFFF" fill-opacity="1.000000" fill-rule="nonzero"/>
		<path d="M149.01 108.21C144.59 105.45 136.81 105.3 131.93 107.9C130.1 108.82 129.03 110.05 128.42 111.27L128.42 114.95C128.88 116.02 129.8 116.94 131.17 117.86C135.59 120.61 143.37 120.77 148.25 118.16C153.13 115.41 153.43 111.12 149.01 108.21ZM144.43 115.87C141.84 117.24 137.57 117.24 135.13 115.71C132.69 114.18 132.85 111.73 135.59 110.35C138.18 108.97 142.45 108.97 144.89 110.51C147.33 112.04 147.03 114.33 144.43 115.87Z" fill="#C2E6EA" fill-opacity="1.000000" fill-rule="nonzero"/>
		<path d="M139.71 119.24C136.35 119.24 133.15 118.47 130.71 116.94C128.42 115.56 127.2 113.72 127.36 111.73C127.36 109.59 128.88 107.6 131.63 106.22C136.66 103.46 144.59 103.61 149.16 106.52C151.45 107.9 152.67 109.74 152.52 111.73C152.52 113.88 150.99 115.87 148.25 117.24C145.96 118.47 142.76 119.24 139.71 119.24ZM140.16 105.15C137.27 105.15 134.37 105.76 132.08 106.98C129.8 108.21 128.42 109.89 128.42 111.58C128.42 113.11 129.34 114.79 131.32 115.87C135.74 118.62 143.06 118.62 147.94 116.17C150.23 114.95 151.6 113.26 151.6 111.58C151.6 109.89 150.69 108.36 148.7 107.29C146.42 105.91 143.21 105.15 140.16 105.15ZM139.86 116.02C138.03 116.02 136.2 115.56 134.83 114.79C133.61 114.03 132.85 112.96 132.85 111.73C132.85 110.51 133.76 109.43 135.28 108.51C138.03 106.98 142.45 107.14 145.04 108.67C146.26 109.43 147.03 110.51 147.03 111.73C147.03 112.96 146.11 114.03 144.59 114.95C143.21 115.56 141.54 116.02 139.86 116.02ZM140.01 108.36C138.49 108.36 136.96 108.67 135.74 109.28C134.52 109.89 133.91 110.81 133.91 111.58C133.91 112.34 134.37 113.11 135.44 113.72C137.72 115.1 141.69 115.25 144.13 113.88C145.35 113.26 145.96 112.34 145.96 111.58C145.96 110.81 145.5 110.05 144.43 109.43C143.37 108.82 141.69 108.36 140.01 108.36Z" fill="#2F2D4F" fill-opacity="1.000000" fill-rule="nonzero"/>
		<path d="M140.93 108.21L140.93 112.04L135.59 112.8L134.52 113.57L133.46 112.04L134.67 109.28L139.25 108.21L140.93 108.21Z" fill="#2F2D4F" fill-opacity="1.000000" fill-rule="nonzero"/>
		<path d="M137.57 118.47L137.57 122.76L146.26 121.99L151.45 118.16L152.21 113.42L151.14 114.18L148.09 116.79L143.06 118.62L137.57 118.47Z" fill="#2F2D4F" fill-opacity="1.000000" fill-rule="nonzero"/>
		<path d="M178.44 36.99L119.43 2.68C118.05 1.91 116.68 1.76 115.77 2.22C115.61 2.22 115.46 2.37 115.31 2.53L103.87 9.27C103.57 9.42 103.72 9.73 103.87 9.88L109.52 12.33L113.78 18.3L113.78 43.73C113.78 47.25 116.22 58.74 119.27 60.57L130.25 66.85C131.47 67.62 132.39 69.3 132.39 70.68L132.39 78.19C132.39 79.87 134.22 81.86 135.13 81.25L143.37 76.66C144.59 76.04 146.11 76.2 147.79 77.12L153.58 80.49L169.59 102.69L182.56 95.19L182.71 95.04C183.62 94.42 183.93 93.35 183.93 91.67L183.93 46.79C184.08 43.11 181.49 38.83 178.44 36.99Z" fill="#FFFFFF" fill-opacity="1.000000" fill-rule="nonzero"/>
		<path d="M165.63 45.87L175.54 40.05L119.43 7.58C118.05 6.82 116.68 6.66 115.77 7.12C115.61 7.12 115.46 7.27 115.31 7.43L106.77 12.48L109.52 13.71L113.78 19.68L113.78 45.11C113.78 45.41 113.78 45.72 113.78 45.87L135.89 58.89L165.63 45.87Z" fill="#C2E6EA" fill-opacity="1.000000" fill-rule="nonzero"/>
		<path d="M179.05 36.22L119.88 1.91C118.21 1 116.53 0.69 115.31 1.45C115.16 1.61 114.85 1.61 114.85 1.76L103.42 8.5C102.96 8.81 102.81 9.11 102.81 9.73L102.65 9.73L102.81 9.73C102.81 10.18 103.11 10.64 103.57 10.8L109.06 13.25L113.02 18.76L113.02 43.88C113.02 47.71 115.77 59.66 119.12 61.49L130.1 67.77C131.02 68.23 131.78 69.61 131.78 70.68L131.78 78.19C131.78 79.87 132.85 81.4 133.91 82.02C134.67 82.48 135.44 82.48 136.05 82.17L144.28 77.58C145.2 77.12 146.42 77.27 147.64 78.04L153.28 81.25L169.14 103.31L169.59 104.07L183.47 95.96L183.62 95.8C184.69 94.88 185.3 93.66 185.3 91.67L185.3 46.79C185 42.81 182.25 38.06 179.05 36.22ZM171.58 53.38L153.89 79.41L148.4 76.2C146.42 75.12 144.43 74.97 143.06 75.74L134.98 80.33C134.98 80.33 134.83 80.33 134.83 80.18C134.22 79.87 133.61 78.95 133.61 78.19L133.61 70.68C133.61 69 132.39 66.85 130.86 66.09L119.88 59.66C117.14 57.97 114.85 46.94 114.85 43.73L114.85 18L110.28 11.56L105.55 9.42L115.92 3.29C116.07 3.29 116.07 3.14 116.22 3.14C116.99 2.83 117.9 2.99 118.97 3.6L177.98 37.91C180.73 39.44 182.86 43.27 183.01 46.33L171.58 53.38Z" fill="#2F2D4F" fill-opacity="1.000000" fill-rule="nonzero"/>
		<path d="M107.23 9.88L166.24 44.19C169.29 46.02 171.73 50.31 171.73 53.84L171.73 98.71C171.73 102.24 169.29 103.77 166.24 101.93L135.74 84.31C134.07 83.4 132.54 83.24 131.32 83.86L123.09 88.45C122.02 89.06 120.34 87.22 120.34 85.39L120.34 77.88C120.34 76.5 119.43 74.82 118.21 74.05L107.23 67.77C104.18 65.94 101.74 61.65 101.74 58.12L101.74 13.09C101.59 9.57 104.18 8.19 107.23 9.88Z" fill="#FFFFFF" fill-opacity="1.000000" fill-rule="nonzero"/>
		<path d="M166.85 43.27L107.69 9.11C105.86 8.04 104.18 7.89 102.81 8.65C101.43 9.42 100.67 11.1 100.67 13.09L100.67 57.97C100.67 61.8 103.42 66.55 106.77 68.54L117.75 74.82C118.66 75.28 119.43 76.66 119.43 77.73L119.43 85.23C119.43 86.92 120.49 88.45 121.56 89.06C122.32 89.52 123.09 89.52 123.7 89.22L131.93 84.62C132.85 84.16 134.07 84.31 135.28 85.08L165.93 102.85C167 103.46 167.92 103.77 168.83 103.77C169.59 103.77 170.2 103.61 170.81 103.31C172.19 102.54 172.95 100.86 172.95 98.87L172.95 53.84C172.8 50.01 170.2 45.26 166.85 43.27ZM166.85 101.16L136.2 83.4C135.13 82.78 133.91 82.48 133 82.48C132.24 82.48 131.47 82.63 130.86 83.09L122.78 87.68C122.78 87.68 122.63 87.68 122.63 87.53C122.02 87.22 121.41 86.31 121.41 85.54L121.41 78.04C121.41 76.2 120.19 74.21 118.66 73.44L107.69 66.85C104.94 65.17 102.65 61.19 102.65 57.97L102.65 13.09C102.65 11.72 103.11 10.8 103.87 10.34C104.64 9.88 105.7 10.03 106.77 10.8L165.78 45.11C168.53 46.79 170.81 50.77 170.81 53.99L170.81 98.87C170.81 100.24 170.36 101.16 169.59 101.62C168.98 101.93 167.92 101.78 166.85 101.16Z" fill="#2F2D4F" fill-opacity="1.000000" fill-rule="nonzero"/>
		<path d="M140.16 76.5L136.05 74.21C134.98 73.59 134.22 72.06 134.22 70.68L134.22 43.57C134.22 42.2 134.98 41.58 136.05 42.2L140.16 44.49C141.23 45.11 142 46.64 142 48.02L142 75.13C142 76.5 141.08 77.12 140.16 76.5Z" fill="#C2E6EA" fill-opacity="1.000000" fill-rule="nonzero"/>
		<path d="M138.79 73.29C138.34 73.29 138.03 73.13 137.57 72.98L133.46 70.68C132.08 69.92 131.17 68.08 131.17 66.39L131.17 39.29C131.17 38.21 131.63 37.45 132.24 36.99C132.85 36.68 133.61 36.68 134.37 37.14L138.49 39.44C139.86 40.2 140.77 42.04 140.77 43.73L140.77 70.84C140.77 71.91 140.32 72.67 139.71 73.13C139.4 73.29 139.1 73.29 138.79 73.29ZM133.3 38.52C133.3 38.52 133.15 38.67 133.15 39.29L133.15 66.39C133.15 67.47 133.76 68.69 134.52 69.15L138.64 71.45C138.79 71.6 138.95 71.6 138.95 71.6C138.95 71.6 139.1 71.45 139.1 70.84L139.1 43.73C139.1 42.65 138.49 41.43 137.72 40.97L133.61 38.67C133.3 38.67 133.3 38.52 133.3 38.52Z" fill="#2F2D4F" fill-opacity="1.000000" fill-rule="nonzero"/>
		<path d="M151.6 83.24L146.87 80.49C146.11 80.03 145.35 78.8 145.35 77.58L145.35 59.96C145.35 58.89 145.96 58.43 146.87 58.89L151.6 61.65C152.36 62.11 153.13 63.33 153.13 64.56L153.13 82.17C152.97 83.09 152.36 83.7 151.6 83.24Z" fill="#C2E6EA" fill-opacity="1.000000" fill-rule="nonzero"/>
		<path d="M150.08 79.87C149.77 79.87 149.31 79.72 149.01 79.57L144.28 76.96C143.21 76.35 142.3 74.82 142.3 73.29L142.3 55.67C142.3 54.75 142.6 53.99 143.21 53.68C143.82 53.38 144.43 53.38 145.04 53.84L149.77 56.59C150.84 57.21 151.75 58.74 151.75 60.27L151.75 77.88C151.75 78.8 151.45 79.57 150.84 79.87C150.53 79.87 150.38 79.87 150.08 79.87ZM149.92 78.04C150.08 78.04 150.08 77.88 150.08 77.73L150.08 60.12C150.08 59.35 149.47 58.28 149.01 57.97L144.28 55.37C144.28 55.37 144.13 55.37 144.13 55.67L144.13 73.29C144.13 74.05 144.74 75.12 145.2 75.43L149.92 78.04Z" fill="#2F2D4F" fill-opacity="1.000000" fill-rule="nonzero"/>
		<path d="M129.95 70.53L124.76 67.62C124 67.16 123.54 66.09 123.54 65.17L123.54 58.28C123.54 57.36 124.15 56.9 124.76 57.36L129.95 60.27C130.71 60.73 131.17 61.8 131.17 62.72L131.17 69.61C131.17 70.53 130.56 70.99 129.95 70.53Z" fill="#C2E6EA" fill-opacity="1.000000" fill-rule="nonzero"/>
		<path d="M128.27 67.31C127.97 67.31 127.66 67.16 127.36 67.01L122.17 64.1C121.26 63.48 120.49 62.11 120.49 60.88L120.49 53.99C120.49 53.22 120.8 52.46 121.41 52.15C121.87 51.84 122.63 51.84 123.09 52.15L128.27 55.06C129.19 55.67 129.95 57.05 129.95 58.28L129.95 65.32C129.95 66.09 129.64 66.85 129.03 67.16C128.88 67.16 128.58 67.31 128.27 67.31ZM122.32 53.84L122.32 60.88C122.32 61.49 122.78 62.41 123.09 62.57L128.12 65.48L128.12 65.32L128.12 58.43C128.12 57.82 127.66 56.9 127.36 56.75L122.32 53.84Z" fill="#2F2D4F" fill-opacity="1.000000" fill-rule="nonzero"/>
		<path d="M168.83 39.13C169.44 39.44 169.44 40.05 168.83 40.51C168.22 40.82 167.15 40.82 166.54 40.51C165.93 40.2 165.93 39.59 166.54 39.13C167 38.83 168.07 38.83 168.83 39.13Z" fill="#2F2D4F" fill-opacity="1.000000" fill-rule="nonzero"/>
		<path d="M162.58 35.61C163.19 35.92 163.19 36.53 162.58 36.99C161.97 37.29 160.9 37.29 160.29 36.99C159.68 36.68 159.68 36.07 160.29 35.61C160.9 35.3 161.97 35.3 162.58 35.61Z" fill="#2F2D4F" fill-opacity="1.000000" fill-rule="nonzero"/>
		<path d="M156.48 32.09C157.09 32.39 157.09 33.01 156.48 33.47C155.87 33.77 154.8 33.77 154.19 33.47C153.58 33.16 153.58 32.55 154.19 32.09C154.8 31.78 155.87 31.78 156.48 32.09Z" fill="#2F2D4F" fill-opacity="1.000000" fill-rule="nonzero"/>
		<path d="M150.38 28.56C150.99 28.87 150.99 29.48 150.38 29.94C149.77 30.25 148.7 30.25 148.09 29.94C147.48 29.64 147.48 29.02 148.09 28.56C148.7 28.1 149.77 28.1 150.38 28.56Z" fill="#2F2D4F" fill-opacity="1.000000" fill-rule="nonzero"/>
		<path d="M23.97 114.03L18.94 116.94C17.11 118.01 17.11 120.77 18.94 121.69L39.98 133.63C41.35 134.4 41.35 136.39 39.98 137.16L30.99 142.36C28.85 143.59 28.85 146.5 30.99 147.72L47.61 157.37C50.81 159.21 54.93 159.21 58.13 157.37L68.8 151.25L104.64 171.92C106.47 173 108.75 173 110.58 171.92L112.41 170.85C114.09 169.93 114.09 167.63 112.41 166.72L26.87 118.01L23.97 114.03Z" fill="#2F2D4F" fill-opacity="1.000000" fill-rule="nonzero"/>
		<path d="M104.94 80.95L12.99 28.26C11.77 27.65 10.86 27.65 10.09 28.26L5.52 31.01L8.87 35.76L8.87 107.29C8.87 110.35 10.7 113.72 12.99 115.1L98.69 164.27L103.11 170.54L107.38 167.94C108.3 167.48 108.91 166.26 108.91 164.57L108.91 88.76C109.06 85.69 107.23 82.17 104.94 80.95Z" fill="#FFFFFF" fill-opacity="1.000000" fill-rule="nonzero"/>
		<path d="M83.14 77.12L6.74 34.23L5.52 31.47L8.87 29.48C9.64 28.87 10.7 28.87 11.77 29.48L103.57 82.17C104.79 82.94 106.01 84.31 106.77 85.85L106.92 86.31L101.59 89.52L83.14 77.12Z" fill="#F2F3F3" fill-opacity="1.000000" fill-rule="nonzero"/>
		<path d="M107.69 88.91L102.65 91.97L103.11 93.81L107.69 91.05L107.69 88.91Z" fill="#FFFFFF" fill-opacity="1.000000" fill-rule="nonzero"/>
		<path d="M9.79 27.95C10.7 27.19 11.92 27.19 13.14 27.95L104.94 80.64C107.38 82.02 109.21 85.69 109.21 88.76L109.21 164.57C109.21 166.41 108.6 167.79 107.53 168.25L102.96 171L98.38 164.42L12.69 115.41C10.4 114.03 8.57 110.35 8.57 107.29L8.57 35.92L5.06 30.86L9.79 27.95ZM9.33 35.61L9.33 107.29C9.33 110.2 11.01 113.42 13.14 114.64L98.84 163.81L103.11 169.93L104.03 169.32L104.18 167.94L107.53 165.8C107.99 165.49 108.3 165.03 108.3 164.42L108.3 88.76C108.3 85.85 106.62 82.63 104.48 81.4L12.84 28.72C11.92 28.1 11.01 28.1 10.4 28.72L6.28 31.17L9.33 35.61Z" fill="#2F2D4F" fill-opacity="1.000000" fill-rule="nonzero"/>
		<path d="M35.41 145.58L54.01 135.01C55.84 133.94 58.89 134.09 60.87 135.32L72.16 141.75L77.49 144.2L77.49 146.5C77.34 147.11 76.88 147.72 76.12 148.18L53.25 161.36C52.49 161.81 51.42 162.12 50.2 162.12C48.83 162.12 47.45 161.81 46.39 161.2L31.44 152.47C30.37 151.86 29.77 151.09 29.61 150.02C29.61 149.87 29.61 149.87 29.61 149.87L29.61 147.88L35.41 145.58Z" fill="#2F2D4F" fill-opacity="1.000000" fill-rule="nonzero"/>
		<path d="M75.97 145.89L53.1 159.06C51.42 159.98 48.52 159.82 46.69 158.75L31.75 150.17C29.77 149.1 29.61 147.42 31.29 146.5L54.16 133.33C55.84 132.41 58.74 132.56 60.57 133.63L75.51 142.21C77.49 143.28 77.65 144.97 75.97 145.89Z" fill="#FFFFFF" fill-opacity="1.000000" fill-rule="nonzero"/>
		<path d="M33.73 148.49L39.98 144.81C41.96 143.59 44.56 143.59 46.54 144.81L62.09 153.85L52.64 159.21C50.96 160.13 48.06 159.98 46.23 158.9L34.19 152.32C32.36 151.09 32.05 149.41 33.73 148.49Z" fill="#F2F3F3" fill-opacity="1.000000" fill-rule="nonzero"/>
		<path d="M50.2 160.13C51.27 160.13 52.33 159.82 53.25 159.36L76.12 146.19C77.04 145.73 77.49 144.97 77.49 144.2C77.49 143.28 76.88 142.36 75.66 141.75L60.72 133.17C58.58 131.95 55.69 131.95 53.86 132.87L30.99 146.04C30.07 146.5 29.61 147.26 29.61 148.03C29.61 148.95 30.22 149.87 31.44 150.48L46.39 159.06C47.45 159.82 48.98 160.13 50.2 160.13ZM75.82 145.58L52.94 158.75C51.42 159.67 48.67 159.52 46.84 158.45L31.9 149.87C30.99 149.41 30.53 148.8 30.53 148.18C30.53 147.57 30.99 147.26 31.44 146.96L54.32 133.79C55.84 132.87 58.58 133.02 60.41 134.09L75.36 142.67C76.27 143.13 76.73 143.74 76.73 144.35C76.73 144.97 76.27 145.27 75.82 145.58Z" fill="#2F2D4F" fill-opacity="1.000000" fill-rule="nonzero"/>
		<path d="M5.67 30.4C6.59 29.94 7.65 29.94 8.87 30.56L100.67 83.24C103.11 84.62 104.94 88.3 104.94 91.36L104.94 167.18C104.94 168.86 104.33 169.63 103.72 169.93C103.42 170.09 102.96 170.24 102.35 170.24C101.59 170.24 100.67 169.93 99.76 169.47L8.26 118.01C5.98 116.79 4 113.11 4 110.05L4 34.08C4 32.39 4.6 31.01 5.67 30.4Z" fill="#2F2D4F" fill-opacity="1.000000" fill-rule="nonzero"/>
		<path d="M4.45 101.16L4.45 110.35C4.45 113.11 6.43 116.48 8.87 117.86L100.06 170.24C102.5 171.62 104.48 170.55 104.48 167.79L104.48 158.6L4.45 101.16Z" fill="#F2F3F3" fill-opacity="1.000000" fill-rule="nonzero"/>
		<path d="M102.04 171.16C102.5 171.16 102.96 171 103.42 170.85C104.33 170.24 104.94 169.17 104.94 167.63L104.94 158.14L104.79 157.99L4 100.4L4 110.35C4 113.26 6.13 116.79 8.57 118.32L99.76 170.54C100.67 171 101.43 171.16 102.04 171.16ZM104.03 158.75L104.03 167.63C104.03 168.86 103.72 169.63 102.96 170.09C102.2 170.54 101.28 170.39 100.21 169.78L9.03 117.55C6.74 116.17 4.91 112.96 4.91 110.35L4.91 101.93L104.03 158.75Z" fill="#2F2D4F" fill-opacity="1.000000" fill-rule="nonzero"/>
		<path d="M98.54 149.25L10.4 98.71C9.64 98.25 9.03 97.03 9.03 95.96L9.03 38.21C9.03 37.14 9.64 36.68 10.4 37.14L98.54 87.68C99.3 88.14 99.91 89.37 99.91 90.44L99.91 148.34C99.91 149.25 99.3 149.72 98.54 149.25Z" fill="#C2E6EA" fill-opacity="1.000000" fill-rule="nonzero"/>
		<path d="M16.65 48.32C15.89 47.86 15.28 48.32 15.28 49.39L15.28 101.78L98.54 149.41C99.3 149.87 99.91 149.41 99.91 148.34L99.91 95.96L16.65 48.32Z" fill="#FFFFFF" fill-opacity="1.000000" fill-rule="nonzero"/>
		<path d="M99.15 149.87C99.3 149.87 99.6 149.87 99.76 149.71C100.21 149.41 100.52 148.95 100.52 148.18L100.52 90.29C100.52 89.06 99.76 87.68 98.84 87.22L10.7 36.68C10.25 36.38 9.79 36.38 9.33 36.68C8.87 36.99 8.57 37.45 8.57 38.21L8.57 96.11C8.57 97.33 9.33 98.71 10.25 99.17L98.38 149.71C98.54 149.87 98.84 149.87 99.15 149.87ZM9.79 37.29C9.94 37.29 10.09 37.29 10.09 37.45L98.23 87.99C98.84 88.3 99.45 89.52 99.45 90.29L99.45 148.18C99.45 148.49 99.3 148.8 99.15 148.95C98.99 149.1 98.69 148.95 98.69 148.95L10.55 98.41C9.94 98.1 9.33 96.87 9.33 96.11L9.33 38.21C9.33 37.91 9.48 37.6 9.64 37.45C9.79 37.29 9.79 37.29 9.79 37.29Z" fill="#2F2D4F" fill-opacity="1.000000" fill-rule="nonzero"/>
		<path d="M73.99 117.7L32.51 93.81C27.48 90.9 23.36 83.09 23.36 76.35C23.36 69.61 27.48 66.55 32.51 69.46L73.83 93.5C78.87 96.41 82.98 104.23 82.98 110.97C82.98 117.55 79.02 120.61 73.99 117.7Z" fill="#C2E6EA" fill-opacity="1.000000" fill-rule="nonzero"/>
		<path d="M75.36 115.41C74.14 115.41 72.77 114.95 71.55 114.18L30.22 90.29C25.04 87.38 20.92 79.26 20.92 72.37C20.92 68.69 22.14 65.78 24.28 64.56C26.11 63.48 28.39 63.64 30.68 65.02L72 89.06C77.19 91.97 81.31 100.09 81.31 106.98C81.31 110.66 80.08 113.57 77.95 114.79C77.19 115.1 76.43 115.41 75.36 115.41ZM26.87 64.86C26.11 64.86 25.34 65.02 24.73 65.48C22.9 66.55 21.84 69 21.84 72.37C21.84 78.95 25.8 86.61 30.68 89.37L72 113.42C73.99 114.64 75.97 114.79 77.49 113.88C79.32 112.8 80.39 110.35 80.39 106.98C80.39 100.4 76.43 92.74 71.55 89.98L30.22 65.94C29 65.17 27.78 64.86 26.87 64.86Z" fill="#2F2D4F" fill-opacity="1.000000" fill-rule="nonzero"/>
		<path d="M76.27 111.12L76.27 125.67C76.27 126.28 76.88 126.89 77.19 126.74L79.17 125.82C79.48 125.67 79.93 125.97 79.93 126.59L81.76 132.71C81.91 133.33 82.52 133.79 82.83 133.79L84.35 133.79C84.81 133.79 84.96 133.33 84.81 132.71L82.98 126.59C82.83 126.13 82.98 125.82 83.44 125.97L86.03 127.2C86.49 127.51 86.79 126.89 86.34 126.28L77.19 111.27C76.88 110.66 76.27 110.66 76.27 111.12Z" fill="#FFFFFF" fill-opacity="1.000000" fill-rule="nonzero"/>
		<path d="M82.52 130.42L80.85 130.42C80.24 130.42 79.48 129.8 79.32 128.89L77.49 122.76C77.49 122.61 77.34 122.45 77.19 122.45L75.36 123.37C75.05 123.52 74.75 123.52 74.44 123.22C73.99 122.91 73.68 122.45 73.68 121.84L73.68 107.29C73.68 106.83 73.99 106.52 74.29 106.52C74.75 106.37 75.21 106.68 75.51 107.14L84.66 122.15C84.96 122.76 84.96 123.37 84.66 123.68C84.51 123.83 84.05 123.98 83.59 123.83L81.3 122.76L83.13 128.89C83.29 129.34 83.29 129.8 82.98 130.11C83.13 130.26 82.83 130.42 82.52 130.42ZM77.34 121.38C77.49 121.38 77.65 121.38 77.65 121.53C77.95 121.69 78.26 122.15 78.41 122.45L80.24 128.58C80.39 129.04 80.69 129.34 80.85 129.34L82.37 129.34C82.37 129.34 82.37 129.19 82.37 129.04L80.39 122.76C80.24 122.3 80.39 121.84 80.54 121.69C80.85 121.53 81.15 121.38 81.46 121.53L83.74 122.61L83.74 122.45L74.6 107.44L74.6 121.69C74.6 121.99 74.75 122.15 74.9 122.3L76.73 121.38C77.04 121.38 77.19 121.38 77.34 121.38Z" fill="#2F2D4F" fill-opacity="1.000000" fill-rule="nonzero"/>
		<path d="M56.3 152.17C56.91 152.47 56.91 152.93 56.3 153.24C55.69 153.54 54.93 153.54 54.32 153.24C53.71 152.93 53.71 152.47 54.32 152.17C54.93 151.86 55.84 151.86 56.3 152.17Z" fill="#2F2D4F" fill-opacity="1.000000" fill-rule="nonzero"/>
		<path d="M61.48 149.25C62.09 149.56 62.09 150.02 61.48 150.33C60.87 150.63 60.11 150.63 59.5 150.33C58.89 150.02 58.89 149.56 59.5 149.25C60.11 148.8 60.87 148.8 61.48 149.25Z" fill="#2F2D4F" fill-opacity="1.000000" fill-rule="nonzero"/>
		<path d="M51.57 149.71C51.57 150.14 50.96 150.48 50.2 150.48C49.44 150.48 48.83 150.14 48.83 149.71C48.83 149.29 49.44 148.95 50.2 148.95C50.96 148.95 51.57 149.29 51.57 149.71Z" fill="#2F2D4F" fill-opacity="1.000000" fill-rule="evenodd"/>
		<path d="M56.75 146.81C56.75 147.23 56.14 147.57 55.38 147.57C54.62 147.57 54.01 147.23 54.01 146.81C54.01 146.38 54.62 146.04 55.38 146.04C56.14 146.04 56.75 146.38 56.75 146.81Z" fill="#2F2D4F" fill-opacity="1.000000" fill-rule="evenodd"/>
		<path d="M46.08 146.19C46.69 146.5 46.69 146.96 46.08 147.26C45.47 147.57 44.71 147.57 44.1 147.26C43.49 146.96 43.49 146.5 44.1 146.19C44.56 145.89 45.47 145.89 46.08 146.19Z" fill="#2F2D4F" fill-opacity="1.000000" fill-rule="nonzero"/>
		<path d="M51.57 143.74C51.57 144.16 50.96 144.51 50.2 144.51C49.44 144.51 48.83 144.16 48.83 143.74C48.83 143.32 49.44 142.98 50.2 142.98C50.96 142.98 51.57 143.32 51.57 143.74Z" fill="#2F2D4F" fill-opacity="1.000000" fill-rule="evenodd"/>
		<path d="M41.2 143.74C41.2 144.16 40.59 144.51 39.83 144.51C39.07 144.51 38.46 144.16 38.46 143.74C38.46 143.32 39.07 142.98 39.83 142.98C40.59 142.98 41.2 143.32 41.2 143.74Z" fill="#2F2D4F" fill-opacity="1.000000" fill-rule="evenodd"/>
		<path d="M46.08 140.22C46.69 140.53 46.69 140.98 46.08 141.29C45.47 141.6 44.71 141.6 44.1 141.29C43.49 140.98 43.49 140.53 44.1 140.22C44.56 139.91 45.47 139.91 46.08 140.22Z" fill="#2F2D4F" fill-opacity="1.000000" fill-rule="nonzero"/>
	</g>
</svg>
