<svg width="200.000000" height="201.000000" viewBox="0 0 200 201" fill="none" xmlns="http://www.w3.org/2000/svg" xmlns:xlink="http://www.w3.org/1999/xlink">
	<desc>
			Created with Pixso.
	</desc>
	<defs/>
	<g opacity="0.500000">
		<path d="M199.97 53.6L53.39 200.18L-0.26 -0.05L199.97 53.6Z" fill="#C2E6EA" fill-opacity="1.000000" fill-rule="evenodd"/>
	</g>
	<path d="M26.93 127.05L32.03 106.74L50.36 96.68L39.97 90.67C36.56 90.76 32.97 91.89 29.19 94.05C25.79 96.03 22.77 98.56 20.22 101.76C17.76 104.77 15.77 108.34 14.45 112.19C13.13 116.05 12.47 120.09 12.47 124.23C12.47 130.8 13.89 135.03 16.63 136.91L27.49 143.31L27.11 136.07L26.93 127.05Z" fill="#F2F3F3" fill-opacity="1.000000" fill-rule="nonzero"/>
	<path d="M27.3 143.68L16.44 137.29C13.51 135.32 12 130.99 12 124.23C12 120.09 12.66 115.95 14.07 112.01C15.4 108.06 17.38 104.49 20.03 101.29C22.58 98.09 25.6 95.56 29.1 93.49C32.88 91.33 36.56 90.2 40.06 90.1L40.15 90.1L50.93 96.4L50.74 96.97L32.41 106.93L27.4 127.05L27.59 136.07L27.3 143.68ZM39.87 91.04C36.56 91.14 33.07 92.27 29.48 94.33C26.07 96.31 23.15 98.85 20.69 101.85C18.23 104.96 16.25 108.43 14.92 112.29C13.6 116.14 12.94 120.09 12.94 124.23C12.94 130.62 14.26 134.75 16.91 136.54L27.11 142.46L26.74 136.07L26.55 126.86L26.55 126.76L31.65 106.27L49.51 96.5L39.87 91.04Z" fill="#2F2D4F" fill-opacity="1.000000" fill-rule="nonzero"/>
	<path d="M41.48 134.38L48.85 124.41L38.45 118.3C37.04 119.81 35.52 121.22 34.11 122.53C32.69 123.85 31.18 124.98 29.67 125.82C28.53 126.48 27.59 126.86 26.64 126.95L32.03 132.97L33.26 135.5L41.48 134.38Z" fill="#F2F3F3" fill-opacity="1.000000" fill-rule="nonzero"/>
	<path d="M41.19 138.04L48.56 127.99L38.26 121.97C36.85 123.47 35.33 124.88 33.92 126.2C32.5 127.52 30.99 128.64 29.48 129.49C28.34 130.15 27.4 130.52 26.45 130.62L31.84 136.63L33.07 139.17L41.19 138.04Z" fill="#C2E6EA" fill-opacity="1.000000" fill-rule="nonzero"/>
	<path d="M33.07 136.07L31.74 133.25L25.79 126.67L26.64 126.58C27.49 126.48 28.44 126.11 29.48 125.45C30.99 124.6 32.41 123.47 33.82 122.25C35.24 120.94 36.75 119.53 38.17 118.02L38.45 117.74L49.32 124.04L49.32 124.41L41.76 134.66L33.07 136.07ZM27.49 127.33L32.5 132.87L33.63 135.13L41.19 134L48.19 124.51L38.55 118.87C37.13 120.28 35.81 121.69 34.39 122.91C32.97 124.23 31.37 125.35 29.85 126.29C29 126.76 28.25 127.14 27.49 127.33Z" fill="#2F2D4F" fill-opacity="1.000000" fill-rule="nonzero"/>
	<path d="M39.59 94.05C36.18 94.15 32.59 95.27 28.81 97.44C25.41 99.41 22.39 101.95 19.84 105.14C18.8 106.46 17.85 107.87 16.91 109.37L29.85 116.89L31.56 110.22L49.89 100.16L39.59 94.05Z" fill="#C2E6EA" fill-opacity="1.000000" fill-rule="nonzero"/>
	<path d="M15.02 113.13C14.64 113.98 14.36 114.73 14.07 115.58C13.6 116.99 13.41 118.21 13.13 120.37L26.74 128.17L27.4 126.86L28.81 121.12L15.02 113.13Z" fill="#C2E6EA" fill-opacity="1.000000" fill-rule="nonzero"/>
	<path d="M39.68 109.28C41.1 108.43 42.42 107.96 43.65 107.68C44.88 107.4 46.2 107.31 47.43 107.21L47.71 107.21L50.74 96.97L50.83 96.5L50.36 96.21C46.86 96.31 43.18 97.44 39.4 99.6C35.9 101.57 32.88 104.2 30.33 107.4C27.78 110.6 25.79 114.17 24.37 118.12C23.05 122.06 22.29 126.11 22.29 130.33C22.29 137.01 23.81 141.43 26.64 143.4C27.78 144.15 29.1 144.53 30.61 144.53C32.97 144.53 35.81 143.59 39.11 141.71C42.8 139.64 46.11 136.91 49.04 133.81L49.13 133.72L49.13 124.13L48.66 123.85L48.37 124.13C46.96 125.64 45.45 127.05 44.03 128.36C42.61 129.68 41.1 130.71 39.68 131.56C37.6 132.68 36.09 132.97 34.96 132.4C33.45 131.56 32.69 129.02 32.69 124.88C32.69 121.31 33.35 118.02 34.48 115.3C35.9 112.48 37.6 110.5 39.68 109.28Z" fill="#2F2D4F" fill-opacity="1.000000" fill-rule="nonzero"/>
	<path d="M26.26 112.19C26.55 112.38 26.55 112.66 26.26 112.85C25.98 113.04 25.41 113.04 25.13 112.85C24.85 112.66 24.85 112.38 25.13 112.19C25.41 112.01 25.89 112.01 26.26 112.19Z" fill="#2F2D4F" fill-opacity="1.000000" fill-rule="nonzero"/>
	<path d="M23.24 110.5C23.52 110.69 23.52 110.97 23.24 111.16C22.96 111.35 22.39 111.35 22.11 111.16C21.82 110.97 21.82 110.69 22.11 110.5C22.39 110.31 22.86 110.31 23.24 110.5Z" fill="#2F2D4F" fill-opacity="1.000000" fill-rule="nonzero"/>
	<path d="M26.17 108.72C26.45 108.9 26.45 109.19 26.17 109.37C25.89 109.56 25.32 109.56 25.04 109.37C24.75 109.19 24.75 108.9 25.04 108.72C25.41 108.53 25.89 108.53 26.17 108.72Z" fill="#2F2D4F" fill-opacity="1.000000" fill-rule="nonzero"/>
	<path d="M29.19 107.02C29.48 107.21 29.48 107.49 29.19 107.68C28.91 107.87 28.34 107.87 28.06 107.68C27.78 107.49 27.78 107.21 28.06 107.02C28.34 106.84 28.91 106.84 29.19 107.02Z" fill="#2F2D4F" fill-opacity="1.000000" fill-rule="nonzero"/>
	<path d="M32.22 105.33C32.5 105.52 32.5 105.8 32.22 105.99C31.93 106.18 31.37 106.18 31.08 105.99C30.8 105.8 30.8 105.52 31.08 105.33C31.37 105.14 31.84 105.14 32.22 105.33Z" fill="#2F2D4F" fill-opacity="1.000000" fill-rule="nonzero"/>
	<path d="M20.22 108.72C20.5 108.9 20.5 109.19 20.22 109.37C19.93 109.56 19.37 109.56 19.08 109.37C18.8 109.19 18.8 108.9 19.08 108.72C19.37 108.53 19.93 108.53 20.22 108.72Z" fill="#2F2D4F" fill-opacity="1.000000" fill-rule="nonzero"/>
	<path d="M23.24 107.02C23.52 107.21 23.52 107.49 23.24 107.68C22.96 107.87 22.39 107.87 22.11 107.68C21.82 107.49 21.82 107.21 22.11 107.02C22.39 106.84 22.86 106.84 23.24 107.02Z" fill="#2F2D4F" fill-opacity="1.000000" fill-rule="nonzero"/>
	<path d="M21.63 121.88C21.92 122.06 21.92 122.35 21.63 122.53C21.35 122.72 20.78 122.72 20.5 122.53C20.22 122.35 20.22 122.06 20.5 121.88C20.78 121.69 21.26 121.69 21.63 121.88Z" fill="#2F2D4F" fill-opacity="1.000000" fill-rule="nonzero"/>
	<path d="M18.61 120.18C18.89 120.37 18.89 120.65 18.61 120.84C18.33 121.03 17.76 121.03 17.48 120.84C17.19 120.65 17.19 120.37 17.48 120.18C17.76 120 18.23 120 18.61 120.18Z" fill="#2F2D4F" fill-opacity="1.000000" fill-rule="nonzero"/>
	<path d="M21.54 118.49C21.82 118.68 21.82 118.96 21.54 119.15C21.26 119.34 20.69 119.34 20.4 119.15C20.12 118.96 20.12 118.68 20.4 118.49C20.78 118.3 21.26 118.3 21.54 118.49Z" fill="#2F2D4F" fill-opacity="1.000000" fill-rule="nonzero"/>
	<path d="M15.59 118.49C15.87 118.68 15.87 118.96 15.59 119.15C15.3 119.34 14.74 119.34 14.45 119.15C14.17 118.96 14.17 118.68 14.45 118.49C14.74 118.3 15.3 118.3 15.59 118.49Z" fill="#2F2D4F" fill-opacity="1.000000" fill-rule="nonzero"/>
	<path d="M18.61 116.71C18.89 116.89 18.89 117.18 18.61 117.36C18.33 117.55 17.76 117.55 17.48 117.36C17.19 117.18 17.19 116.89 17.48 116.71C17.76 116.52 18.23 116.52 18.61 116.71Z" fill="#2F2D4F" fill-opacity="1.000000" fill-rule="nonzero"/>
	<path d="M26.17 105.33C26.45 105.52 26.45 105.8 26.17 105.99C25.89 106.18 25.32 106.18 25.04 105.99C24.75 105.8 24.75 105.52 25.04 105.33C25.41 105.14 25.89 105.14 26.17 105.33Z" fill="#2F2D4F" fill-opacity="1.000000" fill-rule="nonzero"/>
	<path d="M29.19 103.64C29.48 103.83 29.48 104.11 29.19 104.3C28.91 104.49 28.34 104.49 28.06 104.3C27.78 104.11 27.78 103.83 28.06 103.64C28.34 103.45 28.91 103.45 29.19 103.64Z" fill="#2F2D4F" fill-opacity="1.000000" fill-rule="nonzero"/>
	<path d="M32.5 102.23C32.5 102.49 32.12 102.7 31.65 102.7C31.18 102.7 30.8 102.49 30.8 102.23C30.8 101.97 31.18 101.76 31.65 101.76C32.12 101.76 32.5 101.97 32.5 102.23Z" fill="#2F2D4F" fill-opacity="1.000000" fill-rule="evenodd"/>
	<path d="M35.15 100.16C35.43 100.35 35.43 100.63 35.15 100.82C34.86 101.01 34.3 101.01 34.01 100.82C33.73 100.63 33.73 100.35 34.01 100.16C34.3 99.97 34.86 99.97 35.15 100.16Z" fill="#2F2D4F" fill-opacity="1.000000" fill-rule="nonzero"/>
	<path d="M38.17 98.47C38.45 98.66 38.45 98.94 38.17 99.13C37.89 99.32 37.32 99.32 37.04 99.13C36.75 98.94 36.75 98.66 37.04 98.47C37.32 98.28 37.79 98.28 38.17 98.47Z" fill="#2F2D4F" fill-opacity="1.000000" fill-rule="nonzero"/>
	<path d="M41.1 96.78C41.38 96.97 41.38 97.25 41.1 97.44C40.82 97.62 40.25 97.62 39.96 97.44C39.68 97.25 39.68 96.97 39.96 96.78C40.34 96.59 40.82 96.59 41.1 96.78Z" fill="#2F2D4F" fill-opacity="1.000000" fill-rule="nonzero"/>
	<path d="M23.24 103.64C23.52 103.83 23.52 104.11 23.24 104.3C22.96 104.49 22.39 104.49 22.11 104.3C21.82 104.11 21.82 103.83 22.11 103.64C22.39 103.45 22.86 103.45 23.24 103.64Z" fill="#2F2D4F" fill-opacity="1.000000" fill-rule="nonzero"/>
	<path d="M26.17 101.85C26.45 102.04 26.45 102.32 26.17 102.51C25.89 102.7 25.32 102.7 25.04 102.51C24.75 102.32 24.75 102.04 25.04 101.85C25.41 101.67 25.89 101.67 26.17 101.85Z" fill="#2F2D4F" fill-opacity="1.000000" fill-rule="nonzero"/>
	<path d="M29.19 100.16C29.48 100.35 29.48 100.63 29.19 100.82C28.91 101.01 28.34 101.01 28.06 100.82C27.78 100.63 27.78 100.35 28.06 100.16C28.34 99.97 28.91 99.97 29.19 100.16Z" fill="#2F2D4F" fill-opacity="1.000000" fill-rule="nonzero"/>
	<path d="M32.22 98.47C32.5 98.66 32.5 98.94 32.22 99.13C31.93 99.32 31.37 99.32 31.08 99.13C30.8 98.94 30.8 98.66 31.08 98.47C31.37 98.28 31.84 98.28 32.22 98.47Z" fill="#2F2D4F" fill-opacity="1.000000" fill-rule="nonzero"/>
	<path d="M35.43 97.06C35.43 97.32 35.05 97.53 34.58 97.53C34.11 97.53 33.73 97.32 33.73 97.06C33.73 96.8 34.11 96.59 34.58 96.59C35.05 96.59 35.43 96.8 35.43 97.06Z" fill="#2F2D4F" fill-opacity="1.000000" fill-rule="evenodd"/>
	<path d="M38.17 94.99C38.45 95.18 38.45 95.46 38.17 95.65C37.89 95.84 37.32 95.84 37.04 95.65C36.75 95.46 36.75 95.18 37.04 94.99C37.32 94.8 37.79 94.8 38.17 94.99Z" fill="#2F2D4F" fill-opacity="1.000000" fill-rule="nonzero"/>
	<path d="M40.25 130.99C40.53 131.18 40.53 131.46 40.25 131.65C39.96 131.84 39.4 131.84 39.11 131.65C38.83 131.46 38.83 131.18 39.11 130.99C39.4 130.9 39.96 130.9 40.25 130.99Z" fill="#2F2D4F" fill-opacity="1.000000" fill-rule="nonzero"/>
	<path d="M43.27 129.3C43.56 129.49 43.56 129.77 43.27 129.96C42.99 130.15 42.42 130.15 42.14 129.96C41.85 129.77 41.85 129.49 42.14 129.3C42.42 129.11 42.89 129.11 43.27 129.3Z" fill="#2F2D4F" fill-opacity="1.000000" fill-rule="nonzero"/>
	<path d="M34.58 131.37C34.58 131.63 34.2 131.84 33.73 131.84C33.26 131.84 32.88 131.63 32.88 131.37C32.88 131.11 33.26 130.9 33.73 130.9C34.2 130.9 34.58 131.11 34.58 131.37Z" fill="#2F2D4F" fill-opacity="1.000000" fill-rule="evenodd"/>
	<path d="M37.23 129.3C37.51 129.49 37.51 129.77 37.23 129.96C36.94 130.15 36.37 130.15 36.09 129.96C35.81 129.77 35.81 129.49 36.09 129.3C36.47 129.11 36.94 129.11 37.23 129.3Z" fill="#2F2D4F" fill-opacity="1.000000" fill-rule="nonzero"/>
	<path d="M40.25 127.61C40.53 127.8 40.53 128.08 40.25 128.27C39.96 128.45 39.4 128.45 39.11 128.27C38.83 128.08 38.83 127.8 39.11 127.61C39.4 127.42 39.96 127.42 40.25 127.61Z" fill="#2F2D4F" fill-opacity="1.000000" fill-rule="nonzero"/>
	<path d="M43.27 125.92C43.56 126.11 43.56 126.39 43.27 126.58C42.99 126.76 42.42 126.76 42.14 126.58C41.85 126.39 41.85 126.11 42.14 125.92C42.42 125.73 42.89 125.73 43.27 125.92Z" fill="#2F2D4F" fill-opacity="1.000000" fill-rule="nonzero"/>
	<path d="M31.56 129.68C31.56 129.94 31.17 130.15 30.71 130.15C30.24 130.15 29.85 129.94 29.85 129.68C29.85 129.42 30.24 129.21 30.71 129.21C31.17 129.21 31.56 129.42 31.56 129.68Z" fill="#2F2D4F" fill-opacity="1.000000" fill-rule="evenodd"/>
	<path d="M34.3 127.61C34.58 127.8 34.58 128.08 34.3 128.27C34.01 128.45 33.45 128.45 33.16 128.27C32.88 128.08 32.88 127.8 33.16 127.61C33.45 127.42 33.92 127.42 34.3 127.61Z" fill="#2F2D4F" fill-opacity="1.000000" fill-rule="nonzero"/>
	<path d="M37.23 125.92C37.51 126.11 37.51 126.39 37.23 126.58C36.94 126.76 36.37 126.76 36.09 126.58C35.81 126.39 35.81 126.11 36.09 125.92C36.47 125.73 36.94 125.73 37.23 125.92Z" fill="#2F2D4F" fill-opacity="1.000000" fill-rule="nonzero"/>
	<path d="M40.53 124.51C40.53 124.77 40.15 124.98 39.68 124.98C39.21 124.98 38.83 124.77 38.83 124.51C38.83 124.25 39.21 124.04 39.68 124.04C40.15 124.04 40.53 124.25 40.53 124.51Z" fill="#2F2D4F" fill-opacity="1.000000" fill-rule="evenodd"/>
	<path d="M79.18 110.5L79.08 110.41C76.63 107.78 72.94 103.83 72.75 103.55C72.56 103.36 72.38 103.08 67.93 103.83L67.65 103.83L65.1 110.5L68.41 121.41L77.48 123.57L82.68 118.96L79.18 110.5Z" fill="#2F2D4F" fill-opacity="1.000000" fill-rule="nonzero"/>
	<path d="M69.92 118.3L78.52 113.42L80.88 123.47L72.66 124.7L68.79 121.12L69.92 118.3Z" fill="#F2F3F3" fill-opacity="1.000000" fill-rule="nonzero"/>
	<path d="M72.47 125.17L68.22 121.12L69.45 117.93L78.71 112.66L81.35 123.76L72.47 125.17ZM69.35 120.94L72.85 124.23L80.41 123.1L78.23 114.07L70.3 118.59L69.35 120.94Z" fill="#2F2D4F" fill-opacity="1.000000" fill-rule="nonzero"/>
	<path d="M77.1 115.58C77.1 115.67 72.94 118.12 72.94 118.12C72.94 118.12 75.49 119.71 77.38 118.77C79.27 117.83 78.42 115.95 78.42 115.95L77.1 115.58Z" fill="#C2E6EA" fill-opacity="1.000000" fill-rule="nonzero"/>
	<path d="M92.22 155.53L103.84 148.66L92.79 123.38L81.16 130.24L92.22 155.53Z" fill="#F2F3F3" fill-opacity="1.000000" fill-rule="nonzero"/>
	<path d="M92.22 156L91.84 155.81L80.6 130.05L93.07 122.72L104.41 148.76L92.22 156ZM81.73 130.43L92.41 154.87L103.37 148.48L92.69 124.04L81.73 130.43Z" fill="#2F2D4F" fill-opacity="1.000000" fill-rule="nonzero"/>
	<path d="M70.01 126.95L70.01 142.74L59.81 136.91L59.81 93.39L72.19 100.54C82.39 106.46 87.59 113.7 87.59 122.25C87.59 127.33 85.42 129.96 81.16 130.24L92.22 155.53L80.6 148.85L72.56 128.45L70.01 126.95ZM70.01 118.12L71.9 119.24C75.49 121.31 77.29 120.47 77.29 116.89C77.29 113.89 75.49 111.44 72 109.37L70.01 108.25L70.01 118.12Z" fill="#F2F3F3" fill-opacity="1.000000" fill-rule="nonzero"/>
	<path d="M86.74 127.8L93.16 124.13L96.09 122.44L96.38 122.25C98.27 121.03 99.21 118.68 99.21 115.39C99.21 106.84 94.11 99.6 83.81 93.68L71.43 86.53L59.71 93.39L72.09 100.54C82.39 106.46 87.59 113.7 87.59 122.25C87.59 125.07 86.83 127.23 85.51 128.55L86.74 127.8Z" fill="#F2F3F3" fill-opacity="1.000000" fill-rule="nonzero"/>
	<path d="M81.64 111.91L93.35 105.05C90.61 101.85 89.29 99.79 84.75 97.15L71.62 89.63L59.9 96.5L73.04 104.02C77.2 106.65 78.99 109.09 81.64 111.91Z" fill="#C2E6EA" fill-opacity="1.000000" fill-rule="nonzero"/>
	<path d="M103.84 148.66L94.96 128.17L83.53 134.56L81.73 130.52C83.34 130.33 84.66 129.77 85.6 128.83L96.19 122.72L96.47 122.53C98.46 121.22 99.5 118.77 99.5 115.3C99.5 106.65 94.2 99.22 83.81 93.21L71.43 86.06L59.34 93.11L59.34 137.1L70.01 143.21L76.53 139.45L80.31 149.04L92.22 155.9L92.79 155.62L92.6 155.24L103.84 148.66ZM71.43 87L83.62 93.96C91.18 98.28 95.9 103.36 97.79 109.19L86.83 115.39C84.75 109.56 79.94 104.49 72.38 100.07L60.66 93.39L71.43 87ZM80.98 148.57L72.94 128.17L69.54 126.2L69.54 141.99L60.19 136.63L60.19 94.15L71.9 100.91C82.01 106.74 87.12 113.89 87.12 122.25C87.12 122.72 87.12 123.29 87.02 123.66C87.02 123.76 87.02 123.94 87.02 124.04C87.02 124.41 86.93 124.7 86.83 125.07C86.74 125.26 86.74 125.54 86.64 125.73C86.64 125.82 86.64 125.82 86.55 125.92C86.27 126.86 85.79 127.61 85.13 128.17C84.19 129.11 82.86 129.68 81.07 129.77L80.41 129.77L91.27 154.49L80.98 148.57Z" fill="#2F2D4F" fill-opacity="1.000000" fill-rule="nonzero"/>
	<path d="M72.19 108.9L69.54 107.4L69.54 118.3L71.71 119.53C73.04 120.28 74.17 120.65 75.12 120.65C75.59 120.65 75.97 120.56 76.35 120.37C77.29 119.81 77.76 118.68 77.76 116.8C77.67 113.7 75.87 111.07 72.19 108.9ZM75.87 119.71C75.12 120.09 73.89 119.81 72.09 118.87L70.39 117.93L70.39 109L71.71 109.75C75.02 111.63 76.72 114.07 76.72 116.89C76.82 118.4 76.44 119.34 75.87 119.71Z" fill="#2F2D4F" fill-opacity="1.000000" fill-rule="nonzero"/>
	<path d="M84.47 108.62C84.75 108.81 84.75 109.09 84.47 109.28C84.19 109.47 83.62 109.47 83.34 109.28C83.05 109.09 83.05 108.81 83.34 108.62C83.62 108.43 84.19 108.43 84.47 108.62Z" fill="#2F2D4F" fill-opacity="1.000000" fill-rule="nonzero"/>
	<path d="M87.5 106.93C87.78 107.12 87.78 107.4 87.5 107.59C87.21 107.78 86.64 107.78 86.36 107.59C86.08 107.4 86.08 107.12 86.36 106.93C86.64 106.74 87.12 106.74 87.5 106.93Z" fill="#2F2D4F" fill-opacity="1.000000" fill-rule="nonzero"/>
	<path d="M90.42 105.24C90.71 105.43 90.71 105.71 90.42 105.9C90.14 106.08 89.57 106.08 89.29 105.9C89.01 105.71 89.01 105.43 89.29 105.24C89.57 105.05 90.14 105.05 90.42 105.24Z" fill="#2F2D4F" fill-opacity="1.000000" fill-rule="nonzero"/>
	<path d="M81.45 106.93C81.73 107.12 81.73 107.4 81.45 107.59C81.16 107.78 80.6 107.78 80.31 107.59C80.03 107.4 80.03 107.12 80.31 106.93C80.69 106.74 81.16 106.74 81.45 106.93Z" fill="#2F2D4F" fill-opacity="1.000000" fill-rule="nonzero"/>
	<path d="M84.47 105.24C84.75 105.43 84.75 105.71 84.47 105.9C84.19 106.08 83.62 106.08 83.34 105.9C83.05 105.71 83.05 105.43 83.34 105.24C83.62 105.05 84.19 105.05 84.47 105.24Z" fill="#2F2D4F" fill-opacity="1.000000" fill-rule="nonzero"/>
	<path d="M87.5 103.45C87.78 103.64 87.78 103.92 87.5 104.11C87.21 104.3 86.64 104.3 86.36 104.11C86.08 103.92 86.08 103.64 86.36 103.45C86.64 103.26 87.12 103.26 87.5 103.45Z" fill="#2F2D4F" fill-opacity="1.000000" fill-rule="nonzero"/>
	<path d="M90.42 101.76C90.71 101.95 90.71 102.23 90.42 102.42C90.14 102.61 89.57 102.61 89.29 102.42C89.01 102.23 89.01 101.95 89.29 101.76C89.57 101.57 90.14 101.57 90.42 101.76Z" fill="#2F2D4F" fill-opacity="1.000000" fill-rule="nonzero"/>
	<path d="M78.52 105.24C78.8 105.43 78.8 105.71 78.52 105.9C78.23 106.08 77.67 106.08 77.38 105.9C77.1 105.71 77.1 105.43 77.38 105.24C77.67 105.05 78.14 105.05 78.52 105.24Z" fill="#2F2D4F" fill-opacity="1.000000" fill-rule="nonzero"/>
	<path d="M81.45 103.45C81.73 103.64 81.73 103.92 81.45 104.11C81.16 104.3 80.6 104.3 80.31 104.11C80.03 103.92 80.03 103.64 80.31 103.45C80.69 103.26 81.16 103.26 81.45 103.45Z" fill="#2F2D4F" fill-opacity="1.000000" fill-rule="nonzero"/>
	<path d="M84.47 101.76C84.75 101.95 84.75 102.23 84.47 102.42C84.19 102.61 83.62 102.61 83.34 102.42C83.05 102.23 83.05 101.95 83.34 101.76C83.62 101.57 84.19 101.57 84.47 101.76Z" fill="#2F2D4F" fill-opacity="1.000000" fill-rule="nonzero"/>
	<path d="M87.5 100.07C87.78 100.26 87.78 100.54 87.5 100.73C87.21 100.91 86.64 100.91 86.36 100.73C86.08 100.54 86.08 100.26 86.36 100.07C86.64 99.88 87.12 99.88 87.5 100.07Z" fill="#2F2D4F" fill-opacity="1.000000" fill-rule="nonzero"/>
	<path d="M75.49 103.45C75.78 103.64 75.78 103.92 75.49 104.11C75.21 104.3 74.64 104.3 74.36 104.11C74.08 103.92 74.08 103.64 74.36 103.45C74.64 103.26 75.21 103.26 75.49 103.45Z" fill="#2F2D4F" fill-opacity="1.000000" fill-rule="nonzero"/>
	<path d="M78.52 101.76C78.8 101.95 78.8 102.23 78.52 102.42C78.23 102.61 77.67 102.61 77.38 102.42C77.1 102.23 77.1 101.95 77.38 101.76C77.67 101.57 78.14 101.57 78.52 101.76Z" fill="#2F2D4F" fill-opacity="1.000000" fill-rule="nonzero"/>
	<path d="M81.45 100.07C81.73 100.26 81.73 100.54 81.45 100.73C81.16 100.91 80.6 100.91 80.31 100.73C80.03 100.54 80.03 100.26 80.31 100.07C80.69 99.88 81.16 99.88 81.45 100.07Z" fill="#2F2D4F" fill-opacity="1.000000" fill-rule="nonzero"/>
	<path d="M84.47 98.38C84.75 98.56 84.75 98.85 84.47 99.03C84.19 99.22 83.62 99.22 83.34 99.03C83.05 98.85 83.05 98.56 83.34 98.38C83.62 98.19 84.19 98.19 84.47 98.38Z" fill="#2F2D4F" fill-opacity="1.000000" fill-rule="nonzero"/>
	<path d="M72.47 101.76C72.75 101.95 72.75 102.23 72.47 102.42C72.19 102.61 71.62 102.61 71.34 102.42C71.05 102.23 71.05 101.95 71.34 101.76C71.62 101.57 72.19 101.57 72.47 101.76Z" fill="#2F2D4F" fill-opacity="1.000000" fill-rule="nonzero"/>
	<path d="M75.49 100.07C75.78 100.26 75.78 100.54 75.49 100.73C75.21 100.91 74.64 100.91 74.36 100.73C74.08 100.54 74.08 100.26 74.36 100.07C74.64 99.88 75.21 99.88 75.49 100.07Z" fill="#2F2D4F" fill-opacity="1.000000" fill-rule="nonzero"/>
	<path d="M78.42 98.28C78.71 98.47 78.71 98.75 78.42 98.94C78.14 99.13 77.57 99.13 77.29 98.94C77.01 98.75 77.01 98.47 77.29 98.28C77.67 98.09 78.14 98.09 78.42 98.28Z" fill="#2F2D4F" fill-opacity="1.000000" fill-rule="nonzero"/>
	<path d="M81.45 96.59C81.73 96.78 81.73 97.06 81.45 97.25C81.16 97.44 80.6 97.44 80.31 97.25C80.03 97.06 80.03 96.78 80.31 96.59C80.6 96.4 81.16 96.4 81.45 96.59Z" fill="#2F2D4F" fill-opacity="1.000000" fill-rule="nonzero"/>
	<path d="M69.54 100.07C69.82 100.26 69.82 100.54 69.54 100.73C69.26 100.91 68.69 100.91 68.41 100.73C68.12 100.54 68.12 100.26 68.41 100.07C68.69 99.88 69.16 99.88 69.54 100.07Z" fill="#2F2D4F" fill-opacity="1.000000" fill-rule="nonzero"/>
	<path d="M72.47 98.28C72.75 98.47 72.75 98.75 72.47 98.94C72.19 99.13 71.62 99.13 71.34 98.94C71.05 98.75 71.05 98.47 71.34 98.28C71.62 98.09 72.19 98.09 72.47 98.28Z" fill="#2F2D4F" fill-opacity="1.000000" fill-rule="nonzero"/>
	<path d="M75.49 96.59C75.78 96.78 75.78 97.06 75.49 97.25C75.21 97.44 74.64 97.44 74.36 97.25C74.08 97.06 74.08 96.78 74.36 96.59C74.64 96.4 75.21 96.4 75.49 96.59Z" fill="#2F2D4F" fill-opacity="1.000000" fill-rule="nonzero"/>
	<path d="M78.42 94.9C78.71 95.09 78.71 95.37 78.42 95.56C78.14 95.74 77.57 95.74 77.29 95.56C77.01 95.37 77.01 95.09 77.29 94.9C77.67 94.71 78.14 94.71 78.42 94.9Z" fill="#2F2D4F" fill-opacity="1.000000" fill-rule="nonzero"/>
	<path d="M66.52 98.28C66.8 98.47 66.8 98.75 66.52 98.94C66.23 99.13 65.67 99.13 65.38 98.94C65.1 98.75 65.1 98.47 65.38 98.28C65.67 98.09 66.23 98.09 66.52 98.28Z" fill="#2F2D4F" fill-opacity="1.000000" fill-rule="nonzero"/>
	<path d="M69.82 96.97C69.82 97.23 69.44 97.44 68.97 97.44C68.5 97.44 68.12 97.23 68.12 96.97C68.12 96.71 68.5 96.5 68.97 96.5C69.44 96.5 69.82 96.71 69.82 96.97Z" fill="#2F2D4F" fill-opacity="1.000000" fill-rule="evenodd"/>
	<path d="M72.47 94.9C72.75 95.09 72.75 95.37 72.47 95.56C72.19 95.74 71.62 95.74 71.34 95.56C71.05 95.37 71.05 95.09 71.34 94.9C71.62 94.71 72.19 94.71 72.47 94.9Z" fill="#2F2D4F" fill-opacity="1.000000" fill-rule="nonzero"/>
	<path d="M75.49 93.21C75.78 93.39 75.78 93.68 75.49 93.86C75.21 94.05 74.64 94.05 74.36 93.86C74.08 93.68 74.08 93.39 74.36 93.21C74.64 93.02 75.21 93.02 75.49 93.21Z" fill="#2F2D4F" fill-opacity="1.000000" fill-rule="nonzero"/>
	<path d="M63.49 96.59C63.78 96.78 63.78 97.06 63.49 97.25C63.21 97.44 62.64 97.44 62.36 97.25C62.08 97.06 62.08 96.78 62.36 96.59C62.74 96.4 63.21 96.4 63.49 96.59Z" fill="#2F2D4F" fill-opacity="1.000000" fill-rule="nonzero"/>
	<path d="M66.8 95.18C66.8 95.44 66.42 95.65 65.95 95.65C65.48 95.65 65.1 95.44 65.1 95.18C65.1 94.92 65.48 94.71 65.95 94.71C66.42 94.71 66.8 94.92 66.8 95.18Z" fill="#2F2D4F" fill-opacity="1.000000" fill-rule="evenodd"/>
	<path d="M69.54 93.21C69.82 93.39 69.82 93.68 69.54 93.86C69.26 94.05 68.69 94.05 68.41 93.86C68.12 93.68 68.12 93.39 68.41 93.21C68.69 93.02 69.16 93.02 69.54 93.21Z" fill="#2F2D4F" fill-opacity="1.000000" fill-rule="nonzero"/>
	<path d="M72.47 91.42C72.75 91.61 72.75 91.89 72.47 92.08C72.19 92.27 71.62 92.27 71.34 92.08C71.05 91.89 71.05 91.61 71.34 91.42C71.62 91.23 72.19 91.23 72.47 91.42Z" fill="#2F2D4F" fill-opacity="1.000000" fill-rule="nonzero"/>
	<path d="M153.92 135.79L142.49 129.3L142.77 103.08L154.3 106.93L155.72 127.99L153.92 135.79Z" fill="#F2F3F3" fill-opacity="1.000000" fill-rule="nonzero"/>
	<path d="M153.92 136.26L142.02 129.49L142.3 102.51L154.68 106.65L156.19 127.99L154.3 136.07L153.92 136.26ZM142.96 129.02L153.64 135.13L155.34 127.99L153.92 107.31L143.25 103.73L142.96 129.02Z" fill="#2F2D4F" fill-opacity="1.000000" fill-rule="nonzero"/>
	<path d="M138.14 144.81L126.71 138.32L129.26 120L131.06 120.28L139.28 133.34L138.14 144.81Z" fill="#F2F3F3" fill-opacity="1.000000" fill-rule="nonzero"/>
	<path d="M138.62 145.09L138.24 145.37L126.33 138.61L128.98 119.53L131.43 119.9L139.75 133.25L138.62 145.09ZM127.18 138.14L137.77 144.15L138.81 133.44L130.77 120.65L129.64 120.47L127.18 138.14Z" fill="#2F2D4F" fill-opacity="1.000000" fill-rule="nonzero"/>
	<path d="M111.59 146.97L123.02 153.55L123.02 113.7L111.59 107.21L111.59 146.97Z" fill="#F2F3F3" fill-opacity="1.000000" fill-rule="nonzero"/>
	<path d="M124.06 99.97L135.5 106.55L123.02 113.7L111.59 107.21L124.06 99.97Z" fill="#F2F3F3" fill-opacity="1.000000" fill-rule="nonzero"/>
	<path d="M138.62 91.7L150.05 98.19L162.52 91.04L151.09 84.47L138.62 91.7Z" fill="#F2F3F3" fill-opacity="1.000000" fill-rule="nonzero"/>
	<path d="M124.06 103.45L135.5 109.94L123.02 117.08L111.59 110.6L124.06 103.45Z" fill="#C2E6EA" fill-opacity="1.000000" fill-rule="nonzero"/>
	<path d="M138.62 91.7L135.4 106.18L135.5 106.55L142.77 130.62L142.96 130.52L150.05 98.19L138.62 91.7Z" fill="#F2F3F3" fill-opacity="1.000000" fill-rule="nonzero"/>
	<path d="M138.62 95.09L150.05 101.57L162.52 94.43L151.09 87.85L138.62 95.09Z" fill="#C2E6EA" fill-opacity="1.000000" fill-rule="nonzero"/>
	<path d="M151.09 84L138.24 91.42L135.12 105.8L124.16 99.5L111.21 106.93L111.21 147.25L123.12 154.02L131.81 149.04L131.81 131.46C131.81 129.39 131.72 126.58 131.53 123.29L137.86 145.19L138.24 145.37L147.5 140.02L153.74 110.97C153.64 113.13 153.64 114.54 153.55 115.3C153.55 116.42 153.55 117.46 153.55 118.3L153.55 135.97L154.02 136.26L163.09 131.09L163.09 90.76L151.09 84ZM151.09 85.03L161.67 91.04L150.05 97.72L144.47 94.52L139.47 91.7L151.09 85.03ZM138.9 92.36L149.58 98.47L142.77 129.3L136.06 106.84L135.88 106.37L135.88 106.27L138.9 92.36ZM122.65 152.8L112.06 146.78L112.06 107.96L122.65 113.98L122.65 152.8ZM112.54 107.21L124.16 100.54L134.74 106.55L123.12 113.23L112.54 107.21Z" fill="#2F2D4F" fill-opacity="1.000000" fill-rule="nonzero"/>
	<path d="M148.63 98.28C148.92 98.47 148.92 98.75 148.63 98.94C148.35 99.13 147.78 99.13 147.5 98.94C147.22 98.75 147.22 98.47 147.5 98.28C147.78 98.09 148.35 98.09 148.63 98.28Z" fill="#2F2D4F" fill-opacity="1.000000" fill-rule="nonzero"/>
	<path d="M151.66 96.5C151.94 96.68 151.94 96.97 151.66 97.15C151.37 97.34 150.81 97.34 150.52 97.15C150.24 96.97 150.24 96.68 150.52 96.5C150.81 96.31 151.28 96.31 151.66 96.5Z" fill="#2F2D4F" fill-opacity="1.000000" fill-rule="nonzero"/>
	<path d="M154.59 94.8C154.87 94.99 154.87 95.27 154.59 95.46C154.3 95.65 153.74 95.65 153.45 95.46C153.17 95.27 153.17 94.99 153.45 94.8C153.83 94.62 154.3 94.62 154.59 94.8Z" fill="#2F2D4F" fill-opacity="1.000000" fill-rule="nonzero"/>
	<path d="M157.61 93.11C157.89 93.3 157.89 93.58 157.61 93.77C157.33 93.96 156.76 93.96 156.48 93.77C156.19 93.58 156.19 93.3 156.48 93.11C156.76 92.92 157.33 92.92 157.61 93.11Z" fill="#2F2D4F" fill-opacity="1.000000" fill-rule="nonzero"/>
	<path d="M145.61 96.5C145.89 96.68 145.89 96.97 145.61 97.15C145.33 97.34 144.76 97.34 144.47 97.15C144.19 96.97 144.19 96.68 144.47 96.5C144.85 96.31 145.33 96.31 145.61 96.5Z" fill="#2F2D4F" fill-opacity="1.000000" fill-rule="nonzero"/>
	<path d="M148.63 94.8C148.92 94.99 148.92 95.27 148.63 95.46C148.35 95.65 147.78 95.65 147.5 95.46C147.22 95.27 147.22 94.99 147.5 94.8C147.78 94.62 148.35 94.62 148.63 94.8Z" fill="#2F2D4F" fill-opacity="1.000000" fill-rule="nonzero"/>
	<path d="M151.66 93.11C151.94 93.3 151.94 93.58 151.66 93.77C151.37 93.96 150.81 93.96 150.52 93.77C150.24 93.58 150.24 93.3 150.52 93.11C150.81 92.92 151.28 92.92 151.66 93.11Z" fill="#2F2D4F" fill-opacity="1.000000" fill-rule="nonzero"/>
	<path d="M154.59 91.42C154.87 91.61 154.87 91.89 154.59 92.08C154.3 92.27 153.74 92.27 153.45 92.08C153.17 91.89 153.17 91.61 153.45 91.42C153.83 91.23 154.3 91.23 154.59 91.42Z" fill="#2F2D4F" fill-opacity="1.000000" fill-rule="nonzero"/>
	<path d="M142.68 94.8C142.96 94.99 142.96 95.27 142.68 95.46C142.39 95.65 141.83 95.65 141.55 95.46C141.26 95.27 141.26 94.99 141.55 94.8C141.83 94.62 142.3 94.62 142.68 94.8Z" fill="#2F2D4F" fill-opacity="1.000000" fill-rule="nonzero"/>
	<path d="M145.61 93.11C145.89 93.3 145.89 93.58 145.61 93.77C145.33 93.96 144.76 93.96 144.47 93.77C144.19 93.58 144.19 93.3 144.47 93.11C144.85 92.92 145.33 92.92 145.61 93.11Z" fill="#2F2D4F" fill-opacity="1.000000" fill-rule="nonzero"/>
	<path d="M148.63 91.42C148.92 91.61 148.92 91.89 148.63 92.08C148.35 92.27 147.78 92.27 147.5 92.08C147.22 91.89 147.22 91.61 147.5 91.42C147.78 91.23 148.35 91.23 148.63 91.42Z" fill="#2F2D4F" fill-opacity="1.000000" fill-rule="nonzero"/>
	<path d="M151.66 89.63C151.94 89.82 151.94 90.1 151.66 90.29C151.37 90.48 150.81 90.48 150.52 90.29C150.24 90.1 150.24 89.82 150.52 89.63C150.81 89.45 151.28 89.45 151.66 89.63Z" fill="#2F2D4F" fill-opacity="1.000000" fill-rule="nonzero"/>
	<path d="M121.7 114.07C121.99 114.26 121.99 114.54 121.7 114.73C121.42 114.92 120.85 114.92 120.57 114.73C120.28 114.54 120.28 114.26 120.57 114.07C120.85 113.89 121.42 113.89 121.7 114.07Z" fill="#2F2D4F" fill-opacity="1.000000" fill-rule="nonzero"/>
	<path d="M124.73 112.38C125.01 112.57 125.01 112.85 124.73 113.04C124.44 113.23 123.88 113.23 123.59 113.04C123.31 112.85 123.31 112.57 123.59 112.38C123.88 112.19 124.35 112.19 124.73 112.38Z" fill="#2F2D4F" fill-opacity="1.000000" fill-rule="nonzero"/>
	<path d="M127.66 110.69C127.94 110.88 127.94 111.16 127.66 111.35C127.37 111.54 126.8 111.54 126.52 111.35C126.24 111.16 126.24 110.88 126.52 110.69C126.8 110.5 127.37 110.5 127.66 110.69Z" fill="#2F2D4F" fill-opacity="1.000000" fill-rule="nonzero"/>
	<path d="M130.68 108.9C130.96 109.09 130.96 109.37 130.68 109.56C130.39 109.75 129.83 109.75 129.54 109.56C129.26 109.37 129.26 109.09 129.54 108.9C129.83 108.72 130.39 108.72 130.68 108.9Z" fill="#2F2D4F" fill-opacity="1.000000" fill-rule="nonzero"/>
	<path d="M118.68 112.38C118.96 112.57 118.96 112.85 118.68 113.04C118.39 113.23 117.83 113.23 117.54 113.04C117.26 112.85 117.26 112.57 117.54 112.38C117.92 112.19 118.39 112.19 118.68 112.38Z" fill="#2F2D4F" fill-opacity="1.000000" fill-rule="nonzero"/>
	<path d="M121.7 110.69C121.99 110.88 121.99 111.16 121.7 111.35C121.42 111.54 120.85 111.54 120.57 111.35C120.28 111.16 120.28 110.88 120.57 110.69C120.85 110.5 121.42 110.5 121.7 110.69Z" fill="#2F2D4F" fill-opacity="1.000000" fill-rule="nonzero"/>
	<path d="M124.73 108.9C125.01 109.09 125.01 109.37 124.73 109.56C124.44 109.75 123.88 109.75 123.59 109.56C123.31 109.37 123.31 109.09 123.59 108.9C123.88 108.72 124.35 108.72 124.73 108.9Z" fill="#2F2D4F" fill-opacity="1.000000" fill-rule="nonzero"/>
	<path d="M127.66 107.21C127.94 107.4 127.94 107.68 127.66 107.87C127.37 108.06 126.8 108.06 126.52 107.87C126.24 107.68 126.24 107.4 126.52 107.21C126.8 107.02 127.37 107.02 127.66 107.21Z" fill="#2F2D4F" fill-opacity="1.000000" fill-rule="nonzero"/>
	<path d="M115.75 110.69C116.03 110.88 116.03 111.16 115.75 111.35C115.47 111.54 114.9 111.54 114.61 111.35C114.33 111.16 114.33 110.88 114.61 110.69C114.9 110.5 115.37 110.5 115.75 110.69Z" fill="#2F2D4F" fill-opacity="1.000000" fill-rule="nonzero"/>
	<path d="M118.68 108.9C118.96 109.09 118.96 109.37 118.68 109.56C118.39 109.75 117.83 109.75 117.54 109.56C117.26 109.37 117.26 109.09 117.54 108.9C117.92 108.72 118.39 108.72 118.68 108.9Z" fill="#2F2D4F" fill-opacity="1.000000" fill-rule="nonzero"/>
	<path d="M121.7 107.21C121.99 107.4 121.99 107.68 121.7 107.87C121.42 108.06 120.85 108.06 120.57 107.87C120.28 107.68 120.28 107.4 120.57 107.21C120.85 107.02 121.42 107.02 121.7 107.21Z" fill="#2F2D4F" fill-opacity="1.000000" fill-rule="nonzero"/>
	<path d="M124.73 105.52C125.01 105.71 125.01 105.99 124.73 106.18C124.44 106.37 123.88 106.37 123.59 106.18C123.31 105.99 123.31 105.71 123.59 105.52C123.88 105.33 124.35 105.33 124.73 105.52Z" fill="#2F2D4F" fill-opacity="1.000000" fill-rule="nonzero"/>
	<path d="M124.74 54.09L124.93 51.8L124.93 45.5L129.7 42.83C132.18 41.5 133.52 39.59 133.52 37.68L133.52 29.86L116.16 31.58L102.99 23.95C98.8 21.47 91.55 21.47 86.97 24.14L64.84 36.73L41 38.83L41 45.89C41 46.08 41 46.46 41 46.65L41 47.22L41.19 47.22C41.57 48.56 42.52 49.89 44.05 50.85C44.24 50.85 44.24 51.04 44.43 51.04L71.52 67.25C75.71 69.73 82.96 69.73 87.54 67.06L107.76 55.42L119.4 62.29L119.78 61.91C119.97 61.72 123.79 58.29 124.74 54.09Z" fill="#2F2D4F" fill-opacity="1.000000" fill-rule="nonzero"/>
	<path d="M87.73 10.79L45.19 35.01C41 37.49 40.8 41.31 44.81 43.79L71.9 59.62C75.91 61.91 82.77 61.91 87.16 59.43L107.76 47.6L119.4 54.28C119.4 54.28 128.75 45.89 121.69 39.59L129.51 35.2C133.9 32.72 134.09 28.91 129.89 26.43L102.8 10.59C98.8 8.31 91.93 8.31 87.73 10.79Z" fill="#F2F3F3" fill-opacity="1.000000" fill-rule="nonzero"/>
	<path d="M44.05 44.17C42.14 43.03 41 41.31 41.19 39.59C41.19 37.49 42.52 35.78 45 34.25L87.35 10.02C91.93 7.35 98.99 7.35 103.38 9.83L130.46 25.67C132.56 27 133.71 28.72 133.71 30.63C133.71 32.72 132.37 34.44 129.89 35.97L123.02 39.97C124.36 41.5 125.12 43.22 125.12 45.12C125.12 50.27 120.16 54.85 119.78 55.04L119.4 55.42L107.76 48.56L87.54 60.19C82.96 62.86 75.91 62.86 71.52 60.38L44.43 44.55C44.24 44.36 44.05 44.36 44.05 44.17ZM88.11 11.55L45.76 35.78C43.86 36.92 42.9 38.26 42.71 39.59C42.71 40.93 43.67 42.07 45.19 43.03L72.28 58.86C76.1 61.15 82.58 60.96 86.59 58.67L107.76 46.65L119.21 53.33C120.35 52.18 123.41 48.75 123.41 45.12C123.41 43.41 122.64 41.69 121.12 40.35L120.16 39.59L128.94 34.63C130.85 33.49 131.8 32.15 131.99 30.82C131.99 29.48 131.04 28.34 129.51 27.38L102.42 11.36C98.61 9.07 92.12 9.26 88.11 11.55Z" fill="#2F2D4F" fill-opacity="1.000000" fill-rule="nonzero"/>
	<path d="M78.39 43.02C81.25 44.74 81.06 47.6 78 49.32C74.95 51.04 69.99 51.23 67.13 49.51C64.27 47.79 64.46 44.93 67.51 43.22C70.56 41.31 75.33 41.31 78.39 43.02Z" fill="#2F2D4F" fill-opacity="1.000000" fill-rule="nonzero"/>
	<path d="M66.18 46.65C64.65 45.7 63.89 44.55 63.89 43.03C63.89 41.5 64.84 40.16 66.75 39.02C70.18 37.11 75.33 37.11 78.39 38.83C79.91 39.78 80.87 41.12 80.87 42.45C80.87 43.98 79.91 45.31 78 46.46C74.57 48.37 69.42 48.37 66.37 46.65C66.37 46.84 66.37 46.65 66.18 46.65ZM78 40.55C78 40.55 77.81 40.55 77.81 40.35C75.14 38.83 70.56 38.83 67.7 40.55C66.37 41.31 65.79 42.26 65.6 43.03C65.6 43.79 66.18 44.74 67.32 45.31C69.99 46.84 74.57 46.84 77.43 45.12C78.77 44.36 79.34 43.41 79.34 42.64C79.34 41.88 78.96 41.12 78 40.55Z" fill="#2F2D4F" fill-opacity="1.000000" fill-rule="nonzero"/>
	<path d="M93.26 34.63C96.13 36.35 95.94 39.21 92.88 40.93C89.83 42.64 84.87 42.83 82.01 41.12C79.15 39.4 79.34 36.54 82.39 34.82C85.44 32.91 90.21 32.91 93.26 34.63Z" fill="#2F2D4F" fill-opacity="1.000000" fill-rule="nonzero"/>
	<path d="M81.06 38.26C79.53 37.3 78.77 36.16 78.77 34.63C78.77 33.11 79.72 31.77 81.63 30.63C85.06 28.72 90.21 28.72 93.26 30.43C94.98 31.39 95.74 32.72 95.74 34.06C95.74 35.59 94.79 36.92 92.88 38.07C89.45 39.97 84.3 39.97 81.25 38.26C81.25 38.26 81.25 38.26 81.06 38.26ZM92.88 32.15C92.88 32.15 92.69 32.15 92.69 31.96C90.02 30.43 85.44 30.43 82.58 32.15C81.25 32.91 80.67 33.87 80.67 34.63C80.67 35.39 81.25 36.35 82.39 36.92C85.06 38.45 89.64 38.45 92.5 36.73C93.84 35.97 94.41 35.01 94.41 34.25C94.22 33.49 93.84 32.72 92.88 32.15Z" fill="#2F2D4F" fill-opacity="1.000000" fill-rule="nonzero"/>
	<path d="M108.14 26.05C111.01 27.76 110.82 30.63 107.76 32.34C104.71 34.06 99.75 34.25 96.89 32.53C94.03 30.82 94.22 27.95 97.27 26.24C100.32 24.33 105.09 24.33 108.14 26.05Z" fill="#2F2D4F" fill-opacity="1.000000" fill-rule="nonzero"/>
	<path d="M95.94 29.67C94.41 28.72 93.65 27.57 93.65 26.05C93.65 24.52 94.6 23.19 96.51 22.04C99.94 20.13 105.09 20.13 108.14 21.85C109.67 22.8 110.62 24.14 110.62 25.47C110.62 27 109.67 28.34 107.76 29.48C104.33 31.39 99.18 31.39 96.13 29.67C96.13 29.86 96.13 29.86 95.94 29.67ZM107.38 23.57C104.71 22.04 100.13 22.04 97.27 23.76C95.94 24.52 95.36 25.47 95.17 26.24C95.17 27 95.75 27.95 96.89 28.53C99.56 30.05 104.14 30.05 107 28.34C108.34 27.57 108.91 26.62 109.1 25.86C109.1 24.9 108.53 24.14 107.38 23.57Z" fill="#2F2D4F" fill-opacity="1.000000" fill-rule="nonzero"/>
	<path d="M107.76 47.6L107.76 54.47L119.21 61.34L119.4 54.47L107.76 47.6Z" fill="#C2E6EA" fill-opacity="1.000000" fill-rule="nonzero"/>
	<path d="M107 55.04L107 47.6C107 47.03 107.57 46.65 108.14 47.03L120.16 54.09L120.16 60.38C120.16 61.53 119.02 62.1 118.06 61.53L107 55.04ZM108.53 49.13L108.53 54.09L118.45 59.81L118.45 54.85L108.53 49.13Z" fill="#2F2D4F" fill-opacity="1.000000" fill-rule="nonzero"/>
	<path d="M78.19 46.65C78.96 46.08 79.72 45.51 80.1 44.93C79.91 44.36 79.53 43.98 78.96 43.6C78.58 44.17 78 44.74 77.24 45.31C74.38 47.03 69.8 47.03 67.13 45.51C66.56 45.12 66.18 44.74 65.79 44.36C65.41 44.93 65.03 45.31 64.84 45.89C65.22 46.27 65.41 46.46 65.99 46.84L66.18 47.03C69.8 48.56 74.95 48.56 78.19 46.65Z" fill="#C2E6EA" fill-opacity="1.000000" fill-rule="nonzero"/>
	<path d="M93.07 38.26C93.84 37.68 94.6 37.11 94.98 36.54C94.79 35.97 94.41 35.59 93.84 35.2C93.46 35.78 92.88 36.35 92.12 36.92C89.26 38.64 84.68 38.64 82.01 37.11C81.44 36.73 81.06 36.35 80.67 35.97C80.29 36.54 79.91 36.92 79.72 37.49C80.1 37.87 80.29 38.07 80.87 38.45L81.06 38.64C84.68 40.16 89.64 40.16 93.07 38.26Z" fill="#C2E6EA" fill-opacity="1.000000" fill-rule="nonzero"/>
	<path d="M107.95 29.67C108.72 29.1 109.48 28.53 109.86 27.95C109.67 27.38 109.29 27 108.72 26.62C108.34 27.19 107.76 27.76 107 28.34C104.14 30.05 99.56 30.05 96.89 28.53C96.32 28.15 95.94 27.76 95.55 27.38C95.17 27.95 94.79 28.34 94.6 28.91C94.98 29.29 95.17 29.48 95.75 29.86L95.94 30.05C99.56 31.77 104.71 31.58 107.95 29.67Z" fill="#C2E6EA" fill-opacity="1.000000" fill-rule="nonzero"/>
</svg>
