<svg width="217.000000" height="201.000000" viewBox="0 0 217 201" fill="none" xmlns="http://www.w3.org/2000/svg" xmlns:xlink="http://www.w3.org/1999/xlink">
	<desc>
			Created with Pixso.
	</desc>
	<defs>
		<clipPath id="clip22_10187">
			<rect width="215.000000" height="138.000000" transform="translate(0.000000 14.000000)" fill="white" fill-opacity="0"/>
		</clipPath>
	</defs>
	<g opacity="0.500000">
		<path d="M216.97 53.6L70.39 200.18L16.74 -0.05L216.97 53.6Z" fill="#C2E6EA" fill-opacity="1.000000" fill-rule="evenodd"/>
	</g>
	<rect width="215.000000" height="138.000000" transform="translate(0.000000 14.000000)" fill="#FFFFFF" fill-opacity="0"/>
	<g clip-path="url(#clip22_10187)">
		<path d="M89.23 117.82L89.23 117.66L89.23 107.98L84.54 108.15C82.92 106.53 81.15 105.08 78.88 103.79C64.98 95.57 42.19 95.41 28.12 103.31C25.86 104.44 23.92 105.89 22.3 107.5L17.62 107.5L17.45 117.01C17.13 122.49 20.52 128.14 27.8 132.49C41.7 140.71 64.5 140.87 78.56 132.97C86 128.78 89.55 123.3 89.23 117.82Z" fill="#FFFFFF" fill-opacity="1.000000" fill-rule="nonzero"/>
		<path d="M85.03 107.18C83.41 105.57 81.47 104.11 79.37 102.82C65.14 94.44 42.03 94.28 27.64 102.34C25.54 103.63 23.6 104.92 21.98 106.53L16.65 106.53L16.48 116.85C16 122.98 20.04 128.78 27.31 133.13C41.54 141.52 64.66 141.68 79.04 133.62C82.76 131.52 85.51 129.1 87.45 126.36C89.39 123.62 90.2 120.72 90.2 117.66L90.2 106.86L85.03 107.18ZM18.42 117.01L18.42 108.47L22.63 108.47L22.95 108.14C24.57 106.53 26.34 105.24 28.61 103.95C42.51 96.21 64.82 96.38 78.56 104.44C78.88 104.6 79.21 104.76 79.53 105.08L56.57 119.43L55.28 137.81C51.4 137.97 47.52 137.65 43.64 137L44.45 127.81L37.01 126.2L36.21 135.23C33.46 134.26 30.71 133.13 28.28 131.68C21.66 127.65 17.94 122.33 18.42 117.01Z" fill="#2F2D4F" fill-opacity="1.000000" fill-rule="nonzero"/>
		<path d="M79.04 93.47C92.95 101.7 92.95 114.75 78.72 122.65C64.66 130.55 41.86 130.39 27.96 122.17C14.06 113.95 14.06 100.89 28.28 92.99C42.35 84.93 64.98 85.25 79.04 93.47Z" fill="#FFFFFF" fill-opacity="1.000000" fill-rule="nonzero"/>
		<path d="M87.61 116.21C85.67 118.95 82.92 121.36 79.21 123.46C64.82 131.52 41.7 131.36 27.48 122.98C20.36 118.79 16.65 113.3 16.65 107.5C16.65 101.7 20.69 96.21 27.8 92.18C42.19 84.12 65.3 84.29 79.53 92.67C86.64 96.86 90.36 102.34 90.36 108.15C90.36 111.05 89.39 113.79 87.61 116.21ZM20.85 100.41C19.23 102.66 18.42 105.08 18.42 107.5C18.42 112.66 21.98 117.66 28.28 121.36C42.03 129.42 64.33 129.59 78.24 121.85C84.7 118.14 88.42 113.3 88.42 108.15C88.42 102.99 84.86 97.99 78.56 94.28C64.82 86.22 42.51 86.06 28.61 93.8C25.21 95.73 22.63 97.99 20.85 100.41Z" fill="#2F2D4F" fill-opacity="1.000000" fill-rule="nonzero"/>
		<path d="M56.43 93.63C70.53 93.76 81.91 100.43 81.83 108.54C81.76 116.64 70.26 123.1 56.16 122.97C42.05 122.84 30.68 116.17 30.75 108.06C30.83 99.96 42.32 93.5 56.43 93.63Z" fill="#C2E6EA" fill-opacity="1.000000" fill-rule="evenodd"/>
		<path d="M78.07 112.34C76.78 114.27 74.68 116.04 72.09 117.5C61.75 123.3 45.1 123.14 34.91 117.17C29.74 114.11 26.99 110.08 26.99 105.89C26.99 101.54 29.9 97.67 35.07 94.76C45.42 88.96 62.07 89.12 72.25 95.09C77.43 98.15 80.18 102.18 80.18 106.37C80.18 108.47 79.37 110.56 78.07 112.34ZM30.55 101.05C29.42 102.66 28.93 104.28 28.93 105.89C28.93 109.43 31.36 112.98 35.88 115.56C45.58 121.2 61.42 121.36 71.12 115.88C75.65 113.3 78.24 109.92 78.24 106.37C78.24 102.83 75.81 99.28 71.28 96.7C61.58 91.06 45.74 90.89 36.04 96.38C33.62 97.67 31.84 99.28 30.55 101.05Z" fill="#2F2D4F" fill-opacity="1.000000" fill-rule="nonzero"/>
		<path d="M64.5 99.12C70.31 102.5 70.31 107.98 64.33 111.37C58.35 114.75 48.98 114.59 43 111.21C37.18 107.82 37.18 102.34 43.16 98.96C49.14 95.57 58.68 95.57 64.5 99.12Z" fill="#FFFFFF" fill-opacity="1.000000" fill-rule="nonzero"/>
		<path d="M68.54 108.95C67.73 110.08 66.43 111.21 64.82 112.18C58.68 115.56 48.65 115.56 42.67 112.01C39.6 110.24 37.82 107.66 37.82 105.08C37.82 102.5 39.6 99.92 42.67 98.15C48.81 94.6 58.84 94.76 64.82 98.31C67.89 100.08 69.67 102.66 69.67 105.24C69.67 106.53 69.34 107.82 68.54 108.95ZM40.57 102.34C39.92 103.15 39.6 104.11 39.6 105.08C39.6 107.02 40.89 108.95 43.48 110.4C49.14 113.63 58.19 113.79 63.85 110.56C66.43 109.11 67.89 107.18 67.89 105.24C67.89 103.31 66.6 101.37 64.01 99.92C58.35 96.7 49.3 96.54 43.64 99.76C42.35 100.41 41.22 101.37 40.57 102.34Z" fill="#2F2D4F" fill-opacity="1.000000" fill-rule="nonzero"/>
		<path d="M60.62 104.6C62.72 105.89 62.72 107.82 60.62 108.95C58.51 110.08 54.96 110.08 52.86 108.95C50.75 107.66 50.75 105.73 52.86 104.6C54.96 103.31 58.51 103.31 60.62 104.6Z" fill="#C2E6EA" fill-opacity="1.000000" fill-rule="nonzero"/>
		<path d="M59.81 106.37C59.48 106.86 59 107.34 58.35 107.66C55.93 108.95 52.21 108.95 49.78 107.66C48.49 106.86 47.68 105.89 47.68 104.6C47.68 103.47 48.49 102.34 49.78 101.54C52.21 100.25 55.93 100.25 58.35 101.54C59.65 102.34 60.45 103.31 60.45 104.6C60.45 105.24 60.29 105.89 59.81 106.37ZM49.78 103.95C49.62 104.11 49.62 104.44 49.62 104.6C49.62 105.08 49.95 105.57 50.75 106.05C52.53 107.18 55.6 107.18 57.54 106.05C58.19 105.57 58.68 105.08 58.68 104.6C58.68 104.11 58.35 103.63 57.54 103.15C55.77 102.02 52.69 102.02 50.75 103.15C50.27 103.47 49.95 103.63 49.78 103.95Z" fill="#2F2D4F" fill-opacity="1.000000" fill-rule="nonzero"/>
		<path d="M35.22 92.24L10.2 52.13L12.67 50.6L37.69 90.71L35.22 92.24Z" fill="#C2E6EA" fill-opacity="1.000000" fill-rule="evenodd"/>
		<path d="M38.95 91.06L34.91 93.47L9.05 51.72L12.93 49.3L38.95 91.06ZM35.24 90.89L36.69 90.25L12.6 51.72L11.15 52.36L35.24 90.89Z" fill="#2F2D4F" fill-opacity="1.000000" fill-rule="nonzero"/>
		<path d="M43.48 100.89L40.73 85.74L36.69 91.38L29.74 92.51L42.02 101.7C42.51 102.34 43.64 101.86 43.48 100.89Z" fill="#FFFFFF" fill-opacity="1.000000" fill-rule="nonzero"/>
		<path d="M40.09 94.12L33.13 95.25L42.51 102.18C42.83 102.02 43.64 101.54 43.48 101.21L41.86 91.54L40.09 94.12Z" fill="#C2E6EA" fill-opacity="1.000000" fill-rule="nonzero"/>
		<path d="M44.29 101.37C44.29 102.02 43.96 102.5 43.48 102.83C42.83 103.31 42.02 103.15 41.38 102.66L27.31 92.18L36.04 90.73L41.22 83.64L44.45 100.89C44.29 100.89 44.29 101.21 44.29 101.37ZM31.84 93.15L42.35 101.05L40.08 88.15L37.01 92.35L31.84 93.15Z" fill="#2F2D4F" fill-opacity="1.000000" fill-rule="nonzero"/>
		<path d="M1.93 48.33L8.08 58.01L18.75 64.46C19.39 64.78 20.2 64.29 20.04 63.65L18.91 51.24L12.77 41.56L10.83 50.75L1.93 48.33Z" fill="#FFFFFF" fill-opacity="1.000000" fill-rule="nonzero"/>
		<path d="M19.39 52.04L15.68 46.24L14.38 52.53L5.98 50.27L12.12 59.94L20.2 64.94C20.36 64.78 20.53 64.46 20.53 64.29L19.39 52.04Z" fill="#C2E6EA" fill-opacity="1.000000" fill-rule="nonzero"/>
		<path d="M10.34 49.62L0 46.88L7.43 58.81L18.26 65.26C18.91 65.58 19.56 65.58 20.2 65.26C20.69 64.94 21.01 64.46 21.01 63.97C21.01 63.81 21.01 63.81 21.01 63.65L20.04 51.07L12.6 39.14L10.34 49.62ZM18.26 51.56L19.39 63.65L8.72 57.52L7.59 55.75L13.74 57.36L14.22 55.59L6.14 53.33L4.04 49.78L11.8 51.88L13.41 43.98L18.26 51.56Z" fill="#2F2D4F" fill-opacity="1.000000" fill-rule="nonzero"/>
		<path d="M128.67 142L127.7 137.97L125.28 137.97C122.69 136.2 118.81 135.23 114.61 135.23C110.41 135.23 106.53 136.36 103.94 137.97L101.68 137.97L100.54 142.16C100.38 142.48 100.22 142.97 100.22 143.29C100.22 147.8 106.69 151.51 114.45 151.51C122.37 151.51 128.67 147.8 128.67 143.29C128.83 142.97 128.83 142.48 128.67 142Z" fill="#FFFFFF" fill-opacity="1.000000" fill-rule="nonzero"/>
		<path d="M128.67 142.16L127.7 137.97L125.28 137.97C122.69 136.2 118.81 135.23 114.61 135.23C113.64 135.23 112.67 135.23 111.86 135.39C109.44 135.87 107.33 136.68 105.56 137.81L104.26 137.81C104.1 137.97 103.94 137.97 103.78 138.13L103.13 138.13L102.16 142C102 142.48 102 142.81 102 143.29C102 147.8 108.47 151.51 116.22 151.51C117.19 151.51 118 151.51 118.97 151.35C124.63 150.22 128.83 147.16 128.83 143.61C128.83 142.97 128.83 142.64 128.67 142.16Z" fill="#C2E6EA" fill-opacity="1.000000" fill-rule="nonzero"/>
		<path d="M114.61 152C106.36 152 99.74 148.13 99.74 143.29C99.74 142.97 99.74 142.81 99.74 142.48L99.9 141.84L101.03 137.33L103.62 137.33C106.36 135.55 110.41 134.58 114.45 134.58C118.49 134.58 122.53 135.55 125.28 137.33L127.86 137.33L129 141.84C129.32 142.48 129.32 142.97 129.32 143.29C129.32 148.13 122.69 152 114.61 152ZM101.19 141.52L101.03 142.16C100.87 142.64 100.87 142.97 100.87 143.29C100.87 147.48 107.01 151.03 114.61 151.03C122.21 151.03 128.35 147.64 128.35 143.29C128.35 142.97 128.35 142.64 128.19 142.16L127.22 138.45L125.12 138.45L124.95 138.29C122.37 136.52 118.49 135.55 114.61 135.55C110.57 135.55 106.85 136.52 104.26 138.29L104.1 138.45L102 138.45L101.19 141.52Z" fill="#2F2D4F" fill-opacity="1.000000" fill-rule="nonzero"/>
		<path d="M127.7 138.94C127.7 143.13 121.88 146.51 114.61 146.51C107.33 146.51 101.51 143.13 101.51 138.94C101.51 134.75 107.33 131.36 114.61 131.36C121.88 131.36 127.7 134.75 127.7 138.94Z" fill="#FFFFFF" fill-opacity="1.000000" fill-rule="nonzero"/>
		<path d="M127.86 138.94C127.86 137.49 127.22 136.2 125.92 135.07C123.5 133.46 120.1 132.49 116.06 132.49C108.79 132.49 102.97 135.87 102.97 140.07C102.97 141.52 103.62 142.81 104.91 143.93C107.33 145.55 110.73 146.51 114.77 146.51C122.04 146.35 127.86 142.97 127.86 138.94Z" fill="#FFFFFF" fill-opacity="1.000000" fill-rule="nonzero"/>
		<path d="M114.61 147C107.01 147 100.87 143.45 100.87 138.94C100.87 134.42 107.01 130.88 114.61 130.88C122.21 130.88 128.35 134.42 128.35 138.94C128.35 143.29 122.21 147 114.61 147ZM114.61 131.84C107.66 131.84 102 135.07 102 138.94C102 142.81 107.66 146.03 114.61 146.03C121.56 146.03 127.22 142.81 127.22 138.94C127.22 134.91 121.56 131.84 114.61 131.84Z" fill="#2F2D4F" fill-opacity="1.000000" fill-rule="nonzero"/>
		<path d="M121.24 138.45C121.24 140.39 118.16 142 114.61 142C110.89 142 107.98 140.39 107.98 138.45C107.98 136.52 111.05 134.91 114.61 134.91C118.33 134.91 121.24 136.52 121.24 138.45Z" fill="#FFFFFF" fill-opacity="1.000000" fill-rule="nonzero"/>
		<path d="M114.61 134.91C113.8 134.91 112.83 135.07 112.18 135.23C110.57 135.87 109.6 136.84 109.6 137.97C109.6 139.9 112.67 141.52 116.22 141.52C117.03 141.52 118 141.36 118.65 141.19C120.27 140.55 121.24 139.58 121.24 138.45C121.4 136.52 118.33 134.91 114.61 134.91Z" fill="#C2E6EA" fill-opacity="1.000000" fill-rule="nonzero"/>
		<path d="M114.61 142.48C110.57 142.48 107.33 140.71 107.33 138.45C107.33 136.2 110.57 134.42 114.61 134.42C118.65 134.42 121.88 136.2 121.88 138.45C121.72 140.71 118.65 142.48 114.61 142.48ZM114.61 135.39C111.21 135.39 108.47 136.84 108.47 138.45C108.47 140.07 111.21 141.52 114.61 141.52C118 141.52 120.75 140.07 120.75 138.45C120.75 136.84 117.84 135.39 114.61 135.39Z" fill="#2F2D4F" fill-opacity="1.000000" fill-rule="nonzero"/>
		<path d="M114.61 137.16C117.52 137.16 119.94 138.13 120.91 139.58C121.07 139.26 121.24 138.78 121.24 138.45C121.24 136.52 118.16 134.91 114.61 134.91C110.89 134.91 107.98 136.52 107.98 138.45C107.98 138.94 108.14 139.26 108.3 139.58C109.11 138.13 111.7 137.16 114.61 137.16Z" fill="#2F2D4F" fill-opacity="1.000000" fill-rule="nonzero"/>
		<path d="M108.63 139.9L107.82 139.9C107.5 139.42 107.33 138.94 107.33 138.45C107.33 136.2 110.57 134.42 114.61 134.42C118.65 134.42 121.88 136.2 121.88 138.45C121.88 138.94 121.72 139.42 121.4 139.9L119.94 140.55L120.43 139.9C119.62 138.61 117.19 137.81 114.61 137.81C112.02 137.65 109.6 138.61 108.63 139.9ZM114.61 135.39C111.21 135.39 108.47 136.84 108.47 138.45L108.47 138.61C109.76 137.49 112.02 136.68 114.61 136.68C117.19 136.68 119.46 137.32 120.75 138.61L120.75 138.45C120.75 136.68 117.84 135.39 114.61 135.39Z" fill="#2F2D4F" fill-opacity="1.000000" fill-rule="nonzero"/>
		<path d="M111.7 146.35L111.38 151.35L117.36 151.35L122.69 149.9L125.6 148.77L128.35 146.35L128.83 143.45L128.03 139.58L126.57 142L124.63 143.61L120.1 145.71L114.61 146.35L111.7 146.35Z" fill="#2F2D4F" fill-opacity="1.000000" fill-rule="nonzero"/>
		<path d="M102 141.03L100.87 145.87L100.22 142.81L101.19 139.42L102 141.03Z" fill="#2F2D4F" fill-opacity="1.000000" fill-rule="nonzero"/>
		<path d="M107.66 36.08L71.12 15.12C70.48 14.64 69.67 14.64 69.18 14.96C69.18 14.96 69.02 14.96 69.02 15.12L63.69 18.35C63.52 18.51 63.36 18.67 63.52 18.99L66.43 24.15L66.43 44.14C66.43 46.4 67.73 48.98 69.51 49.95L98.28 66.55L103.94 73.64L109.6 70.26C110.24 69.94 110.73 68.97 110.73 67.84L110.73 41.72C110.73 39.63 109.43 37.05 107.66 36.08Z" fill="#FFFFFF" fill-opacity="1.000000" fill-rule="nonzero"/>
		<path d="M107.5 38.18L70.96 17.22C70.31 16.74 69.51 16.74 69.02 17.06C69.02 17.06 68.86 17.06 68.86 17.22L63.53 20.44C63.36 20.6 63.2 20.77 63.36 21.09L66.27 26.09L66.27 46.08C66.27 48.33 67.57 50.91 69.35 51.88L98.12 68.49L101.19 71.07L107.33 69.94C107.98 69.61 110.73 71.07 110.73 69.78L110.73 43.98C110.57 41.72 109.11 39.14 107.5 38.18Z" fill="#F2F3F3" fill-opacity="1.000000" fill-rule="nonzero"/>
		<path d="M103.78 74.13L97.8 66.71L69.18 50.11C67.24 48.98 65.79 46.24 65.79 43.82L65.79 23.99L63.04 18.99C62.72 18.51 62.88 17.86 63.36 17.54L68.7 14.32C68.7 14.32 68.86 14.16 69.02 14.16C69.83 13.83 70.64 13.83 71.61 14.32L108.14 35.28C110.08 36.4 111.54 39.14 111.54 41.56L111.54 67.03C111.54 68.49 111.05 69.61 110.08 70.1L103.78 74.13ZM64.33 18.51L67.24 23.67L67.24 43.82C67.24 45.75 68.54 48.17 69.99 48.98L98.93 65.75L104.26 72.35L109.44 69.29C109.92 68.97 110.24 68.32 110.24 67.36L110.24 41.72C110.24 39.79 108.95 37.37 107.5 36.57L70.96 15.61C70.64 15.45 70.15 15.28 69.67 15.45L69.51 15.45L64.33 18.51Z" fill="#2F2D4F" fill-opacity="1.000000" fill-rule="nonzero"/>
		<path d="M102 73L65.46 52.04C63.85 51.07 62.39 48.5 62.39 46.24L62.39 20.77C62.39 18.51 63.69 17.54 65.46 18.51L102 39.47C103.62 40.43 105.07 43.01 105.07 45.27L105.07 70.74C104.91 73 103.62 73.97 102 73Z" fill="#FFFFFF" fill-opacity="1.000000" fill-rule="nonzero"/>
		<path d="M103.13 74.13C102.65 74.13 102.16 73.97 101.68 73.64L65.14 52.69C63.2 51.56 61.75 48.82 61.75 46.4L61.75 20.77C61.75 19.32 62.23 18.35 63.04 17.7C63.85 17.22 64.66 17.38 65.63 17.86L102.16 38.82C104.1 39.95 105.56 42.69 105.56 45.11L105.56 70.58C105.56 72.03 105.07 73 104.26 73.64C103.94 73.97 103.62 74.13 103.13 74.13ZM102.32 72.52C102.65 72.68 103.29 73 103.62 72.68C104.1 72.35 104.26 71.71 104.26 70.74L104.26 45.27C104.26 43.34 102.97 40.92 101.51 40.11L64.98 19.15C64.82 18.83 64.17 18.67 63.85 18.83C63.36 19.15 63.04 19.8 63.04 20.77L63.04 46.24C63.04 48.17 64.33 50.59 65.79 51.4L102.32 72.52Z" fill="#2F2D4F" fill-opacity="1.000000" fill-rule="nonzero"/>
		<path d="M85.67 60.59L82.76 58.97C82.12 58.49 81.47 57.52 81.47 56.56L81.47 37.21C81.47 36.24 82.12 35.76 82.76 36.24L85.67 37.86C86.32 38.34 86.96 39.31 86.96 40.27L86.96 59.62C86.96 60.59 86.32 61.07 85.67 60.59Z" fill="#F2F3F3" fill-opacity="1.000000" fill-rule="nonzero"/>
		<path d="M84.7 58.33C84.38 58.33 84.22 58.17 83.89 58.01L80.98 56.39C80.01 55.91 79.37 54.62 79.37 53.33L79.37 33.99C79.37 33.18 79.69 32.7 80.18 32.37C80.66 32.05 81.15 32.21 81.63 32.37L84.54 33.99C85.51 34.47 86.16 35.76 86.16 37.05L86.16 56.39C86.16 57.2 85.83 57.68 85.35 58.01C85.19 58.33 84.86 58.33 84.7 58.33ZM80.82 33.5C80.82 33.5 80.66 33.66 80.66 33.99L80.66 53.33C80.66 54.14 81.15 54.94 81.63 55.27L84.54 56.88C84.7 56.88 84.7 56.88 84.7 56.88C84.7 56.88 84.86 56.72 84.86 56.39L84.86 37.05C84.86 36.24 84.38 35.44 83.89 35.11L80.98 33.5C80.82 33.66 80.82 33.5 80.82 33.5Z" fill="#2F2D4F" fill-opacity="1.000000" fill-rule="nonzero"/>
		<path d="M93.92 65.26L90.52 63.33C89.87 63 89.39 62.04 89.39 61.23L89.39 48.66C89.39 47.85 89.87 47.53 90.52 47.85L93.92 49.78C94.56 50.11 95.05 51.07 95.05 51.88L95.05 64.46C94.89 65.26 94.4 65.58 93.92 65.26Z" fill="#F2F3F3" fill-opacity="1.000000" fill-rule="nonzero"/>
		<path d="M92.78 63C92.46 63 92.3 63 91.98 62.84L88.58 60.91C87.77 60.42 87.13 59.3 87.13 58.33L87.13 45.75C87.13 45.11 87.45 44.63 87.77 44.3C88.1 44.14 88.58 44.14 89.07 44.3L92.46 46.24C93.27 46.72 93.92 47.85 93.92 48.82L93.92 61.39C93.92 62.04 93.59 62.52 93.27 62.84C93.27 63 92.95 63 92.78 63ZM92.62 61.71C92.62 61.71 92.78 61.55 92.78 61.39L92.78 48.82C92.78 48.17 92.46 47.53 91.98 47.37L88.58 45.43C88.58 45.43 88.42 45.43 88.42 45.75L88.42 58.33C88.42 58.97 88.74 59.62 89.23 59.78L92.62 61.71Z" fill="#2F2D4F" fill-opacity="1.000000" fill-rule="nonzero"/>
		<path d="M78.4 56.39L74.68 54.3C74.19 53.98 73.71 53.17 73.71 52.53L73.71 47.69C73.71 47.04 74.19 46.72 74.68 47.04L78.4 49.14C78.88 49.46 79.37 50.27 79.37 50.91L79.37 55.75C79.37 56.23 78.88 56.56 78.4 56.39Z" fill="#F2F3F3" fill-opacity="1.000000" fill-rule="nonzero"/>
		<path d="M77.27 53.98C77.1 53.98 76.78 53.98 76.62 53.82L72.9 51.72C72.25 51.24 71.61 50.27 71.61 49.46L71.61 44.63C71.61 43.98 71.77 43.5 72.25 43.34C72.58 43.18 73.06 43.18 73.55 43.34L77.27 45.43C77.91 45.92 78.56 46.88 78.56 47.69L78.56 52.53C78.56 53.17 78.4 53.65 77.91 53.82C77.59 53.98 77.43 53.98 77.27 53.98ZM72.9 44.47L72.9 49.46C72.9 49.95 73.22 50.43 73.55 50.59L77.1 52.69C77.1 52.69 77.1 52.69 77.1 52.53L77.1 47.69C77.1 47.21 76.78 46.72 76.46 46.56L72.9 44.47Z" fill="#2F2D4F" fill-opacity="1.000000" fill-rule="nonzero"/>
		<path d="M104.26 42.37L110.08 38.98L110.73 41.72L110.73 68.16L109.6 69.78L104.59 72.68L104.91 47.04L104.26 42.37Z" fill="#2F2D4F" fill-opacity="1.000000" fill-rule="nonzero"/>
		<path d="M105.88 38.18C105.88 38.62 105.3 38.98 104.59 38.98C103.87 38.98 103.29 38.62 103.29 38.18C103.29 37.73 103.87 37.37 104.59 37.37C105.3 37.37 105.88 37.73 105.88 38.18Z" fill="#2F2D4F" fill-opacity="1.000000" fill-rule="evenodd"/>
		<path d="M100.71 34.95C101.19 35.28 101.19 35.76 100.71 36.08C100.22 36.4 99.41 36.4 98.93 36.08C98.44 35.76 98.44 35.28 98.93 34.95C99.25 34.63 100.22 34.63 100.71 34.95Z" fill="#2F2D4F" fill-opacity="1.000000" fill-rule="nonzero"/>
		<path d="M95.86 32.05C96.34 32.37 96.34 32.86 95.86 33.18C95.37 33.5 94.56 33.5 94.08 33.18C93.59 32.86 93.59 32.37 94.08 32.05C94.56 31.89 95.37 31.89 95.86 32.05Z" fill="#2F2D4F" fill-opacity="1.000000" fill-rule="nonzero"/>
		<path d="M202.22 109.43C202.22 109.43 206.1 86.7 204.16 76.22L184.44 78.64C184.44 78.64 184.28 95.25 177.33 111.53C176.85 112.5 177.49 113.79 178.95 114.59L182.99 116.85C185.25 118.14 188.48 118.3 190.42 117.17L200.93 111.05C201.74 110.89 202.22 110.08 202.22 109.43Z" fill="#FFFFFF" fill-opacity="1.000000" fill-rule="nonzero"/>
		<path d="M197.7 97.34L186.87 91.38C186.54 91.22 186.06 91.38 186.06 91.86C186.06 94.12 185.41 100.41 179.92 112.98C179.43 113.95 180.08 115.24 181.53 116.04L183.15 117.01C185.41 117.98 188.32 118.14 190.1 117.01L200.61 110.89C201.42 110.4 201.9 109.76 201.9 109.11C201.9 109.11 202.06 108.47 202.22 107.34C201.25 105.4 198.67 102.02 197.7 97.34Z" fill="#C2E6EA" fill-opacity="1.000000" fill-rule="nonzero"/>
		<path d="M190.26 117.33L200.77 111.21C201.58 110.72 202.06 110.08 202.06 109.43C202.06 109.43 205.94 86.7 204 76.22L198.83 76.87L193.5 79.61C193.5 79.61 193.5 101.54 186.38 117.82C186.38 117.82 186.38 117.82 186.38 117.98C187.84 118.14 189.29 117.98 190.26 117.33Z" fill="#2F2D4F" fill-opacity="1.000000" fill-rule="nonzero"/>
		<path d="M187.19 118.3C185.74 118.3 184.12 117.98 182.83 117.17L178.78 114.92C177.33 114.11 176.68 112.98 176.85 111.85L177.01 111.53C183.96 95.41 184.12 78.8 184.12 78.64L184.12 78.48L204.33 76.06L204.33 76.22C206.27 86.38 202.55 108.63 202.39 109.43C202.39 110.24 201.9 110.89 200.93 111.53L190.42 117.66C189.62 118.14 188.48 118.3 187.19 118.3ZM177.65 111.37L177.49 111.69C177.01 112.66 177.65 113.79 179.11 114.43L183.15 116.69C185.25 117.98 188.48 117.98 190.42 117.01L200.93 110.89C201.74 110.4 202.06 109.92 202.06 109.27C202.06 109.11 205.78 86.7 204 76.39L184.77 78.64C184.6 80.9 183.96 96.21 177.65 111.37Z" fill="#2F2D4F" fill-opacity="1.000000" fill-rule="nonzero"/>
		<path d="M214.83 66.07C214.83 59.78 210.47 52.2 204.97 48.98C202.39 47.53 200.12 47.21 198.35 48.17C198.18 48.33 197.86 48.33 197.7 48.5L190.59 52.69L191.56 55.1L204.49 76.87L211.76 72.68C211.92 72.52 212.25 72.52 212.41 72.35C213.86 71.07 214.83 68.97 214.83 66.07Z" fill="#FFFFFF" fill-opacity="1.000000" fill-rule="nonzero"/>
		<path d="M214.03 68.81C213.54 62.84 209.34 55.91 204.16 53.01C201.58 51.56 199.31 51.24 197.54 52.2C197.37 52.36 197.05 52.36 196.89 52.53L191.39 55.75L204 76.87L211.28 72.68C211.44 72.52 211.76 72.52 211.92 72.35C212.89 71.55 213.7 70.42 214.03 68.81Z" fill="#C2E6EA" fill-opacity="1.000000" fill-rule="nonzero"/>
		<path d="M204.33 77.19L191.23 55.27L190.26 52.69L197.54 48.33C197.7 48.17 198.02 48.01 198.18 48.01C200.12 47.04 202.55 47.37 205.13 48.82C210.63 52.04 215.16 59.78 215.16 66.07C215.16 68.97 214.19 71.23 212.57 72.35C212.41 72.52 212.09 72.68 211.92 72.84L204.33 77.19ZM190.75 52.85L191.56 54.94L204.33 76.55L211.28 72.35C211.44 72.19 211.76 72.19 211.92 72.03C213.54 70.9 214.35 68.81 214.35 66.07C214.35 59.94 209.98 52.36 204.65 49.3C202.22 47.85 199.96 47.69 198.18 48.5C198.02 48.66 197.7 48.66 197.54 48.82L190.75 52.85Z" fill="#2F2D4F" fill-opacity="1.000000" fill-rule="nonzero"/>
		<path d="M207.4 70.42C207.4 76.71 203.03 79.29 197.54 76.06C192.04 73 187.68 65.26 187.68 58.97C187.68 52.69 192.04 50.11 197.54 53.33C203.03 56.56 207.4 64.13 207.4 70.42Z" fill="#FFFFFF" fill-opacity="1.000000" fill-rule="nonzero"/>
		<path d="M201.9 77.67C200.45 77.67 198.99 77.19 197.38 76.22C191.88 73 187.35 65.26 187.35 58.97C187.35 55.91 188.48 53.49 190.42 52.36C192.36 51.24 194.95 51.56 197.7 53.01C203.2 56.23 207.72 63.97 207.72 70.26C207.72 73.32 206.59 75.74 204.65 76.87C203.84 77.35 203.03 77.67 201.9 77.67ZM193.17 52.2C192.2 52.2 191.39 52.36 190.75 52.85C188.97 53.82 188 56.07 188 58.97C188 65.1 192.36 72.68 197.7 75.74C200.29 77.19 202.71 77.51 204.49 76.39C206.27 75.42 207.24 73.16 207.24 70.26C207.24 64.13 202.87 56.56 197.54 53.49C195.92 52.69 194.47 52.2 193.17 52.2Z" fill="#2F2D4F" fill-opacity="1.000000" fill-rule="nonzero"/>
		<path d="M204.65 70.74C204.65 65.1 200.61 58.17 195.76 55.43C193.5 54.14 191.39 53.98 189.78 54.62C189.62 54.78 189.45 54.78 189.13 54.94L169.89 65.91L170.7 68L182.34 87.51L194.3 80.58C194.47 80.42 202.22 76.22 202.39 76.22C203.84 75.42 204.65 73.48 204.65 70.74Z" fill="#FFFFFF" fill-opacity="1.000000" fill-rule="nonzero"/>
		<path d="M204.16 73.64C203.68 68.32 199.96 62.2 195.44 59.46C193.17 58.17 191.07 58.01 189.45 58.65C189.29 58.81 189.13 58.81 188.81 58.97L171.35 68.97L182.5 87.51L194.47 80.58C194.63 80.42 202.39 76.22 202.55 76.22C203.19 75.74 203.84 74.77 204.16 73.64Z" fill="#F2F3F3" fill-opacity="1.000000" fill-rule="nonzero"/>
		<path d="M202.55 63.17C202.39 63.33 194.79 67.52 194.47 67.52L182.5 74.45L176.36 73.81L169.89 65.91L170.7 68L182.34 87.51L194.3 80.58C194.47 80.42 202.22 76.22 202.39 76.22C203.84 75.26 204.65 73.32 204.65 70.74C204.65 68.32 203.84 65.58 202.55 63.17Z" fill="#2F2D4F" fill-opacity="1.000000" fill-rule="nonzero"/>
		<path d="M182.34 87.99L170.54 68.16L169.57 65.75L188.97 54.62C189.13 54.46 189.29 54.46 189.62 54.3C191.39 53.49 193.5 53.82 195.92 55.1C200.93 58.01 204.97 64.94 204.97 70.58C204.97 73.16 204.16 75.26 202.55 76.22C202.22 76.39 194.47 80.58 194.47 80.74L182.34 87.99ZM170.22 66.07L171.03 68L182.5 87.35L194.14 80.58C194.47 80.42 201.9 76.22 202.22 76.22C203.68 75.26 204.33 73.32 204.33 70.9C204.33 65.42 200.45 58.65 195.6 55.75C193.5 54.46 191.39 54.3 189.78 54.94C189.62 55.1 189.45 55.1 189.29 55.27L170.22 66.07Z" fill="#2F2D4F" fill-opacity="1.000000" fill-rule="nonzero"/>
		<path d="M185.25 81.87C185.25 87.51 181.21 89.77 176.36 87.03C171.51 84.28 167.47 77.35 167.47 71.71C167.47 66.07 171.51 63.81 176.36 66.55C181.21 69.45 185.25 76.22 185.25 81.87Z" fill="#FFFFFF" fill-opacity="1.000000" fill-rule="nonzero"/>
		<path d="M180.24 88.48C178.95 88.48 177.65 87.99 176.2 87.19C171.19 84.28 167.15 77.35 167.15 71.71C167.15 68.97 168.12 66.71 169.89 65.75C171.67 64.78 173.94 64.94 176.36 66.39C181.37 69.29 185.41 76.22 185.41 81.87C185.41 84.61 184.44 86.86 182.66 87.83C182.02 88.32 181.21 88.48 180.24 88.48ZM172.32 65.58C171.51 65.58 170.7 65.75 170.06 66.07C168.44 67.03 167.63 68.97 167.63 71.55C167.63 77.03 171.51 83.8 176.36 86.7C178.62 87.99 180.72 88.32 182.34 87.35C183.96 86.38 184.77 84.45 184.77 81.87C184.77 76.39 180.89 69.61 176.04 66.71C174.91 66.07 173.45 65.58 172.32 65.58Z" fill="#2F2D4F" fill-opacity="1.000000" fill-rule="nonzero"/>
		<path d="M182.34 82.19C182.34 77.35 178.95 71.39 174.74 68.97C172.32 67.52 170.06 67.68 168.6 68.97C165.21 70.74 155.18 74.61 142.41 66.07C141.6 65.58 140.63 66.39 140.96 67.2L160.36 115.08L164.24 115.88C166.34 116.37 168.28 114.59 168.12 112.5C167.47 106.21 168.12 94.76 179.11 87.83C181.05 87.19 182.34 85.25 182.34 82.19Z" fill="#FFFFFF" fill-opacity="1.000000" fill-rule="nonzero"/>
		<path d="M178.62 87.67C179.92 87.35 181.05 86.54 181.53 85.09C180.89 80.58 177.81 75.58 173.93 73.32C171.51 71.87 169.25 72.03 167.79 73.32C164.4 75.1 154.54 78.96 141.77 70.58L160.03 115.08L163.91 115.88C165.21 116.21 166.5 115.56 167.15 114.43C167.15 112.66 167.15 110.56 167.47 108.47C167.63 102.18 169.73 93.31 178.62 87.67Z" fill="#F2F3F3" fill-opacity="1.000000" fill-rule="nonzero"/>
		<path d="M164.88 116.04C164.72 116.04 164.4 116.04 164.24 116.04L160.36 115.24L140.63 67.2C140.47 66.71 140.63 66.07 140.96 65.75C141.44 65.42 141.93 65.42 142.41 65.75C155.02 74.13 164.72 70.58 168.44 68.65C170.06 67.2 172.32 67.2 174.74 68.65C179.11 71.07 182.5 77.19 182.5 82.19C182.5 85.25 181.21 87.35 178.95 87.83C168.12 94.6 167.47 106.05 168.12 112.34C168.28 113.46 167.79 114.43 166.98 115.24C166.5 115.72 165.69 116.04 164.88 116.04ZM160.52 114.75L164.24 115.4C165.21 115.56 166.01 115.4 166.82 114.75C167.47 114.11 167.79 113.14 167.79 112.34C167.15 106.05 167.79 94.44 178.95 87.35L179.11 87.35C181.21 87.03 182.34 85.09 182.34 82.19C182.34 77.35 178.95 71.55 174.74 69.13C172.48 67.84 170.38 67.84 168.92 69.13C165.21 71.07 155.35 74.77 142.41 66.23C142.09 66.07 141.77 66.07 141.6 66.23C141.44 66.39 141.28 66.71 141.44 67.03L160.52 114.75Z" fill="#2F2D4F" fill-opacity="1.000000" fill-rule="nonzero"/>
		<path d="M164.88 124.91C165.53 124.11 165.85 123.62 165.85 123.62C167.95 120.56 169.25 116.21 169.25 110.72C169.25 94.12 157.61 73.97 143.22 65.75C136.43 61.88 130.29 61.23 125.76 63.49C125.6 63.49 125.44 63.65 125.28 63.65C125.28 63.65 125.12 63.65 125.12 63.81C124.95 63.97 124.79 63.97 124.47 64.13C124.47 64.13 124.47 64.13 124.31 64.13C124.15 64.29 123.98 64.46 123.66 64.46C116.22 69.61 115.74 79.29 115.74 79.29L117.03 80.58C117.03 92.02 122.69 105.24 130.77 114.92C133.68 120.08 137.4 124.43 142.25 126.52C149.2 129.59 154.37 129.59 158.09 128.62C160.52 127.97 162.62 126.85 164.24 125.07C164.72 125.23 164.72 125.07 164.88 124.91Z" fill="#FFFFFF" fill-opacity="1.000000" fill-rule="nonzero"/>
		<path d="M163.43 123.14C164.07 122.33 163.43 120.56 163.43 120.56L164.07 121.85C166.18 118.79 169.25 117.66 169.25 112.18C169.25 95.57 157.61 75.42 143.22 67.2C136.43 63.33 130.29 62.68 125.76 64.94C125.6 64.94 125.44 65.1 125.28 65.1C125.28 65.1 125.12 65.1 125.12 65.26C124.95 65.42 124.79 65.42 124.47 65.58C124.47 65.58 124.47 65.58 124.31 65.58C124.15 65.75 123.98 65.91 123.66 65.91C116.22 71.07 115.74 80.74 115.74 80.74L117.03 82.03C117.03 93.47 122.69 106.69 130.77 116.37C133.68 121.53 138.53 123.14 143.38 125.23C150.33 128.3 152.27 127.33 155.99 126.2C158.42 125.56 159.39 125.72 161.16 123.78C161.49 124.11 161.49 120.72 163.43 123.14Z" fill="#F2F3F3" fill-opacity="1.000000" fill-rule="nonzero"/>
		<path d="M169.25 110.89C169.25 105.4 167.95 99.6 165.69 93.96C165.37 97.99 164.24 101.37 162.46 103.95C162.46 103.95 162.13 104.44 161.49 105.24C161.49 105.4 161.33 105.4 161.16 105.57C159.55 107.34 157.45 108.63 155.02 109.11C151.3 110.08 146.13 110.08 139.18 107.02C134.33 104.92 130.45 100.57 127.7 95.41C122.85 89.6 118.97 82.83 116.55 75.74C115.9 77.84 115.9 79.45 115.9 79.45L117.2 80.74C117.2 92.18 122.85 105.4 130.94 115.08C133.85 120.24 137.56 124.59 142.41 126.68C149.36 129.75 154.54 129.75 158.25 128.78C160.68 128.14 162.78 127.01 164.4 125.23C164.56 125.07 164.56 125.07 164.72 124.91C165.37 124.11 165.69 123.62 165.69 123.62C168.12 120.56 169.25 116.21 169.25 110.89Z" fill="#2F2D4F" fill-opacity="1.000000" fill-rule="nonzero"/>
		<path d="M153.73 129.75C150.33 129.75 146.62 128.78 142.41 127.01C137.89 125.07 134.01 121.04 130.77 115.24C122.21 105.08 116.87 91.86 116.87 80.74L115.58 79.45L115.58 79.29C115.58 79.13 116.22 69.45 123.66 64.29C123.82 64.13 123.98 63.97 124.31 63.97L124.47 63.97C124.63 63.81 124.79 63.81 125.12 63.65L125.28 63.65C125.28 63.65 125.28 63.65 125.44 63.65C125.6 63.49 125.76 63.49 125.92 63.49C130.77 61.23 137.08 62.04 143.71 65.75C158.09 74.13 169.89 94.28 169.89 110.89C169.89 116.05 168.76 120.56 166.5 123.78C166.5 123.78 166.18 124.43 165.37 125.07C165.21 125.23 165.21 125.23 165.04 125.4C163.27 127.17 161.16 128.46 158.74 129.1C156.96 129.59 155.35 129.75 153.73 129.75ZM116.22 79.29L117.52 80.58L117.52 80.74C117.52 91.86 122.85 104.92 131.26 115.08C134.49 120.88 138.37 124.75 142.74 126.69C148.72 129.27 153.89 130.07 158.42 128.78C160.84 128.14 162.78 127.01 164.56 125.23C164.72 125.07 164.72 125.07 164.88 124.91L165.04 125.07L164.88 124.91C165.37 124.43 165.69 123.94 165.85 123.78L166.01 123.62C168.28 120.4 169.41 116.05 169.41 110.89C169.41 94.44 157.77 74.29 143.54 66.07C137.08 62.36 130.94 61.55 126.25 63.81C126.09 63.81 125.92 63.97 125.76 63.97L125.28 63.97C125.12 64.13 124.95 64.13 124.79 64.29L124.63 64.29C124.47 64.46 124.31 64.46 123.98 64.62C117.2 69.45 116.22 78.16 116.22 79.29Z" fill="#2F2D4F" fill-opacity="1.000000" fill-rule="nonzero"/>
		<path d="M157.55 87.38C167.14 103.96 167.15 121.87 157.57 127.39C147.98 132.91 132.43 123.95 122.83 107.37C113.23 90.79 113.22 72.88 122.81 67.36C132.4 61.84 147.95 70.8 157.55 87.38Z" fill="#FFFFFF" fill-opacity="1.000000" fill-rule="evenodd"/>
		<path d="M146.29 92.51C153.73 96.7 160.2 104.28 164.72 112.82C164.72 112.34 164.72 112.01 164.72 111.53C164.72 95.89 153.73 76.87 140.15 69.13C126.57 61.39 115.58 67.68 115.58 83.32C115.58 90.41 117.84 98.31 121.72 105.57C122.37 90.57 133.04 84.77 146.29 92.51Z" fill="#2F2D4F" fill-opacity="1.000000" fill-rule="nonzero"/>
		<path d="M151.14 129.1C147.75 129.1 144.03 127.97 139.99 125.72C126.41 117.82 115.25 98.79 115.25 83C115.25 75.42 117.84 69.61 122.53 66.87C127.22 64.13 133.52 64.78 140.15 68.65C153.73 76.55 164.88 95.57 164.88 111.37C164.88 118.95 162.3 124.75 157.61 127.49C155.83 128.62 153.57 129.1 151.14 129.1ZM129.32 65.91C127.06 65.91 124.95 66.39 123.01 67.52C118.49 70.1 115.9 75.74 115.9 83.16C115.9 98.63 126.89 117.66 140.31 125.39C146.78 129.1 152.92 129.75 157.45 127.17C161.97 124.59 164.56 118.95 164.56 111.53C164.56 96.05 153.57 77.03 140.15 69.29C136.27 67.03 132.55 65.91 129.32 65.91Z" fill="#2F2D4F" fill-opacity="1.000000" fill-rule="nonzero"/>
		<path d="M138.05 88.96L146.45 103.31L161.97 97.02C159.71 90.57 155.99 84.28 151.63 78.96L138.05 88.48C138.05 88.48 138.05 88.8 138.05 88.96Z" fill="#FFFFFF" fill-opacity="1.000000" fill-rule="nonzero"/>
		<path d="M152.44 81.87L139.5 90.89L146.62 102.99L161.49 96.86C159.39 91.54 156.15 86.38 152.44 81.87Z" fill="#F2F3F3" fill-opacity="1.000000" fill-rule="nonzero"/>
		<path d="M146.45 103.63L137.89 89.12C137.72 88.8 137.72 88.48 138.05 88.32L151.79 78.64L151.95 78.8C156.48 84.12 160.03 90.41 162.3 96.86L162.3 97.02L146.45 103.63ZM138.21 88.8L146.45 102.99L161.65 96.86C159.39 90.57 155.83 84.45 151.63 79.29L138.21 88.64L138.21 88.8Z" fill="#2F2D4F" fill-opacity="1.000000" fill-rule="nonzero"/>
		<path d="M148.07 99.44C148.07 95.57 145.32 90.89 142.09 89.12C140.15 87.99 138.37 87.99 137.24 89.12C136.92 89.44 136.75 89.77 136.59 90.09L135.3 91.86L136.11 93.31C136.43 96.86 138.69 100.73 141.6 102.66L142.41 104.11L145 103.79C145.16 103.79 145.32 103.79 145.48 103.79C147.1 103.47 148.07 101.86 148.07 99.44Z" fill="#FFFFFF" fill-opacity="1.000000" fill-rule="nonzero"/>
		<path d="M142.09 91.06C140.15 89.93 138.37 89.93 137.24 91.06C136.92 91.38 136.75 91.7 136.59 92.02L135.78 92.99L135.95 93.31C136.27 96.86 138.53 100.73 141.44 102.66L142.25 104.11L144.84 103.79C145 103.79 145.16 103.79 145.32 103.79C146.78 103.47 147.75 102.34 148.07 100.41C147.59 96.86 145.16 92.83 142.09 91.06Z" fill="#F2F3F3" fill-opacity="1.000000" fill-rule="nonzero"/>
		<path d="M142.25 104.28L141.28 102.66C138.37 100.73 136.11 96.7 135.78 93.15L134.98 91.7L136.43 89.77C136.59 89.44 136.92 88.96 137.24 88.8L137.4 88.64L137.24 88.8C138.53 87.83 140.47 87.67 142.41 88.8C145.81 90.73 148.56 95.57 148.56 99.44C148.56 101.86 147.42 103.63 145.64 103.95C145.48 103.95 145.32 103.95 145.16 103.95L142.25 104.28ZM135.62 91.86L136.43 93.15C136.75 96.54 139.02 100.41 141.77 102.34L142.57 103.63L145 103.31C145.16 103.31 145.32 103.31 145.32 103.31C146.94 102.99 147.91 101.54 147.91 99.28C147.91 95.57 145.32 90.89 142.09 89.12C140.31 88.15 138.7 87.99 137.56 89.12C137.24 89.44 137.08 89.6 136.92 90.09L135.62 91.86Z" fill="#2F2D4F" fill-opacity="1.000000" fill-rule="nonzero"/>
		<path d="M145.32 100.25C145.32 103.63 142.9 104.92 139.99 103.31C137.08 101.7 134.65 97.5 134.65 94.12C134.65 90.73 137.08 89.44 139.99 91.06C143.06 92.83 145.32 96.86 145.32 100.25Z" fill="#FFFFFF" fill-opacity="1.000000" fill-rule="nonzero"/>
		<path d="M139.66 93.64C137.56 92.35 135.78 92.83 134.81 94.44C134.81 97.83 137.24 101.7 140.15 103.47C142.25 104.76 144.03 104.28 145 102.66C144.84 99.28 142.41 95.25 139.66 93.64Z" fill="#C2E6EA" fill-opacity="1.000000" fill-rule="nonzero"/>
		<path d="M142.41 104.28C141.6 104.28 140.8 103.95 139.99 103.47C137.08 101.7 134.49 97.5 134.49 94.12C134.49 92.35 135.14 91.06 136.11 90.41C137.24 89.77 138.53 89.93 140.15 90.73C143.06 92.51 145.64 96.7 145.64 100.08C145.64 101.86 145 103.15 144.03 103.79C143.54 104.11 143.06 104.28 142.41 104.28ZM137.72 90.73C137.24 90.73 136.92 90.89 136.43 91.06C135.46 91.54 134.98 92.67 134.98 94.28C134.98 97.5 137.24 101.54 140.15 103.15C141.44 103.95 142.74 104.11 143.71 103.47C144.67 102.99 145.16 101.86 145.16 100.25C145.16 97.02 142.9 92.99 139.99 91.38C139.18 90.89 138.37 90.73 137.72 90.73Z" fill="#2F2D4F" fill-opacity="1.000000" fill-rule="nonzero"/>
		<path d="M140.15 68.97C126.57 61.23 115.58 67.52 115.58 83.16C115.58 98.79 126.57 117.82 140.15 125.56C153.73 133.29 164.72 127.01 164.72 111.37C164.72 95.73 153.73 76.87 140.15 68.97ZM140.15 121.85C128.35 115.08 118.81 98.63 118.81 85.09C118.81 71.55 128.35 66.07 140.15 72.84C151.95 79.61 161.49 96.05 161.49 109.6C161.49 123.14 151.95 128.62 140.15 121.85Z" fill="#FFFFFF" fill-opacity="1.000000" fill-rule="nonzero"/>
		<path d="M164.56 111.53C164.56 110.56 164.56 109.43 164.4 108.47C162.13 94.28 152.27 78.96 140.31 72.19C126.73 64.46 115.74 70.74 115.74 86.38C115.74 87.35 115.74 88.48 115.9 89.44C118.16 103.63 128.03 118.95 139.99 125.72C153.57 133.46 164.56 127.01 164.56 111.53ZM119.3 90.57C118.97 88.8 118.81 86.86 118.81 85.09C118.81 71.55 128.35 66.07 140.15 72.84C151.14 79.13 160.36 94.12 161.33 107.18C161.65 108.95 161.81 110.89 161.81 112.66C161.81 126.2 152.27 131.68 140.47 124.91C129.32 118.46 120.27 103.47 119.3 90.57Z" fill="#C2E6EA" fill-opacity="1.000000" fill-rule="nonzero"/>
		<path d="M151.14 129.1C147.75 129.1 144.03 127.97 139.99 125.72C126.41 117.82 115.25 98.79 115.25 83C115.25 75.42 117.84 69.61 122.53 66.87C127.22 64.13 133.52 64.78 140.15 68.65C153.73 76.55 164.88 95.57 164.88 111.37C164.88 118.95 162.3 124.75 157.61 127.49C155.83 128.62 153.57 129.1 151.14 129.1ZM129.32 65.91C127.06 65.91 124.95 66.39 123.01 67.52C118.49 70.1 115.9 75.74 115.9 83.16C115.9 98.63 126.89 117.66 140.31 125.39C146.78 129.1 152.92 129.75 157.45 127.17C161.97 124.59 164.56 118.95 164.56 111.53C164.56 96.05 153.57 77.03 140.15 69.29C136.27 67.03 132.55 65.91 129.32 65.91ZM149.69 124.91C146.78 124.91 143.38 123.94 139.99 122.01C128.19 115.24 118.65 98.63 118.65 85.09C118.65 78.48 120.91 73.48 124.95 71.07C129 68.65 134.49 69.29 140.31 72.52C152.11 79.29 161.65 95.89 161.65 109.43C161.65 116.04 159.39 121.04 155.35 123.46C153.73 124.43 151.79 124.91 149.69 124.91ZM130.77 70.1C128.83 70.1 126.89 70.58 125.28 71.55C121.4 73.81 119.13 78.64 119.13 85.09C119.13 98.47 128.67 114.92 140.31 121.69C145.97 124.91 151.14 125.39 155.18 123.14C159.06 120.88 161.33 116.04 161.33 109.6C161.33 96.21 151.79 79.77 140.15 73C136.75 71.07 133.52 70.1 130.77 70.1Z" fill="#2F2D4F" fill-opacity="1.000000" fill-rule="nonzero"/>
		<path d="M199.8 71.71L199.64 71.55C199.48 71.39 199.15 71.39 198.83 71.55L195.76 73.32C195.27 73.64 194.79 74.45 194.79 75.26C194.79 75.58 194.95 75.9 195.11 76.06L196.41 76.87L198.34 75.1L200.12 73.32L200.77 72.36L199.8 71.71Z" fill="#2F2D4F" fill-opacity="1.000000" fill-rule="nonzero"/>
		<path d="M196.41 77.19L194.79 76.22C194.47 76.06 194.47 75.74 194.47 75.26C194.47 74.45 194.95 73.48 195.6 73.16L198.67 71.39C198.99 71.23 199.48 71.23 199.64 71.39L199.8 71.39L201.09 72.19L200.28 73.32L198.51 75.1L196.41 77.19ZM199.15 71.71C198.99 71.71 198.99 71.71 198.83 71.71L195.76 73.48C195.27 73.81 194.95 74.61 194.95 75.26C194.95 75.74 195.11 75.74 195.11 75.74L196.24 76.39L198.02 74.77L199.8 73L200.28 72.35L199.31 71.71C199.31 71.71 199.31 71.71 199.15 71.71Z" fill="#FFFFFF" fill-opacity="1.000000" fill-rule="nonzero"/>
		<path d="M200.12 75.1L197.05 76.87C196.57 77.19 196.08 76.87 196.08 76.06C196.08 75.26 196.57 74.45 197.05 74.13L200.12 72.35C200.61 72.03 201.09 72.35 201.09 73.16C201.09 73.81 200.77 74.77 200.12 75.1Z" fill="#2F2D4F" fill-opacity="1.000000" fill-rule="nonzero"/>
		<path d="M196.73 77.19C196.57 77.19 196.41 77.19 196.41 77.03C196.08 76.87 195.92 76.55 195.92 76.06C195.92 75.26 196.41 74.29 197.05 73.97L200.12 72.19C200.45 72.03 200.77 72.03 201.09 72.19C201.42 72.35 201.58 72.68 201.58 73.16C201.58 73.97 201.09 74.93 200.45 75.26L197.38 77.03C197.05 77.19 196.89 77.19 196.73 77.19ZM200.61 72.52C200.45 72.52 200.45 72.52 200.29 72.68L197.21 74.45C196.73 74.77 196.41 75.58 196.41 76.22C196.41 76.55 196.57 76.71 196.57 76.87C196.73 76.87 196.89 76.87 197.05 76.87L200.12 75.1C200.61 74.77 200.93 73.97 200.93 73.32C200.93 72.84 200.77 72.68 200.61 72.52Z" fill="#FFFFFF" fill-opacity="1.000000" fill-rule="nonzero"/>
		<path d="M191.23 116.69C193.66 110.4 194.95 104.11 195.6 100.89C195.92 98.96 197.05 97.18 198.83 96.21L204.16 93.15L204.16 92.51L198.67 95.73C196.89 96.86 195.6 98.63 195.27 100.73C194.63 104.11 193.33 110.56 190.75 117.01L191.23 116.69Z" fill="#FFFFFF" fill-opacity="1.000000" fill-rule="nonzero"/>
		<path d="M190.26 117.33L190.1 117.82L190.42 117.66L190.26 117.33Z" fill="#2F2D4F" fill-opacity="1.000000" fill-rule="nonzero"/>
		<path d="M180.72 75.74C180.72 75.74 168.44 79.93 164.4 89.44C164.4 89.6 164.4 89.6 164.24 89.77C166.34 93.96 167.79 98.47 168.6 102.83C169.73 97.5 172.64 91.86 179.11 87.67C181.21 87.35 182.5 85.41 182.5 82.35C182.5 80.25 181.69 77.67 180.72 75.74Z" fill="#2F2D4F" fill-opacity="1.000000" fill-rule="nonzero"/>
		<path d="M205.94 63.49L213.38 59.3L214.51 63.33L214.83 67.03L214.19 69.45L213.06 71.39L210.31 73.32L205.62 76.06L207.24 73L207.4 69.94L206.75 66.07L205.94 63.49Z" fill="#2F2D4F" fill-opacity="1.000000" fill-rule="nonzero"/>
		<path d="M194.14 80.58L193.82 80.74L193.82 81.38L194.3 81.06C194.3 81.06 198.35 78.8 200.61 77.51L199.8 77.35C197.7 78.64 194.3 80.42 194.14 80.58Z" fill="#FFFFFF" fill-opacity="1.000000" fill-rule="nonzero"/>
		<path d="M166.18 94.6L166.01 95.57C166.82 97.99 167.63 100.41 168.12 102.82L168.44 101.7C167.79 99.44 167.15 97.02 166.18 94.6Z" fill="#FFFFFF" fill-opacity="1.000000" fill-rule="nonzero"/>
		<path d="M146.94 94.6L151.47 92.18C151.47 92.18 152.11 91.86 155.99 89.6C155.99 89.6 155.99 89.6 156.64 90.89C158.25 94.44 159.55 97.67 159.55 97.67L146.94 102.66L147.91 101.37L148.23 99.44L147.91 96.38L146.94 94.6Z" fill="#2F2D4F" fill-opacity="1.000000" fill-rule="nonzero"/>
		<path d="M159.06 97.99L155.83 99.28L156.15 99.6L159.22 98.47L159.06 97.99Z" fill="#C2E6EA" fill-opacity="1.000000" fill-rule="nonzero"/>
		<path d="M185.74 71.07C186.06 71.23 186.06 71.55 185.74 71.71C185.41 71.87 184.93 71.87 184.6 71.71C184.28 71.55 184.28 71.23 184.6 71.07C184.93 70.9 185.41 70.9 185.74 71.07Z" fill="#2F2D4F" fill-opacity="1.000000" fill-rule="nonzero"/>
		<path d="M188.65 69.45C188.97 69.61 188.97 69.94 188.65 70.1C188.32 70.26 187.84 70.26 187.51 70.1C187.19 69.94 187.19 69.61 187.51 69.45C187.84 69.29 188.32 69.29 188.65 69.45Z" fill="#2F2D4F" fill-opacity="1.000000" fill-rule="nonzero"/>
		<path d="M191.39 67.84C191.72 68 191.72 68.32 191.39 68.49C191.07 68.65 190.59 68.65 190.26 68.49C189.94 68.32 189.94 68 190.26 67.84C190.59 67.68 191.07 67.68 191.39 67.84Z" fill="#2F2D4F" fill-opacity="1.000000" fill-rule="nonzero"/>
		<path d="M194.3 66.23C194.63 66.39 194.63 66.71 194.3 66.87C193.98 67.03 193.5 67.03 193.17 66.87C192.85 66.71 192.85 66.39 193.17 66.23C193.5 66.07 193.98 66.07 194.3 66.23Z" fill="#2F2D4F" fill-opacity="1.000000" fill-rule="nonzero"/>
		<path d="M197.21 64.62C197.54 64.78 197.54 65.1 197.21 65.26C196.89 65.42 196.41 65.42 196.08 65.26C195.76 65.1 195.76 64.78 196.08 64.62C196.41 64.46 196.89 64.46 197.21 64.62Z" fill="#2F2D4F" fill-opacity="1.000000" fill-rule="nonzero"/>
		<path d="M199.96 63C200.28 63.17 200.28 63.49 199.96 63.65C199.64 63.81 199.15 63.81 198.83 63.65C198.51 63.49 198.51 63.17 198.83 63C199.15 62.68 199.64 62.68 199.96 63Z" fill="#2F2D4F" fill-opacity="1.000000" fill-rule="nonzero"/>
		<path d="M182.83 69.45C183.15 69.61 183.15 69.94 182.83 70.1C182.5 70.26 182.02 70.26 181.7 70.1C181.37 69.94 181.37 69.61 181.7 69.45C182.02 69.29 182.5 69.29 182.83 69.45Z" fill="#2F2D4F" fill-opacity="1.000000" fill-rule="nonzero"/>
		<path d="M185.74 67.84C186.06 68 186.06 68.32 185.74 68.49C185.41 68.65 184.93 68.65 184.6 68.49C184.28 68.32 184.28 68 184.6 67.84C184.93 67.68 185.41 67.68 185.74 67.84Z" fill="#2F2D4F" fill-opacity="1.000000" fill-rule="nonzero"/>
		<path d="M188.81 66.55C188.81 66.82 188.45 67.03 188 67.03C187.55 67.03 187.19 66.82 187.19 66.55C187.19 66.28 187.55 66.07 188 66.07C188.45 66.07 188.81 66.28 188.81 66.55Z" fill="#2F2D4F" fill-opacity="1.000000" fill-rule="evenodd"/>
		<path d="M191.39 64.62C191.72 64.78 191.72 65.1 191.39 65.26C191.07 65.42 190.59 65.42 190.26 65.26C189.94 65.1 189.94 64.78 190.26 64.62C190.59 64.46 191.07 64.46 191.39 64.62Z" fill="#2F2D4F" fill-opacity="1.000000" fill-rule="nonzero"/>
		<path d="M194.3 63C194.63 63.17 194.63 63.49 194.3 63.65C193.98 63.81 193.5 63.81 193.17 63.65C192.85 63.49 192.85 63.17 193.17 63C193.5 62.84 193.98 62.68 194.3 63Z" fill="#2F2D4F" fill-opacity="1.000000" fill-rule="nonzero"/>
		<path d="M197.21 61.23C197.54 61.39 197.54 61.71 197.21 61.88C196.89 62.04 196.41 62.04 196.08 61.88C195.76 61.71 195.76 61.39 196.08 61.23C196.41 61.07 196.89 61.07 197.21 61.23Z" fill="#2F2D4F" fill-opacity="1.000000" fill-rule="nonzero"/>
		<path d="M174.58 77.19C174.91 77.35 174.91 77.67 174.58 77.84C174.26 78 173.77 78 173.45 77.84C173.13 77.67 173.13 77.35 173.45 77.19C173.77 77.03 174.26 77.03 174.58 77.19Z" fill="#2F2D4F" fill-opacity="1.000000" fill-rule="nonzero"/>
		<path d="M177.49 75.58C177.81 75.74 177.81 76.06 177.49 76.22C177.17 76.39 176.68 76.39 176.36 76.22C176.04 76.06 176.04 75.74 176.36 75.58C176.68 75.42 177.17 75.42 177.49 75.58Z" fill="#2F2D4F" fill-opacity="1.000000" fill-rule="nonzero"/>
		<path d="M174.58 73.97C174.91 74.13 174.91 74.45 174.58 74.61C174.26 74.77 173.77 74.77 173.45 74.61C173.13 74.45 173.13 74.13 173.45 73.97C173.77 73.64 174.26 73.64 174.58 73.97Z" fill="#2F2D4F" fill-opacity="1.000000" fill-rule="nonzero"/>
		<path d="M208.85 60.26C209.18 60.42 209.18 60.75 208.85 60.91C208.53 61.07 208.04 61.07 207.72 60.91C207.4 60.75 207.4 60.42 207.72 60.26C208.21 60.1 208.69 60.1 208.85 60.26Z" fill="#2F2D4F" fill-opacity="1.000000" fill-rule="nonzero"/>
		<path d="M206.1 58.65C206.43 58.81 206.43 59.14 206.1 59.3C205.78 59.46 205.3 59.46 204.97 59.3C204.65 59.14 204.65 58.81 204.97 58.65C205.3 58.49 205.78 58.49 206.1 58.65Z" fill="#2F2D4F" fill-opacity="1.000000" fill-rule="nonzero"/>
		<path d="M208.85 57.04C209.18 57.2 209.18 57.52 208.85 57.68C208.53 57.85 208.04 57.85 207.72 57.68C207.4 57.52 207.4 57.2 207.72 57.04C208.21 56.88 208.69 56.88 208.85 57.04Z" fill="#2F2D4F" fill-opacity="1.000000" fill-rule="nonzero"/>
	</g>
</svg>
