<svg width="205.000000" height="204.000000" viewBox="0 0 205 204" fill="none" xmlns="http://www.w3.org/2000/svg" xmlns:xlink="http://www.w3.org/1999/xlink">
	<desc>
			Created with Pixso.
	</desc>
	<defs>
		<clipPath id="clip22_10429">
			<rect width="182.000000" height="173.000000" fill="white" fill-opacity="0"/>
		</clipPath>
	</defs>
	<g opacity="0.500000">
		<path d="M204.97 56.6L58.39 203.18L4.74 2.95L204.97 56.6Z" fill="#C2E6EA" fill-opacity="1.000000" fill-rule="evenodd"/>
	</g>
	<rect width="182.000000" height="173.000000" fill="#FFFFFF" fill-opacity="0"/>
	<g clip-path="url(#clip22_10429)">
		<path d="M167.42 66.04L170.69 63.89L170.69 63.81L166.53 58.76C166.53 58.69 166.46 58.76 166.46 58.76L165.79 61.88L165.64 64.04C165.64 64.04 165.64 64.04 165.64 64.11L167.35 66.12C167.42 66.04 167.42 66.04 167.42 66.04Z" fill="#2F2D4F" fill-opacity="1.000000" fill-rule="nonzero"/>
		<path d="M167.42 66.41C167.27 66.41 167.2 66.34 167.13 66.26L165.35 64.18L165.35 63.96L165.49 61.88L166.24 58.54L166.53 58.46C166.68 58.39 166.83 58.46 166.98 58.61L171.28 63.81L171.28 64.04C171.28 64.18 171.21 64.26 171.13 64.33L167.87 66.49C167.57 66.41 167.5 66.41 167.42 66.41ZM166.01 63.89L167.5 65.6L170.32 63.81L166.75 59.43L166.24 61.96L166.01 63.89Z" fill="#2F2D4F" fill-opacity="1.000000" fill-rule="nonzero"/>
		<path d="M179.96 50.66L164.23 41.6C163.86 41.37 163.49 41.3 163.19 41.45L160.15 43.31C160.08 43.31 160.08 43.38 160.15 43.46L163.86 47.32C163.86 47.32 163.86 47.32 163.86 47.39L163.86 53.78C163.86 54.82 164.6 56.09 165.49 56.61L167.87 57.94C167.94 58.02 167.94 58.09 168.02 58.17C168.16 58.84 168.76 61.66 171.65 63.66C171.8 63.74 171.87 63.66 171.8 63.52C171.43 62.77 170.69 61.21 170.91 60.02C171.06 59.95 171.06 59.95 171.13 59.88L175.96 62.7C175.96 62.7 175.96 62.7 175.96 62.77L177.96 68.2C177.96 68.27 178.03 68.27 178.11 68.27L181.15 66.41C181.37 66.26 181.6 65.89 181.6 65.45L181.6 53.56C181.52 52.45 180.85 51.18 179.96 50.66Z" fill="#FFFFFF" fill-opacity="1.000000" fill-rule="nonzero"/>
		<path d="M178.03 68.57C177.96 68.57 177.96 68.57 177.89 68.57L177.74 68.49L177.66 68.27L175.66 62.92L171.13 60.32C171.06 61.44 171.73 62.77 172.02 63.37C172.17 63.59 172.1 63.81 171.95 63.96C171.8 64.11 171.58 64.11 171.43 63.96C168.54 62.03 167.79 59.28 167.65 58.32L167.57 58.24L165.27 56.9C164.23 56.31 163.49 54.97 163.49 53.78L163.49 47.47L159.85 43.68C159.78 43.6 159.71 43.46 159.71 43.31C159.71 43.16 159.78 43.08 159.93 43.01L162.97 41.15C163.42 40.93 163.86 41 164.38 41.3L180.11 50.37C181.15 50.96 181.89 52.3 181.89 53.49L181.89 65.37C181.89 65.97 181.67 66.41 181.3 66.64L178.26 68.49C178.18 68.49 178.11 68.57 178.03 68.57ZM171.06 59.5L176.18 62.48L176.25 62.62L178.18 67.75L180.93 66.12C181.08 66.04 181.15 65.74 181.15 65.45L181.15 53.56C181.15 52.67 180.48 51.55 179.74 51.11L164.01 42.04C163.71 41.9 163.49 41.82 163.27 41.9L160.52 43.53L164.08 47.24L164.08 47.47L164.08 53.86C164.08 54.75 164.75 55.86 165.49 56.31L167.94 57.8L168.16 58.17C168.24 58.61 168.76 60.92 170.84 62.77C170.47 61.96 170.17 60.92 170.39 59.95L170.39 59.73L171.06 59.5Z" fill="#2F2D4F" fill-opacity="1.000000" fill-rule="nonzero"/>
		<path d="M176.85 52.59L161.12 43.46C160.23 42.94 159.56 43.38 159.56 44.35L159.56 56.23C159.56 57.2 160.23 58.46 161.12 58.98L163.56 60.4C163.64 60.4 163.64 60.54 163.71 60.62C163.79 61.29 164.45 64.11 167.35 66.12C167.5 66.19 167.57 66.12 167.5 65.97C167.13 65.22 166.38 63.59 166.68 62.33C166.68 62.25 166.76 62.25 166.83 62.25L177 68.12C177.89 68.64 178.55 68.2 178.55 67.23L178.55 55.34C178.4 54.3 177.74 53.11 176.85 52.59Z" fill="#C2E6EA" fill-opacity="1.000000" fill-rule="nonzero"/>
		<path d="M177.51 68.72C177.22 68.72 176.92 68.64 176.62 68.42L166.83 62.77C166.75 63.89 167.42 65.22 167.72 65.82C167.87 66.04 167.79 66.26 167.65 66.41C167.5 66.56 167.27 66.56 167.13 66.41C164.16 64.33 163.42 61.36 163.34 60.69L160.97 59.28C160 58.69 159.19 57.35 159.19 56.23L159.19 44.35C159.19 43.75 159.41 43.23 159.85 43.01C160.3 42.79 160.82 42.79 161.34 43.08L177.07 52.22C178.03 52.82 178.85 54.15 178.85 55.27L178.85 67.16C178.85 67.75 178.63 68.27 178.18 68.49C177.96 68.64 177.74 68.72 177.51 68.72ZM166.61 61.88C166.68 61.88 166.75 61.88 166.83 61.96L177 67.83C177.29 67.97 177.59 68.05 177.74 67.9C177.89 67.83 178.03 67.53 178.03 67.16L178.03 55.27C178.03 54.38 177.37 53.26 176.62 52.89L160.89 43.83C160.6 43.68 160.3 43.6 160.15 43.75C160 43.83 159.85 44.12 159.85 44.5L159.85 56.38C159.85 57.27 160.52 58.39 161.26 58.76L163.71 60.17C163.86 60.25 164.01 60.4 164.01 60.62C164.08 61.06 164.6 63.37 166.68 65.22C166.31 64.33 166.01 63.22 166.24 62.25L166.31 62.1L166.53 61.96C166.53 61.88 166.53 61.88 166.61 61.88Z" fill="#2F2D4F" fill-opacity="1.000000" fill-rule="nonzero"/>
		<path d="M177.33 52.47L180.06 50.81L180.44 51.45L177.72 53.11L177.33 52.47Z" fill="#2F2D4F" fill-opacity="1.000000" fill-rule="evenodd"/>
		<path d="M162.66 44.05L165.39 42.39L165.77 43.03L163.05 44.69L162.66 44.05Z" fill="#2F2D4F" fill-opacity="1.000000" fill-rule="evenodd"/>
		<path d="M178.19 55.72L181.2 53.81L181.59 54.44L178.58 56.34L178.19 55.72Z" fill="#2F2D4F" fill-opacity="1.000000" fill-rule="evenodd"/>
		<path d="M181.52 55.71L178.4 57.65L178.4 67.97L181.45 66.34L181.52 65.6L181.52 55.71Z" fill="#2F2D4F" fill-opacity="1.000000" fill-rule="nonzero"/>
		<path d="M164.04 38.47L164.32 35.06L165.06 35.12L164.78 38.53L164.04 38.47Z" fill="#2F2D4F" fill-opacity="1.000000" fill-rule="evenodd"/>
		<path d="M160.21 35.29L160.89 35L162.5 38.67L161.82 38.97L160.21 35.29Z" fill="#2F2D4F" fill-opacity="1.000000" fill-rule="evenodd"/>
		<path d="M157.03 38.69L157.39 38.04L160.3 39.69L159.94 40.33L157.03 38.69Z" fill="#2F2D4F" fill-opacity="1.000000" fill-rule="evenodd"/>
		<path d="M170.69 62.03L168.68 60.84L168.68 59.88C168.16 59.36 167.65 58.76 167.27 58.09L166.53 58.17L165.57 55.79L166.31 55.71C166.24 55.42 166.24 55.12 166.24 54.82C166.24 54.53 166.31 54.23 166.38 53.93L165.64 52.97L166.68 51.48L167.5 52.45C167.87 52.3 168.24 52.22 168.68 52.3L168.68 51.26L170.69 52.45L170.69 53.41C171.21 53.93 171.73 54.53 172.1 55.19L172.84 55.12L173.8 57.5L173.06 57.57C173.14 57.87 173.14 58.17 173.14 58.46C173.14 58.76 173.06 59.06 172.99 59.36L173.73 60.32L172.69 61.81L171.87 60.84C171.5 60.99 171.13 61.06 170.69 60.99L170.69 62.03ZM169.2 60.54L170.17 61.06L170.17 60.25L170.54 60.32C171.06 60.47 171.5 60.47 171.87 60.25L172.1 60.1L172.77 60.92L173.21 60.32L172.39 59.43L172.47 59.28C172.54 58.98 172.62 58.69 172.62 58.39C172.62 58.09 172.54 57.72 172.47 57.35L172.39 57.05L173.06 56.98L172.54 55.64L171.87 55.71L171.8 55.57C171.43 54.82 170.91 54.15 170.32 53.71L170.24 53.63L170.24 52.74L169.28 52.22L169.28 53.04L168.91 52.97C168.39 52.82 167.94 52.82 167.57 53.04L167.35 53.19L166.68 52.37L166.24 52.97L166.9 53.78L166.83 53.93C166.75 54.23 166.68 54.53 166.68 54.82C166.68 55.12 166.75 55.49 166.83 55.86L166.9 56.16L166.24 56.23L166.75 57.57L167.42 57.5L167.5 57.65C167.87 58.39 168.39 59.06 168.98 59.5L169.06 59.58L169.06 60.54L169.2 60.54ZM170.24 58.54C170.17 58.54 170.02 58.54 169.87 58.46C168.76 58.17 167.79 56.53 168.09 55.42C168.16 55.12 168.31 54.9 168.54 54.75C168.76 54.6 169.06 54.6 169.35 54.67C170.47 54.97 171.43 56.61 171.13 57.72C171.06 58.02 170.91 58.24 170.69 58.39C170.61 58.54 170.47 58.54 170.24 58.54ZM169.13 55.19C169.06 55.19 168.98 55.19 168.91 55.27C168.83 55.34 168.76 55.42 168.68 55.57C168.46 56.38 169.28 57.72 170.09 58.02C170.24 58.09 170.39 58.09 170.47 58.02C170.54 57.94 170.61 57.87 170.69 57.72C170.91 56.9 170.09 55.57 169.28 55.27C169.2 55.19 169.13 55.19 169.13 55.19Z" fill="#FFFFFF" fill-opacity="1.000000" fill-rule="nonzero"/>
		<path d="M171.8 57.27C171.8 56.9 171.73 56.53 171.65 56.16L172.39 56.09L171.65 54.23L170.91 54.3C170.46 53.56 169.95 52.89 169.35 52.37L169.35 51.41L167.87 50.59L167.87 51.55C167.27 51.41 166.75 51.41 166.31 51.7L165.57 50.81L164.83 51.85L165.57 52.74C165.49 53.04 165.42 53.34 165.42 53.71C165.42 54.08 165.49 54.45 165.57 54.82L164.83 54.9L165.57 56.75L166.31 56.68C166.75 57.42 167.27 58.09 167.87 58.61L167.87 59.58L169.35 60.4L169.35 59.43C169.95 59.58 170.46 59.58 170.91 59.28L171.65 60.17L172.39 59.13L171.65 58.24C171.73 57.94 171.8 57.65 171.8 57.27ZM168.98 57.05C168.02 56.75 167.13 55.27 167.42 54.3C167.5 53.86 167.94 53.63 168.39 53.78C169.35 54.08 170.24 55.57 169.95 56.53C169.8 56.98 169.43 57.2 168.98 57.05Z" fill="#2F2D4F" fill-opacity="1.000000" fill-rule="nonzero"/>
		<path d="M169.06 75.7L153.99 75.7C153.84 75.7 153.7 75.85 153.7 76L153.7 107.06C153.7 107.5 154.07 108.02 154.73 108.39L159.26 110.99C160.52 111.74 162.38 111.81 163.49 111.14L168.61 108.17C169.13 107.87 169.35 107.43 169.35 107.06L169.35 76C169.35 75.85 169.28 75.7 169.06 75.7Z" fill="#C2E6EA" fill-opacity="1.000000" fill-rule="nonzero"/>
		<path d="M161.71 112.11C160.82 112.11 159.85 111.88 159.11 111.44L154.59 108.84C153.99 108.47 153.62 108.1 153.4 107.58L153.32 107.58L153.32 107.13L153.32 76.07C153.32 75.63 153.7 75.33 154.07 75.33L169.13 75.33C169.57 75.33 169.87 75.7 169.87 76.07L169.87 107.65L169.8 107.65C169.65 108.1 169.35 108.47 168.91 108.69L163.79 111.66C163.19 111.96 162.45 112.11 161.71 112.11ZM154.22 107.06C154.22 107.43 154.51 107.72 155.03 108.02L159.56 110.62C160.67 111.29 162.38 111.36 163.34 110.77L168.46 107.8C168.68 107.65 168.98 107.43 168.98 107.13L168.98 106.61L169.06 106.61L169.06 76.15L154.36 76.15L154.22 107.06Z" fill="#2F2D4F" fill-opacity="1.000000" fill-rule="nonzero"/>
		<path d="M169.06 75.78L162.15 75.78L162.15 111.66C162.67 111.59 163.12 111.51 163.49 111.29L168.61 108.32C169.13 108.02 169.35 107.58 169.35 107.2L169.35 76.15C169.35 75.85 169.28 75.78 169.06 75.78Z" fill="#2F2D4F" fill-opacity="1.000000" fill-rule="nonzero"/>
		<path d="M168.68 76.89L163.56 79.86C162.45 80.46 160.6 80.38 159.33 79.71L154.81 77.11C153.55 76.37 153.4 75.33 154.51 74.66L159.63 71.69C160.75 71.09 162.6 71.17 163.86 71.84L168.39 74.44C169.58 75.18 169.72 76.3 168.68 76.89Z" fill="#FFFFFF" fill-opacity="1.000000" fill-rule="nonzero"/>
		<path d="M161.71 80.75C160.82 80.75 159.85 80.53 159.11 80.08L154.59 77.48C153.77 77.04 153.32 76.37 153.32 75.7C153.32 75.11 153.7 74.59 154.29 74.21L159.41 71.24C160.67 70.5 162.67 70.57 164.08 71.39L168.61 73.99C169.43 74.44 169.87 75.11 169.87 75.78C169.87 76.37 169.5 76.89 168.91 77.26L163.79 80.23C163.19 80.6 162.45 80.75 161.71 80.75ZM161.41 71.69C160.82 71.69 160.23 71.84 159.78 72.06L154.66 75.03C154.44 75.18 154.14 75.4 154.14 75.7C154.14 76 154.44 76.37 154.96 76.67L159.48 79.27C160.6 79.94 162.3 80.01 163.27 79.42L168.39 76.44C168.61 76.3 168.91 76.07 168.91 75.78C168.91 75.48 168.61 75.11 168.09 74.81L163.56 72.21C162.97 71.91 162.15 71.69 161.41 71.69Z" fill="#2F2D4F" fill-opacity="1.000000" fill-rule="nonzero"/>
		<path d="M159.33 79.94L160.3 79.94L160.3 111.29L159.33 111.29L159.33 79.94Z" fill="#2F2D4F" fill-opacity="1.000000" fill-rule="evenodd"/>
		<path d="M167.27 78.67L168.02 78.67L168.02 107.5L167.27 107.5L167.27 78.67Z" fill="#C2E6EA" fill-opacity="1.000000" fill-rule="evenodd"/>
		<path d="M158.59 102.52L143.53 102.52C143.38 102.52 143.23 102.67 143.23 102.82L143.23 118.2C143.23 118.65 143.6 119.17 144.27 119.54L148.8 122.14C150.06 122.88 151.91 122.95 153.03 122.29L158.15 119.31C158.67 119.02 158.89 118.57 158.89 118.2L158.89 102.82C158.89 102.67 158.74 102.52 158.59 102.52Z" fill="#C2E6EA" fill-opacity="1.000000" fill-rule="nonzero"/>
		<path d="M151.17 123.18C150.28 123.18 149.32 122.95 148.58 122.51L144.05 119.91C143.46 119.54 143.08 119.17 142.86 118.65L142.79 118.65L142.79 118.2L142.79 102.82C142.79 102.37 143.16 102.08 143.53 102.08L158.59 102.08C159.04 102.08 159.33 102.45 159.33 102.82L159.33 118.65L159.26 118.65C159.11 119.09 158.82 119.46 158.37 119.69L153.25 122.66C152.66 123.03 151.91 123.18 151.17 123.18ZM143.68 118.13C143.68 118.5 143.97 118.79 144.49 119.09L149.02 121.69C150.13 122.36 151.84 122.43 152.8 121.84L157.92 118.87C158.15 118.72 158.44 118.5 158.44 118.2L158.44 117.68L158.52 117.68L158.52 102.89L143.83 102.89L143.68 118.13Z" fill="#2F2D4F" fill-opacity="1.000000" fill-rule="nonzero"/>
		<path d="M158.59 102.52L151.69 102.52L151.69 122.73C152.21 122.66 152.66 122.58 153.03 122.36L158.15 119.39C158.67 119.09 158.89 118.65 158.89 118.27L158.89 102.89C158.89 102.67 158.74 102.52 158.59 102.52Z" fill="#2F2D4F" fill-opacity="1.000000" fill-rule="nonzero"/>
		<path d="M158.15 103.71L153.03 106.68C151.91 107.28 150.06 107.2 148.8 106.54L144.27 103.93C143.01 103.19 142.86 102.15 143.97 101.48L149.09 98.51C150.21 97.92 152.06 97.99 153.32 98.66L157.85 101.26C159.11 101.93 159.26 103.04 158.15 103.71Z" fill="#FFFFFF" fill-opacity="1.000000" fill-rule="nonzero"/>
		<path d="M151.17 107.5C150.28 107.5 149.32 107.28 148.58 106.83L144.05 104.23C143.23 103.79 142.79 103.12 142.79 102.45C142.79 101.85 143.16 101.33 143.75 100.96L148.87 97.99C150.13 97.25 152.14 97.32 153.55 98.14L158.07 100.74C158.89 101.19 159.33 101.85 159.33 102.52C159.33 103.12 158.96 103.64 158.37 104.01L153.25 106.98C152.66 107.35 151.91 107.5 151.17 107.5ZM150.95 98.51C150.36 98.51 149.76 98.66 149.32 98.88L144.2 101.85C143.97 102 143.68 102.23 143.68 102.52C143.68 102.82 143.97 103.19 144.49 103.49L149.02 106.09C150.13 106.76 151.84 106.83 152.8 106.24L157.92 103.27C158.15 103.12 158.44 102.89 158.44 102.6C158.44 102.3 158.15 101.93 157.63 101.63L153.1 99.03C152.51 98.66 151.69 98.51 150.95 98.51Z" fill="#2F2D4F" fill-opacity="1.000000" fill-rule="nonzero"/>
		<path d="M148.8 106.68L149.76 106.68L149.76 122.36L148.8 122.36L148.8 106.68Z" fill="#2F2D4F" fill-opacity="1.000000" fill-rule="evenodd"/>
		<path d="M156.74 105.49L157.48 105.49L157.48 118.65L156.74 118.65L156.74 105.49Z" fill="#C2E6EA" fill-opacity="1.000000" fill-rule="evenodd"/>
		<path d="M178.7 117.9L163.64 117.9C163.49 117.9 163.34 118.05 163.34 118.2L163.34 122.81C163.34 123.25 163.71 123.77 164.38 124.14L168.91 126.74C170.17 127.49 172.02 127.56 173.14 126.89L178.26 123.92C178.78 123.62 179 123.18 179 122.81L179 118.13C179 118.05 178.85 117.9 178.7 117.9Z" fill="#C2E6EA" fill-opacity="1.000000" fill-rule="nonzero"/>
		<path d="M171.28 127.86C170.39 127.86 169.43 127.64 168.68 127.19L164.16 124.59C163.56 124.22 163.19 123.85 162.97 123.33L162.9 123.33L162.9 122.88L162.9 118.27C162.9 117.83 163.27 117.53 163.64 117.53L178.7 117.53C179.15 117.53 179.44 117.9 179.44 118.27L179.44 123.4L179.37 123.4C179.22 123.85 178.92 124.22 178.48 124.44L173.36 127.41C172.84 127.71 172.1 127.86 171.28 127.86ZM163.86 122.81C163.86 123.18 164.16 123.47 164.68 123.77L169.2 126.37C170.32 127.04 172.02 127.12 172.99 126.52L178.11 123.55C178.33 123.4 178.63 123.18 178.63 122.88L178.63 122.36L178.7 122.36L178.7 118.35L164.01 118.35L163.86 122.81Z" fill="#2F2D4F" fill-opacity="1.000000" fill-rule="nonzero"/>
		<path d="M178.7 117.9L171.8 117.9L171.8 127.34C172.32 127.26 172.77 127.19 173.14 126.97L178.26 124C178.78 123.7 179 123.25 179 122.88L179 118.2C179 118.05 178.85 117.9 178.7 117.9Z" fill="#2F2D4F" fill-opacity="1.000000" fill-rule="nonzero"/>
		<path d="M178.26 119.02L173.14 121.99C172.02 122.58 170.17 122.51 168.91 121.84L164.38 119.24C163.12 118.5 162.97 117.46 164.08 116.79L169.2 113.82C170.32 113.22 172.17 113.3 173.43 113.96L177.96 116.57C179.22 117.31 179.37 118.42 178.26 119.02Z" fill="#FFFFFF" fill-opacity="1.000000" fill-rule="nonzero"/>
		<path d="M171.28 122.88C170.39 122.88 169.43 122.66 168.68 122.21L164.16 119.61C163.34 119.17 162.9 118.5 162.9 117.83C162.9 117.23 163.27 116.71 163.86 116.34L168.98 113.37C170.24 112.63 172.25 112.7 173.66 113.52L178.18 116.12C179 116.57 179.44 117.23 179.44 117.9C179.44 118.5 179.07 119.02 178.48 119.39L173.36 122.36C172.84 122.73 172.1 122.88 171.28 122.88ZM171.06 113.82C170.46 113.82 169.87 113.96 169.43 114.19L164.31 117.16C164.08 117.31 163.79 117.53 163.79 117.83C163.79 118.13 164.08 118.5 164.6 118.79L169.13 121.39C170.24 122.06 171.95 122.14 172.91 121.54L178.03 118.57C178.26 118.42 178.55 118.2 178.55 117.9C178.55 117.61 178.26 117.23 177.74 116.94L173.21 114.34C172.62 114.04 171.8 113.82 171.06 113.82Z" fill="#2F2D4F" fill-opacity="1.000000" fill-rule="nonzero"/>
		<path d="M168.98 122.06L169.95 122.06L169.95 126.97L168.98 126.97L168.98 122.06Z" fill="#2F2D4F" fill-opacity="1.000000" fill-rule="evenodd"/>
		<path d="M176.92 120.8L177.66 120.8L177.66 123.25L176.92 123.25L176.92 120.8Z" fill="#C2E6EA" fill-opacity="1.000000" fill-rule="evenodd"/>
		<path d="M155.4 99.48L146.65 99.48C146.57 99.48 146.5 99.55 146.5 99.62L146.5 101.48L146.5 101.63C146.5 101.93 146.72 102 147.09 102.23L149.69 103.71C150.43 104.16 151.54 104.16 152.14 103.79L155.11 102.08C155.4 101.93 155.55 101.78 155.55 101.56L155.55 101.48L155.55 99.62C155.62 99.55 155.55 99.48 155.4 99.48Z" fill="#2F2D4F" fill-opacity="1.000000" fill-rule="nonzero"/>
		<path d="M151.1 104.6C150.5 104.6 149.91 104.45 149.47 104.16L146.87 102.67C146.5 102.45 146.05 102.23 146.05 101.71L146.05 101.48L146.05 99.62C146.05 99.25 146.35 98.96 146.72 98.96L155.48 98.96C155.85 98.96 156.14 99.25 156.14 99.62L156.14 101.63C156.22 102.15 155.7 102.45 155.48 102.52L152.51 104.23C152.06 104.53 151.62 104.6 151.1 104.6ZM146.94 99.92L146.94 101.48L146.94 101.63C146.94 101.63 147.17 101.78 147.31 101.85L149.91 103.34C150.5 103.64 151.39 103.71 151.91 103.41L154.88 101.71C155.03 101.63 155.11 101.56 155.11 101.56L155.11 101.41L155.11 99.85L146.94 99.92Z" fill="#2F2D4F" fill-opacity="1.000000" fill-rule="nonzero"/>
		<path d="M155.18 100.15L152.21 101.85C151.62 102.23 150.5 102.15 149.76 101.78L147.17 100.29C146.42 99.85 146.35 99.25 147.02 98.88L149.99 97.17C150.58 96.8 151.69 96.88 152.43 97.25L155.03 98.73C155.7 99.18 155.77 99.77 155.18 100.15Z" fill="#FFFFFF" fill-opacity="1.000000" fill-rule="nonzero"/>
		<path d="M151.1 102.6C150.5 102.6 149.91 102.45 149.47 102.23L146.87 100.74C146.35 100.44 146.05 100 146.05 99.55C146.05 99.18 146.28 98.81 146.72 98.51L149.69 96.8C150.43 96.36 151.77 96.43 152.58 96.88L155.18 98.36C155.7 98.66 156 99.1 156 99.55C156 99.92 155.77 100.29 155.33 100.59L152.36 102.3C152.06 102.45 151.62 102.6 151.1 102.6ZM150.95 97.32C150.65 97.32 150.36 97.4 150.13 97.47L147.17 99.18C147.02 99.25 146.94 99.33 146.94 99.4C146.94 99.48 147.09 99.62 147.31 99.77L149.91 101.26C150.5 101.63 151.39 101.63 151.91 101.33L154.88 99.62C155.03 99.55 155.11 99.48 155.11 99.4C155.11 99.33 154.96 99.18 154.73 99.03L152.14 97.54C151.84 97.4 151.39 97.32 150.95 97.32Z" fill="#2F2D4F" fill-opacity="1.000000" fill-rule="nonzero"/>
		<path d="M150.73 102.38L151.47 102.37L151.47 103.86L150.73 103.86L150.73 102.38Z" fill="#C2E6EA" fill-opacity="1.000000" fill-rule="evenodd"/>
		<path d="M175.59 114.63L166.83 114.63C166.76 114.63 166.68 114.71 166.68 114.78L166.68 116.64L166.68 116.79C166.68 117.09 166.9 117.16 167.27 117.38L169.87 118.87C170.61 119.31 171.73 119.31 172.32 118.94L175.29 117.23C175.59 117.09 175.73 116.94 175.73 116.71L175.73 116.64L175.73 114.78C175.73 114.71 175.66 114.63 175.59 114.63Z" fill="#2F2D4F" fill-opacity="1.000000" fill-rule="nonzero"/>
		<path d="M171.28 119.76C170.69 119.76 170.09 119.61 169.65 119.39L167.05 117.9C166.68 117.68 166.24 117.46 166.24 116.94L166.24 116.71L166.24 114.86C166.24 114.48 166.53 114.19 166.9 114.19L175.66 114.19C176.03 114.19 176.33 114.48 176.33 114.86L176.33 116.86C176.4 117.38 175.88 117.68 175.66 117.75L172.69 119.46C172.17 119.69 171.73 119.76 171.28 119.76ZM167.13 115.15L167.13 116.71L167.13 116.86C167.13 116.86 167.35 117.01 167.5 117.09L170.09 118.57C170.69 118.94 171.58 118.94 172.1 118.65L175.07 116.94C175.21 116.86 175.29 116.79 175.29 116.79L175.29 116.64L175.29 115.08L167.13 115.15Z" fill="#2F2D4F" fill-opacity="1.000000" fill-rule="nonzero"/>
		<path d="M175.29 115.3L172.32 117.01C171.73 117.38 170.61 117.31 169.87 116.94L167.27 115.45C166.53 115.01 166.46 114.41 167.13 114.04L170.09 112.33C170.69 111.96 171.8 112.03 172.54 112.4L175.14 113.89C175.88 114.34 175.96 114.93 175.29 115.3Z" fill="#FFFFFF" fill-opacity="1.000000" fill-rule="nonzero"/>
		<path d="M171.28 117.75C170.69 117.75 170.09 117.61 169.65 117.38L167.05 115.9C166.53 115.6 166.24 115.15 166.24 114.71C166.24 114.34 166.46 113.96 166.9 113.67L169.87 111.96C170.61 111.51 171.95 111.59 172.77 112.03L175.36 113.52C175.88 113.82 176.18 114.26 176.18 114.71C176.18 115.08 175.96 115.45 175.51 115.75L172.54 117.46C172.17 117.68 171.73 117.75 171.28 117.75ZM171.13 112.48C170.84 112.48 170.54 112.55 170.32 112.63L167.35 114.34C167.2 114.41 167.13 114.49 167.13 114.56C167.13 114.63 167.27 114.78 167.5 114.93L170.09 116.42C170.69 116.71 171.58 116.79 172.1 116.49L175.07 114.78C175.21 114.71 175.29 114.63 175.29 114.56C175.29 114.49 175.14 114.34 174.92 114.19L172.32 112.7C171.95 112.63 171.5 112.48 171.13 112.48Z" fill="#2F2D4F" fill-opacity="1.000000" fill-rule="nonzero"/>
		<path d="M170.83 117.53L171.58 117.53L171.58 119.02L170.84 119.02L170.83 117.53Z" fill="#C2E6EA" fill-opacity="1.000000" fill-rule="evenodd"/>
		<path d="M162.53 77.71C162.08 77.93 161.34 77.93 160.89 77.71C160.45 77.48 160.45 77.04 160.89 76.82C161.34 76.59 162.08 76.59 162.53 76.82C162.97 77.04 162.97 77.48 162.53 77.71ZM161.19 76.96C160.89 77.11 160.89 77.41 161.19 77.56C161.49 77.71 161.93 77.71 162.15 77.56C162.45 77.41 162.45 77.11 162.15 76.96C161.93 76.82 161.49 76.82 161.19 76.96Z" fill="#2F2D4F" fill-opacity="1.000000" fill-rule="nonzero"/>
		<path d="M165.42 76L164.45 76.59C164.31 76.67 164.01 76.67 163.86 76.59L162.9 76C162.75 75.92 162.75 75.78 162.9 75.63L163.86 75.03C164.01 74.96 164.31 74.96 164.45 75.03L165.42 75.63C165.57 75.78 165.57 75.92 165.42 76ZM163.12 75.85L164.08 76.44L165.05 75.85L164.08 75.26L163.12 75.85Z" fill="#2F2D4F" fill-opacity="1.000000" fill-rule="nonzero"/>
		<path d="M160.15 76.15L159.85 76.37L158.52 75.63L158.82 75.4L160.15 76.15Z" fill="#2F2D4F" fill-opacity="1.000000" fill-rule="nonzero"/>
		<path d="M160.15 75.63L158.82 76.37L158.52 76.15L159.85 75.4L160.15 75.63Z" fill="#2F2D4F" fill-opacity="1.000000" fill-rule="nonzero"/>
		<path d="M162.53 74.96C162.08 75.18 161.34 75.18 160.89 74.96C160.45 74.74 160.45 74.29 160.89 74.07C161.34 73.84 162.08 73.84 162.53 74.07C162.97 74.29 162.97 74.74 162.53 74.96ZM161.26 74.21C160.97 74.36 160.97 74.66 161.26 74.81C161.56 74.96 162 74.96 162.23 74.81C162.53 74.66 162.53 74.36 162.23 74.21C162 74.07 161.56 74.07 161.26 74.21Z" fill="#2F2D4F" fill-opacity="1.000000" fill-rule="nonzero"/>
		<path d="M0 17.75L0.89 17.75L0.89 73.77L0 73.77L0 17.75Z" fill="#2F2D4F" fill-opacity="1.000000" fill-rule="evenodd"/>
		<path d="M0 76.97L0.89 76.97L0.89 84.92L0 84.92L0 76.97Z" fill="#2F2D4F" fill-opacity="1.000000" fill-rule="evenodd"/>
		<path d="M135.86 103.05L136.75 103.05L136.75 77.26C136.75 77.19 137.34 69.09 129.7 65.75L129.33 66.57C136.38 69.69 135.86 76.97 135.86 77.26L135.86 103.05Z" fill="#2F2D4F" fill-opacity="1.000000" fill-rule="nonzero"/>
		<path d="M135.86 106.17L136.75 106.17L136.75 114.86L135.86 114.86L135.86 106.17Z" fill="#2F2D4F" fill-opacity="1.000000" fill-rule="evenodd"/>
		<path d="M27.52 127.49L32.27 127.57C32.35 127.57 32.42 127.57 32.5 127.49L50.75 116.94C51.86 116.27 53.57 116.2 54.53 116.79L95.86 140.72C95.86 140.72 95.94 140.72 95.94 140.79L109.67 145.4C109.89 145.47 109.96 145.62 109.96 145.84L109.96 149.26C110.11 149.78 109.74 150.3 109.07 150.67L86.29 163.82C85.18 164.49 83.47 164.57 82.51 163.97L27.67 132.25C27.23 132.02 27 131.65 27 131.28L27 127.86C27 127.71 27.23 127.49 27.52 127.49Z" fill="#2F2D4F" fill-opacity="1.000000" fill-rule="nonzero"/>
		<path d="M82.29 164.42L27.45 132.77C26.86 132.47 26.56 131.95 26.56 131.43L26.56 128.01C26.56 127.79 26.63 127.57 26.86 127.34C27 127.19 27.23 127.05 27.52 127.12L32.27 127.19L50.53 116.64C51.79 115.9 53.64 115.83 54.76 116.49L96.09 140.42L109.81 145.03C110.19 145.17 110.41 145.47 110.41 145.84L110.41 149.26C110.56 149.93 110.11 150.67 109.3 151.12L86.51 164.27C85.85 164.64 84.96 164.86 84.14 164.86C83.47 164.86 82.8 164.71 82.29 164.42ZM50.97 117.39L32.72 127.94C32.57 128.01 32.42 128.09 32.27 128.09L27.52 128.01L27.52 127.57L27.52 131.5C27.52 131.8 27.75 131.95 27.97 132.1L82.8 163.82C83.62 164.27 85.18 164.27 86.14 163.67L108.92 150.52C109.44 150.23 109.67 149.85 109.59 149.56L109.59 145.99L95.86 141.38C95.79 141.38 95.79 141.31 95.72 141.31L54.39 117.39C54.01 117.16 53.49 117.09 52.98 117.09C52.23 116.87 51.49 117.09 50.97 117.39Z" fill="#2F2D4F" fill-opacity="1.000000" fill-rule="nonzero"/>
		<path d="M27.67 128.61L82.51 160.33C83.47 160.92 85.18 160.85 86.29 160.18L109.07 147.03C110.19 146.36 110.33 145.4 109.37 144.88L54.53 113.15C53.57 112.56 51.86 112.63 50.75 113.3L27.97 126.45C26.86 127.05 26.71 128.01 27.67 128.61Z" fill="#FFFFFF" fill-opacity="1.000000" fill-rule="nonzero"/>
		<path d="M82.29 160.63L27.45 128.98C26.86 128.68 26.56 128.16 26.56 127.64C26.56 127.05 27 126.45 27.67 126.01L50.45 112.85C51.71 112.11 53.57 112.04 54.68 112.71L109.52 144.43C110.11 144.73 110.41 145.25 110.41 145.77C110.41 146.36 109.96 146.96 109.3 147.4L86.51 160.48C85.85 160.85 84.96 161.07 84.14 161.07C83.47 161.07 82.8 160.92 82.29 160.63ZM50.97 113.6L28.19 126.75C27.75 126.97 27.45 127.34 27.45 127.64C27.45 127.94 27.67 128.09 27.89 128.23L82.73 159.96C83.55 160.4 85.1 160.4 86.07 159.81L108.85 146.66C109.3 146.44 109.59 146.07 109.59 145.77C109.59 145.47 109.37 145.32 109.15 145.17L54.31 113.45C53.94 113.23 53.42 113.15 52.9 113.15C52.23 113.15 51.49 113.3 50.97 113.6Z" fill="#2F2D4F" fill-opacity="1.000000" fill-rule="nonzero"/>
		<path d="M83.84 160.92L84.51 160.92L84.51 164.19L83.84 164.19L83.84 160.92Z" fill="#C2E6EA" fill-opacity="1.000000" fill-rule="evenodd"/>
		<path d="M107.14 147.92L107.81 147.92L107.81 151.19L107.14 151.19L107.14 147.92Z" fill="#C2E6EA" fill-opacity="1.000000" fill-rule="evenodd"/>
		<path d="M29.16 129.72L29.82 129.72L29.82 132.99L29.16 132.99L29.16 129.72Z" fill="#C2E6EA" fill-opacity="1.000000" fill-rule="evenodd"/>
		<path d="M4.45 2.97C4.37 2.97 4.37 2.89 4.45 2.82L8.53 0.59C8.75 0.44 9.05 0.44 9.42 0.59L132.37 71.69C133.04 72.06 133.56 73.1 133.56 74L133.56 168.21C133.56 168.65 133.41 168.95 133.19 169.17L128.88 171.55L124.58 166.42L126.29 165.68L9.34 98.07C8.68 97.7 8.16 96.66 8.16 95.77L8.16 8.09L4.45 2.97Z" fill="#FFFFFF" fill-opacity="1.000000" fill-rule="nonzero"/>
		<path d="M123.91 166.13L125.32 165.53L9.2 98.37C8.38 97.92 7.79 96.73 7.79 95.69L7.79 8.24L4.08 3.26C4 3.12 3.93 2.97 4 2.82C4 2.67 4.15 2.52 4.3 2.45L8.31 0.22C8.68 -0.08 9.2 -0.08 9.64 0.22L132.59 71.32C133.41 71.77 134 72.96 134 74L134 168.21C134 168.8 133.78 169.25 133.41 169.54L128.81 172.07L123.91 166.13ZM8.75 0.96L4.97 3.04L8.6 7.94L8.6 95.69C8.6 96.43 9.05 97.33 9.57 97.62L127.25 165.61L125.32 166.42L128.96 170.88L132.89 168.73C132.97 168.65 133.04 168.5 133.04 168.13L133.04 73.92C133.04 73.18 132.59 72.29 132.07 71.99L9.2 0.96C9.12 0.89 9.05 0.89 8.97 0.89C8.9 0.89 8.83 0.89 8.75 0.96Z" fill="#2F2D4F" fill-opacity="1.000000" fill-rule="nonzero"/>
		<path d="M5.11 100.37L128.07 171.48C128.74 171.85 129.25 171.48 129.25 170.58L129.25 76.3C129.25 75.41 128.74 74.37 128.07 74L5.11 2.97C4.45 2.6 3.85 2.97 3.85 3.86L3.85 98.07C3.85 98.96 4.45 100 5.11 100.37Z" fill="#2F2D4F" fill-opacity="1.000000" fill-rule="nonzero"/>
		<path d="M127.77 171.85L4.89 100.74C4.08 100.3 3.48 99.11 3.48 98.07L3.48 3.86C3.48 3.26 3.7 2.74 4.15 2.52C4.45 2.3 4.89 2.37 5.34 2.6L128.29 73.7C129.11 74.14 129.7 75.33 129.7 76.37L129.7 170.58C129.7 171.18 129.48 171.7 129.03 171.92C128.88 172 128.66 172.07 128.51 172.07C128.29 172 128.07 171.92 127.77 171.85ZM4.52 3.26C4.45 3.34 4.3 3.49 4.3 3.86L4.3 98.07C4.3 98.81 4.74 99.7 5.26 100L128.22 171.1C128.29 171.18 128.44 171.25 128.59 171.18C128.66 171.1 128.81 170.96 128.81 170.58L128.81 76.3C128.81 75.56 128.36 74.66 127.85 74.37L4.89 3.34C4.82 3.34 4.74 3.26 4.67 3.26C4.6 3.26 4.52 3.26 4.52 3.26Z" fill="#2F2D4F" fill-opacity="1.000000" fill-rule="nonzero"/>
		<path d="M5.26 98.59L127.85 169.47C128.07 169.62 128.22 169.47 128.22 169.17L128.22 75.85C128.22 75.56 128.07 75.26 127.85 75.18L5.26 4.3C5.04 4.16 4.89 4.3 4.89 4.6L4.89 97.92C4.89 98.22 5.04 98.51 5.26 98.59Z" fill="#C2E6EA" fill-opacity="1.000000" fill-rule="nonzero"/>
		<path d="M127.62 169.84L5.04 98.96C4.74 98.81 4.45 98.37 4.45 97.92L4.45 4.6C4.45 4.3 4.6 4.08 4.82 3.93C5.04 3.78 5.26 3.86 5.49 3.93L128.07 74.81C128.36 75.04 128.66 75.48 128.66 75.85L128.66 169.17C128.66 169.47 128.51 169.69 128.29 169.84C128.22 169.92 128.07 169.92 127.99 169.92C127.85 169.92 127.77 169.92 127.62 169.84ZM5.34 97.92C5.34 98.07 5.41 98.22 5.49 98.22L127.77 168.87L127.77 75.85C127.77 75.7 127.7 75.56 127.62 75.56L5.34 4.9L5.34 97.92Z" fill="#2F2D4F" fill-opacity="1.000000" fill-rule="nonzero"/>
		<path d="M3.85 98.14L3.85 92.72L129.18 165.16L129.18 170.58C129.18 171.4 128.59 171.77 127.92 171.33L5.19 100.45C4.45 100 3.85 99.03 3.85 98.14Z" fill="#2F2D4F" fill-opacity="1.000000" fill-rule="nonzero"/>
		<path d="M127.7 171.77L4.97 100.82C4.15 100.3 3.48 99.18 3.48 98.22L3.48 92.05L129.48 164.86L129.7 165.01L129.7 170.66C129.7 171.18 129.48 171.62 129.11 171.85C128.96 171.92 128.74 172 128.59 172C128.29 172 127.99 171.92 127.7 171.77ZM4.3 93.54L4.3 98.14C4.3 98.81 4.82 99.7 5.34 100L128.07 170.96C128.29 171.1 128.44 171.1 128.51 171.03C128.59 170.96 128.66 170.81 128.66 170.58L128.66 165.46L4.3 93.54Z" fill="#2F2D4F" fill-opacity="1.000000" fill-rule="nonzero"/>
		<path d="M58.41 128.18L58.74 127.6L74.61 136.79L74.28 137.37L58.41 128.18Z" fill="#C2E6EA" fill-opacity="1.000000" fill-rule="evenodd"/>
		<path d="M129.09 74.73L133.29 72.21L133.75 72.98L129.55 75.5L129.09 74.73Z" fill="#2F2D4F" fill-opacity="1.000000" fill-rule="evenodd"/>
		<path d="M11.83 6.59L16.03 4.07L16.49 4.83L12.29 7.35L11.83 6.59Z" fill="#2F2D4F" fill-opacity="1.000000" fill-rule="evenodd"/>
		<path d="M129.09 163.96L133.28 161.44L133.74 162.2L129.54 164.73L129.09 163.96Z" fill="#2F2D4F" fill-opacity="1.000000" fill-rule="evenodd"/>
		<path d="M99.8 155.95L100.09 155.35L97.42 153.79L97.13 154.39L99.8 155.95Z" fill="#C2E6EA" fill-opacity="1.000000" fill-rule="nonzero"/>
		<path d="M129.29 160.72L133.49 158.19L133.95 158.96L129.75 161.48L129.29 160.72Z" fill="#2F2D4F" fill-opacity="1.000000" fill-rule="evenodd"/>
		<path d="M14.52 8.17L18.72 5.64L19.18 6.41L14.98 8.93L14.52 8.17Z" fill="#2F2D4F" fill-opacity="1.000000" fill-rule="evenodd"/>
		<path d="M129.3 79.2L133.5 76.67L133.96 77.44L129.76 79.96L129.3 79.2Z" fill="#2F2D4F" fill-opacity="1.000000" fill-rule="evenodd"/>
		<path d="M39.99 54.38L39.69 54.08L39.77 53.86L44.66 37.89L45.11 38.26C48.52 41.38 51.49 45.61 53.64 50.15L53.79 50.52L39.99 54.38ZM45.04 39.22L40.66 53.49L52.83 50.07C50.82 45.99 48.08 42.12 45.04 39.22Z" fill="#FFFFFF" fill-opacity="1.000000" fill-rule="nonzero"/>
		<path d="M39.03 34.47C37.54 33.06 35.91 31.87 34.28 30.9L34.28 49.85L39.03 34.47Z" fill="#2F2D4F" fill-opacity="1.000000" fill-rule="nonzero"/>
		<path d="M36.06 52.82L49.27 49.11C47.19 44.65 44.22 40.56 40.81 37.37L36.06 52.82Z" fill="#C2E6EA" fill-opacity="1.000000" fill-rule="nonzero"/>
		<path d="M35.91 53.34L35.54 52.9L35.61 52.6L40.51 36.48L41.03 37C44.44 40.12 47.48 44.35 49.56 48.88L49.78 49.4L35.91 53.34ZM41.03 38.18L36.8 52.15L48.67 48.81C46.67 44.8 44 41.08 41.03 38.18Z" fill="#2F2D4F" fill-opacity="1.000000" fill-rule="nonzero"/>
		<path d="M31.6 51.48L31.6 32.46C22.18 27.04 14.61 31.79 15.21 43.24C15.73 52.9 22.26 64.26 30.34 69.69C35.83 73.33 40.73 73.55 44.07 71.1L31.6 51.48Z" fill="#FFFFFF" fill-opacity="1.000000" fill-rule="nonzero"/>
		<path d="M38.95 73.18C36.28 73.18 33.24 72.14 30.12 70.06C21.88 64.63 15.28 53.04 14.76 43.24C14.46 37.52 16.25 33.06 19.58 30.98C22.85 28.97 27.23 29.34 31.83 32.02L32.05 32.17L32.05 32.46L32.05 51.34L44.59 71.17L44.29 71.47C42.81 72.58 40.95 73.18 38.95 73.18ZM24.26 30.68C22.7 30.68 21.29 31.05 20.03 31.79C16.99 33.65 15.35 37.81 15.65 43.24C16.17 52.82 22.55 63.97 30.57 69.32C35.46 72.58 40.14 73.18 43.4 70.95L31.16 51.56L31.16 32.69C28.71 31.35 26.41 30.68 24.26 30.68Z" fill="#2F2D4F" fill-opacity="1.000000" fill-rule="nonzero"/>
		<path d="M44.66 106.24L39.4 103.27L39.4 85.22L44.66 88.19L44.66 106.24Z" fill="#C2E6EA" fill-opacity="1.000000" fill-rule="nonzero"/>
		<path d="M45.11 107.06L38.95 103.49L38.95 84.4L45.11 87.96L45.11 107.06ZM39.92 102.97L44.22 105.42L44.22 88.41L39.92 85.96L39.92 102.97Z" fill="#2F2D4F" fill-opacity="1.000000" fill-rule="nonzero"/>
		<path d="M52.16 110.63L46.96 107.58L46.96 83.36L52.16 86.4L52.16 110.63Z" fill="#FFFFFF" fill-opacity="1.000000" fill-rule="nonzero"/>
		<path d="M52.6 111.44L46.45 107.88L46.45 82.61L52.6 86.18L52.6 111.44ZM47.41 107.36L51.71 109.81L51.71 86.7L47.41 84.25L47.41 107.36Z" fill="#2F2D4F" fill-opacity="1.000000" fill-rule="nonzero"/>
		<path d="M119.98 149.78L114.79 146.81L114.79 105.35L119.98 108.32L119.98 149.78Z" fill="#FFFFFF" fill-opacity="1.000000" fill-rule="nonzero"/>
		<path d="M120.43 150.6L114.27 147.03L114.27 146.73L114.27 104.46L120.43 108.03L120.43 108.32L120.43 150.6ZM115.23 146.51L119.54 148.96L119.54 108.55L115.23 106.09L115.23 146.51Z" fill="#2F2D4F" fill-opacity="1.000000" fill-rule="nonzero"/>
		<path d="M59.73 114.93L54.53 111.96L54.53 80.09L59.73 83.13L59.73 114.93Z" fill="#FFFFFF" fill-opacity="1.000000" fill-rule="nonzero"/>
		<path d="M60.17 115.75L54.01 112.19L54.01 79.27L60.17 82.84L60.17 115.75ZM54.98 111.67L59.28 114.12L59.28 83.36L54.98 80.91L54.98 111.67Z" fill="#2F2D4F" fill-opacity="1.000000" fill-rule="nonzero"/>
		<path d="M67.22 119.32L62.03 116.35L62.03 92.12L67.22 95.1L67.22 119.32Z" fill="#FFFFFF" fill-opacity="1.000000" fill-rule="nonzero"/>
		<path d="M67.74 120.14L61.58 116.57L61.58 91.31L67.74 94.87L67.74 120.14ZM62.55 116.05L66.85 118.5L66.85 95.39L62.55 92.94L62.55 116.05Z" fill="#2F2D4F" fill-opacity="1.000000" fill-rule="nonzero"/>
		<path d="M104.84 141.09L99.65 138.04L99.65 76.82L104.84 79.87L104.84 141.09Z" fill="#FFFFFF" fill-opacity="1.000000" fill-rule="nonzero"/>
		<path d="M105.29 141.9L99.13 138.34L99.13 138.04L99.13 76L105.29 79.57L105.29 79.87L105.29 141.9ZM100.09 137.82L104.4 140.27L104.4 80.16L100.09 77.71L100.09 137.82Z" fill="#2F2D4F" fill-opacity="1.000000" fill-rule="nonzero"/>
		<path d="M112.41 145.4L107.22 142.42L107.14 88.86L112.41 91.83L112.41 145.4Z" fill="#C2E6EA" fill-opacity="1.000000" fill-rule="nonzero"/>
		<path d="M112.86 146.21L106.7 142.65L106.7 142.35L106.7 87.96L112.86 91.53L112.86 91.83L112.86 146.21ZM107.66 142.13L111.97 144.58L111.97 92.05L107.66 89.6L107.66 142.13Z" fill="#2F2D4F" fill-opacity="1.000000" fill-rule="nonzero"/>
		<path d="M37.02 101.86L31.83 98.81L31.83 89.52L37.02 92.57L37.02 101.86Z" fill="#FFFFFF" fill-opacity="1.000000" fill-rule="nonzero"/>
		<path d="M37.47 102.68L31.31 99.11L31.31 88.71L37.47 92.27L37.47 102.68ZM32.27 98.59L36.58 101.04L36.58 92.79L32.27 90.34L32.27 98.59Z" fill="#2F2D4F" fill-opacity="1.000000" fill-rule="nonzero"/>
		<path d="M74.79 123.7L69.6 120.66L69.6 82.91L74.79 85.88L74.79 123.7Z" fill="#FFFFFF" fill-opacity="1.000000" fill-rule="nonzero"/>
		<path d="M75.24 124.52L69.08 120.95L69.08 82.09L75.24 85.66L75.24 124.52ZM70.04 120.43L74.35 122.88L74.35 86.18L70.04 83.73L70.04 120.43Z" fill="#2F2D4F" fill-opacity="1.000000" fill-rule="nonzero"/>
		<path d="M82.21 127.94L77.02 124.89L77.02 90.49L82.21 93.54L82.21 127.94Z" fill="#FFFFFF" fill-opacity="1.000000" fill-rule="nonzero"/>
		<path d="M82.66 128.75L76.5 125.19L76.5 89.75L82.66 93.31L82.66 128.75ZM77.46 124.67L81.77 127.12L81.77 93.83L77.46 91.38L77.46 124.67Z" fill="#2F2D4F" fill-opacity="1.000000" fill-rule="nonzero"/>
		<path d="M89.78 132.25L84.59 129.27L84.51 72.66L89.78 75.7L89.78 132.25Z" fill="#C2E6EA" fill-opacity="1.000000" fill-rule="nonzero"/>
		<path d="M90.22 133.06L84.07 129.5L84.07 129.2L84.07 71.84L90.22 75.41L90.22 75.7L90.22 133.06ZM85.03 128.98L89.33 131.43L89.33 75.93L85.03 73.48L85.03 128.98Z" fill="#2F2D4F" fill-opacity="1.000000" fill-rule="nonzero"/>
		<path d="M97.27 136.63L92.08 133.66L92.08 82.02L97.27 84.99L97.27 136.63Z" fill="#C2E6EA" fill-opacity="1.000000" fill-rule="nonzero"/>
		<path d="M97.79 137.45L91.63 133.88L91.63 133.58L91.63 81.2L97.79 84.77L97.79 85.07L97.79 137.45ZM92.6 133.36L96.9 135.81L96.9 85.29L92.6 82.84L92.6 133.36Z" fill="#2F2D4F" fill-opacity="1.000000" fill-rule="nonzero"/>
		<path d="M44.66 99.93L39.4 96.88L39.4 82.39L44.66 85.44L44.66 99.93Z" fill="#FFFFFF" fill-opacity="1.000000" fill-rule="nonzero"/>
		<path d="M45.11 100.74L38.95 97.18L38.95 81.65L45.11 85.22L45.11 100.74ZM39.92 96.66L44.22 99.11L44.22 85.66L39.92 83.21L39.92 96.66Z" fill="#2F2D4F" fill-opacity="1.000000" fill-rule="nonzero"/>
		<path d="M52.16 106.46L46.96 103.42L46.96 80.61L52.16 83.65L52.16 106.46Z" fill="#FFFFFF" fill-opacity="1.000000" fill-rule="nonzero"/>
		<path d="M52.6 107.21L46.45 103.64L46.45 79.79L52.6 83.36L52.6 107.21ZM47.41 103.12L51.71 105.57L51.71 83.95L47.41 81.5L47.41 103.12Z" fill="#2F2D4F" fill-opacity="1.000000" fill-rule="nonzero"/>
		<path d="M119.98 136.33L114.79 133.36L114.79 102.6L119.98 105.57L119.98 136.33Z" fill="#C2E6EA" fill-opacity="1.000000" fill-rule="nonzero"/>
		<path d="M120.43 137.15L114.27 133.58L114.27 133.29L114.27 101.71L120.43 105.28L120.43 105.57L120.43 137.15ZM115.23 133.06L119.54 135.52L119.54 105.8L115.23 103.34L115.23 133.06Z" fill="#2F2D4F" fill-opacity="1.000000" fill-rule="nonzero"/>
		<path d="M119.98 132.77L114.79 129.79L114.79 101.86L119.98 104.9L119.98 132.77Z" fill="#FFFFFF" fill-opacity="1.000000" fill-rule="nonzero"/>
		<path d="M120.5 133.58L114.34 130.02L114.34 129.72L114.34 101.04L120.5 104.61L120.5 104.9L120.5 133.58ZM115.23 129.5L119.54 131.95L119.54 105.13L115.23 102.68L115.23 129.5Z" fill="#2F2D4F" fill-opacity="1.000000" fill-rule="nonzero"/>
		<path d="M59.73 100.82L54.53 97.77L54.53 77.34L59.73 80.39L59.73 100.82Z" fill="#C2E6EA" fill-opacity="1.000000" fill-rule="nonzero"/>
		<path d="M60.17 101.56L54.01 97.99L54.01 76.52L60.17 80.09L60.17 101.56ZM54.98 97.47L59.28 99.93L59.28 80.61L54.98 78.16L54.98 97.47Z" fill="#2F2D4F" fill-opacity="1.000000" fill-rule="nonzero"/>
		<path d="M59.73 96.58L54.53 93.61L54.53 73.18L59.73 76.22L59.73 96.58Z" fill="#FFFFFF" fill-opacity="1.000000" fill-rule="nonzero"/>
		<path d="M60.17 97.4L54.01 93.83L54.01 72.36L60.17 75.93L60.17 97.4ZM54.98 93.31L59.28 95.77L59.28 76.45L54.98 74L54.98 93.31Z" fill="#2F2D4F" fill-opacity="1.000000" fill-rule="nonzero"/>
		<path d="M67.22 109.44L62.03 106.39L62.03 89.38L67.22 92.35L67.22 109.44Z" fill="#FFFFFF" fill-opacity="1.000000" fill-rule="nonzero"/>
		<path d="M67.74 110.25L61.58 106.69L61.58 88.56L67.74 92.12L67.74 110.25ZM62.55 106.17L66.85 108.62L66.85 92.64L62.55 90.19L62.55 106.17Z" fill="#2F2D4F" fill-opacity="1.000000" fill-rule="nonzero"/>
		<path d="M104.84 135.44L99.65 132.47L99.65 74.07L104.84 77.12L104.84 135.44Z" fill="#FFFFFF" fill-opacity="1.000000" fill-rule="nonzero"/>
		<path d="M105.29 136.26L99.13 132.69L99.13 132.39L99.13 73.25L105.29 76.82L105.29 77.12L105.29 136.26ZM100.09 132.17L104.4 134.62L104.4 77.34L100.09 74.89L100.09 132.17Z" fill="#2F2D4F" fill-opacity="1.000000" fill-rule="nonzero"/>
		<path d="M112.41 126.97L107.22 123.92L107.14 86.11L112.41 89.08L112.41 126.97Z" fill="#FFFFFF" fill-opacity="1.000000" fill-rule="nonzero"/>
		<path d="M112.86 127.79L106.7 124.22L106.7 123.92L106.7 85.29L112.86 88.86L112.86 89.15L112.86 127.79ZM107.66 123.7L111.97 126.15L111.97 89.38L107.66 86.92L107.66 123.7Z" fill="#2F2D4F" fill-opacity="1.000000" fill-rule="nonzero"/>
		<path d="M37.02 99.11L31.83 96.06L31.83 86.78L37.02 89.82L37.02 99.11Z" fill="#FFFFFF" fill-opacity="1.000000" fill-rule="nonzero"/>
		<path d="M37.47 99.93L31.31 96.36L31.31 85.96L37.47 89.52L37.47 99.93ZM32.27 95.84L36.58 98.29L36.58 90.04L32.27 87.59L32.27 95.84Z" fill="#2F2D4F" fill-opacity="1.000000" fill-rule="nonzero"/>
		<path d="M74.79 117.39L69.6 114.34L69.6 80.16L74.79 83.13L74.79 117.39Z" fill="#FFFFFF" fill-opacity="1.000000" fill-rule="nonzero"/>
		<path d="M75.24 118.13L69.08 114.56L69.08 79.27L75.24 82.84L75.24 118.13ZM70.04 114.12L74.35 116.57L74.35 83.43L70.04 80.98L70.04 114.12Z" fill="#2F2D4F" fill-opacity="1.000000" fill-rule="nonzero"/>
		<path d="M82.21 124.44L77.02 121.47L77.02 87.74L82.21 90.79L82.21 124.44Z" fill="#FFFFFF" fill-opacity="1.000000" fill-rule="nonzero"/>
		<path d="M82.66 125.26L76.5 121.7L76.5 86.92L82.66 90.49L82.66 125.26ZM77.46 121.18L81.77 123.63L81.77 91.01L77.46 88.56L77.46 121.18Z" fill="#2F2D4F" fill-opacity="1.000000" fill-rule="nonzero"/>
		<path d="M89.78 120.21L84.59 117.24L84.51 69.91L89.78 72.96L89.78 120.21Z" fill="#FFFFFF" fill-opacity="1.000000" fill-rule="nonzero"/>
		<path d="M90.22 121.03L84.07 117.46L84.07 117.16L84.07 69.09L90.22 72.66L90.22 72.96L90.22 121.03ZM85.03 116.94L89.33 119.39L89.33 73.18L85.03 70.73L85.03 116.94Z" fill="#2F2D4F" fill-opacity="1.000000" fill-rule="nonzero"/>
		<path d="M97.27 128.9L92.08 125.86L92.08 79.27L97.27 82.24L97.27 128.9Z" fill="#FFFFFF" fill-opacity="1.000000" fill-rule="nonzero"/>
		<path d="M97.79 129.72L91.63 126.15L91.63 125.86L91.63 78.45L97.79 82.02L97.79 82.32L97.79 129.72ZM92.6 125.63L96.9 128.09L96.9 82.54L92.6 80.09L92.6 125.63Z" fill="#2F2D4F" fill-opacity="1.000000" fill-rule="nonzero"/>
		<path d="M83.1 157.36C83.55 157.14 84.29 157.14 84.73 157.36C85.18 157.58 85.18 158.03 84.73 158.25C84.29 158.47 83.55 158.47 83.1 158.25C82.66 158.03 82.66 157.58 83.1 157.36ZM83.4 157.51C83.1 157.66 83.1 157.95 83.4 158.1C83.7 158.25 84.14 158.25 84.36 158.1C84.66 157.95 84.66 157.66 84.36 157.51C84.14 157.36 83.7 157.36 83.4 157.51Z" fill="#2F2D4F" fill-opacity="1.000000" fill-rule="nonzero"/>
		<path d="M83.1 154.46C83.55 154.24 84.29 154.24 84.73 154.46C85.18 154.68 85.18 155.13 84.73 155.35C84.29 155.58 83.55 155.58 83.1 155.35C82.66 155.13 82.66 154.76 83.1 154.46ZM83.4 154.61C83.1 154.76 83.1 155.06 83.4 155.2C83.7 155.35 84.14 155.35 84.36 155.2C84.66 155.06 84.66 154.76 84.36 154.61C84.14 154.46 83.7 154.46 83.4 154.61Z" fill="#2F2D4F" fill-opacity="1.000000" fill-rule="nonzero"/>
		<path d="M75.61 153.05C76.05 152.83 76.79 152.83 77.24 153.05C77.68 153.27 77.68 153.72 77.24 153.94C76.79 154.16 76.05 154.16 75.61 153.94C75.16 153.72 75.16 153.27 75.61 153.05ZM75.9 153.2C75.61 153.35 75.61 153.64 75.9 153.79C76.2 153.94 76.65 153.94 76.87 153.79C77.16 153.64 77.16 153.35 76.87 153.2C76.65 153.05 76.2 153.05 75.9 153.2Z" fill="#2F2D4F" fill-opacity="1.000000" fill-rule="nonzero"/>
		<path d="M77.61 154.76L78.58 154.16C78.72 154.09 79.02 154.09 79.17 154.16L80.13 154.76C80.28 154.83 80.28 154.98 80.13 155.13L79.17 155.72C79.02 155.8 78.72 155.8 78.58 155.72L77.61 155.13C77.46 154.98 77.46 154.83 77.61 154.76ZM78.87 154.31L77.91 154.91L78.87 155.5L79.84 154.91L78.87 154.31Z" fill="#2F2D4F" fill-opacity="1.000000" fill-rule="nonzero"/>
		<path d="M75.16 153.27L76.13 152.68C76.27 152.6 76.57 152.6 76.72 152.68L77.68 153.27C77.83 153.35 77.83 153.5 77.68 153.64L76.72 154.24C76.57 154.31 76.27 154.31 76.13 154.24L75.16 153.64C74.94 153.57 74.94 153.42 75.16 153.27ZM76.42 152.9L75.46 153.5L76.42 154.09L77.39 153.5L76.42 152.9Z" fill="#2F2D4F" fill-opacity="1.000000" fill-rule="nonzero"/>
		<path d="M85.1 156.17L86.07 155.58C86.22 155.5 86.51 155.5 86.66 155.58L87.63 156.17C87.78 156.24 87.78 156.39 87.63 156.54L86.66 157.14C86.51 157.21 86.22 157.21 86.07 157.14L85.1 156.54C84.96 156.47 84.96 156.32 85.1 156.17ZM86.37 155.8L85.4 156.39L86.37 156.99L87.33 156.39L86.37 155.8Z" fill="#2F2D4F" fill-opacity="1.000000" fill-rule="nonzero"/>
		<path d="M78.13 151.56C78.58 151.34 79.32 151.34 79.76 151.56C80.21 151.79 80.21 152.23 79.76 152.46C79.32 152.68 78.58 152.68 78.13 152.46C77.68 152.23 77.68 151.86 78.13 151.56ZM78.43 151.79C78.13 151.93 78.13 152.23 78.43 152.38C78.72 152.53 79.17 152.53 79.39 152.38C79.69 152.23 79.69 151.93 79.39 151.79C79.17 151.56 78.72 151.56 78.43 151.79Z" fill="#2F2D4F" fill-opacity="1.000000" fill-rule="nonzero"/>
		<path d="M80.58 153.79L80.87 153.94L82.21 153.2L81.91 152.98L80.58 153.79Z" fill="#2F2D4F" fill-opacity="1.000000" fill-rule="nonzero"/>
		<path d="M80.58 153.2L81.91 153.94L82.21 153.79L80.87 152.98L80.58 153.2Z" fill="#2F2D4F" fill-opacity="1.000000" fill-rule="nonzero"/>
		<path d="M80.65 156.69L80.95 156.84L82.21 156.1L81.91 155.87L80.65 156.69Z" fill="#2F2D4F" fill-opacity="1.000000" fill-rule="nonzero"/>
		<path d="M80.65 156.1L81.91 156.84L82.21 156.69L80.95 155.87L80.65 156.1Z" fill="#2F2D4F" fill-opacity="1.000000" fill-rule="nonzero"/>
		<path d="M87.92 154.53C88.37 154.31 89.11 154.31 89.56 154.53C90 154.76 90 155.2 89.56 155.43C89.11 155.65 88.37 155.65 87.92 155.43C87.48 155.2 87.48 154.76 87.92 154.53ZM88.22 154.68C87.92 154.83 87.92 155.13 88.22 155.28C88.52 155.43 88.96 155.43 89.19 155.28C89.48 155.13 89.48 154.83 89.19 154.68C88.96 154.53 88.52 154.53 88.22 154.68Z" fill="#2F2D4F" fill-opacity="1.000000" fill-rule="nonzero"/>
		<path d="M87.92 151.64C88.37 151.41 89.11 151.41 89.56 151.64C90 151.86 90 152.31 89.56 152.53C89.11 152.75 88.37 152.75 87.92 152.53C87.48 152.31 87.48 151.93 87.92 151.64ZM88.3 151.86C88 152.01 88 152.31 88.3 152.45C88.59 152.6 89.04 152.6 89.26 152.45C89.56 152.31 89.56 152.01 89.26 151.86C88.96 151.71 88.52 151.71 88.3 151.86Z" fill="#2F2D4F" fill-opacity="1.000000" fill-rule="nonzero"/>
		<path d="M82.43 151.94L83.4 151.34C83.55 151.27 83.84 151.27 83.99 151.34L84.96 151.94C85.1 152.01 85.1 152.16 84.96 152.31L83.99 152.9C83.84 152.98 83.55 152.98 83.4 152.9L82.43 152.31C82.29 152.16 82.29 152.01 82.43 151.94ZM83.77 151.56L82.8 152.16L83.77 152.75L84.73 152.16L83.77 151.56Z" fill="#2F2D4F" fill-opacity="1.000000" fill-rule="nonzero"/>
		<path d="M89.93 153.35L90.89 152.75C91.04 152.68 91.34 152.68 91.49 152.75L92.45 153.35C92.6 153.42 92.6 153.57 92.45 153.72L91.49 154.31C91.34 154.39 91.04 154.39 90.89 154.31L89.93 153.72C89.78 153.64 89.78 153.5 89.93 153.35ZM91.26 152.98L90.3 153.57L91.26 154.16L92.23 153.57L91.26 152.98Z" fill="#2F2D4F" fill-opacity="1.000000" fill-rule="nonzero"/>
		<path d="M85.48 153.87L85.77 154.02L87.11 153.27L86.74 153.12L85.48 153.87Z" fill="#2F2D4F" fill-opacity="1.000000" fill-rule="nonzero"/>
		<path d="M85.48 153.27L86.74 154.02L87.11 153.87L85.77 153.12L85.48 153.27Z" fill="#2F2D4F" fill-opacity="1.000000" fill-rule="nonzero"/>
		<path d="M35.76 127.12C36.21 126.9 36.95 126.9 37.39 127.12C37.84 127.34 37.84 127.79 37.39 128.01C36.95 128.23 36.21 128.23 35.76 128.01C35.39 127.79 35.39 127.42 35.76 127.12ZM36.13 127.34C35.83 127.49 35.83 127.79 36.13 127.94C36.43 128.09 36.87 128.09 37.1 127.94C37.39 127.79 37.39 127.49 37.1 127.34C36.8 127.19 36.35 127.19 36.13 127.34Z" fill="#2F2D4F" fill-opacity="1.000000" fill-rule="nonzero"/>
		<path d="M30.27 127.42L31.23 126.82C31.38 126.75 31.68 126.75 31.83 126.82L32.79 127.42C32.94 127.49 32.94 127.64 32.79 127.79L31.83 128.38C31.68 128.46 31.38 128.46 31.23 128.38L30.27 127.79C30.12 127.64 30.12 127.49 30.27 127.42ZM31.6 127.05L30.64 127.64L31.6 128.23L32.57 127.64L31.6 127.05Z" fill="#2F2D4F" fill-opacity="1.000000" fill-rule="nonzero"/>
		<path d="M33.31 126.45L33.61 126.6L34.87 125.86L34.57 125.71L33.31 126.45Z" fill="#2F2D4F" fill-opacity="1.000000" fill-rule="nonzero"/>
		<path d="M33.31 125.86L34.57 126.6L34.87 126.45L33.61 125.71L33.31 125.86Z" fill="#2F2D4F" fill-opacity="1.000000" fill-rule="nonzero"/>
		<path d="M33.31 129.35L33.61 129.5L34.94 128.75L34.57 128.61L33.31 129.35Z" fill="#2F2D4F" fill-opacity="1.000000" fill-rule="nonzero"/>
		<path d="M33.31 128.75L34.57 129.5L34.94 129.35L33.61 128.61L33.31 128.75Z" fill="#2F2D4F" fill-opacity="1.000000" fill-rule="nonzero"/>
		<path d="M35.17 124.59L36.13 124C36.28 123.92 36.58 123.92 36.73 124L37.69 124.59C37.84 124.67 37.84 124.82 37.69 124.96L36.73 125.56C36.58 125.63 36.28 125.63 36.13 125.56L35.17 124.96C34.94 124.89 34.94 124.74 35.17 124.59ZM36.43 124.22L35.46 124.82L36.43 125.41L37.39 124.82L36.43 124.22Z" fill="#2F2D4F" fill-opacity="1.000000" fill-rule="nonzero"/>
		<path d="M38.13 123.63L38.43 123.85L39.69 123.03L39.4 122.88L38.13 123.63Z" fill="#2F2D4F" fill-opacity="1.000000" fill-rule="nonzero"/>
		<path d="M38.13 123.03L39.4 123.85L39.69 123.63L38.43 122.88L38.13 123.03Z" fill="#2F2D4F" fill-opacity="1.000000" fill-rule="nonzero"/>
		<path d="M38.13 126.53L38.43 126.75L39.77 125.93L39.47 125.78L38.13 126.53Z" fill="#2F2D4F" fill-opacity="1.000000" fill-rule="nonzero"/>
		<path d="M38.13 125.93L39.47 126.75L39.77 126.53L38.43 125.78L38.13 125.93Z" fill="#2F2D4F" fill-opacity="1.000000" fill-rule="nonzero"/>
	</g>
</svg>
